%TF.GenerationSoftware,KiCad,Pcbnew,7.0.9*%
%TF.CreationDate,2023-12-08T00:16:34+01:00*%
%TF.ProjectId,SMPS_V1,534d5053-5f56-4312-9e6b-696361645f70,rev?*%
%TF.SameCoordinates,Original*%
%TF.FileFunction,Paste,Top*%
%TF.FilePolarity,Positive*%
%FSLAX46Y46*%
G04 Gerber Fmt 4.6, Leading zero omitted, Abs format (unit mm)*
G04 Created by KiCad (PCBNEW 7.0.9) date 2023-12-08 00:16:34*
%MOMM*%
%LPD*%
G01*
G04 APERTURE LIST*
G04 Aperture macros list*
%AMRoundRect*
0 Rectangle with rounded corners*
0 $1 Rounding radius*
0 $2 $3 $4 $5 $6 $7 $8 $9 X,Y pos of 4 corners*
0 Add a 4 corners polygon primitive as box body*
4,1,4,$2,$3,$4,$5,$6,$7,$8,$9,$2,$3,0*
0 Add four circle primitives for the rounded corners*
1,1,$1+$1,$2,$3*
1,1,$1+$1,$4,$5*
1,1,$1+$1,$6,$7*
1,1,$1+$1,$8,$9*
0 Add four rect primitives between the rounded corners*
20,1,$1+$1,$2,$3,$4,$5,0*
20,1,$1+$1,$4,$5,$6,$7,0*
20,1,$1+$1,$6,$7,$8,$9,0*
20,1,$1+$1,$8,$9,$2,$3,0*%
G04 Aperture macros list end*
%ADD10R,1.700000X2.090000*%
%ADD11RoundRect,0.200000X0.200000X0.275000X-0.200000X0.275000X-0.200000X-0.275000X0.200000X-0.275000X0*%
%ADD12RoundRect,0.200000X-0.275000X0.200000X-0.275000X-0.200000X0.275000X-0.200000X0.275000X0.200000X0*%
%ADD13RoundRect,0.200000X0.275000X-0.200000X0.275000X0.200000X-0.275000X0.200000X-0.275000X-0.200000X0*%
%ADD14RoundRect,0.150000X-0.587500X-0.150000X0.587500X-0.150000X0.587500X0.150000X-0.587500X0.150000X0*%
%ADD15RoundRect,0.150000X0.587500X0.150000X-0.587500X0.150000X-0.587500X-0.150000X0.587500X-0.150000X0*%
%ADD16RoundRect,0.200000X-0.200000X-0.275000X0.200000X-0.275000X0.200000X0.275000X-0.200000X0.275000X0*%
%ADD17RoundRect,0.225000X-0.250000X0.225000X-0.250000X-0.225000X0.250000X-0.225000X0.250000X0.225000X0*%
%ADD18RoundRect,0.225000X0.250000X-0.225000X0.250000X0.225000X-0.250000X0.225000X-0.250000X-0.225000X0*%
%ADD19R,2.290000X5.080000*%
%ADD20R,2.420000X5.080000*%
%ADD21RoundRect,0.250000X-0.625000X0.400000X-0.625000X-0.400000X0.625000X-0.400000X0.625000X0.400000X0*%
%ADD22RoundRect,0.075000X0.700000X0.075000X-0.700000X0.075000X-0.700000X-0.075000X0.700000X-0.075000X0*%
%ADD23RoundRect,0.075000X0.075000X0.700000X-0.075000X0.700000X-0.075000X-0.700000X0.075000X-0.700000X0*%
%ADD24RoundRect,0.243750X-0.243750X-0.456250X0.243750X-0.456250X0.243750X0.456250X-0.243750X0.456250X0*%
%ADD25RoundRect,0.243750X0.243750X0.456250X-0.243750X0.456250X-0.243750X-0.456250X0.243750X-0.456250X0*%
%ADD26RoundRect,0.225000X-0.225000X-0.250000X0.225000X-0.250000X0.225000X0.250000X-0.225000X0.250000X0*%
%ADD27RoundRect,0.250000X0.400000X0.625000X-0.400000X0.625000X-0.400000X-0.625000X0.400000X-0.625000X0*%
%ADD28RoundRect,0.243750X-0.456250X0.243750X-0.456250X-0.243750X0.456250X-0.243750X0.456250X0.243750X0*%
%ADD29RoundRect,0.150000X-0.150000X0.587500X-0.150000X-0.587500X0.150000X-0.587500X0.150000X0.587500X0*%
%ADD30RoundRect,0.250000X-0.650000X0.325000X-0.650000X-0.325000X0.650000X-0.325000X0.650000X0.325000X0*%
%ADD31RoundRect,0.150000X-0.825000X-0.150000X0.825000X-0.150000X0.825000X0.150000X-0.825000X0.150000X0*%
%ADD32RoundRect,0.225000X0.225000X0.250000X-0.225000X0.250000X-0.225000X-0.250000X0.225000X-0.250000X0*%
%ADD33R,1.200000X2.200000*%
%ADD34R,3.500000X2.200000*%
%ADD35R,2.200000X1.200000*%
%ADD36R,2.200000X3.500000*%
%ADD37RoundRect,0.250000X0.325000X0.650000X-0.325000X0.650000X-0.325000X-0.650000X0.325000X-0.650000X0*%
%ADD38R,0.660000X1.100000*%
%ADD39RoundRect,0.150000X0.150000X-0.587500X0.150000X0.587500X-0.150000X0.587500X-0.150000X-0.587500X0*%
G04 APERTURE END LIST*
D10*
%TO.C,D1*%
X159269400Y-71417400D03*
X159269400Y-67157400D03*
%TD*%
D11*
%TO.C,R27*%
X75307400Y-99847400D03*
X76957400Y-99847400D03*
%TD*%
D12*
%TO.C,R48*%
X74583000Y-126810000D03*
X74583000Y-128460000D03*
%TD*%
D13*
%TO.C,R54*%
X100033800Y-43243000D03*
X100033800Y-41593000D03*
%TD*%
D12*
%TO.C,R53*%
X100033800Y-45022000D03*
X100033800Y-46672000D03*
%TD*%
D13*
%TO.C,R52*%
X73541600Y-74281800D03*
X73541600Y-72631800D03*
%TD*%
D12*
%TO.C,R51*%
X73558400Y-75629000D03*
X73558400Y-77279000D03*
%TD*%
D13*
%TO.C,R50*%
X99618800Y-94246200D03*
X99618800Y-92596200D03*
%TD*%
D12*
%TO.C,R49*%
X99618800Y-95136200D03*
X99618800Y-96786200D03*
%TD*%
D13*
%TO.C,R47*%
X74566200Y-123105000D03*
X74566200Y-124755000D03*
%TD*%
D14*
%TO.C,D9*%
X93810800Y-73726000D03*
X95842800Y-74676000D03*
X93810800Y-75692000D03*
%TD*%
D15*
%TO.C,D8*%
X80475800Y-45171400D03*
X78443800Y-44221400D03*
X80475800Y-43205400D03*
%TD*%
D14*
%TO.C,D7*%
X93226600Y-124703800D03*
X95258600Y-125653800D03*
X93226600Y-126669800D03*
%TD*%
D15*
%TO.C,D6*%
X80490400Y-94185800D03*
X78458400Y-95201800D03*
X80490400Y-96151800D03*
%TD*%
D16*
%TO.C,R46*%
X81174800Y-75412600D03*
X82824800Y-75412600D03*
%TD*%
D11*
%TO.C,R45*%
X93162600Y-43281600D03*
X91512600Y-43281600D03*
%TD*%
%TO.C,R44*%
X92807000Y-94310200D03*
X91157000Y-94310200D03*
%TD*%
D16*
%TO.C,R43*%
X81301800Y-126619000D03*
X82951800Y-126619000D03*
%TD*%
D11*
%TO.C,R42*%
X99499400Y-71805800D03*
X97849400Y-71805800D03*
%TD*%
D16*
%TO.C,R41*%
X97837200Y-73787000D03*
X99487200Y-73787000D03*
%TD*%
%TO.C,R40*%
X96948200Y-70104000D03*
X98598200Y-70104000D03*
%TD*%
%TO.C,R39*%
X97926600Y-75768200D03*
X99576600Y-75768200D03*
%TD*%
%TO.C,R38*%
X74990400Y-46837600D03*
X76640400Y-46837600D03*
%TD*%
D11*
%TO.C,R37*%
X76640400Y-45085000D03*
X74990400Y-45085000D03*
%TD*%
%TO.C,R36*%
X77325200Y-48818800D03*
X75675200Y-48818800D03*
%TD*%
%TO.C,R35*%
X76615000Y-43180000D03*
X74965000Y-43180000D03*
%TD*%
%TO.C,R34*%
X98636800Y-123291600D03*
X96986800Y-123291600D03*
%TD*%
D16*
%TO.C,R33*%
X96986800Y-124891800D03*
X98636800Y-124891800D03*
%TD*%
%TO.C,R32*%
X95894600Y-121412000D03*
X97544600Y-121412000D03*
%TD*%
%TO.C,R31*%
X97024400Y-126669800D03*
X98674400Y-126669800D03*
%TD*%
%TO.C,R30*%
X76411800Y-97993200D03*
X74761800Y-97993200D03*
%TD*%
D11*
%TO.C,R29*%
X74774000Y-96113600D03*
X76424000Y-96113600D03*
%TD*%
%TO.C,R28*%
X74831800Y-94183800D03*
X76481800Y-94183800D03*
%TD*%
D17*
%TO.C,C23*%
X101329200Y-73951800D03*
X101329200Y-75501800D03*
%TD*%
%TO.C,C22*%
X91550200Y-73037400D03*
X91550200Y-74587400D03*
%TD*%
D18*
%TO.C,C21*%
X73287600Y-45085600D03*
X73287600Y-43535600D03*
%TD*%
%TO.C,C20*%
X82838000Y-44272200D03*
X82838000Y-45822200D03*
%TD*%
D17*
%TO.C,C19*%
X100287800Y-125082000D03*
X100287800Y-126632000D03*
%TD*%
%TO.C,C18*%
X91143800Y-124091400D03*
X91143800Y-125641400D03*
%TD*%
D18*
%TO.C,C17*%
X73160600Y-94131800D03*
X73160600Y-95681800D03*
%TD*%
%TO.C,C16*%
X82965000Y-94856000D03*
X82965000Y-96406000D03*
%TD*%
D19*
%TO.C,J32*%
X87250000Y-131930000D03*
D20*
X82870000Y-131930000D03*
X91630000Y-131930000D03*
%TD*%
D19*
%TO.C,J31*%
X87297000Y-89060000D03*
D20*
X91677000Y-89060000D03*
X82917000Y-89060000D03*
%TD*%
D19*
%TO.C,J30*%
X87297000Y-80920000D03*
D20*
X82917000Y-80920000D03*
X91677000Y-80920000D03*
%TD*%
D19*
%TO.C,J29*%
X87250000Y-38070000D03*
D20*
X91630000Y-38070000D03*
X82870000Y-38070000D03*
%TD*%
D21*
%TO.C,R5*%
X198000000Y-56450000D03*
X198000000Y-59550000D03*
%TD*%
D22*
%TO.C,U3*%
X127922000Y-102743000D03*
X127922000Y-102243000D03*
X127922000Y-101743000D03*
X127922000Y-101243000D03*
X127922000Y-100743000D03*
X127922000Y-100243000D03*
X127922000Y-99743000D03*
X127922000Y-99243000D03*
X127922000Y-98743000D03*
X127922000Y-98243000D03*
X127922000Y-97743000D03*
X127922000Y-97243000D03*
X127922000Y-96743000D03*
X127922000Y-96243000D03*
X127922000Y-95743000D03*
X127922000Y-95243000D03*
D23*
X125997000Y-93318000D03*
X125497000Y-93318000D03*
X124997000Y-93318000D03*
X124497000Y-93318000D03*
X123997000Y-93318000D03*
X123497000Y-93318000D03*
X122997000Y-93318000D03*
X122497000Y-93318000D03*
X121997000Y-93318000D03*
X121497000Y-93318000D03*
X120997000Y-93318000D03*
X120497000Y-93318000D03*
X119997000Y-93318000D03*
X119497000Y-93318000D03*
X118997000Y-93318000D03*
X118497000Y-93318000D03*
D22*
X116572000Y-95243000D03*
X116572000Y-95743000D03*
X116572000Y-96243000D03*
X116572000Y-96743000D03*
X116572000Y-97243000D03*
X116572000Y-97743000D03*
X116572000Y-98243000D03*
X116572000Y-98743000D03*
X116572000Y-99243000D03*
X116572000Y-99743000D03*
X116572000Y-100243000D03*
X116572000Y-100743000D03*
X116572000Y-101243000D03*
X116572000Y-101743000D03*
X116572000Y-102243000D03*
X116572000Y-102743000D03*
D23*
X118497000Y-104668000D03*
X118997000Y-104668000D03*
X119497000Y-104668000D03*
X119997000Y-104668000D03*
X120497000Y-104668000D03*
X120997000Y-104668000D03*
X121497000Y-104668000D03*
X121997000Y-104668000D03*
X122497000Y-104668000D03*
X122997000Y-104668000D03*
X123497000Y-104668000D03*
X123997000Y-104668000D03*
X124497000Y-104668000D03*
X124997000Y-104668000D03*
X125497000Y-104668000D03*
X125997000Y-104668000D03*
%TD*%
D24*
%TO.C,D4*%
X146380100Y-59965600D03*
X148255100Y-59965600D03*
%TD*%
D18*
%TO.C,C6*%
X127494000Y-106854000D03*
X127494000Y-105304000D03*
%TD*%
D11*
%TO.C,R20*%
X257769000Y-101266000D03*
X256119000Y-101266000D03*
%TD*%
D25*
%TO.C,D5*%
X137027500Y-77360000D03*
X135152500Y-77360000D03*
%TD*%
D26*
%TO.C,C4*%
X125195000Y-57832000D03*
X126745000Y-57832000D03*
%TD*%
D11*
%TO.C,R4*%
X137209000Y-70291000D03*
X135559000Y-70291000D03*
%TD*%
D27*
%TO.C,R9*%
X195050000Y-61500000D03*
X191950000Y-61500000D03*
%TD*%
D28*
%TO.C,C1*%
X107174000Y-70623500D03*
X107174000Y-72498500D03*
%TD*%
D29*
%TO.C,Q6*%
X256690000Y-104979000D03*
X254790000Y-104979000D03*
X255740000Y-106854000D03*
%TD*%
D30*
%TO.C,C9*%
X158990000Y-89680000D03*
X158990000Y-92630000D03*
%TD*%
D16*
%TO.C,R10*%
X190175000Y-69000000D03*
X191825000Y-69000000D03*
%TD*%
D30*
%TO.C,C10*%
X159244000Y-83330000D03*
X159244000Y-86280000D03*
%TD*%
D11*
%TO.C,R3*%
X127303000Y-70291000D03*
X125653000Y-70291000D03*
%TD*%
D27*
%TO.C,R17*%
X259790000Y-86026000D03*
X256690000Y-86026000D03*
%TD*%
D11*
%TO.C,R24*%
X147876400Y-56866800D03*
X146226400Y-56866800D03*
%TD*%
D16*
%TO.C,R11*%
X190650000Y-93900000D03*
X192300000Y-93900000D03*
%TD*%
D12*
%TO.C,R6*%
X188500000Y-51675000D03*
X188500000Y-53325000D03*
%TD*%
D16*
%TO.C,R25*%
X118235600Y-57730400D03*
X119885600Y-57730400D03*
%TD*%
D11*
%TO.C,R22*%
X261388000Y-109140000D03*
X259738000Y-109140000D03*
%TD*%
D29*
%TO.C,Q5*%
X256370000Y-95424000D03*
X254470000Y-95424000D03*
X255420000Y-97299000D03*
%TD*%
D21*
%TO.C,R18*%
X255420000Y-89048000D03*
X255420000Y-92148000D03*
%TD*%
D24*
%TO.C,D3*%
X118163000Y-60981600D03*
X120038000Y-60981600D03*
%TD*%
D31*
%TO.C,U4*%
X150230000Y-83740000D03*
X150230000Y-85010000D03*
X150230000Y-86280000D03*
X150230000Y-87550000D03*
X150230000Y-88820000D03*
X150230000Y-90090000D03*
X150230000Y-91360000D03*
X150230000Y-92630000D03*
X155180000Y-92630000D03*
X155180000Y-91360000D03*
X155180000Y-90090000D03*
X155180000Y-88820000D03*
X155180000Y-87550000D03*
X155180000Y-86280000D03*
X155180000Y-85010000D03*
X155180000Y-83740000D03*
%TD*%
D32*
%TO.C,C5*%
X131825000Y-90357000D03*
X130275000Y-90357000D03*
%TD*%
D14*
%TO.C,Q1*%
X186125000Y-59050000D03*
X186125000Y-60950000D03*
X188000000Y-60000000D03*
%TD*%
D11*
%TO.C,R1*%
X132320000Y-70291000D03*
X130670000Y-70291000D03*
%TD*%
D13*
%TO.C,R12*%
X195984000Y-73389000D03*
X195984000Y-71739000D03*
%TD*%
D17*
%TO.C,C11*%
X159752000Y-100999000D03*
X159752000Y-102549000D03*
%TD*%
D16*
%TO.C,R21*%
X260500000Y-102790000D03*
X262150000Y-102790000D03*
%TD*%
D13*
%TO.C,R26*%
X132700000Y-79425000D03*
X132700000Y-77775000D03*
%TD*%
%TO.C,R7*%
X188500000Y-49650000D03*
X188500000Y-48000000D03*
%TD*%
D26*
%TO.C,C8*%
X151090000Y-106274000D03*
X152640000Y-106274000D03*
%TD*%
D33*
%TO.C,U2*%
X110462000Y-74407000D03*
D34*
X112762000Y-68207000D03*
D33*
X112762000Y-74407000D03*
X114962000Y-74407000D03*
%TD*%
D35*
%TO.C,U5*%
X155942000Y-103988000D03*
D36*
X149742000Y-101688000D03*
D35*
X155942000Y-101688000D03*
X155942000Y-99488000D03*
%TD*%
D11*
%TO.C,R2*%
X121969000Y-70291000D03*
X120319000Y-70291000D03*
%TD*%
D37*
%TO.C,C7*%
X155844000Y-59356000D03*
X152894000Y-59356000D03*
%TD*%
D32*
%TO.C,C3*%
X130301000Y-57832000D03*
X128751000Y-57832000D03*
%TD*%
D38*
%TO.C,U1*%
X127052000Y-62421000D03*
X128002000Y-62421000D03*
X128952000Y-62421000D03*
X128952000Y-59821000D03*
X127052000Y-59821000D03*
%TD*%
D13*
%TO.C,R14*%
X195730000Y-99805000D03*
X195730000Y-98155000D03*
%TD*%
D18*
%TO.C,C2*%
X131558000Y-65211000D03*
X131558000Y-63661000D03*
%TD*%
D39*
%TO.C,Q2*%
X190100000Y-57500000D03*
X192000000Y-57500000D03*
X191050000Y-55625000D03*
%TD*%
D12*
%TO.C,R8*%
X191000000Y-51675000D03*
X191000000Y-53325000D03*
%TD*%
M02*
