%TF.GenerationSoftware,KiCad,Pcbnew,7.0.9*%
%TF.CreationDate,2023-12-08T00:16:34+01:00*%
%TF.ProjectId,SMPS_V1,534d5053-5f56-4312-9e6b-696361645f70,rev?*%
%TF.SameCoordinates,Original*%
%TF.FileFunction,Copper,L2,Bot*%
%TF.FilePolarity,Positive*%
%FSLAX46Y46*%
G04 Gerber Fmt 4.6, Leading zero omitted, Abs format (unit mm)*
G04 Created by KiCad (PCBNEW 7.0.9) date 2023-12-08 00:16:34*
%MOMM*%
%LPD*%
G01*
G04 APERTURE LIST*
G04 Aperture macros list*
%AMRoundRect*
0 Rectangle with rounded corners*
0 $1 Rounding radius*
0 $2 $3 $4 $5 $6 $7 $8 $9 X,Y pos of 4 corners*
0 Add a 4 corners polygon primitive as box body*
4,1,4,$2,$3,$4,$5,$6,$7,$8,$9,$2,$3,0*
0 Add four circle primitives for the rounded corners*
1,1,$1+$1,$2,$3*
1,1,$1+$1,$4,$5*
1,1,$1+$1,$6,$7*
1,1,$1+$1,$8,$9*
0 Add four rect primitives between the rounded corners*
20,1,$1+$1,$2,$3,$4,$5,0*
20,1,$1+$1,$4,$5,$6,$7,0*
20,1,$1+$1,$6,$7,$8,$9,0*
20,1,$1+$1,$8,$9,$2,$3,0*%
G04 Aperture macros list end*
%TA.AperFunction,ComponentPad*%
%ADD10R,1.700000X1.700000*%
%TD*%
%TA.AperFunction,ComponentPad*%
%ADD11O,1.700000X1.700000*%
%TD*%
%TA.AperFunction,ComponentPad*%
%ADD12R,4.500000X2.500000*%
%TD*%
%TA.AperFunction,ComponentPad*%
%ADD13O,4.500000X2.500000*%
%TD*%
%TA.AperFunction,SMDPad,CuDef*%
%ADD14R,0.460000X0.950000*%
%TD*%
%TA.AperFunction,SMDPad,CuDef*%
%ADD15R,2.420000X5.080000*%
%TD*%
%TA.AperFunction,ComponentPad*%
%ADD16C,0.970000*%
%TD*%
%TA.AperFunction,ComponentPad*%
%ADD17C,2.400000*%
%TD*%
%TA.AperFunction,ComponentPad*%
%ADD18C,1.524000*%
%TD*%
%TA.AperFunction,ComponentPad*%
%ADD19O,2.400000X2.400000*%
%TD*%
%TA.AperFunction,ComponentPad*%
%ADD20R,2.500000X2.500000*%
%TD*%
%TA.AperFunction,ComponentPad*%
%ADD21R,2.400000X2.400000*%
%TD*%
%TA.AperFunction,ComponentPad*%
%ADD22C,6.000000*%
%TD*%
%TA.AperFunction,ComponentPad*%
%ADD23C,2.800000*%
%TD*%
%TA.AperFunction,ComponentPad*%
%ADD24O,2.800000X2.800000*%
%TD*%
%TA.AperFunction,SMDPad,CuDef*%
%ADD25RoundRect,0.225000X-0.225000X-0.250000X0.225000X-0.250000X0.225000X0.250000X-0.225000X0.250000X0*%
%TD*%
%TA.AperFunction,SMDPad,CuDef*%
%ADD26R,1.400000X1.000000*%
%TD*%
%TA.AperFunction,SMDPad,CuDef*%
%ADD27RoundRect,0.200000X0.275000X-0.200000X0.275000X0.200000X-0.275000X0.200000X-0.275000X-0.200000X0*%
%TD*%
%TA.AperFunction,ViaPad*%
%ADD28C,0.800000*%
%TD*%
%TA.AperFunction,ViaPad*%
%ADD29C,1.200000*%
%TD*%
%TA.AperFunction,ViaPad*%
%ADD30C,1.000000*%
%TD*%
%TA.AperFunction,Conductor*%
%ADD31C,0.250000*%
%TD*%
%TA.AperFunction,Conductor*%
%ADD32C,3.000000*%
%TD*%
%TA.AperFunction,Conductor*%
%ADD33C,0.750000*%
%TD*%
%TA.AperFunction,Conductor*%
%ADD34C,0.400000*%
%TD*%
%TA.AperFunction,Conductor*%
%ADD35C,1.000000*%
%TD*%
G04 APERTURE END LIST*
D10*
%TO.P,J25,1,Pin_1*%
%TO.N,Net-(J18-Pin_1)*%
X163364200Y-92670800D03*
D11*
%TO.P,J25,2,Pin_2*%
%TO.N,Net-(J24-Pin_2)*%
X163364200Y-90130800D03*
%TO.P,J25,3,Pin_3*%
%TO.N,Net-(J17-Pin_1)*%
X163364200Y-87590800D03*
%TO.P,J25,4,Pin_4*%
%TO.N,Net-(J24-Pin_4)*%
X163364200Y-85050800D03*
%TD*%
D10*
%TO.P,J24,1,Pin_1*%
%TO.N,Net-(J18-Pin_1)*%
X184554000Y-92731600D03*
D11*
%TO.P,J24,2,Pin_2*%
%TO.N,Net-(J24-Pin_2)*%
X184554000Y-90191600D03*
%TO.P,J24,3,Pin_3*%
%TO.N,Net-(J17-Pin_1)*%
X184554000Y-87651600D03*
%TO.P,J24,4,Pin_4*%
%TO.N,Net-(J24-Pin_4)*%
X184554000Y-85111600D03*
%TD*%
D12*
%TO.P,Q4,1,G*%
%TO.N,Net-(Q4-G)*%
X202080000Y-92630000D03*
D13*
%TO.P,Q4,2,D*%
%TO.N,Net-(Q4-D)*%
X202080000Y-98080000D03*
%TO.P,Q4,3,S*%
%TO.N,Net-(J18-Pin_1)*%
X202080000Y-103530000D03*
%TD*%
D12*
%TO.P,Q3,1,G*%
%TO.N,Net-(Q3-G)*%
X202080000Y-66490000D03*
D13*
%TO.P,Q3,2,D*%
%TO.N,V400_IN*%
X202080000Y-71940000D03*
%TO.P,Q3,3,S*%
%TO.N,Net-(J17-Pin_1)*%
X202080000Y-77390000D03*
%TD*%
D10*
%TO.P,J12,1,Pin_1*%
%TO.N,Net-(J12-Pin_1)*%
X152900000Y-79900000D03*
D11*
%TO.P,J12,2,Pin_2*%
%TO.N,Net-(J12-Pin_2)*%
X150360000Y-79900000D03*
%TO.P,J12,3,Pin_3*%
%TO.N,Net-(J12-Pin_3)*%
X147820000Y-79900000D03*
%TO.P,J12,4,Pin_4*%
%TO.N,Net-(J12-Pin_4)*%
X145280000Y-79900000D03*
%TD*%
D14*
%TO.P,J32,2,Ext*%
%TO.N,/GND_S*%
X91630000Y-128940000D03*
D15*
X91630000Y-131930000D03*
D16*
X91630000Y-128490000D03*
D15*
X82870000Y-131930000D03*
D14*
X82870000Y-128940000D03*
D16*
X82870000Y-128490000D03*
%TD*%
D14*
%TO.P,J31,2,Ext*%
%TO.N,/GND_S*%
X82917000Y-92050000D03*
D15*
X82917000Y-89060000D03*
D16*
X82917000Y-92500000D03*
D15*
X91677000Y-89060000D03*
D14*
X91677000Y-92050000D03*
D16*
X91677000Y-92500000D03*
%TD*%
D14*
%TO.P,J30,2,Ext*%
%TO.N,/GND_S*%
X91677000Y-77930000D03*
D15*
X91677000Y-80920000D03*
D16*
X91677000Y-77480000D03*
D15*
X82917000Y-80920000D03*
D14*
X82917000Y-77930000D03*
D16*
X82917000Y-77480000D03*
%TD*%
D14*
%TO.P,J29,2,Ext*%
%TO.N,/GND_S*%
X82870000Y-41060000D03*
D15*
X82870000Y-38070000D03*
D16*
X82870000Y-41510000D03*
D15*
X91630000Y-38070000D03*
D14*
X91630000Y-41060000D03*
D16*
X91630000Y-41510000D03*
%TD*%
D10*
%TO.P,J18,1,Pin_1*%
%TO.N,Net-(J18-Pin_1)*%
X202334000Y-111934000D03*
%TD*%
D17*
%TO.P,R15,1,1*%
%TO.N,GND_P*%
X195758500Y-126920000D03*
D18*
%TO.P,R15,2,2*%
%TO.N,Net-(J19-Pin_1)*%
X190678500Y-124380000D03*
%TO.P,R15,3,3*%
%TO.N,Net-(J19-Pin_2)*%
X190678500Y-114220000D03*
D19*
%TO.P,R15,4,4*%
%TO.N,Net-(J18-Pin_1)*%
X195758500Y-111680000D03*
%TD*%
D10*
%TO.P,J26,1,Pin_1*%
%TO.N,GND_D*%
X121511200Y-50923200D03*
D11*
%TO.P,J26,2,Pin_2*%
%TO.N,VCC5_IN*%
X121511200Y-53463200D03*
%TD*%
D20*
%TO.P,C13,2*%
%TO.N,Out_G*%
X261800000Y-51990000D03*
%TO.P,C13,1*%
%TO.N,Out*%
X261800000Y-79990000D03*
%TD*%
D10*
%TO.P,J5,1,Pin_1*%
%TO.N,GND_A*%
X116250000Y-91770000D03*
D11*
%TO.P,J5,2,Pin_2*%
X116250000Y-89230000D03*
%TD*%
D10*
%TO.P,J19,1,Pin_1*%
%TO.N,Net-(J19-Pin_1)*%
X190650000Y-120316000D03*
D11*
%TO.P,J19,2,Pin_2*%
%TO.N,Net-(J19-Pin_2)*%
X190650000Y-117776000D03*
%TD*%
D10*
%TO.P,J4,1,Pin_1*%
%TO.N,Net-(J4-Pin_1)*%
X119874000Y-74101000D03*
D11*
%TO.P,J4,2,Pin_2*%
%TO.N,Net-(J4-Pin_2)*%
X122414000Y-74101000D03*
%TO.P,J4,3,Pin_3*%
%TO.N,Net-(J4-Pin_3)*%
X124954000Y-74101000D03*
%TO.P,J4,4,Pin_4*%
%TO.N,Net-(J4-Pin_4)*%
X127494000Y-74101000D03*
%TO.P,J4,5,Pin_5*%
%TO.N,Net-(J4-Pin_5)*%
X130034000Y-74101000D03*
%TO.P,J4,6,Pin_6*%
%TO.N,Net-(J4-Pin_6)*%
X132574000Y-74101000D03*
%TO.P,J4,7,Pin_7*%
%TO.N,Net-(J4-Pin_7)*%
X135114000Y-74101000D03*
%TO.P,J4,8,Pin_8*%
%TO.N,Net-(J4-Pin_8)*%
X137654000Y-74101000D03*
%TD*%
D21*
%TO.P,J16,1,1*%
%TO.N,GND_P*%
X202080000Y-49450000D03*
D17*
%TO.P,J16,2,2*%
%TO.N,V400_IN*%
X197000000Y-49450000D03*
%TD*%
D10*
%TO.P,J1,1,Pin_1*%
%TO.N,/PB10*%
X107682000Y-77911000D03*
D11*
%TO.P,J1,2,Pin_2*%
%TO.N,GND_D*%
X107682000Y-80451000D03*
%TO.P,J1,3,Pin_3*%
X107682000Y-82991000D03*
%TD*%
D10*
%TO.P,J2,1,Pin_1*%
%TO.N,/PB11*%
X107682000Y-88579000D03*
D11*
%TO.P,J2,2,Pin_2*%
%TO.N,/PB12*%
X110222000Y-88579000D03*
%TO.P,J2,3,Pin_3*%
%TO.N,/PB13*%
X107682000Y-91119000D03*
%TO.P,J2,4,Pin_4*%
%TO.N,/PB14*%
X110222000Y-91119000D03*
%TO.P,J2,5,Pin_5*%
%TO.N,/PB15*%
X107682000Y-93659000D03*
%TO.P,J2,6,Pin_6*%
%TO.N,/PC6*%
X110222000Y-93659000D03*
%TO.P,J2,7,Pin_7*%
%TO.N,/PC7*%
X107682000Y-96199000D03*
%TO.P,J2,8,Pin_8*%
%TO.N,/PC8*%
X110222000Y-96199000D03*
%TO.P,J2,9,Pin_9*%
%TO.N,/PC9*%
X107682000Y-98739000D03*
%TO.P,J2,10,Pin_10*%
%TO.N,/PA8*%
X110222000Y-98739000D03*
%TO.P,J2,11,Pin_11*%
%TO.N,/PA9*%
X107682000Y-101279000D03*
%TO.P,J2,12,Pin_12*%
%TO.N,/PA10*%
X110222000Y-101279000D03*
%TO.P,J2,13,Pin_13*%
%TO.N,/PA11*%
X107682000Y-103819000D03*
%TO.P,J2,14,Pin_14*%
%TO.N,/PA12*%
X110222000Y-103819000D03*
%TO.P,J2,15,Pin_15*%
%TO.N,GND_D*%
X107682000Y-106359000D03*
%TO.P,J2,16,Pin_16*%
X110222000Y-106359000D03*
%TD*%
D22*
%TO.P,L1,1,1*%
%TO.N,Net-(L1-Pad1)*%
X223118000Y-85772000D03*
%TO.P,L1,2,2*%
%TO.N,Out*%
X243018000Y-85772000D03*
%TD*%
D10*
%TO.P,J14,1,Pin_1*%
%TO.N,Net-(D1-K)*%
X159320200Y-77542400D03*
%TD*%
%TO.P,J8,1,Pin_1*%
%TO.N,VCC3_D*%
X120382000Y-120570000D03*
D11*
%TO.P,J8,2,Pin_2*%
%TO.N,SWCLK*%
X122922000Y-120570000D03*
%TO.P,J8,3,Pin_3*%
%TO.N,GND_D*%
X125462000Y-120570000D03*
%TO.P,J8,4,Pin_4*%
%TO.N,SWDIO*%
X128002000Y-120570000D03*
%TO.P,J8,5,Pin_5*%
%TO.N,NRST*%
X130542000Y-120570000D03*
%TO.P,J8,6,Pin_6*%
%TO.N,SWO*%
X133082000Y-120570000D03*
%TD*%
D10*
%TO.P,J10,1,Pin_1*%
%TO.N,GND_D*%
X107800000Y-125130000D03*
D11*
%TO.P,J10,2,Pin_2*%
%TO.N,/PC8*%
X107800000Y-122590000D03*
%TO.P,J10,3,Pin_3*%
%TO.N,/PC9*%
X107800000Y-120050000D03*
%TO.P,J10,4,Pin_4*%
%TO.N,VCC3_D*%
X107800000Y-117510000D03*
%TO.P,J10,5,Pin_5*%
%TO.N,VCC5_D*%
X107800000Y-114970000D03*
%TD*%
D17*
%TO.P,R16,1,1*%
%TO.N,Net-(Q4-D)*%
X220368000Y-123872000D03*
D18*
%TO.P,R16,2,2*%
%TO.N,Net-(J20-Pin_2)*%
X222908000Y-118792000D03*
%TO.P,R16,3,3*%
%TO.N,Net-(J20-Pin_1)*%
X233068000Y-118792000D03*
D19*
%TO.P,R16,4,4*%
%TO.N,Net-(L1-Pad1)*%
X235608000Y-123872000D03*
%TD*%
D10*
%TO.P,J13,1,Pin_1*%
%TO.N,Net-(J13-Pin_1)*%
X139178000Y-107121000D03*
D11*
%TO.P,J13,2,Pin_2*%
%TO.N,/PC13*%
X136638000Y-107121000D03*
%TO.P,J13,3,Pin_3*%
%TO.N,/PC14*%
X139178000Y-104581000D03*
%TO.P,J13,4,Pin_4*%
%TO.N,/PC15*%
X136638000Y-104581000D03*
%TO.P,J13,5,Pin_5*%
%TO.N,/PF0*%
X139178000Y-102041000D03*
%TO.P,J13,6,Pin_6*%
%TO.N,/PF1*%
X136638000Y-102041000D03*
%TO.P,J13,7,Pin_7*%
%TO.N,NRST*%
X139178000Y-99501000D03*
%TO.P,J13,8,Pin_8*%
%TO.N,/PC0*%
X136638000Y-99501000D03*
%TO.P,J13,9,Pin_9*%
%TO.N,/PC1*%
X139178000Y-96961000D03*
%TO.P,J13,10,Pin_10*%
%TO.N,/PC2*%
X136638000Y-96961000D03*
%TO.P,J13,11,Pin_11*%
%TO.N,/PC3*%
X139178000Y-94421000D03*
%TO.P,J13,12,Pin_12*%
%TO.N,/PA0*%
X136638000Y-94421000D03*
%TO.P,J13,13,Pin_13*%
%TO.N,/PA1*%
X139178000Y-91881000D03*
%TO.P,J13,14,Pin_14*%
%TO.N,STLINK_RX*%
X136638000Y-91881000D03*
%TO.P,J13,15,Pin_15*%
%TO.N,GND_D*%
X139178000Y-89341000D03*
%TO.P,J13,16,Pin_16*%
X136638000Y-89341000D03*
%TD*%
D21*
%TO.P,J11,1,1*%
%TO.N,GND_D*%
X143750000Y-49912500D03*
D17*
%TO.P,J11,2,2*%
%TO.N,VCC12_IN*%
X138670000Y-49912500D03*
%TD*%
D10*
%TO.P,J28,1,Pin_1*%
%TO.N,Net-(J28-Pin_1)*%
X137986792Y-80331208D03*
%TD*%
%TO.P,J22,1,Pin_1*%
%TO.N,Out_G*%
X265326000Y-104314000D03*
D11*
%TO.P,J22,2,Pin_2*%
%TO.N,Net-(J22-Pin_2)*%
X265326000Y-106854000D03*
%TO.P,J22,3,Pin_3*%
%TO.N,Net-(J22-Pin_3)*%
X265326000Y-109394000D03*
%TO.P,J22,4,Pin_4*%
%TO.N,Net-(J22-Pin_4)*%
X265326000Y-111934000D03*
%TD*%
D10*
%TO.P,J9,1,Pin_1*%
%TO.N,STLINK_TX*%
X130796000Y-125142000D03*
D11*
%TO.P,J9,2,Pin_2*%
%TO.N,STLINK_RX*%
X133336000Y-125142000D03*
%TD*%
D10*
%TO.P,J6,1,Pin_1*%
%TO.N,STLINK_TX*%
X132066000Y-82229000D03*
D11*
%TO.P,J6,2,Pin_2*%
%TO.N,/PA4*%
X132066000Y-84769000D03*
%TO.P,J6,3,Pin_3*%
%TO.N,/PA5*%
X129526000Y-82229000D03*
%TO.P,J6,4,Pin_4*%
%TO.N,/PA6*%
X129526000Y-84769000D03*
%TO.P,J6,5,Pin_5*%
%TO.N,/PA7*%
X126986000Y-82229000D03*
%TO.P,J6,6,Pin_6*%
%TO.N,/PC4*%
X126986000Y-84769000D03*
%TO.P,J6,7,Pin_7*%
%TO.N,/PC5*%
X124446000Y-82229000D03*
%TO.P,J6,8,Pin_8*%
%TO.N,/PB0*%
X124446000Y-84769000D03*
%TO.P,J6,9,Pin_9*%
%TO.N,/PB1*%
X121906000Y-82229000D03*
%TO.P,J6,10,Pin_10*%
%TO.N,/PB2*%
X121906000Y-84769000D03*
%TD*%
D21*
%TO.P,J3,1,1*%
%TO.N,GND_D*%
X115810000Y-49895000D03*
D17*
%TO.P,J3,2,2*%
%TO.N,VCC5_IN*%
X110730000Y-49895000D03*
%TD*%
D10*
%TO.P,J7,1,Pin_1*%
%TO.N,SWDIO*%
X114286000Y-113217000D03*
D11*
%TO.P,J7,2,Pin_2*%
%TO.N,SWCLK*%
X114286000Y-110677000D03*
%TO.P,J7,3,Pin_3*%
%TO.N,/PA15*%
X116826000Y-113217000D03*
%TO.P,J7,4,Pin_4*%
%TO.N,/PC10*%
X116826000Y-110677000D03*
%TO.P,J7,5,Pin_5*%
%TO.N,/PC11*%
X119366000Y-113217000D03*
%TO.P,J7,6,Pin_6*%
%TO.N,/PC12*%
X119366000Y-110677000D03*
%TO.P,J7,7,Pin_7*%
%TO.N,/PD2*%
X121906000Y-113217000D03*
%TO.P,J7,8,Pin_8*%
%TO.N,SWO*%
X121906000Y-110677000D03*
%TO.P,J7,9,Pin_9*%
%TO.N,/PB4*%
X124446000Y-113217000D03*
%TO.P,J7,10,Pin_10*%
%TO.N,/PB5*%
X124446000Y-110677000D03*
%TO.P,J7,11,Pin_11*%
%TO.N,/PB6*%
X126986000Y-113217000D03*
%TO.P,J7,12,Pin_12*%
%TO.N,/PB7*%
X126986000Y-110677000D03*
%TO.P,J7,13,Pin_13*%
%TO.N,/PB8*%
X129526000Y-113217000D03*
%TO.P,J7,14,Pin_14*%
%TO.N,/PB9*%
X129526000Y-110677000D03*
%TO.P,J7,15,Pin_15*%
%TO.N,GND_D*%
X132066000Y-113217000D03*
%TO.P,J7,16,Pin_16*%
X132066000Y-110677000D03*
%TD*%
D20*
%TO.P,C12,1*%
%TO.N,V400_IN*%
X220846000Y-54276000D03*
%TO.P,C12,2*%
%TO.N,GND_P*%
X248846000Y-54276000D03*
%TD*%
D10*
%TO.P,J27,1,Pin_1*%
%TO.N,GND_D*%
X149756000Y-50923200D03*
D11*
%TO.P,J27,2,Pin_2*%
%TO.N,VCC12_IN*%
X149756000Y-53463200D03*
%TD*%
%TO.P,J15,4,Pin_4*%
%TO.N,Net-(J15-Pin_4)*%
X185500000Y-54000000D03*
%TO.P,J15,3,Pin_3*%
%TO.N,Net-(J15-Pin_3)*%
X185500000Y-51460000D03*
%TO.P,J15,2,Pin_2*%
%TO.N,Net-(J15-Pin_2)*%
X185500000Y-48920000D03*
D10*
%TO.P,J15,1,Pin_1*%
%TO.N,GND_P*%
X185500000Y-46380000D03*
%TD*%
%TO.P,J17,1,Pin_1*%
%TO.N,Net-(J17-Pin_1)*%
X201826000Y-85010000D03*
%TD*%
D17*
%TO.P,J23,2,2*%
%TO.N,Out*%
X264264500Y-91106000D03*
D21*
%TO.P,J23,1,1*%
%TO.N,Out_G*%
X264264500Y-96186000D03*
%TD*%
D10*
%TO.P,J21,1,Pin_1*%
%TO.N,Net-(J21-Pin_1)*%
X251102000Y-116500000D03*
D11*
%TO.P,J21,2,Pin_2*%
%TO.N,Net-(J21-Pin_2)*%
X251102000Y-119040000D03*
%TD*%
D23*
%TO.P,R13,1*%
%TO.N,Net-(Q4-D)*%
X190650000Y-88820000D03*
D24*
%TO.P,R13,2*%
%TO.N,Net-(J17-Pin_1)*%
X190650000Y-73580000D03*
%TD*%
D17*
%TO.P,R19,1,1*%
%TO.N,Out_G*%
X246022000Y-109500000D03*
D18*
%TO.P,R19,2,2*%
%TO.N,Net-(J21-Pin_1)*%
X251102000Y-112040000D03*
%TO.P,R19,3,3*%
%TO.N,Net-(J21-Pin_2)*%
X251102000Y-122200000D03*
D19*
%TO.P,R19,4,4*%
%TO.N,GND_P*%
X246022000Y-124740000D03*
%TD*%
D10*
%TO.P,J20,1,Pin_1*%
%TO.N,Net-(J20-Pin_1)*%
X229004000Y-118538000D03*
D11*
%TO.P,J20,2,Pin_2*%
%TO.N,Net-(J20-Pin_2)*%
X226464000Y-118538000D03*
%TD*%
D25*
%TO.P,C14,1*%
%TO.N,GND_D*%
X119874000Y-101279000D03*
%TO.P,C14,2*%
%TO.N,VDD3_D*%
X121424000Y-101279000D03*
%TD*%
D26*
%TO.P,D2,1*%
%TO.N,VDD3_A*%
X125970000Y-92752000D03*
%TO.P,D2,2*%
X125970000Y-90852000D03*
%TO.P,D2,3*%
%TO.N,VDD3_D*%
X128170000Y-91802000D03*
%TD*%
D25*
%TO.P,C15,1*%
%TO.N,VDD3_A*%
X119861000Y-96694000D03*
%TO.P,C15,2*%
%TO.N,GND_A*%
X121411000Y-96694000D03*
%TD*%
D27*
%TO.P,R23,1*%
%TO.N,GND_D*%
X123938000Y-98281000D03*
%TO.P,R23,2*%
%TO.N,GND_A*%
X123938000Y-96631000D03*
%TD*%
D28*
%TO.N,/GND_S*%
X97000000Y-82000000D03*
X77250000Y-37750000D03*
X71750000Y-37750000D03*
X71750000Y-41750000D03*
X71750000Y-47000000D03*
X71750000Y-53250000D03*
X71750000Y-61500000D03*
X71750000Y-69500000D03*
X71750000Y-77500000D03*
X71750000Y-82250000D03*
X77000000Y-82269500D03*
X71500000Y-89500000D03*
X71500000Y-94250000D03*
X71500000Y-99000000D03*
X71500000Y-105250000D03*
X71500000Y-110500000D03*
X71500000Y-116250000D03*
X71500000Y-121250000D03*
X71500000Y-127250000D03*
X71500000Y-133250000D03*
X79750000Y-133279500D03*
X94250000Y-132750000D03*
X103750000Y-132750000D03*
X103750000Y-127250000D03*
X103750000Y-122250000D03*
X103750000Y-116000000D03*
X103750000Y-110750000D03*
X103750000Y-104750000D03*
X103750000Y-98000000D03*
X103750000Y-93250000D03*
X103750000Y-88000000D03*
X103750000Y-82000000D03*
X103750000Y-73000000D03*
X103750000Y-68000000D03*
X103750000Y-60500000D03*
X103750000Y-52500000D03*
X103750000Y-45500000D03*
X103500000Y-38000000D03*
%TO.N,Net-(J12-Pin_4)*%
X145600000Y-88900000D03*
D29*
%TO.N,VCC5_IN*%
X155434000Y-97964000D03*
X155390000Y-65140000D03*
D28*
%TO.N,GND_A*%
X121579099Y-95437000D03*
X116064000Y-84007000D03*
%TO.N,VCC5_D*%
X113524000Y-107108000D03*
X112762000Y-77136000D03*
%TO.N,VDD3_D*%
X122668000Y-101279000D03*
D30*
X130275000Y-92740000D03*
%TO.N,VCC12_IN*%
X161268400Y-59457600D03*
D28*
X161276000Y-89582000D03*
%TO.N,VCC3_D*%
X144766000Y-92884000D03*
X112201000Y-117497677D03*
X144512000Y-122601990D03*
X144645942Y-86306502D03*
X112254012Y-122094000D03*
%TO.N,VDD3_A*%
X120636000Y-88566000D03*
X117080000Y-84790000D03*
X120128000Y-95424000D03*
X125462000Y-61388000D03*
D29*
%TO.N,GND_D*%
X138990000Y-77288400D03*
D30*
X111351000Y-115998000D03*
D28*
X118107600Y-63115200D03*
D30*
X133590000Y-55292000D03*
X128002000Y-63928000D03*
X111238000Y-125396000D03*
D28*
X119112000Y-94662000D03*
D30*
X133336000Y-63420000D03*
D28*
X118350000Y-101533000D03*
X119174400Y-52142400D03*
X125208000Y-103298000D03*
X126224000Y-98472000D03*
D30*
X128256000Y-55292000D03*
D28*
%TO.N,SWDIO*%
X114280012Y-116506000D03*
X127640000Y-116740000D03*
%TO.N,STLINK_TX*%
X142480000Y-123364000D03*
X144163000Y-84359670D03*
%TO.N,STLINK_RX*%
X141210000Y-124888000D03*
X141429048Y-90615476D03*
%TO.N,NRST*%
X142480000Y-118420000D03*
X142590000Y-99501000D03*
%TO.N,/PC8*%
X110476000Y-122602000D03*
%TO.N,/PC9*%
X109714000Y-120062000D03*
%TD*%
D31*
%TO.N,/GND_S*%
X77000000Y-82250000D02*
X77000000Y-82269500D01*
X79750000Y-133000000D02*
X79750000Y-133279500D01*
%TO.N,Net-(J12-Pin_4)*%
X145600000Y-88900000D02*
X145600000Y-80220000D01*
X145600000Y-80220000D02*
X145280000Y-79900000D01*
D32*
%TO.N,Out*%
X257392000Y-79990000D02*
X261770000Y-79990000D01*
X243018000Y-83994000D02*
X246828000Y-80184000D01*
X257198000Y-80184000D02*
X257392000Y-79990000D01*
X264264500Y-91106000D02*
X264264500Y-82484500D01*
X246828000Y-80184000D02*
X257198000Y-80184000D01*
X243018000Y-85772000D02*
X243018000Y-83994000D01*
X264264500Y-82484500D02*
X261770000Y-79990000D01*
%TO.N,Out_G*%
X246022000Y-110156000D02*
X236116000Y-100250000D01*
X236116000Y-100250000D02*
X236116000Y-77644000D01*
X246022000Y-110156000D02*
X259992000Y-96186000D01*
X236116000Y-77644000D02*
X261770000Y-51990000D01*
X259992000Y-96186000D02*
X264264500Y-96186000D01*
%TO.N,V400_IN*%
X220672000Y-54450000D02*
X220846000Y-54276000D01*
X212420000Y-71940000D02*
X205330000Y-71940000D01*
X220846000Y-63514000D02*
X212420000Y-71940000D01*
X220846000Y-54276000D02*
X220846000Y-63514000D01*
X197680000Y-54450000D02*
X220672000Y-54450000D01*
X205330000Y-71940000D02*
X202080000Y-71940000D01*
X197000000Y-53770000D02*
X197680000Y-54450000D01*
X197000000Y-49450000D02*
X197000000Y-53770000D01*
%TO.N,GND_P*%
X243846000Y-49276000D02*
X202254000Y-49276000D01*
X195730000Y-126920000D02*
X197810000Y-129000000D01*
X230528000Y-72594000D02*
X248846000Y-54276000D01*
X202254000Y-49276000D02*
X202080000Y-49450000D01*
X197810000Y-129000000D02*
X242418000Y-129000000D01*
X246022000Y-125396000D02*
X246022000Y-118792000D01*
X230528000Y-103298000D02*
X230528000Y-72594000D01*
X248846000Y-54276000D02*
X243846000Y-49276000D01*
X246022000Y-118792000D02*
X230528000Y-103298000D01*
X242418000Y-129000000D02*
X246022000Y-125396000D01*
D33*
%TO.N,VCC5_IN*%
X155434000Y-97964000D02*
X155434000Y-65184000D01*
X155434000Y-65184000D02*
X155390000Y-65140000D01*
D31*
%TO.N,GND_A*%
X121652000Y-96453000D02*
X121411000Y-96694000D01*
X121652000Y-96453000D02*
X122414000Y-96453000D01*
X122414000Y-97469000D02*
X122160000Y-97723000D01*
X116250000Y-91770000D02*
X116250000Y-89230000D01*
X116572000Y-96199000D02*
X116572000Y-92092000D01*
X121652000Y-95437000D02*
X121579099Y-95437000D01*
X116064000Y-84007000D02*
X116064000Y-89044000D01*
X116064000Y-89044000D02*
X116250000Y-89230000D01*
X122414000Y-96199000D02*
X122414000Y-96453000D01*
X122160000Y-97723000D02*
X118096000Y-97723000D01*
X123430000Y-96453000D02*
X121652000Y-96453000D01*
X118096000Y-97723000D02*
X116572000Y-96199000D01*
X122414000Y-96199000D02*
X122414000Y-97469000D01*
X116572000Y-92092000D02*
X116250000Y-91770000D01*
X122414000Y-96199000D02*
X121652000Y-95437000D01*
%TO.N,VCC5_D*%
X112762000Y-106346000D02*
X112762000Y-77136000D01*
X113524000Y-107108000D02*
X112762000Y-106346000D01*
D34*
%TO.N,VDD3_D*%
X130275000Y-92740000D02*
X129108000Y-92740000D01*
D31*
X121424000Y-101279000D02*
X122668000Y-101279000D01*
D34*
X129108000Y-92740000D02*
X128170000Y-91802000D01*
%TO.N,VCC12_IN*%
X138670000Y-49912500D02*
X138670000Y-53300000D01*
X144853000Y-59483000D02*
X161276000Y-59483000D01*
X147949200Y-55270000D02*
X140810000Y-55270000D01*
X140810000Y-55270000D02*
X140725000Y-55355000D01*
X138670000Y-53300000D02*
X140725000Y-55355000D01*
X161276000Y-59483000D02*
X161276000Y-89582000D01*
X149756000Y-53463200D02*
X147949200Y-55270000D01*
X140725000Y-55355000D02*
X144853000Y-59483000D01*
D32*
%TO.N,Net-(L1-Pad1)*%
X223118000Y-85772000D02*
X222400000Y-86490000D01*
X236330000Y-117440835D02*
X236330000Y-123150000D01*
X222400000Y-103510835D02*
X236330000Y-117440835D01*
X236330000Y-123150000D02*
X235608000Y-123872000D01*
X222400000Y-86490000D02*
X222400000Y-103510835D01*
D31*
%TO.N,VCC3_D*%
X144512000Y-94154000D02*
X144512000Y-93138000D01*
X112508000Y-121840012D02*
X112508000Y-117804677D01*
X145305000Y-121808990D02*
X144512000Y-122601990D01*
X144512000Y-94154000D02*
X144512000Y-86440444D01*
X112254012Y-122094000D02*
X112508000Y-121840012D01*
X144512000Y-93138000D02*
X144766000Y-92884000D01*
X144512000Y-94154000D02*
X145305000Y-94947000D01*
X145305000Y-94947000D02*
X145305000Y-121808990D01*
X112508000Y-117804677D02*
X112201000Y-117497677D01*
X144512000Y-86440444D02*
X144645942Y-86306502D01*
%TO.N,VDD3_A*%
X125970000Y-92752000D02*
X124822000Y-92752000D01*
X125462000Y-61388000D02*
X117080000Y-69770000D01*
X119620000Y-96453000D02*
X119620000Y-95932000D01*
X119861000Y-96694000D02*
X119620000Y-96453000D01*
X119620000Y-95932000D02*
X120128000Y-95424000D01*
X117080000Y-69770000D02*
X117080000Y-84790000D01*
X125970000Y-90852000D02*
X125970000Y-92752000D01*
X124822000Y-92752000D02*
X120636000Y-88566000D01*
%TO.N,GND_D*%
X119620000Y-99234000D02*
X118350000Y-100504000D01*
X125716000Y-97964000D02*
X126224000Y-98472000D01*
X118350000Y-100504000D02*
X118350000Y-101533000D01*
D34*
X111238000Y-125396000D02*
X111351000Y-125283000D01*
D31*
X123938000Y-98281000D02*
X126033000Y-98281000D01*
X118107600Y-63115200D02*
X118107600Y-53209200D01*
X118350000Y-101533000D02*
X119620000Y-101533000D01*
X118107600Y-53209200D02*
X119174400Y-52142400D01*
D35*
X140394516Y-62034516D02*
X140394516Y-77288400D01*
D31*
X123938000Y-98281000D02*
X122985000Y-98281000D01*
X119112000Y-94662000D02*
X124954000Y-94662000D01*
X120636000Y-103298000D02*
X119874000Y-102536000D01*
D35*
X133652000Y-55292000D02*
X140394516Y-62034516D01*
X140394516Y-88124484D02*
X139178000Y-89341000D01*
D31*
X125208000Y-103298000D02*
X120636000Y-103298000D01*
D34*
X133336000Y-63420000D02*
X133336000Y-55546000D01*
X133336000Y-55546000D02*
X133590000Y-55292000D01*
D31*
X124954000Y-94662000D02*
X125716000Y-95424000D01*
X126033000Y-98281000D02*
X126224000Y-98472000D01*
D33*
X140394516Y-77288400D02*
X138990000Y-77288400D01*
D31*
X119874000Y-102536000D02*
X119874000Y-101279000D01*
X122985000Y-98281000D02*
X122960000Y-98256000D01*
X122960000Y-98256000D02*
X121982000Y-99234000D01*
D34*
X128002000Y-63928000D02*
X128002000Y-55546000D01*
D31*
X119620000Y-101533000D02*
X119874000Y-101279000D01*
X125716000Y-95424000D02*
X125716000Y-97964000D01*
D34*
X128002000Y-55546000D02*
X128256000Y-55292000D01*
D31*
X121982000Y-99234000D02*
X119620000Y-99234000D01*
D35*
X133590000Y-55292000D02*
X133652000Y-55292000D01*
X140394516Y-77288400D02*
X140394516Y-88124484D01*
D34*
X111351000Y-125283000D02*
X111351000Y-115998000D01*
D31*
%TO.N,SWO*%
X121652000Y-110423000D02*
X123176000Y-111947000D01*
X123176000Y-113608701D02*
X125242299Y-115675000D01*
X125242299Y-115675000D02*
X128187000Y-115675000D01*
X128187000Y-115675000D02*
X133082000Y-120570000D01*
X123176000Y-111947000D02*
X123176000Y-113608701D01*
%TO.N,SWCLK*%
X122922000Y-119808000D02*
X122922000Y-120570000D01*
X115422500Y-111813500D02*
X115461000Y-111852000D01*
X117842000Y-117776000D02*
X120890000Y-117776000D01*
X115461000Y-115395000D02*
X117842000Y-117776000D01*
X115461000Y-111852000D02*
X115461000Y-115395000D01*
X120890000Y-117776000D02*
X122922000Y-119808000D01*
X114286000Y-110677000D02*
X115422500Y-111813500D01*
%TO.N,SWDIO*%
X114286000Y-116500012D02*
X114280012Y-116506000D01*
X114286000Y-113217000D02*
X114286000Y-116500012D01*
X128002000Y-120570000D02*
X128002000Y-117102000D01*
X128002000Y-117102000D02*
X127640000Y-116740000D01*
%TO.N,STLINK_TX*%
X143888000Y-84634670D02*
X144163000Y-84359670D01*
X143888000Y-121956000D02*
X143888000Y-84634670D01*
X142480000Y-123364000D02*
X143888000Y-121956000D01*
%TO.N,STLINK_RX*%
X141429048Y-90615476D02*
X141464000Y-90650428D01*
X141464000Y-124634000D02*
X141210000Y-124888000D01*
X141464000Y-90650428D02*
X141464000Y-124634000D01*
%TO.N,NRST*%
X142480000Y-99611000D02*
X142480000Y-118420000D01*
X142590000Y-99501000D02*
X142480000Y-99611000D01*
%TO.N,/PC8*%
X110476000Y-108124000D02*
X111746000Y-106854000D01*
X111746000Y-97723000D02*
X110222000Y-96199000D01*
X111746000Y-106854000D02*
X111746000Y-97723000D01*
X110476000Y-122602000D02*
X110476000Y-108124000D01*
%TO.N,/PC9*%
X109714000Y-108378000D02*
X108952000Y-107616000D01*
X108952000Y-100009000D02*
X107682000Y-98739000D01*
X108952000Y-107616000D02*
X108952000Y-100009000D01*
X109714000Y-120062000D02*
X109714000Y-108378000D01*
D32*
%TO.N,Net-(J18-Pin_1)*%
X202080000Y-105330000D02*
X195730000Y-111680000D01*
X202080000Y-103530000D02*
X202080000Y-105330000D01*
%TO.N,Net-(J17-Pin_1)*%
X191740000Y-77390000D02*
X190650000Y-76300000D01*
X190650000Y-76300000D02*
X190650000Y-73580000D01*
X198830000Y-77390000D02*
X191740000Y-77390000D01*
X202080000Y-77390000D02*
X198830000Y-77390000D01*
%TO.N,Net-(Q4-D)*%
X209816000Y-98080000D02*
X213764000Y-102028000D01*
X190650000Y-93392000D02*
X195476000Y-98218000D01*
X202080000Y-98080000D02*
X209816000Y-98080000D01*
X195476000Y-98218000D02*
X195614000Y-98080000D01*
X213764000Y-117268000D02*
X220368000Y-123872000D01*
X213764000Y-102028000D02*
X213764000Y-117268000D01*
X190650000Y-88820000D02*
X190650000Y-93392000D01*
X195614000Y-98080000D02*
X202080000Y-98080000D01*
%TD*%
%TA.AperFunction,Conductor*%
%TO.N,/GND_S*%
G36*
X104876006Y-35001195D02*
G01*
X104943043Y-35020882D01*
X104988796Y-35073687D01*
X105000000Y-35125195D01*
X105000000Y-134875500D01*
X104980315Y-134942539D01*
X104927511Y-134988294D01*
X104876000Y-134999500D01*
X70124500Y-134999500D01*
X70057461Y-134979815D01*
X70011706Y-134927011D01*
X70000500Y-134875500D01*
X70000500Y-130909750D01*
X70002400Y-115366800D01*
X70000500Y-51743083D01*
X70000500Y-35124500D01*
X70020185Y-35057461D01*
X70072989Y-35011706D01*
X70124500Y-35000500D01*
X84583333Y-35000500D01*
X104876006Y-35001195D01*
G37*
%TD.AperFunction*%
%TD*%
M02*
