%TF.GenerationSoftware,KiCad,Pcbnew,7.0.9*%
%TF.CreationDate,2023-12-08T00:16:34+01:00*%
%TF.ProjectId,SMPS_V1,534d5053-5f56-4312-9e6b-696361645f70,rev?*%
%TF.SameCoordinates,Original*%
%TF.FileFunction,Soldermask,Bot*%
%TF.FilePolarity,Negative*%
%FSLAX46Y46*%
G04 Gerber Fmt 4.6, Leading zero omitted, Abs format (unit mm)*
G04 Created by KiCad (PCBNEW 7.0.9) date 2023-12-08 00:16:34*
%MOMM*%
%LPD*%
G01*
G04 APERTURE LIST*
G04 Aperture macros list*
%AMRoundRect*
0 Rectangle with rounded corners*
0 $1 Rounding radius*
0 $2 $3 $4 $5 $6 $7 $8 $9 X,Y pos of 4 corners*
0 Add a 4 corners polygon primitive as box body*
4,1,4,$2,$3,$4,$5,$6,$7,$8,$9,$2,$3,0*
0 Add four circle primitives for the rounded corners*
1,1,$1+$1,$2,$3*
1,1,$1+$1,$4,$5*
1,1,$1+$1,$6,$7*
1,1,$1+$1,$8,$9*
0 Add four rect primitives between the rounded corners*
20,1,$1+$1,$2,$3,$4,$5,0*
20,1,$1+$1,$4,$5,$6,$7,0*
20,1,$1+$1,$6,$7,$8,$9,0*
20,1,$1+$1,$8,$9,$2,$3,0*%
G04 Aperture macros list end*
%ADD10R,1.700000X1.700000*%
%ADD11O,1.700000X1.700000*%
%ADD12R,4.500000X2.500000*%
%ADD13O,4.500000X2.500000*%
%ADD14R,2.420000X5.080000*%
%ADD15C,2.400000*%
%ADD16C,1.524000*%
%ADD17O,2.400000X2.400000*%
%ADD18R,2.500000X2.500000*%
%ADD19RoundRect,0.102000X1.200000X1.200000X-1.200000X1.200000X-1.200000X-1.200000X1.200000X-1.200000X0*%
%ADD20C,2.604000*%
%ADD21C,6.204000*%
%ADD22RoundRect,0.102000X1.200000X-1.200000X1.200000X1.200000X-1.200000X1.200000X-1.200000X-1.200000X0*%
%ADD23C,2.800000*%
%ADD24O,2.800000X2.800000*%
%ADD25RoundRect,0.225000X-0.225000X-0.250000X0.225000X-0.250000X0.225000X0.250000X-0.225000X0.250000X0*%
%ADD26RoundRect,0.102000X0.700000X-0.500000X0.700000X0.500000X-0.700000X0.500000X-0.700000X-0.500000X0*%
%ADD27RoundRect,0.200000X0.275000X-0.200000X0.275000X0.200000X-0.275000X0.200000X-0.275000X-0.200000X0*%
G04 APERTURE END LIST*
D10*
%TO.C,J25*%
X163364200Y-92670800D03*
D11*
X163364200Y-90130800D03*
X163364200Y-87590800D03*
X163364200Y-85050800D03*
%TD*%
D10*
%TO.C,J24*%
X184554000Y-92731600D03*
D11*
X184554000Y-90191600D03*
X184554000Y-87651600D03*
X184554000Y-85111600D03*
%TD*%
D12*
%TO.C,Q4*%
X202080000Y-92630000D03*
D13*
X202080000Y-98080000D03*
X202080000Y-103530000D03*
%TD*%
D12*
%TO.C,Q3*%
X202080000Y-66490000D03*
D13*
X202080000Y-71940000D03*
X202080000Y-77390000D03*
%TD*%
D10*
%TO.C,J12*%
X152900000Y-79900000D03*
D11*
X150360000Y-79900000D03*
X147820000Y-79900000D03*
X145280000Y-79900000D03*
%TD*%
D14*
%TO.C,J32*%
X91630000Y-131930000D03*
X82870000Y-131930000D03*
%TD*%
%TO.C,J31*%
X82917000Y-89060000D03*
X91677000Y-89060000D03*
%TD*%
%TO.C,J30*%
X91677000Y-80920000D03*
X82917000Y-80920000D03*
%TD*%
%TO.C,J29*%
X82870000Y-38070000D03*
X91630000Y-38070000D03*
%TD*%
D10*
%TO.C,J18*%
X202334000Y-111934000D03*
%TD*%
D15*
%TO.C,R15*%
X195758500Y-126920000D03*
D16*
X190678500Y-124380000D03*
X190678500Y-114220000D03*
D17*
X195758500Y-111680000D03*
%TD*%
D10*
%TO.C,J26*%
X121511200Y-50923200D03*
D11*
X121511200Y-53463200D03*
%TD*%
D18*
%TO.C,C13*%
X261800000Y-51990000D03*
X261800000Y-79990000D03*
%TD*%
D10*
%TO.C,J5*%
X116250000Y-91770000D03*
D11*
X116250000Y-89230000D03*
%TD*%
D10*
%TO.C,J19*%
X190650000Y-120316000D03*
D11*
X190650000Y-117776000D03*
%TD*%
D10*
%TO.C,J4*%
X119874000Y-74101000D03*
D11*
X122414000Y-74101000D03*
X124954000Y-74101000D03*
X127494000Y-74101000D03*
X130034000Y-74101000D03*
X132574000Y-74101000D03*
X135114000Y-74101000D03*
X137654000Y-74101000D03*
%TD*%
D19*
%TO.C,J16*%
X202080000Y-49450000D03*
D20*
X197000000Y-49450000D03*
%TD*%
D10*
%TO.C,J1*%
X107682000Y-77911000D03*
D11*
X107682000Y-80451000D03*
X107682000Y-82991000D03*
%TD*%
D10*
%TO.C,J2*%
X107682000Y-88579000D03*
D11*
X110222000Y-88579000D03*
X107682000Y-91119000D03*
X110222000Y-91119000D03*
X107682000Y-93659000D03*
X110222000Y-93659000D03*
X107682000Y-96199000D03*
X110222000Y-96199000D03*
X107682000Y-98739000D03*
X110222000Y-98739000D03*
X107682000Y-101279000D03*
X110222000Y-101279000D03*
X107682000Y-103819000D03*
X110222000Y-103819000D03*
X107682000Y-106359000D03*
X110222000Y-106359000D03*
%TD*%
D21*
%TO.C,L1*%
X223118000Y-85772000D03*
X243018000Y-85772000D03*
%TD*%
D10*
%TO.C,J14*%
X159320200Y-77542400D03*
%TD*%
%TO.C,J8*%
X120382000Y-120570000D03*
D11*
X122922000Y-120570000D03*
X125462000Y-120570000D03*
X128002000Y-120570000D03*
X130542000Y-120570000D03*
X133082000Y-120570000D03*
%TD*%
D10*
%TO.C,J10*%
X107800000Y-125130000D03*
D11*
X107800000Y-122590000D03*
X107800000Y-120050000D03*
X107800000Y-117510000D03*
X107800000Y-114970000D03*
%TD*%
D15*
%TO.C,R16*%
X220368000Y-123872000D03*
D16*
X222908000Y-118792000D03*
X233068000Y-118792000D03*
D17*
X235608000Y-123872000D03*
%TD*%
D10*
%TO.C,J13*%
X139178000Y-107121000D03*
D11*
X136638000Y-107121000D03*
X139178000Y-104581000D03*
X136638000Y-104581000D03*
X139178000Y-102041000D03*
X136638000Y-102041000D03*
X139178000Y-99501000D03*
X136638000Y-99501000D03*
X139178000Y-96961000D03*
X136638000Y-96961000D03*
X139178000Y-94421000D03*
X136638000Y-94421000D03*
X139178000Y-91881000D03*
X136638000Y-91881000D03*
X139178000Y-89341000D03*
X136638000Y-89341000D03*
%TD*%
D19*
%TO.C,J11*%
X143750000Y-49912500D03*
D20*
X138670000Y-49912500D03*
%TD*%
D10*
%TO.C,J28*%
X137986792Y-80331208D03*
%TD*%
%TO.C,J22*%
X265326000Y-104314000D03*
D11*
X265326000Y-106854000D03*
X265326000Y-109394000D03*
X265326000Y-111934000D03*
%TD*%
D10*
%TO.C,J9*%
X130796000Y-125142000D03*
D11*
X133336000Y-125142000D03*
%TD*%
D10*
%TO.C,J6*%
X132066000Y-82229000D03*
D11*
X132066000Y-84769000D03*
X129526000Y-82229000D03*
X129526000Y-84769000D03*
X126986000Y-82229000D03*
X126986000Y-84769000D03*
X124446000Y-82229000D03*
X124446000Y-84769000D03*
X121906000Y-82229000D03*
X121906000Y-84769000D03*
%TD*%
D19*
%TO.C,J3*%
X115810000Y-49895000D03*
D20*
X110730000Y-49895000D03*
%TD*%
D10*
%TO.C,J7*%
X114286000Y-113217000D03*
D11*
X114286000Y-110677000D03*
X116826000Y-113217000D03*
X116826000Y-110677000D03*
X119366000Y-113217000D03*
X119366000Y-110677000D03*
X121906000Y-113217000D03*
X121906000Y-110677000D03*
X124446000Y-113217000D03*
X124446000Y-110677000D03*
X126986000Y-113217000D03*
X126986000Y-110677000D03*
X129526000Y-113217000D03*
X129526000Y-110677000D03*
X132066000Y-113217000D03*
X132066000Y-110677000D03*
%TD*%
D18*
%TO.C,C12*%
X220846000Y-54276000D03*
X248846000Y-54276000D03*
%TD*%
D10*
%TO.C,J27*%
X149756000Y-50923200D03*
D11*
X149756000Y-53463200D03*
%TD*%
%TO.C,J15*%
X185500000Y-54000000D03*
X185500000Y-51460000D03*
X185500000Y-48920000D03*
D10*
X185500000Y-46380000D03*
%TD*%
%TO.C,J17*%
X201826000Y-85010000D03*
%TD*%
D20*
%TO.C,J23*%
X264264500Y-91106000D03*
D22*
X264264500Y-96186000D03*
%TD*%
D10*
%TO.C,J21*%
X251102000Y-116500000D03*
D11*
X251102000Y-119040000D03*
%TD*%
D23*
%TO.C,R13*%
X190650000Y-88820000D03*
D24*
X190650000Y-73580000D03*
%TD*%
D15*
%TO.C,R19*%
X246022000Y-109500000D03*
D16*
X251102000Y-112040000D03*
X251102000Y-122200000D03*
D17*
X246022000Y-124740000D03*
%TD*%
D10*
%TO.C,J20*%
X229004000Y-118538000D03*
D11*
X226464000Y-118538000D03*
%TD*%
D25*
%TO.C,C14*%
X119874000Y-101279000D03*
X121424000Y-101279000D03*
%TD*%
D26*
%TO.C,D2*%
X125970000Y-92752000D03*
X125970000Y-90852000D03*
X128170000Y-91802000D03*
%TD*%
D25*
%TO.C,C15*%
X119861000Y-96694000D03*
X121411000Y-96694000D03*
%TD*%
D27*
%TO.C,R23*%
X123938000Y-98281000D03*
X123938000Y-96631000D03*
%TD*%
G36*
X269943039Y-40019685D02*
G01*
X269988794Y-40072489D01*
X270000000Y-40124000D01*
X270000000Y-99876000D01*
X269980315Y-99943039D01*
X269927511Y-99988794D01*
X269876000Y-100000000D01*
X262500000Y-100000000D01*
X262500000Y-132376000D01*
X262480315Y-132443039D01*
X262427511Y-132488794D01*
X262376000Y-132500000D01*
X192624000Y-132500000D01*
X192556961Y-132480315D01*
X192511206Y-132427511D01*
X192500000Y-132376000D01*
X192500000Y-110000000D01*
X187624000Y-110000000D01*
X187556961Y-109980315D01*
X187511206Y-109927511D01*
X187500000Y-109876000D01*
X187500000Y-70124000D01*
X187519685Y-70056961D01*
X187572489Y-70011206D01*
X187624000Y-70000000D01*
X192500000Y-70000000D01*
X192500000Y-40124000D01*
X192519685Y-40056961D01*
X192572489Y-40011206D01*
X192624000Y-40000000D01*
X269876000Y-40000000D01*
X269943039Y-40019685D01*
G37*
M02*
