%TF.GenerationSoftware,KiCad,Pcbnew,7.0.9*%
%TF.CreationDate,2023-12-08T23:53:58+01:00*%
%TF.ProjectId,SMPS_V1_data,534d5053-5f56-4315-9f64-6174612e6b69,rev?*%
%TF.SameCoordinates,Original*%
%TF.FileFunction,Copper,L1,Top*%
%TF.FilePolarity,Positive*%
%FSLAX46Y46*%
G04 Gerber Fmt 4.6, Leading zero omitted, Abs format (unit mm)*
G04 Created by KiCad (PCBNEW 7.0.9) date 2023-12-08 23:53:58*
%MOMM*%
%LPD*%
G01*
G04 APERTURE LIST*
G04 Aperture macros list*
%AMRoundRect*
0 Rectangle with rounded corners*
0 $1 Rounding radius*
0 $2 $3 $4 $5 $6 $7 $8 $9 X,Y pos of 4 corners*
0 Add a 4 corners polygon primitive as box body*
4,1,4,$2,$3,$4,$5,$6,$7,$8,$9,$2,$3,0*
0 Add four circle primitives for the rounded corners*
1,1,$1+$1,$2,$3*
1,1,$1+$1,$4,$5*
1,1,$1+$1,$6,$7*
1,1,$1+$1,$8,$9*
0 Add four rect primitives between the rounded corners*
20,1,$1+$1,$2,$3,$4,$5,0*
20,1,$1+$1,$4,$5,$6,$7,0*
20,1,$1+$1,$6,$7,$8,$9,0*
20,1,$1+$1,$8,$9,$2,$3,0*%
G04 Aperture macros list end*
%TA.AperFunction,SMDPad,CuDef*%
%ADD10RoundRect,0.200000X0.200000X0.275000X-0.200000X0.275000X-0.200000X-0.275000X0.200000X-0.275000X0*%
%TD*%
%TA.AperFunction,SMDPad,CuDef*%
%ADD11RoundRect,0.200000X-0.200000X-0.275000X0.200000X-0.275000X0.200000X0.275000X-0.200000X0.275000X0*%
%TD*%
%TA.AperFunction,SMDPad,CuDef*%
%ADD12RoundRect,0.075000X0.700000X0.075000X-0.700000X0.075000X-0.700000X-0.075000X0.700000X-0.075000X0*%
%TD*%
%TA.AperFunction,SMDPad,CuDef*%
%ADD13RoundRect,0.075000X0.075000X0.700000X-0.075000X0.700000X-0.075000X-0.700000X0.075000X-0.700000X0*%
%TD*%
%TA.AperFunction,SMDPad,CuDef*%
%ADD14RoundRect,0.243750X-0.243750X-0.456250X0.243750X-0.456250X0.243750X0.456250X-0.243750X0.456250X0*%
%TD*%
%TA.AperFunction,SMDPad,CuDef*%
%ADD15RoundRect,0.225000X0.250000X-0.225000X0.250000X0.225000X-0.250000X0.225000X-0.250000X-0.225000X0*%
%TD*%
%TA.AperFunction,SMDPad,CuDef*%
%ADD16R,2.290000X5.080000*%
%TD*%
%TA.AperFunction,SMDPad,CuDef*%
%ADD17R,2.420000X5.080000*%
%TD*%
%TA.AperFunction,SMDPad,CuDef*%
%ADD18R,0.460000X0.950000*%
%TD*%
%TA.AperFunction,ComponentPad*%
%ADD19C,0.970000*%
%TD*%
%TA.AperFunction,SMDPad,CuDef*%
%ADD20RoundRect,0.243750X0.243750X0.456250X-0.243750X0.456250X-0.243750X-0.456250X0.243750X-0.456250X0*%
%TD*%
%TA.AperFunction,SMDPad,CuDef*%
%ADD21RoundRect,0.225000X-0.225000X-0.250000X0.225000X-0.250000X0.225000X0.250000X-0.225000X0.250000X0*%
%TD*%
%TA.AperFunction,ComponentPad*%
%ADD22R,1.700000X1.700000*%
%TD*%
%TA.AperFunction,ComponentPad*%
%ADD23O,1.700000X1.700000*%
%TD*%
%TA.AperFunction,SMDPad,CuDef*%
%ADD24RoundRect,0.243750X-0.456250X0.243750X-0.456250X-0.243750X0.456250X-0.243750X0.456250X0.243750X0*%
%TD*%
%TA.AperFunction,SMDPad,CuDef*%
%ADD25RoundRect,0.225000X-0.250000X0.225000X-0.250000X-0.225000X0.250000X-0.225000X0.250000X0.225000X0*%
%TD*%
%TA.AperFunction,SMDPad,CuDef*%
%ADD26RoundRect,0.150000X0.587500X0.150000X-0.587500X0.150000X-0.587500X-0.150000X0.587500X-0.150000X0*%
%TD*%
%TA.AperFunction,SMDPad,CuDef*%
%ADD27RoundRect,0.200000X-0.275000X0.200000X-0.275000X-0.200000X0.275000X-0.200000X0.275000X0.200000X0*%
%TD*%
%TA.AperFunction,SMDPad,CuDef*%
%ADD28RoundRect,0.250000X-0.650000X0.325000X-0.650000X-0.325000X0.650000X-0.325000X0.650000X0.325000X0*%
%TD*%
%TA.AperFunction,SMDPad,CuDef*%
%ADD29R,1.700000X2.090000*%
%TD*%
%TA.AperFunction,SMDPad,CuDef*%
%ADD30RoundRect,0.200000X0.275000X-0.200000X0.275000X0.200000X-0.275000X0.200000X-0.275000X-0.200000X0*%
%TD*%
%TA.AperFunction,SMDPad,CuDef*%
%ADD31RoundRect,0.150000X-0.825000X-0.150000X0.825000X-0.150000X0.825000X0.150000X-0.825000X0.150000X0*%
%TD*%
%TA.AperFunction,SMDPad,CuDef*%
%ADD32RoundRect,0.225000X0.225000X0.250000X-0.225000X0.250000X-0.225000X-0.250000X0.225000X-0.250000X0*%
%TD*%
%TA.AperFunction,ComponentPad*%
%ADD33R,2.400000X2.400000*%
%TD*%
%TA.AperFunction,ComponentPad*%
%ADD34C,2.400000*%
%TD*%
%TA.AperFunction,SMDPad,CuDef*%
%ADD35RoundRect,0.150000X-0.587500X-0.150000X0.587500X-0.150000X0.587500X0.150000X-0.587500X0.150000X0*%
%TD*%
%TA.AperFunction,SMDPad,CuDef*%
%ADD36R,1.200000X2.200000*%
%TD*%
%TA.AperFunction,SMDPad,CuDef*%
%ADD37R,3.500000X2.200000*%
%TD*%
%TA.AperFunction,SMDPad,CuDef*%
%ADD38R,2.200000X1.200000*%
%TD*%
%TA.AperFunction,SMDPad,CuDef*%
%ADD39R,2.200000X3.500000*%
%TD*%
%TA.AperFunction,SMDPad,CuDef*%
%ADD40RoundRect,0.250000X0.325000X0.650000X-0.325000X0.650000X-0.325000X-0.650000X0.325000X-0.650000X0*%
%TD*%
%TA.AperFunction,SMDPad,CuDef*%
%ADD41R,0.660000X1.100000*%
%TD*%
%TA.AperFunction,ViaPad*%
%ADD42C,1.200000*%
%TD*%
%TA.AperFunction,ViaPad*%
%ADD43C,0.800000*%
%TD*%
%TA.AperFunction,ViaPad*%
%ADD44C,1.000000*%
%TD*%
%TA.AperFunction,Conductor*%
%ADD45C,0.250000*%
%TD*%
%TA.AperFunction,Conductor*%
%ADD46C,0.750000*%
%TD*%
%TA.AperFunction,Conductor*%
%ADD47C,0.400000*%
%TD*%
%TA.AperFunction,Conductor*%
%ADD48C,1.000000*%
%TD*%
%TA.AperFunction,Conductor*%
%ADD49C,3.200000*%
%TD*%
%TA.AperFunction,Conductor*%
%ADD50C,1.500000*%
%TD*%
G04 APERTURE END LIST*
D10*
%TO.P,R36,1*%
%TO.N,Net-(D8-K-Pad1)*%
X77325200Y-48818800D03*
%TO.P,R36,2*%
%TO.N,Net-(C21-Pad1)*%
X75675200Y-48818800D03*
%TD*%
%TO.P,R35,1*%
%TO.N,Net-(D8-K-Pad3)*%
X75825000Y-43400000D03*
%TO.P,R35,2*%
%TO.N,Net-(C21-Pad2)*%
X74175000Y-43400000D03*
%TD*%
D11*
%TO.P,R38,1*%
%TO.N,Net-(C21-Pad1)*%
X74375000Y-46900000D03*
%TO.P,R38,2*%
%TO.N,Net-(R37-Pad1)*%
X76025000Y-46900000D03*
%TD*%
D12*
%TO.P,U3,1,VBAT*%
%TO.N,Net-(J13-Pin_1)*%
X127922000Y-102743000D03*
%TO.P,U3,2,PC13*%
%TO.N,/PC13*%
X127922000Y-102243000D03*
%TO.P,U3,3,PC14*%
%TO.N,/PC14*%
X127922000Y-101743000D03*
%TO.P,U3,4,PC15*%
%TO.N,/PC15*%
X127922000Y-101243000D03*
%TO.P,U3,5,PF0*%
%TO.N,/PF0*%
X127922000Y-100743000D03*
%TO.P,U3,6,PF1*%
%TO.N,/PF1*%
X127922000Y-100243000D03*
%TO.P,U3,7,PG10*%
%TO.N,NRST*%
X127922000Y-99743000D03*
%TO.P,U3,8,PC0*%
%TO.N,/PC0*%
X127922000Y-99243000D03*
%TO.P,U3,9,PC1*%
%TO.N,/PC1*%
X127922000Y-98743000D03*
%TO.P,U3,10,PC2*%
%TO.N,/PC2*%
X127922000Y-98243000D03*
%TO.P,U3,11,PC3*%
%TO.N,/PC3*%
X127922000Y-97743000D03*
%TO.P,U3,12,PA0*%
%TO.N,/PA0*%
X127922000Y-97243000D03*
%TO.P,U3,13,PA1*%
%TO.N,/PA1*%
X127922000Y-96743000D03*
%TO.P,U3,14,PA2*%
%TO.N,STLINK_RX*%
X127922000Y-96243000D03*
%TO.P,U3,15,VSS*%
%TO.N,GND_D*%
X127922000Y-95743000D03*
%TO.P,U3,16,VDD*%
%TO.N,VDD3_D*%
X127922000Y-95243000D03*
D13*
%TO.P,U3,17,PA3*%
%TO.N,STLINK_TX*%
X125997000Y-93318000D03*
%TO.P,U3,18,PA4*%
%TO.N,/PA4*%
X125497000Y-93318000D03*
%TO.P,U3,19,PA5*%
%TO.N,/PA5*%
X124997000Y-93318000D03*
%TO.P,U3,20,PA6*%
%TO.N,/PA6*%
X124497000Y-93318000D03*
%TO.P,U3,21,PA7*%
%TO.N,/PA7*%
X123997000Y-93318000D03*
%TO.P,U3,22,PC4*%
%TO.N,/PC4*%
X123497000Y-93318000D03*
%TO.P,U3,23,PC5*%
%TO.N,/PC5*%
X122997000Y-93318000D03*
%TO.P,U3,24,PB0*%
%TO.N,/PB0*%
X122497000Y-93318000D03*
%TO.P,U3,25,PB1*%
%TO.N,/PB1*%
X121997000Y-93318000D03*
%TO.P,U3,26,PB2*%
%TO.N,/PB2*%
X121497000Y-93318000D03*
%TO.P,U3,27,VSSA*%
%TO.N,GND_A*%
X120997000Y-93318000D03*
%TO.P,U3,28,VREF+*%
%TO.N,unconnected-(U3-VREF+-Pad28)*%
X120497000Y-93318000D03*
%TO.P,U3,29,VDDA*%
%TO.N,VDD3_A*%
X119997000Y-93318000D03*
%TO.P,U3,30,PB10*%
%TO.N,/PB10*%
X119497000Y-93318000D03*
%TO.P,U3,31,VSS*%
%TO.N,GND_D*%
X118997000Y-93318000D03*
%TO.P,U3,32,VDD*%
%TO.N,VDD3_D*%
X118497000Y-93318000D03*
D12*
%TO.P,U3,33,PB11*%
%TO.N,/PB11*%
X116572000Y-95243000D03*
%TO.P,U3,34,PB12*%
%TO.N,/PB12*%
X116572000Y-95743000D03*
%TO.P,U3,35,PB13*%
%TO.N,/PB13*%
X116572000Y-96243000D03*
%TO.P,U3,36,PB14*%
%TO.N,/PB14*%
X116572000Y-96743000D03*
%TO.P,U3,37,PB15*%
%TO.N,/PB15*%
X116572000Y-97243000D03*
%TO.P,U3,38,PC6*%
%TO.N,/PC6*%
X116572000Y-97743000D03*
%TO.P,U3,39,PC7*%
%TO.N,/PC7*%
X116572000Y-98243000D03*
%TO.P,U3,40,PC8*%
%TO.N,/PC8*%
X116572000Y-98743000D03*
%TO.P,U3,41,PC9*%
%TO.N,/PC9*%
X116572000Y-99243000D03*
%TO.P,U3,42,PA8*%
%TO.N,/PA8*%
X116572000Y-99743000D03*
%TO.P,U3,43,PA9*%
%TO.N,/PA9*%
X116572000Y-100243000D03*
%TO.P,U3,44,PA10*%
%TO.N,/PA10*%
X116572000Y-100743000D03*
%TO.P,U3,45,PA11*%
%TO.N,/PA11*%
X116572000Y-101243000D03*
%TO.P,U3,46,PA12*%
%TO.N,/PA12*%
X116572000Y-101743000D03*
%TO.P,U3,47,VSS*%
%TO.N,GND_D*%
X116572000Y-102243000D03*
%TO.P,U3,48,VDD*%
%TO.N,VDD3_D*%
X116572000Y-102743000D03*
D13*
%TO.P,U3,49,PA13*%
%TO.N,SWDIO*%
X118497000Y-104668000D03*
%TO.P,U3,50,PA14*%
%TO.N,SWCLK*%
X118997000Y-104668000D03*
%TO.P,U3,51,PA15*%
%TO.N,/PA15*%
X119497000Y-104668000D03*
%TO.P,U3,52,PC10*%
%TO.N,/PC10*%
X119997000Y-104668000D03*
%TO.P,U3,53,PC11*%
%TO.N,/PC11*%
X120497000Y-104668000D03*
%TO.P,U3,54,PC12*%
%TO.N,/PC12*%
X120997000Y-104668000D03*
%TO.P,U3,55,PD2*%
%TO.N,/PD2*%
X121497000Y-104668000D03*
%TO.P,U3,56,PB3*%
%TO.N,SWO*%
X121997000Y-104668000D03*
%TO.P,U3,57,PB4*%
%TO.N,/PB4*%
X122497000Y-104668000D03*
%TO.P,U3,58,PB5*%
%TO.N,/PB5*%
X122997000Y-104668000D03*
%TO.P,U3,59,PB6*%
%TO.N,/PB6*%
X123497000Y-104668000D03*
%TO.P,U3,60,PB7*%
%TO.N,/PB7*%
X123997000Y-104668000D03*
%TO.P,U3,61,PB8*%
%TO.N,/PB8*%
X124497000Y-104668000D03*
%TO.P,U3,62,PB9*%
%TO.N,/PB9*%
X124997000Y-104668000D03*
%TO.P,U3,63,VSS*%
%TO.N,GND_D*%
X125497000Y-104668000D03*
%TO.P,U3,64,VDD*%
%TO.N,VDD3_D*%
X125997000Y-104668000D03*
%TD*%
D14*
%TO.P,D4,1,K*%
%TO.N,GND_D*%
X146380100Y-59965600D03*
%TO.P,D4,2,A*%
%TO.N,Net-(D4-A)*%
X148255100Y-59965600D03*
%TD*%
D15*
%TO.P,C6,1*%
%TO.N,GND_D*%
X127494000Y-106854000D03*
%TO.P,C6,2*%
%TO.N,VDD3_D*%
X127494000Y-105304000D03*
%TD*%
D10*
%TO.P,R44,1*%
%TO.N,Net-(R44-Pad1)*%
X94275000Y-94300000D03*
%TO.P,R44,2*%
%TO.N,Net-(C18-Pad1)*%
X92625000Y-94300000D03*
%TD*%
D11*
%TO.P,R33,1*%
%TO.N,Net-(R33-Pad1)*%
X98025000Y-125018800D03*
%TO.P,R33,2*%
%TO.N,Net-(C19-Pad2)*%
X99675000Y-125018800D03*
%TD*%
D10*
%TO.P,R29,1*%
%TO.N,Net-(R29-Pad1)*%
X76424000Y-96113600D03*
%TO.P,R29,2*%
%TO.N,Net-(C17-Pad2)*%
X74774000Y-96113600D03*
%TD*%
D16*
%TO.P,J30,1,In*%
%TO.N,Net-(J29-In)*%
X87200000Y-80920000D03*
D17*
%TO.P,J30,2,Ext*%
%TO.N,/GND_S*%
X82820000Y-80920000D03*
X91580000Y-80920000D03*
D18*
X82820000Y-77930000D03*
X91580000Y-77930000D03*
D19*
X82820000Y-77480000D03*
X91580000Y-77480000D03*
%TD*%
D16*
%TO.P,J32,1,In*%
%TO.N,Net-(J31-In)*%
X87250000Y-131930000D03*
D17*
%TO.P,J32,2,Ext*%
%TO.N,/GND_S*%
X82870000Y-131930000D03*
X91630000Y-131930000D03*
D18*
X82870000Y-128940000D03*
X91630000Y-128940000D03*
D19*
X82870000Y-128490000D03*
X91630000Y-128490000D03*
%TD*%
D10*
%TO.P,R27,1*%
%TO.N,Net-(D6-K-Pad1)*%
X76618600Y-99847400D03*
%TO.P,R27,2*%
%TO.N,Net-(C17-Pad1)*%
X74968600Y-99847400D03*
%TD*%
D11*
%TO.P,R30,1*%
%TO.N,Net-(C17-Pad1)*%
X74761800Y-97993200D03*
%TO.P,R30,2*%
%TO.N,Net-(R29-Pad1)*%
X76411800Y-97993200D03*
%TD*%
D20*
%TO.P,D5,1,K*%
%TO.N,GND_D*%
X137027500Y-77360000D03*
%TO.P,D5,2,A*%
%TO.N,Net-(D5-A)*%
X135152500Y-77360000D03*
%TD*%
D16*
%TO.P,J31,1,In*%
%TO.N,Net-(J31-In)*%
X87200000Y-89060000D03*
D17*
%TO.P,J31,2,Ext*%
%TO.N,/GND_S*%
X91580000Y-89060000D03*
X82820000Y-89060000D03*
D18*
X91580000Y-92050000D03*
X82820000Y-92050000D03*
D19*
X91580000Y-92500000D03*
X82820000Y-92500000D03*
%TD*%
D21*
%TO.P,C4,1*%
%TO.N,VDD3_A*%
X125195000Y-57832000D03*
%TO.P,C4,2*%
%TO.N,GND_D*%
X126745000Y-57832000D03*
%TD*%
D10*
%TO.P,R4,1*%
%TO.N,Net-(J4-Pin_8)*%
X137209000Y-70291000D03*
%TO.P,R4,2*%
%TO.N,Net-(J4-Pin_7)*%
X135559000Y-70291000D03*
%TD*%
D22*
%TO.P,J26,1,Pin_1*%
%TO.N,GND_D*%
X121511200Y-50923200D03*
D23*
%TO.P,J26,2,Pin_2*%
%TO.N,VCC5_IN*%
X121511200Y-53463200D03*
%TD*%
D24*
%TO.P,C1,1*%
%TO.N,VCC5_D*%
X107174000Y-70623500D03*
%TO.P,C1,2*%
%TO.N,GND_A*%
X107174000Y-72498500D03*
%TD*%
D25*
%TO.P,C18,1*%
%TO.N,Net-(C18-Pad1)*%
X92600000Y-124675000D03*
%TO.P,C18,2*%
%TO.N,Net-(D7-A)*%
X92600000Y-126225000D03*
%TD*%
D11*
%TO.P,R43,1*%
%TO.N,Net-(R43-Pad1)*%
X80375000Y-126600000D03*
%TO.P,R43,2*%
%TO.N,Net-(C16-Pad1)*%
X82025000Y-126600000D03*
%TD*%
D22*
%TO.P,J5,1,Pin_1*%
%TO.N,GND_A*%
X116250000Y-91770000D03*
D23*
%TO.P,J5,2,Pin_2*%
X116250000Y-89230000D03*
%TD*%
D15*
%TO.P,C16,1*%
%TO.N,Net-(C16-Pad1)*%
X82000000Y-96375000D03*
%TO.P,C16,2*%
%TO.N,Net-(D6-A)*%
X82000000Y-94825000D03*
%TD*%
D26*
%TO.P,D8,1,K*%
%TO.N,Net-(D8-K-Pad1)*%
X79616000Y-45050000D03*
%TO.P,D8,2,A*%
%TO.N,Net-(D8-A)*%
X77584000Y-44100000D03*
%TO.P,D8,3,K*%
%TO.N,Net-(D8-K-Pad3)*%
X79616000Y-43084000D03*
%TD*%
D15*
%TO.P,C21,1*%
%TO.N,Net-(C21-Pad1)*%
X72700000Y-44975000D03*
%TO.P,C21,2*%
%TO.N,Net-(C21-Pad2)*%
X72700000Y-43425000D03*
%TD*%
D10*
%TO.P,R34,1*%
%TO.N,Net-(C19-Pad1)*%
X99675000Y-123300000D03*
%TO.P,R34,2*%
%TO.N,Net-(R33-Pad1)*%
X98025000Y-123300000D03*
%TD*%
D27*
%TO.P,R53,1*%
%TO.N,Net-(R45-Pad1)*%
X100033800Y-45022000D03*
%TO.P,R53,2*%
%TO.N,Net-(C23-Pad1)*%
X100033800Y-46672000D03*
%TD*%
D28*
%TO.P,C9,1*%
%TO.N,VCC12_IN*%
X158990000Y-89680000D03*
%TO.P,C9,2*%
%TO.N,Net-(J18-Pin_1)*%
X158990000Y-92630000D03*
%TD*%
D26*
%TO.P,D6,1,K*%
%TO.N,Net-(D6-K-Pad1)*%
X80116000Y-96250000D03*
%TO.P,D6,2,A*%
%TO.N,Net-(D6-A)*%
X78084000Y-95300000D03*
%TO.P,D6,3,K*%
%TO.N,Net-(D6-K-Pad3)*%
X80116000Y-94284000D03*
%TD*%
D28*
%TO.P,C10,1*%
%TO.N,Net-(D1-K)*%
X159244000Y-83330000D03*
%TO.P,C10,2*%
%TO.N,Net-(J17-Pin_1)*%
X159244000Y-86280000D03*
%TD*%
D29*
%TO.P,D1,1,K*%
%TO.N,Net-(D1-K)*%
X159269400Y-71417400D03*
%TO.P,D1,2,A*%
%TO.N,VCC12_IN*%
X159269400Y-67157400D03*
%TD*%
D11*
%TO.P,R41,1*%
%TO.N,Net-(R41-Pad1)*%
X97837200Y-73787000D03*
%TO.P,R41,2*%
%TO.N,Net-(C23-Pad2)*%
X99487200Y-73787000D03*
%TD*%
D30*
%TO.P,R52,1*%
%TO.N,Net-(R46-Pad1)*%
X73541600Y-74281800D03*
%TO.P,R52,2*%
%TO.N,Net-(C21-Pad1)*%
X73541600Y-72631800D03*
%TD*%
D25*
%TO.P,C19,1*%
%TO.N,Net-(C19-Pad1)*%
X101300000Y-125025000D03*
%TO.P,C19,2*%
%TO.N,Net-(C19-Pad2)*%
X101300000Y-126575000D03*
%TD*%
D22*
%TO.P,J4,1,Pin_1*%
%TO.N,Net-(J4-Pin_1)*%
X119874000Y-74101000D03*
D23*
%TO.P,J4,2,Pin_2*%
%TO.N,Net-(J4-Pin_2)*%
X122414000Y-74101000D03*
%TO.P,J4,3,Pin_3*%
%TO.N,Net-(J4-Pin_3)*%
X124954000Y-74101000D03*
%TO.P,J4,4,Pin_4*%
%TO.N,Net-(J4-Pin_4)*%
X127494000Y-74101000D03*
%TO.P,J4,5,Pin_5*%
%TO.N,Net-(J4-Pin_5)*%
X130034000Y-74101000D03*
%TO.P,J4,6,Pin_6*%
%TO.N,Net-(J4-Pin_6)*%
X132574000Y-74101000D03*
%TO.P,J4,7,Pin_7*%
%TO.N,Net-(J4-Pin_7)*%
X135114000Y-74101000D03*
%TO.P,J4,8,Pin_8*%
%TO.N,Net-(J4-Pin_8)*%
X137654000Y-74101000D03*
%TD*%
D10*
%TO.P,R3,1*%
%TO.N,Net-(J4-Pin_4)*%
X127303000Y-70291000D03*
%TO.P,R3,2*%
%TO.N,Net-(J4-Pin_3)*%
X125653000Y-70291000D03*
%TD*%
%TO.P,R24,1*%
%TO.N,VCC12_IN*%
X147876400Y-56866800D03*
%TO.P,R24,2*%
%TO.N,Net-(D4-A)*%
X146226400Y-56866800D03*
%TD*%
%TO.P,R37,1*%
%TO.N,Net-(R37-Pad1)*%
X76025000Y-45100000D03*
%TO.P,R37,2*%
%TO.N,Net-(C21-Pad2)*%
X74375000Y-45100000D03*
%TD*%
D11*
%TO.P,R31,1*%
%TO.N,Net-(D7-K-Pad3)*%
X98075000Y-126593600D03*
%TO.P,R31,2*%
%TO.N,Net-(C19-Pad2)*%
X99725000Y-126593600D03*
%TD*%
D22*
%TO.P,J1,1,Pin_1*%
%TO.N,/PB10*%
X107682000Y-77911000D03*
D23*
%TO.P,J1,2,Pin_2*%
%TO.N,GND_D*%
X107682000Y-80451000D03*
%TO.P,J1,3,Pin_3*%
X107682000Y-82991000D03*
%TD*%
D11*
%TO.P,R25,1*%
%TO.N,VCC5_IN*%
X118235600Y-57730400D03*
%TO.P,R25,2*%
%TO.N,Net-(D3-A)*%
X119885600Y-57730400D03*
%TD*%
D30*
%TO.P,R47,1*%
%TO.N,Net-(R43-Pad1)*%
X74422000Y-124472200D03*
%TO.P,R47,2*%
%TO.N,Net-(C17-Pad1)*%
X74422000Y-122822200D03*
%TD*%
D22*
%TO.P,J2,1,Pin_1*%
%TO.N,/PB11*%
X107682000Y-88579000D03*
D23*
%TO.P,J2,2,Pin_2*%
%TO.N,/PB12*%
X110222000Y-88579000D03*
%TO.P,J2,3,Pin_3*%
%TO.N,/PB13*%
X107682000Y-91119000D03*
%TO.P,J2,4,Pin_4*%
%TO.N,/PB14*%
X110222000Y-91119000D03*
%TO.P,J2,5,Pin_5*%
%TO.N,/PB15*%
X107682000Y-93659000D03*
%TO.P,J2,6,Pin_6*%
%TO.N,/PC6*%
X110222000Y-93659000D03*
%TO.P,J2,7,Pin_7*%
%TO.N,/PC7*%
X107682000Y-96199000D03*
%TO.P,J2,8,Pin_8*%
%TO.N,/PC8*%
X110222000Y-96199000D03*
%TO.P,J2,9,Pin_9*%
%TO.N,/PC9*%
X107682000Y-98739000D03*
%TO.P,J2,10,Pin_10*%
%TO.N,/PA8*%
X110222000Y-98739000D03*
%TO.P,J2,11,Pin_11*%
%TO.N,/PA9*%
X107682000Y-101279000D03*
%TO.P,J2,12,Pin_12*%
%TO.N,/PA10*%
X110222000Y-101279000D03*
%TO.P,J2,13,Pin_13*%
%TO.N,/PA11*%
X107682000Y-103819000D03*
%TO.P,J2,14,Pin_14*%
%TO.N,/PA12*%
X110222000Y-103819000D03*
%TO.P,J2,15,Pin_15*%
%TO.N,GND_D*%
X107682000Y-106359000D03*
%TO.P,J2,16,Pin_16*%
X110222000Y-106359000D03*
%TD*%
D27*
%TO.P,R48,1*%
%TO.N,Net-(R43-Pad1)*%
X74583000Y-126810000D03*
%TO.P,R48,2*%
%TO.N,/GND_S*%
X74583000Y-128460000D03*
%TD*%
D10*
%TO.P,R28,1*%
%TO.N,Net-(D6-K-Pad3)*%
X76481800Y-94183800D03*
%TO.P,R28,2*%
%TO.N,Net-(C17-Pad2)*%
X74831800Y-94183800D03*
%TD*%
D30*
%TO.P,R50,1*%
%TO.N,Net-(R44-Pad1)*%
X99618800Y-94246200D03*
%TO.P,R50,2*%
%TO.N,/GND_S*%
X99618800Y-92596200D03*
%TD*%
D25*
%TO.P,C22,1*%
%TO.N,Net-(C22-Pad1)*%
X92700000Y-74525000D03*
%TO.P,C22,2*%
%TO.N,Net-(D9-A)*%
X92700000Y-76075000D03*
%TD*%
D11*
%TO.P,R40,1*%
%TO.N,Net-(D9-K-Pad1)*%
X96948200Y-70104000D03*
%TO.P,R40,2*%
%TO.N,Net-(C23-Pad1)*%
X98598200Y-70104000D03*
%TD*%
D30*
%TO.P,R54,1*%
%TO.N,Net-(R45-Pad1)*%
X100033800Y-43243000D03*
%TO.P,R54,2*%
%TO.N,/GND_S*%
X100033800Y-41593000D03*
%TD*%
D22*
%TO.P,J14,1,Pin_1*%
%TO.N,Net-(D1-K)*%
X159320200Y-77542400D03*
%TD*%
%TO.P,J8,1,Pin_1*%
%TO.N,VCC3_D*%
X120382000Y-120570000D03*
D23*
%TO.P,J8,2,Pin_2*%
%TO.N,SWCLK*%
X122922000Y-120570000D03*
%TO.P,J8,3,Pin_3*%
%TO.N,GND_D*%
X125462000Y-120570000D03*
%TO.P,J8,4,Pin_4*%
%TO.N,SWDIO*%
X128002000Y-120570000D03*
%TO.P,J8,5,Pin_5*%
%TO.N,NRST*%
X130542000Y-120570000D03*
%TO.P,J8,6,Pin_6*%
%TO.N,SWO*%
X133082000Y-120570000D03*
%TD*%
D15*
%TO.P,C20,1*%
%TO.N,Net-(C20-Pad1)*%
X81800000Y-45775000D03*
%TO.P,C20,2*%
%TO.N,Net-(D8-A)*%
X81800000Y-44225000D03*
%TD*%
D25*
%TO.P,C23,1*%
%TO.N,Net-(C23-Pad1)*%
X101500000Y-74325000D03*
%TO.P,C23,2*%
%TO.N,Net-(C23-Pad2)*%
X101500000Y-75875000D03*
%TD*%
D14*
%TO.P,D3,1,K*%
%TO.N,GND_D*%
X118163000Y-60981600D03*
%TO.P,D3,2,A*%
%TO.N,Net-(D3-A)*%
X120038000Y-60981600D03*
%TD*%
D11*
%TO.P,R46,1*%
%TO.N,Net-(R46-Pad1)*%
X80175000Y-75000000D03*
%TO.P,R46,2*%
%TO.N,Net-(C20-Pad1)*%
X81825000Y-75000000D03*
%TD*%
D31*
%TO.P,U4,1,VIA*%
%TO.N,Net-(J12-Pin_2)*%
X150230000Y-83740000D03*
%TO.P,U4,2,VIB*%
%TO.N,Net-(J12-Pin_3)*%
X150230000Y-85010000D03*
%TO.P,U4,3,VDD1*%
%TO.N,VCC3_D*%
X150230000Y-86280000D03*
%TO.P,U4,4,GND1*%
%TO.N,Net-(J12-Pin_1)*%
X150230000Y-87550000D03*
%TO.P,U4,5,DISABLE*%
%TO.N,Net-(J12-Pin_4)*%
X150230000Y-88820000D03*
%TO.P,U4,6,NC*%
%TO.N,unconnected-(U4-NC-Pad6)*%
X150230000Y-90090000D03*
%TO.P,U4,7,NC*%
%TO.N,unconnected-(U4-NC-Pad7)*%
X150230000Y-91360000D03*
%TO.P,U4,8,VDD1*%
%TO.N,VCC3_D*%
X150230000Y-92630000D03*
%TO.P,U4,9,GNDB*%
%TO.N,Net-(J18-Pin_1)*%
X155180000Y-92630000D03*
%TO.P,U4,10,VOB*%
%TO.N,Net-(J24-Pin_2)*%
X155180000Y-91360000D03*
%TO.P,U4,11,VDDB*%
%TO.N,VCC12_IN*%
X155180000Y-90090000D03*
%TO.P,U4,12,NC*%
%TO.N,unconnected-(U4-NC-Pad12)*%
X155180000Y-88820000D03*
%TO.P,U4,13,NC*%
%TO.N,unconnected-(U4-NC-Pad13)*%
X155180000Y-87550000D03*
%TO.P,U4,14,GNDA*%
%TO.N,Net-(J17-Pin_1)*%
X155180000Y-86280000D03*
%TO.P,U4,15,VOA*%
%TO.N,Net-(J24-Pin_4)*%
X155180000Y-85010000D03*
%TO.P,U4,16,VDDA*%
%TO.N,Net-(D1-K)*%
X155180000Y-83740000D03*
%TD*%
D32*
%TO.P,C5,1*%
%TO.N,GND_D*%
X131825000Y-90357000D03*
%TO.P,C5,2*%
%TO.N,VDD3_D*%
X130275000Y-90357000D03*
%TD*%
D22*
%TO.P,J10,1,Pin_1*%
%TO.N,GND_D*%
X107800000Y-125130000D03*
D23*
%TO.P,J10,2,Pin_2*%
%TO.N,/PC8*%
X107800000Y-122590000D03*
%TO.P,J10,3,Pin_3*%
%TO.N,/PC9*%
X107800000Y-120050000D03*
%TO.P,J10,4,Pin_4*%
%TO.N,VCC3_D*%
X107800000Y-117510000D03*
%TO.P,J10,5,Pin_5*%
%TO.N,VCC5_D*%
X107800000Y-114970000D03*
%TD*%
D22*
%TO.P,J13,1,Pin_1*%
%TO.N,Net-(J13-Pin_1)*%
X139178000Y-107121000D03*
D23*
%TO.P,J13,2,Pin_2*%
%TO.N,/PC13*%
X136638000Y-107121000D03*
%TO.P,J13,3,Pin_3*%
%TO.N,/PC14*%
X139178000Y-104581000D03*
%TO.P,J13,4,Pin_4*%
%TO.N,/PC15*%
X136638000Y-104581000D03*
%TO.P,J13,5,Pin_5*%
%TO.N,/PF0*%
X139178000Y-102041000D03*
%TO.P,J13,6,Pin_6*%
%TO.N,/PF1*%
X136638000Y-102041000D03*
%TO.P,J13,7,Pin_7*%
%TO.N,NRST*%
X139178000Y-99501000D03*
%TO.P,J13,8,Pin_8*%
%TO.N,/PC0*%
X136638000Y-99501000D03*
%TO.P,J13,9,Pin_9*%
%TO.N,/PC1*%
X139178000Y-96961000D03*
%TO.P,J13,10,Pin_10*%
%TO.N,/PC2*%
X136638000Y-96961000D03*
%TO.P,J13,11,Pin_11*%
%TO.N,/PC3*%
X139178000Y-94421000D03*
%TO.P,J13,12,Pin_12*%
%TO.N,/PA0*%
X136638000Y-94421000D03*
%TO.P,J13,13,Pin_13*%
%TO.N,/PA1*%
X139178000Y-91881000D03*
%TO.P,J13,14,Pin_14*%
%TO.N,STLINK_RX*%
X136638000Y-91881000D03*
%TO.P,J13,15,Pin_15*%
%TO.N,GND_D*%
X139178000Y-89341000D03*
%TO.P,J13,16,Pin_16*%
X136638000Y-89341000D03*
%TD*%
D10*
%TO.P,R1,1*%
%TO.N,Net-(J4-Pin_6)*%
X132320000Y-70291000D03*
%TO.P,R1,2*%
%TO.N,Net-(J4-Pin_5)*%
X130670000Y-70291000D03*
%TD*%
D33*
%TO.P,J11,1,1*%
%TO.N,GND_D*%
X143750000Y-49912500D03*
D34*
%TO.P,J11,2,2*%
%TO.N,VCC12_IN*%
X138670000Y-49912500D03*
%TD*%
D22*
%TO.P,J28,1,Pin_1*%
%TO.N,Net-(J28-Pin_1)*%
X137986792Y-80331208D03*
%TD*%
D25*
%TO.P,C11,1*%
%TO.N,VCC5_IN*%
X159752000Y-100999000D03*
%TO.P,C11,2*%
%TO.N,GND_D*%
X159752000Y-102549000D03*
%TD*%
D30*
%TO.P,R26,1*%
%TO.N,Net-(J28-Pin_1)*%
X132700000Y-79425000D03*
%TO.P,R26,2*%
%TO.N,Net-(D5-A)*%
X132700000Y-77775000D03*
%TD*%
D21*
%TO.P,C8,1*%
%TO.N,VDD3_D*%
X151090000Y-106274000D03*
%TO.P,C8,2*%
%TO.N,GND_D*%
X152640000Y-106274000D03*
%TD*%
D35*
%TO.P,D9,1,K*%
%TO.N,Net-(D9-K-Pad1)*%
X94984000Y-74150000D03*
%TO.P,D9,2,A*%
%TO.N,Net-(D9-A)*%
X97016000Y-75100000D03*
%TO.P,D9,3,K*%
%TO.N,Net-(D9-K-Pad3)*%
X94984000Y-76116000D03*
%TD*%
D22*
%TO.P,J9,1,Pin_1*%
%TO.N,STLINK_TX*%
X130796000Y-125142000D03*
D23*
%TO.P,J9,2,Pin_2*%
%TO.N,STLINK_RX*%
X133336000Y-125142000D03*
%TD*%
D36*
%TO.P,U2,1,GND*%
%TO.N,GND_A*%
X110462000Y-74407000D03*
D37*
%TO.P,U2,2,VO*%
%TO.N,VCC5_D*%
X112762000Y-68207000D03*
D36*
X112762000Y-74407000D03*
%TO.P,U2,3,VI*%
%TO.N,VCC5_IN*%
X114962000Y-74407000D03*
%TD*%
D22*
%TO.P,J6,1,Pin_1*%
%TO.N,STLINK_TX*%
X132066000Y-82229000D03*
D23*
%TO.P,J6,2,Pin_2*%
%TO.N,/PA4*%
X132066000Y-84769000D03*
%TO.P,J6,3,Pin_3*%
%TO.N,/PA5*%
X129526000Y-82229000D03*
%TO.P,J6,4,Pin_4*%
%TO.N,/PA6*%
X129526000Y-84769000D03*
%TO.P,J6,5,Pin_5*%
%TO.N,/PA7*%
X126986000Y-82229000D03*
%TO.P,J6,6,Pin_6*%
%TO.N,/PC4*%
X126986000Y-84769000D03*
%TO.P,J6,7,Pin_7*%
%TO.N,/PC5*%
X124446000Y-82229000D03*
%TO.P,J6,8,Pin_8*%
%TO.N,/PB0*%
X124446000Y-84769000D03*
%TO.P,J6,9,Pin_9*%
%TO.N,/PB1*%
X121906000Y-82229000D03*
%TO.P,J6,10,Pin_10*%
%TO.N,/PB2*%
X121906000Y-84769000D03*
%TD*%
D38*
%TO.P,U5,1,GND*%
%TO.N,GND_D*%
X155942000Y-103988000D03*
D39*
%TO.P,U5,2,VO*%
%TO.N,VDD3_D*%
X149742000Y-101688000D03*
D38*
X155942000Y-101688000D03*
%TO.P,U5,3,VI*%
%TO.N,VCC5_IN*%
X155942000Y-99488000D03*
%TD*%
D33*
%TO.P,J3,1,1*%
%TO.N,GND_D*%
X115810000Y-49895000D03*
D34*
%TO.P,J3,2,2*%
%TO.N,VCC5_IN*%
X110730000Y-49895000D03*
%TD*%
D11*
%TO.P,R39,1*%
%TO.N,Net-(D9-K-Pad3)*%
X98375000Y-76100000D03*
%TO.P,R39,2*%
%TO.N,Net-(C23-Pad2)*%
X100025000Y-76100000D03*
%TD*%
D22*
%TO.P,J7,1,Pin_1*%
%TO.N,SWDIO*%
X114286000Y-113217000D03*
D23*
%TO.P,J7,2,Pin_2*%
%TO.N,SWCLK*%
X114286000Y-110677000D03*
%TO.P,J7,3,Pin_3*%
%TO.N,/PA15*%
X116826000Y-113217000D03*
%TO.P,J7,4,Pin_4*%
%TO.N,/PC10*%
X116826000Y-110677000D03*
%TO.P,J7,5,Pin_5*%
%TO.N,/PC11*%
X119366000Y-113217000D03*
%TO.P,J7,6,Pin_6*%
%TO.N,/PC12*%
X119366000Y-110677000D03*
%TO.P,J7,7,Pin_7*%
%TO.N,/PD2*%
X121906000Y-113217000D03*
%TO.P,J7,8,Pin_8*%
%TO.N,SWO*%
X121906000Y-110677000D03*
%TO.P,J7,9,Pin_9*%
%TO.N,/PB4*%
X124446000Y-113217000D03*
%TO.P,J7,10,Pin_10*%
%TO.N,/PB5*%
X124446000Y-110677000D03*
%TO.P,J7,11,Pin_11*%
%TO.N,/PB6*%
X126986000Y-113217000D03*
%TO.P,J7,12,Pin_12*%
%TO.N,/PB7*%
X126986000Y-110677000D03*
%TO.P,J7,13,Pin_13*%
%TO.N,/PB8*%
X129526000Y-113217000D03*
%TO.P,J7,14,Pin_14*%
%TO.N,/PB9*%
X129526000Y-110677000D03*
%TO.P,J7,15,Pin_15*%
%TO.N,GND_D*%
X132066000Y-113217000D03*
%TO.P,J7,16,Pin_16*%
X132066000Y-110677000D03*
%TD*%
D10*
%TO.P,R2,1*%
%TO.N,Net-(J4-Pin_2)*%
X121969000Y-70291000D03*
%TO.P,R2,2*%
%TO.N,Net-(J4-Pin_1)*%
X120319000Y-70291000D03*
%TD*%
D40*
%TO.P,C7,1*%
%TO.N,VCC12_IN*%
X155844000Y-59356000D03*
%TO.P,C7,2*%
%TO.N,GND_D*%
X152894000Y-59356000D03*
%TD*%
D27*
%TO.P,R51,1*%
%TO.N,Net-(R46-Pad1)*%
X73558400Y-75629000D03*
%TO.P,R51,2*%
%TO.N,/GND_S*%
X73558400Y-77279000D03*
%TD*%
D22*
%TO.P,J27,1,Pin_1*%
%TO.N,GND_D*%
X149756000Y-50923200D03*
D23*
%TO.P,J27,2,Pin_2*%
%TO.N,VCC12_IN*%
X149756000Y-53463200D03*
%TD*%
D10*
%TO.P,R42,1*%
%TO.N,Net-(C23-Pad1)*%
X99499400Y-71805800D03*
%TO.P,R42,2*%
%TO.N,Net-(R41-Pad1)*%
X97849400Y-71805800D03*
%TD*%
D32*
%TO.P,C3,1*%
%TO.N,Net-(U1-Cbyp)*%
X130301000Y-57832000D03*
%TO.P,C3,2*%
%TO.N,GND_D*%
X128751000Y-57832000D03*
%TD*%
D27*
%TO.P,R49,1*%
%TO.N,Net-(R44-Pad1)*%
X99618800Y-95136200D03*
%TO.P,R49,2*%
%TO.N,Net-(C19-Pad1)*%
X99618800Y-96786200D03*
%TD*%
D41*
%TO.P,U1,1,Vin*%
%TO.N,VCC5_IN*%
X127052000Y-62421000D03*
%TO.P,U1,2,GND*%
%TO.N,GND_D*%
X128002000Y-62421000D03*
%TO.P,U1,3,En*%
%TO.N,VCC5_IN*%
X128952000Y-62421000D03*
%TO.P,U1,4,Cbyp*%
%TO.N,Net-(U1-Cbyp)*%
X128952000Y-59821000D03*
%TO.P,U1,5,Vout*%
%TO.N,VDD3_A*%
X127052000Y-59821000D03*
%TD*%
D35*
%TO.P,D7,1,K*%
%TO.N,Net-(D7-K-Pad1)*%
X94384000Y-124780000D03*
%TO.P,D7,2,A*%
%TO.N,Net-(D7-A)*%
X96416000Y-125730000D03*
%TO.P,D7,3,K*%
%TO.N,Net-(D7-K-Pad3)*%
X94384000Y-126746000D03*
%TD*%
D10*
%TO.P,R45,1*%
%TO.N,Net-(R45-Pad1)*%
X94425000Y-43332400D03*
%TO.P,R45,2*%
%TO.N,Net-(C22-Pad1)*%
X92775000Y-43332400D03*
%TD*%
D11*
%TO.P,R32,1*%
%TO.N,Net-(D7-K-Pad1)*%
X96533200Y-121412000D03*
%TO.P,R32,2*%
%TO.N,Net-(C19-Pad1)*%
X98183200Y-121412000D03*
%TD*%
D15*
%TO.P,C17,1*%
%TO.N,Net-(C17-Pad1)*%
X73160600Y-95681800D03*
%TO.P,C17,2*%
%TO.N,Net-(C17-Pad2)*%
X73160600Y-94131800D03*
%TD*%
D16*
%TO.P,J29,1,In*%
%TO.N,Net-(J29-In)*%
X87250000Y-38070000D03*
D17*
%TO.P,J29,2,Ext*%
%TO.N,/GND_S*%
X91630000Y-38070000D03*
X82870000Y-38070000D03*
D18*
X91630000Y-41060000D03*
X82870000Y-41060000D03*
D19*
X91630000Y-41510000D03*
X82870000Y-41510000D03*
%TD*%
D15*
%TO.P,C2,1*%
%TO.N,VCC5_IN*%
X131558000Y-65211000D03*
%TO.P,C2,2*%
%TO.N,GND_D*%
X131558000Y-63661000D03*
%TD*%
D22*
%TO.P,J12,1,Pin_1*%
%TO.N,Net-(J12-Pin_1)*%
X152900000Y-79900000D03*
D23*
%TO.P,J12,2,Pin_2*%
%TO.N,Net-(J12-Pin_2)*%
X150360000Y-79900000D03*
%TO.P,J12,3,Pin_3*%
%TO.N,Net-(J12-Pin_3)*%
X147820000Y-79900000D03*
%TO.P,J12,4,Pin_4*%
%TO.N,Net-(J12-Pin_4)*%
X145280000Y-79900000D03*
%TD*%
D22*
%TO.P,J25,1,Pin_1*%
%TO.N,Net-(J18-Pin_1)*%
X163364200Y-92670800D03*
D23*
%TO.P,J25,2,Pin_2*%
%TO.N,Net-(J24-Pin_2)*%
X163364200Y-90130800D03*
%TO.P,J25,3,Pin_3*%
%TO.N,Net-(J17-Pin_1)*%
X163364200Y-87590800D03*
%TO.P,J25,4,Pin_4*%
%TO.N,Net-(J24-Pin_4)*%
X163364200Y-85050800D03*
%TD*%
D42*
%TO.N,VCC5_IN*%
X155434000Y-97964000D03*
X155390000Y-65140000D03*
D43*
%TO.N,GND_A*%
X120751600Y-90119200D03*
X121579099Y-95437000D03*
X116064000Y-84007000D03*
%TO.N,VCC5_D*%
X113524000Y-107108000D03*
X112762000Y-77136000D03*
%TO.N,VDD3_D*%
X122668000Y-101279000D03*
D44*
X130275000Y-92740000D03*
%TO.N,VCC12_IN*%
X161268400Y-59457600D03*
D43*
X161276000Y-89582000D03*
%TO.N,VCC3_D*%
X144766000Y-92884000D03*
X112201000Y-117497677D03*
X144512000Y-122601990D03*
X144645942Y-86306502D03*
X112254012Y-122094000D03*
%TO.N,VDD3_A*%
X119540000Y-87470000D03*
X117080000Y-84790000D03*
X120128000Y-95424000D03*
X125462000Y-61388000D03*
D42*
%TO.N,GND_D*%
X138990000Y-77288400D03*
D44*
X111351000Y-115998000D03*
D43*
X118107600Y-63115200D03*
D44*
X133590000Y-55292000D03*
D42*
X147878800Y-110677000D03*
D44*
X128002000Y-63928000D03*
D42*
X113944400Y-102617500D03*
X139039600Y-110677000D03*
X114484479Y-85108721D03*
D44*
X111238000Y-125396000D03*
D43*
X119112000Y-94662000D03*
D44*
X133336000Y-63420000D03*
D43*
X118350000Y-101533000D03*
X119174400Y-52142400D03*
X125208000Y-103298000D03*
X126224000Y-98472000D03*
D42*
X118243679Y-88867921D03*
D44*
X128256000Y-55292000D03*
D43*
%TO.N,SWDIO*%
X114280012Y-116506000D03*
X127640000Y-116740000D03*
%TO.N,STLINK_TX*%
X142480000Y-123364000D03*
X144163000Y-84359670D03*
%TO.N,STLINK_RX*%
X141210000Y-124888000D03*
X141429048Y-90615476D03*
%TO.N,NRST*%
X142480000Y-118420000D03*
X142590000Y-99501000D03*
%TO.N,/PC8*%
X110476000Y-122602000D03*
%TO.N,/PC9*%
X109714000Y-120062000D03*
%TO.N,/GND_S*%
X103750000Y-104750000D03*
X71750000Y-37750000D03*
X103750000Y-73000000D03*
X71750000Y-53250000D03*
X71750000Y-61500000D03*
X103750000Y-93250000D03*
X97000000Y-82000000D03*
X71500000Y-99000000D03*
X103750000Y-98000000D03*
X71500000Y-127250000D03*
X71750000Y-82250000D03*
X103750000Y-52500000D03*
X103750000Y-82000000D03*
X103750000Y-110750000D03*
X103750000Y-60500000D03*
X71500000Y-116250000D03*
X79750000Y-133279500D03*
X103750000Y-127250000D03*
X71500000Y-133250000D03*
X77250000Y-37750000D03*
X71500000Y-110500000D03*
X103750000Y-116000000D03*
X71500000Y-94250000D03*
X103750000Y-45500000D03*
X71750000Y-47000000D03*
X71500000Y-89500000D03*
X103750000Y-122250000D03*
X94250000Y-132750000D03*
X77000000Y-82269500D03*
X71750000Y-77500000D03*
X71500000Y-105250000D03*
X103750000Y-68000000D03*
X71750000Y-69500000D03*
X103750000Y-88000000D03*
X103500000Y-38000000D03*
X71500000Y-121250000D03*
X71750000Y-41750000D03*
X103750000Y-132750000D03*
%TO.N,Net-(J12-Pin_4)*%
X145600000Y-88900000D03*
%TD*%
D45*
%TO.N,Net-(D1-K)*%
X159320200Y-71468200D02*
X159269400Y-71417400D01*
X155180000Y-83740000D02*
X158834000Y-83740000D01*
X159320200Y-77542400D02*
X159320200Y-83253800D01*
X159320200Y-77542400D02*
X159320200Y-71468200D01*
X159320200Y-83253800D02*
X159244000Y-83330000D01*
X158834000Y-83740000D02*
X159244000Y-83330000D01*
D46*
%TO.N,VCC5_IN*%
X130018877Y-65198000D02*
X129277000Y-64456123D01*
X121511200Y-53463200D02*
X121511200Y-54479200D01*
X128530123Y-65203000D02*
X129277000Y-64456123D01*
X114962000Y-74407000D02*
X115810000Y-73559000D01*
X126991000Y-65203000D02*
X128530123Y-65203000D01*
X126727000Y-62591000D02*
X126897000Y-62421000D01*
X115365000Y-54530000D02*
X115810000Y-54530000D01*
X121460400Y-54530000D02*
X121765200Y-54530000D01*
D45*
X159231000Y-100999000D02*
X157720000Y-99488000D01*
D46*
X129277000Y-64456123D02*
X129277000Y-62591000D01*
D45*
X157720000Y-99488000D02*
X155942000Y-99488000D01*
D46*
X121511200Y-53463200D02*
X121511200Y-54276000D01*
X115810000Y-54530000D02*
X121460400Y-54530000D01*
X122922000Y-55702000D02*
X122922000Y-63882000D01*
X126986000Y-65198000D02*
X126991000Y-65203000D01*
X131558000Y-65211000D02*
X131545000Y-65198000D01*
X110730000Y-49895000D02*
X115365000Y-54530000D01*
X121511200Y-54479200D02*
X121460400Y-54530000D01*
X122922000Y-63882000D02*
X124238000Y-65198000D01*
X130542000Y-65198000D02*
X155332000Y-65198000D01*
X126727000Y-64939000D02*
X126727000Y-62591000D01*
X155332000Y-65198000D02*
X155390000Y-65140000D01*
X121511200Y-54276000D02*
X121765200Y-54530000D01*
X129277000Y-62591000D02*
X129107000Y-62421000D01*
D45*
X159752000Y-100999000D02*
X159231000Y-100999000D01*
D46*
X121765200Y-54545200D02*
X122922000Y-55702000D01*
X155942000Y-98472000D02*
X155434000Y-97964000D01*
D45*
X118235600Y-57730400D02*
X116064000Y-57730400D01*
D46*
X155942000Y-99488000D02*
X155942000Y-98472000D01*
X115810000Y-73559000D02*
X115810000Y-57476400D01*
X130542000Y-65198000D02*
X130018877Y-65198000D01*
D45*
X116064000Y-57730400D02*
X115810000Y-57476400D01*
D46*
X121765200Y-54530000D02*
X121765200Y-54545200D01*
X131545000Y-65198000D02*
X130542000Y-65198000D01*
X124238000Y-65198000D02*
X126986000Y-65198000D01*
X115810000Y-57476400D02*
X115810000Y-54530000D01*
X126986000Y-65198000D02*
X126727000Y-64939000D01*
D45*
%TO.N,GND_A*%
X120997000Y-94854901D02*
X121579099Y-95437000D01*
X116064000Y-84007000D02*
X116064000Y-82483000D01*
X120997000Y-93318000D02*
X120997000Y-90364600D01*
X110462000Y-74407000D02*
X109245000Y-74407000D01*
X110462000Y-76881000D02*
X116064000Y-82483000D01*
X120997000Y-93318000D02*
X120997000Y-94854901D01*
X120997000Y-90364600D02*
X120751600Y-90119200D01*
X110462000Y-76881000D02*
X110462000Y-74407000D01*
X109245000Y-74407000D02*
X107174000Y-72336000D01*
%TO.N,VCC5_D*%
X112762000Y-74407000D02*
X112762000Y-77136000D01*
X108229000Y-68207000D02*
X112762000Y-68207000D01*
X107800000Y-114970000D02*
X107800000Y-112832000D01*
X107174000Y-70786000D02*
X107174000Y-69262000D01*
X107174000Y-69262000D02*
X108229000Y-68207000D01*
X107800000Y-112832000D02*
X113524000Y-107108000D01*
D47*
%TO.N,VDD3_D*%
X119366000Y-96948000D02*
X118262000Y-95844000D01*
D45*
X125997000Y-103057000D02*
X125997000Y-104668000D01*
X125208000Y-96961000D02*
X118497000Y-96961000D01*
D47*
X125208000Y-96961000D02*
X125120000Y-97049000D01*
X125970000Y-95243000D02*
X125208000Y-96005000D01*
X125120000Y-101953000D02*
X125910000Y-102743000D01*
D45*
X125910000Y-102743000D02*
X125997000Y-102830000D01*
D47*
X125910000Y-102743000D02*
X132080000Y-108913000D01*
X125120000Y-97049000D02*
X125120000Y-101953000D01*
D45*
X118824000Y-102523000D02*
X125690000Y-102523000D01*
X118337000Y-95277000D02*
X118497000Y-95437000D01*
X127922000Y-95243000D02*
X125970000Y-95243000D01*
X132080000Y-109140000D02*
X127501000Y-104561000D01*
X127501000Y-104561000D02*
X125850000Y-102910000D01*
X118497000Y-95437000D02*
X118497000Y-95691000D01*
X122668000Y-101279000D02*
X124219000Y-101279000D01*
X148648000Y-106274000D02*
X149592000Y-105330000D01*
D47*
X149592000Y-101838000D02*
X149742000Y-101688000D01*
D45*
X118497000Y-93318000D02*
X118337000Y-93478000D01*
X118337000Y-93478000D02*
X118337000Y-95277000D01*
D47*
X155942000Y-101688000D02*
X149742000Y-101688000D01*
D45*
X116572000Y-102743000D02*
X118604000Y-102743000D01*
X119366000Y-96560000D02*
X119366000Y-96948000D01*
D47*
X119379000Y-96961000D02*
X119366000Y-96948000D01*
D45*
X125850000Y-102910000D02*
X125208000Y-102268000D01*
X119366000Y-96948000D02*
X119366000Y-101981000D01*
X125997000Y-103057000D02*
X125850000Y-102910000D01*
X124219000Y-101279000D02*
X125208000Y-102268000D01*
X118497000Y-96961000D02*
X118497000Y-95437000D01*
D47*
X145782000Y-109140000D02*
X149592000Y-105330000D01*
D45*
X119366000Y-101981000D02*
X118604000Y-102743000D01*
X125208000Y-96005000D02*
X125208000Y-96961000D01*
D47*
X127494000Y-104568000D02*
X127501000Y-104561000D01*
X127494000Y-105304000D02*
X127494000Y-104568000D01*
X130275000Y-92740000D02*
X127922000Y-95093000D01*
X132080000Y-109140000D02*
X132080000Y-108913000D01*
X118262000Y-93503000D02*
X118447000Y-93318000D01*
X130275000Y-90357000D02*
X130275000Y-92740000D01*
X132080000Y-109140000D02*
X145782000Y-109140000D01*
D45*
X125997000Y-102830000D02*
X125997000Y-103057000D01*
X148648000Y-106274000D02*
X145782000Y-109140000D01*
D47*
X149592000Y-105330000D02*
X149592000Y-101838000D01*
D45*
X118497000Y-95691000D02*
X119366000Y-96560000D01*
D47*
X125208000Y-96961000D02*
X119379000Y-96961000D01*
D45*
X125690000Y-102523000D02*
X125910000Y-102743000D01*
D47*
X118262000Y-95844000D02*
X118262000Y-93503000D01*
D45*
X151090000Y-106274000D02*
X148648000Y-106274000D01*
X118604000Y-102743000D02*
X118824000Y-102523000D01*
D47*
%TO.N,VCC12_IN*%
X159269400Y-67157400D02*
X159269400Y-59864000D01*
X155844000Y-59356000D02*
X161149000Y-59356000D01*
D45*
X158580000Y-90090000D02*
X158990000Y-89680000D01*
X161178000Y-89680000D02*
X161276000Y-89582000D01*
D47*
X159269400Y-59864000D02*
X159650400Y-59483000D01*
X161149000Y-59356000D02*
X161276000Y-59483000D01*
D45*
X147876400Y-55342800D02*
X149756000Y-53463200D01*
X155180000Y-90090000D02*
X158580000Y-90090000D01*
D47*
X159650400Y-59483000D02*
X161276000Y-59483000D01*
D45*
X158990000Y-89680000D02*
X161178000Y-89680000D01*
X147876400Y-56866800D02*
X147876400Y-55342800D01*
%TO.N,VCC3_D*%
X150230000Y-86280000D02*
X144672444Y-86280000D01*
X121313990Y-122601990D02*
X112762002Y-122601990D01*
X145020000Y-92630000D02*
X150230000Y-92630000D01*
X144766000Y-92884000D02*
X145020000Y-92630000D01*
X120382000Y-121670000D02*
X121313990Y-122601990D01*
X120382000Y-120570000D02*
X120382000Y-121670000D01*
X144672444Y-86280000D02*
X144645942Y-86306502D01*
X112762002Y-122601990D02*
X112254012Y-122094000D01*
X112160576Y-117538101D02*
X112201000Y-117497677D01*
X107828101Y-117538101D02*
X112160576Y-117538101D01*
X144512000Y-122601990D02*
X121313990Y-122601990D01*
X107800000Y-117510000D02*
X107828101Y-117538101D01*
%TO.N,VDD3_A*%
X125462000Y-61388000D02*
X126579000Y-60271000D01*
X119540000Y-87470000D02*
X119997000Y-87927000D01*
X126579000Y-60271000D02*
X126602000Y-60271000D01*
X125195000Y-57832000D02*
X124192000Y-57832000D01*
X126602000Y-60271000D02*
X127052000Y-59821000D01*
X119997000Y-95293000D02*
X120128000Y-95424000D01*
X119540000Y-87470000D02*
X117080000Y-85010000D01*
X123938000Y-58086000D02*
X123938000Y-58594000D01*
X124192000Y-57832000D02*
X123938000Y-58086000D01*
X125165000Y-59821000D02*
X127052000Y-59821000D01*
X119997000Y-87927000D02*
X119997000Y-93318000D01*
X119997000Y-93318000D02*
X119997000Y-95293000D01*
X117080000Y-85010000D02*
X117080000Y-84790000D01*
X123938000Y-58594000D02*
X125165000Y-59821000D01*
D47*
%TO.N,GND_D*%
X132066000Y-113217000D02*
X132066000Y-110677000D01*
D45*
X116572000Y-102243000D02*
X117640000Y-102243000D01*
X146380100Y-59965600D02*
X144207200Y-59965600D01*
X157720000Y-104314000D02*
X157720000Y-104568000D01*
D48*
X115810000Y-49895000D02*
X119123600Y-49895000D01*
D45*
X135368000Y-89341000D02*
X128966000Y-95743000D01*
X127079236Y-95743000D02*
X126224000Y-96598236D01*
X118997000Y-94547000D02*
X119112000Y-94662000D01*
D48*
X128256000Y-55292000D02*
X133590000Y-55292000D01*
D45*
X135114000Y-89341000D02*
X132841000Y-89341000D01*
X151838800Y-62454800D02*
X145844400Y-62454800D01*
X125497000Y-105647000D02*
X125497000Y-104668000D01*
X152640000Y-106274000D02*
X156776000Y-106274000D01*
X157720000Y-104568000D02*
X157720000Y-105330000D01*
X126224000Y-96598236D02*
X126224000Y-98472000D01*
X127494000Y-106854000D02*
X127494000Y-107616000D01*
X144207200Y-59965600D02*
X144004000Y-59762400D01*
D46*
X118278094Y-88833506D02*
X118243679Y-88867921D01*
X137027500Y-77360000D02*
X138918400Y-77360000D01*
D45*
X128256000Y-55292000D02*
X128751000Y-55787000D01*
X143750000Y-49912500D02*
X143750000Y-52244000D01*
X130542000Y-109153000D02*
X129003000Y-109153000D01*
X145844400Y-62454800D02*
X144004000Y-60614400D01*
X107682000Y-82991000D02*
X112435588Y-82991000D01*
D47*
X125984082Y-120570000D02*
X125462000Y-120570000D01*
D45*
X157733000Y-104568000D02*
X157720000Y-104568000D01*
D47*
X131558000Y-63661000D02*
X133095000Y-63661000D01*
D45*
X119174400Y-49945800D02*
X119123600Y-49895000D01*
X132841000Y-89341000D02*
X131825000Y-90357000D01*
D46*
X114518894Y-85074306D02*
X114484479Y-85108721D01*
D47*
X111749000Y-115600000D02*
X129395000Y-115600000D01*
D45*
X111746000Y-104835000D02*
X111746000Y-103565000D01*
X157720000Y-109648000D02*
X157593000Y-109775000D01*
X128966000Y-95743000D02*
X127922000Y-95743000D01*
D47*
X129539000Y-115744000D02*
X132066000Y-113217000D01*
D45*
X125497000Y-104668000D02*
X125497000Y-103587000D01*
X118997000Y-89552412D02*
X118997000Y-93318000D01*
D47*
X157394000Y-103988000D02*
X157720000Y-104314000D01*
D45*
X114295505Y-102500600D02*
X114553105Y-102243000D01*
X156776000Y-106274000D02*
X157720000Y-105330000D01*
X118163000Y-63059800D02*
X118107600Y-63115200D01*
D48*
X139178000Y-89341000D02*
X136638000Y-89341000D01*
D45*
X143750000Y-52244000D02*
X143750000Y-52498000D01*
D48*
X119123600Y-49895000D02*
X121460400Y-49895000D01*
D45*
X117640000Y-102243000D02*
X118350000Y-101533000D01*
X152894000Y-61399600D02*
X151838800Y-62454800D01*
X110222000Y-106359000D02*
X111746000Y-104835000D01*
D48*
X136638000Y-89341000D02*
X135114000Y-89341000D01*
D45*
X112810400Y-102500600D02*
X113944400Y-102500600D01*
X127922000Y-95743000D02*
X127079236Y-95743000D01*
D47*
X111238000Y-125396000D02*
X108066000Y-125396000D01*
D45*
X118997000Y-93318000D02*
X118997000Y-94547000D01*
D46*
X148745300Y-49912500D02*
X149756000Y-50923200D01*
D45*
X119174400Y-52142400D02*
X119174400Y-49945800D01*
D47*
X129539000Y-117015082D02*
X125984082Y-120570000D01*
X155942000Y-103988000D02*
X157394000Y-103988000D01*
D45*
X132066000Y-110677000D02*
X130542000Y-109153000D01*
X107682000Y-82991000D02*
X107682000Y-80451000D01*
D47*
X133095000Y-63661000D02*
X133336000Y-63420000D01*
X129395000Y-115600000D02*
X129539000Y-115744000D01*
D45*
X144004000Y-60614400D02*
X144004000Y-59762400D01*
D46*
X113944400Y-102500600D02*
X113944400Y-102617500D01*
D47*
X156691000Y-110677000D02*
X157593000Y-109775000D01*
D45*
X126745000Y-57832000D02*
X128751000Y-57832000D01*
X118278094Y-88833506D02*
X118997000Y-89552412D01*
X136638000Y-89341000D02*
X135368000Y-89341000D01*
D47*
X108066000Y-125396000D02*
X107800000Y-125130000D01*
D45*
X127480000Y-107630000D02*
X125497000Y-105647000D01*
X125497000Y-103587000D02*
X125208000Y-103298000D01*
D48*
X133590000Y-55292000D02*
X140956000Y-55292000D01*
D45*
X114518894Y-85074306D02*
X118278094Y-88833506D01*
X152894000Y-59356000D02*
X152894000Y-61399600D01*
D46*
X121511200Y-50923200D02*
X121511200Y-49945800D01*
D48*
X121460400Y-49895000D02*
X122859000Y-49895000D01*
D46*
X121511200Y-49945800D02*
X121460400Y-49895000D01*
D45*
X128751000Y-55787000D02*
X128751000Y-57832000D01*
D46*
X138918400Y-77360000D02*
X138990000Y-77288400D01*
D47*
X129539000Y-115744000D02*
X129539000Y-117015082D01*
X140956000Y-55292000D02*
X128256000Y-55292000D01*
D45*
X157720000Y-105330000D02*
X157720000Y-109648000D01*
X107682000Y-106359000D02*
X110222000Y-106359000D01*
D47*
X128002000Y-62421000D02*
X128002000Y-63928000D01*
D45*
X144004000Y-59762400D02*
X144004000Y-52498000D01*
D47*
X111351000Y-115998000D02*
X111749000Y-115600000D01*
D45*
X112435588Y-82991000D02*
X114518894Y-85074306D01*
X129003000Y-109153000D02*
X127480000Y-107630000D01*
X144004000Y-52498000D02*
X143750000Y-52244000D01*
D48*
X122859000Y-49895000D02*
X128256000Y-55292000D01*
D45*
X114553105Y-102243000D02*
X116572000Y-102243000D01*
X111746000Y-103565000D02*
X112810400Y-102500600D01*
X118163000Y-60981600D02*
X118163000Y-63059800D01*
D47*
X132066000Y-110677000D02*
X156691000Y-110677000D01*
D45*
X159752000Y-102549000D02*
X157733000Y-104568000D01*
D48*
X141210000Y-55038000D02*
X143750000Y-52498000D01*
D45*
X113944400Y-102500600D02*
X114295505Y-102500600D01*
D46*
X143750000Y-49912500D02*
X148745300Y-49912500D01*
D48*
X143750000Y-52498000D02*
X143750000Y-49912500D01*
D45*
X127494000Y-107616000D02*
X127480000Y-107630000D01*
D48*
X140956000Y-55292000D02*
X141210000Y-55038000D01*
D45*
%TO.N,SWO*%
X121906000Y-108137000D02*
X121997000Y-108228000D01*
X121906000Y-110677000D02*
X121906000Y-108137000D01*
X121997000Y-108228000D02*
X121997000Y-104668000D01*
%TO.N,SWCLK*%
X114286000Y-110548604D02*
X118997000Y-105837604D01*
X118997000Y-105837604D02*
X118997000Y-104668000D01*
X114286000Y-110677000D02*
X114286000Y-110548604D01*
%TO.N,SWDIO*%
X113524000Y-108899000D02*
X115048000Y-108899000D01*
X118497000Y-105450000D02*
X118497000Y-104668000D01*
X113016000Y-109407000D02*
X113524000Y-108899000D01*
X115048000Y-108899000D02*
X118497000Y-105450000D01*
X113016000Y-111947000D02*
X113016000Y-109407000D01*
X114280012Y-116506000D02*
X127406000Y-116506000D01*
X127406000Y-116506000D02*
X127640000Y-116740000D01*
X114286000Y-113217000D02*
X113016000Y-111947000D01*
%TO.N,STLINK_TX*%
X132066000Y-123364000D02*
X130796000Y-124634000D01*
X133590000Y-85725000D02*
X131752000Y-87563000D01*
X131752000Y-87563000D02*
X129018000Y-87563000D01*
X129018000Y-87563000D02*
X125997000Y-90584000D01*
X142032330Y-82229000D02*
X144163000Y-84359670D01*
X132066000Y-82229000D02*
X133590000Y-83753000D01*
X142480000Y-123364000D02*
X132066000Y-123364000D01*
X130796000Y-124634000D02*
X130796000Y-125142000D01*
X125997000Y-90584000D02*
X125997000Y-93318000D01*
X133590000Y-83753000D02*
X133590000Y-85725000D01*
X132066000Y-82229000D02*
X142032330Y-82229000D01*
%TO.N,STLINK_RX*%
X129228000Y-96243000D02*
X127922000Y-96243000D01*
X137903524Y-90615476D02*
X136638000Y-91881000D01*
X141210000Y-124888000D02*
X140956000Y-125142000D01*
X137903524Y-90615476D02*
X141429048Y-90615476D01*
X133590000Y-91881000D02*
X136638000Y-91881000D01*
X140956000Y-125142000D02*
X133336000Y-125142000D01*
X129228000Y-96243000D02*
X133590000Y-91881000D01*
%TO.N,NRST*%
X138003000Y-100676000D02*
X135019000Y-100676000D01*
X139178000Y-99501000D02*
X138003000Y-100676000D01*
X139178000Y-99501000D02*
X142590000Y-99501000D01*
X134086000Y-99743000D02*
X127922000Y-99743000D01*
X135019000Y-100676000D02*
X134086000Y-99743000D01*
X132692000Y-118420000D02*
X142480000Y-118420000D01*
X130542000Y-120570000D02*
X132692000Y-118420000D01*
%TO.N,/PC13*%
X136638000Y-107121000D02*
X131760000Y-102243000D01*
X131760000Y-102243000D02*
X127922000Y-102243000D01*
%TO.N,/PC14*%
X132138299Y-101743000D02*
X136151299Y-105756000D01*
X127922000Y-101743000D02*
X132138299Y-101743000D01*
X138003000Y-105756000D02*
X139178000Y-104581000D01*
X136151299Y-105756000D02*
X138003000Y-105756000D01*
%TO.N,/PC15*%
X132792000Y-101243000D02*
X127922000Y-101243000D01*
X136638000Y-104581000D02*
X136130000Y-104581000D01*
X136130000Y-104581000D02*
X132792000Y-101243000D01*
%TO.N,/PF0*%
X135876000Y-103311000D02*
X133308000Y-100743000D01*
X139178000Y-102041000D02*
X137908000Y-103311000D01*
X137908000Y-103311000D02*
X135876000Y-103311000D01*
X133308000Y-100743000D02*
X127922000Y-100743000D01*
%TO.N,/PF1*%
X127922000Y-100243000D02*
X133570000Y-100243000D01*
X135368000Y-102041000D02*
X136638000Y-102041000D01*
X133570000Y-100243000D02*
X135368000Y-102041000D01*
%TO.N,/PC0*%
X136638000Y-99501000D02*
X136380000Y-99243000D01*
X136380000Y-99243000D02*
X127922000Y-99243000D01*
%TO.N,/PC1*%
X137813000Y-98326000D02*
X136035000Y-98326000D01*
X136035000Y-98326000D02*
X135618000Y-98743000D01*
X135618000Y-98743000D02*
X127922000Y-98743000D01*
X139178000Y-96961000D02*
X137813000Y-98326000D01*
%TO.N,/PC2*%
X136638000Y-96961000D02*
X135356000Y-98243000D01*
X135356000Y-98243000D02*
X127922000Y-98243000D01*
%TO.N,/PC3*%
X139178000Y-94421000D02*
X138003000Y-95596000D01*
X130522000Y-97743000D02*
X127922000Y-97743000D01*
X132669000Y-95596000D02*
X130522000Y-97743000D01*
X138003000Y-95596000D02*
X132669000Y-95596000D01*
%TO.N,/PA0*%
X132828000Y-94421000D02*
X130006000Y-97243000D01*
X136638000Y-94421000D02*
X132828000Y-94421000D01*
X130006000Y-97243000D02*
X127922000Y-97243000D01*
%TO.N,/PA1*%
X129744000Y-96743000D02*
X127922000Y-96743000D01*
X139178000Y-91881000D02*
X138003000Y-93056000D01*
X138003000Y-93056000D02*
X133431000Y-93056000D01*
X133431000Y-93056000D02*
X129744000Y-96743000D01*
%TO.N,/PA4*%
X129780000Y-87055000D02*
X128764000Y-87055000D01*
X132066000Y-84769000D02*
X129780000Y-87055000D01*
X128764000Y-87055000D02*
X125519000Y-90300000D01*
X125519000Y-93296000D02*
X125497000Y-93318000D01*
X125519000Y-90300000D02*
X125519000Y-93296000D01*
%TO.N,/PA5*%
X130796000Y-85277000D02*
X129526000Y-86547000D01*
X129526000Y-86547000D02*
X128510000Y-86547000D01*
X129526000Y-82229000D02*
X130796000Y-83499000D01*
X130796000Y-83499000D02*
X130796000Y-85277000D01*
X125069000Y-89988000D02*
X125069000Y-91461788D01*
X125069000Y-91461788D02*
X124997000Y-91533788D01*
X124997000Y-91533788D02*
X124997000Y-93318000D01*
X128510000Y-86547000D02*
X125069000Y-89988000D01*
%TO.N,/PA6*%
X124619000Y-91275392D02*
X124497000Y-91397392D01*
X124619000Y-89676000D02*
X124619000Y-91275392D01*
X124497000Y-91397392D02*
X124497000Y-93318000D01*
X129526000Y-84769000D02*
X124619000Y-89676000D01*
%TO.N,/PA7*%
X124169000Y-91088996D02*
X123997000Y-91260996D01*
X124169000Y-89489604D02*
X124169000Y-91088996D01*
X123997000Y-91260996D02*
X123997000Y-93318000D01*
X126986000Y-82229000D02*
X128256000Y-83499000D01*
X128256000Y-83499000D02*
X128256000Y-85402604D01*
X128256000Y-85402604D02*
X124169000Y-89489604D01*
%TO.N,/PC4*%
X123719000Y-90902600D02*
X123497000Y-91124600D01*
X123719000Y-88036000D02*
X123719000Y-90902600D01*
X123497000Y-91124600D02*
X123497000Y-93318000D01*
X126986000Y-84769000D02*
X123719000Y-88036000D01*
%TO.N,/PC5*%
X123269000Y-87849605D02*
X123269000Y-90716204D01*
X124446000Y-82229000D02*
X125716000Y-83499000D01*
X125716000Y-83499000D02*
X125716000Y-85402605D01*
X125716000Y-85402605D02*
X123269000Y-87849605D01*
X123269000Y-90716204D02*
X122997000Y-90988204D01*
X122997000Y-90988204D02*
X122997000Y-93318000D01*
%TO.N,/PB0*%
X124446000Y-84769000D02*
X122819000Y-86396000D01*
X122497000Y-90851808D02*
X122497000Y-93318000D01*
X122819000Y-90529808D02*
X122497000Y-90851808D01*
X122819000Y-86396000D02*
X122819000Y-90529808D01*
%TO.N,/PB1*%
X123176000Y-83499000D02*
X123176000Y-85349396D01*
X122369000Y-86156396D02*
X122369000Y-90343412D01*
X121997000Y-90715412D02*
X121997000Y-93318000D01*
X123176000Y-85349396D02*
X122369000Y-86156396D01*
X121906000Y-82229000D02*
X123176000Y-83499000D01*
X122369000Y-90343412D02*
X121997000Y-90715412D01*
%TO.N,/PB2*%
X121906000Y-84769000D02*
X121906000Y-90170016D01*
X121497000Y-90579016D02*
X121497000Y-93318000D01*
X121906000Y-90170016D02*
X121497000Y-90579016D01*
%TO.N,/PB10*%
X107682000Y-77911000D02*
X108594200Y-77911000D01*
X119497000Y-88813800D02*
X119497000Y-93318000D01*
X108594200Y-77911000D02*
X119497000Y-88813800D01*
%TO.N,/PB11*%
X111490000Y-88050000D02*
X111490000Y-89210604D01*
X109071000Y-87190000D02*
X110630000Y-87190000D01*
X107682000Y-88579000D02*
X109071000Y-87190000D01*
X116572000Y-94292604D02*
X116572000Y-95243000D01*
X111490000Y-89210604D02*
X116572000Y-94292604D01*
X110630000Y-87190000D02*
X111490000Y-88050000D01*
%TO.N,/PB12*%
X114640000Y-95452604D02*
X114930396Y-95743000D01*
X110222000Y-88579000D02*
X114640000Y-92997000D01*
X114640000Y-92997000D02*
X114640000Y-95452604D01*
X114930396Y-95743000D02*
X116572000Y-95743000D01*
%TO.N,/PB13*%
X114653000Y-96243000D02*
X116572000Y-96243000D01*
X114140000Y-93259000D02*
X114140000Y-95730000D01*
X107682000Y-91119000D02*
X108952000Y-89849000D01*
X114140000Y-95730000D02*
X114653000Y-96243000D01*
X110730000Y-89849000D02*
X114140000Y-93259000D01*
X108952000Y-89849000D02*
X110730000Y-89849000D01*
%TO.N,/PB14*%
X113690000Y-94587000D02*
X113690000Y-96490604D01*
X113942396Y-96743000D02*
X116572000Y-96743000D01*
X113690000Y-96490604D02*
X113942396Y-96743000D01*
X110222000Y-91119000D02*
X113690000Y-94587000D01*
%TO.N,/PB15*%
X107682000Y-93659000D02*
X108952000Y-92389000D01*
X110730000Y-92389000D02*
X113200000Y-94859000D01*
X113200000Y-96700000D02*
X113743000Y-97243000D01*
X108952000Y-92389000D02*
X110730000Y-92389000D01*
X113200000Y-94859000D02*
X113200000Y-96700000D01*
X113743000Y-97243000D02*
X116572000Y-97243000D01*
%TO.N,/PC6*%
X113478000Y-97743000D02*
X116572000Y-97743000D01*
X110222000Y-93659000D02*
X112750000Y-96187000D01*
X112750000Y-97015000D02*
X113478000Y-97743000D01*
X112750000Y-96187000D02*
X112750000Y-97015000D01*
%TO.N,/PC7*%
X113173000Y-98243000D02*
X116572000Y-98243000D01*
X112254000Y-96453000D02*
X112254000Y-97324000D01*
X110730000Y-94929000D02*
X112254000Y-96453000D01*
X112254000Y-97324000D02*
X113173000Y-98243000D01*
X108952000Y-94929000D02*
X110730000Y-94929000D01*
X107682000Y-96199000D02*
X108952000Y-94929000D01*
%TO.N,/PC8*%
X107812000Y-122602000D02*
X110476000Y-122602000D01*
X107800000Y-122590000D02*
X107812000Y-122602000D01*
X112766000Y-98743000D02*
X116572000Y-98743000D01*
X110222000Y-96199000D02*
X112766000Y-98743000D01*
%TO.N,/PC9*%
X108952000Y-97469000D02*
X110730000Y-97469000D01*
X112504000Y-99243000D02*
X116572000Y-99243000D01*
X107682000Y-98739000D02*
X108952000Y-97469000D01*
X107812000Y-120062000D02*
X109714000Y-120062000D01*
X110730000Y-97469000D02*
X112504000Y-99243000D01*
X107800000Y-120050000D02*
X107812000Y-120062000D01*
%TO.N,/PA8*%
X111238000Y-98739000D02*
X112242000Y-99743000D01*
X112242000Y-99743000D02*
X116572000Y-99743000D01*
X110222000Y-98739000D02*
X111238000Y-98739000D01*
%TO.N,/PA9*%
X111980000Y-100243000D02*
X116572000Y-100243000D01*
X107682000Y-101279000D02*
X108952000Y-100009000D01*
X111746000Y-100009000D02*
X111980000Y-100243000D01*
X108952000Y-100009000D02*
X111746000Y-100009000D01*
%TO.N,/PA10*%
X110758000Y-100743000D02*
X116572000Y-100743000D01*
X110222000Y-101279000D02*
X110758000Y-100743000D01*
%TO.N,/PA11*%
X107682000Y-103819000D02*
X108952000Y-102549000D01*
X110855604Y-102549000D02*
X112161604Y-101243000D01*
X112161604Y-101243000D02*
X116572000Y-101243000D01*
X108952000Y-102549000D02*
X110855604Y-102549000D01*
%TO.N,/PA12*%
X110222000Y-103819000D02*
X112348000Y-101693000D01*
X115352000Y-101743000D02*
X116572000Y-101743000D01*
X115302000Y-101693000D02*
X115352000Y-101743000D01*
X112348000Y-101693000D02*
X115302000Y-101693000D01*
%TO.N,/PA15*%
X119497000Y-105974000D02*
X119497000Y-104668000D01*
X115651000Y-112042000D02*
X115651000Y-109820000D01*
X115651000Y-109820000D02*
X119497000Y-105974000D01*
X116826000Y-113217000D02*
X115651000Y-112042000D01*
%TO.N,/PC10*%
X119997000Y-106254382D02*
X117842000Y-108409382D01*
X117842000Y-109661000D02*
X116826000Y-110677000D01*
X119997000Y-104668000D02*
X119997000Y-106254382D01*
X117842000Y-108409382D02*
X117842000Y-109661000D01*
%TO.N,/PC11*%
X120497000Y-106390778D02*
X120497000Y-104668000D01*
X118100000Y-111951000D02*
X118100000Y-110200000D01*
X119366000Y-113217000D02*
X118100000Y-111951000D01*
X118900000Y-107987778D02*
X120497000Y-106390778D01*
X118100000Y-110200000D02*
X118900000Y-109400000D01*
X118900000Y-109400000D02*
X118900000Y-107987778D01*
%TO.N,/PC12*%
X119366000Y-110677000D02*
X119366000Y-108391000D01*
X120997000Y-106760000D02*
X120997000Y-104668000D01*
X119366000Y-108391000D02*
X120997000Y-106760000D01*
%TO.N,/PD2*%
X120541000Y-111852000D02*
X120541000Y-107968696D01*
X121497000Y-104668000D02*
X121497000Y-107012695D01*
X120541000Y-107968696D02*
X121497000Y-107012695D01*
X121906000Y-113217000D02*
X120541000Y-111852000D01*
%TO.N,/PB4*%
X124446000Y-113217000D02*
X123271000Y-112042000D01*
X123271000Y-110138396D02*
X122497000Y-109364396D01*
X122497000Y-109364396D02*
X122497000Y-104668000D01*
X123271000Y-112042000D02*
X123271000Y-110138396D01*
%TO.N,/PB5*%
X122997000Y-109228000D02*
X122997000Y-104668000D01*
X124446000Y-110677000D02*
X122997000Y-109228000D01*
%TO.N,/PB6*%
X126986000Y-113217000D02*
X125811000Y-112042000D01*
X125811000Y-109467000D02*
X123497000Y-107153000D01*
X125811000Y-112042000D02*
X125811000Y-109467000D01*
X123497000Y-107153000D02*
X123497000Y-104668000D01*
%TO.N,/PB7*%
X123997000Y-106672000D02*
X123997000Y-104668000D01*
X126986000Y-109661000D02*
X123997000Y-106672000D01*
X126986000Y-110677000D02*
X126986000Y-109661000D01*
%TO.N,/PB8*%
X129526000Y-113217000D02*
X128161000Y-111852000D01*
X124497000Y-106030396D02*
X124497000Y-104668000D01*
X128161000Y-109694396D02*
X124497000Y-106030396D01*
X128161000Y-111852000D02*
X128161000Y-109694396D01*
%TO.N,/PB9*%
X124997000Y-105894000D02*
X124997000Y-104668000D01*
X129526000Y-110423000D02*
X124997000Y-105894000D01*
X129526000Y-110677000D02*
X129526000Y-110423000D01*
%TO.N,Net-(J18-Pin_1)*%
X158990000Y-92630000D02*
X163323400Y-92630000D01*
X155180000Y-92630000D02*
X158990000Y-92630000D01*
X163323400Y-92630000D02*
X163364200Y-92670800D01*
%TO.N,Net-(J17-Pin_1)*%
X155180000Y-86280000D02*
X159244000Y-86280000D01*
X159244000Y-86280000D02*
X162053400Y-86280000D01*
X162053400Y-86280000D02*
X163364200Y-87590800D01*
%TO.N,Net-(U1-Cbyp)*%
X128952000Y-59821000D02*
X131093000Y-59821000D01*
X131304000Y-57832000D02*
X130301000Y-57832000D01*
X131093000Y-59821000D02*
X131558000Y-59356000D01*
X131558000Y-58086000D02*
X131304000Y-57832000D01*
X131558000Y-59356000D02*
X131558000Y-58086000D01*
%TO.N,Net-(D3-A)*%
X120647600Y-57730400D02*
X121562000Y-58644800D01*
X121562000Y-58644800D02*
X121562000Y-60372000D01*
X121562000Y-60372000D02*
X120647600Y-60372000D01*
X119885600Y-57730400D02*
X120647600Y-57730400D01*
X120647600Y-60372000D02*
X120038000Y-60981600D01*
%TO.N,Net-(D4-A)*%
X146226400Y-56866800D02*
X145234800Y-56866800D01*
X148255100Y-58895500D02*
X148255100Y-59965600D01*
X145234800Y-56866800D02*
X145082400Y-57019200D01*
X147344000Y-57984400D02*
X148255100Y-58895500D01*
X145082400Y-57019200D02*
X145082400Y-57984400D01*
X145082400Y-57984400D02*
X147344000Y-57984400D01*
%TO.N,Net-(J4-Pin_8)*%
X137209000Y-70291000D02*
X137209000Y-73656000D01*
X137209000Y-73656000D02*
X137654000Y-74101000D01*
%TO.N,Net-(J4-Pin_7)*%
X135559000Y-70291000D02*
X135559000Y-73656000D01*
X135559000Y-73656000D02*
X135114000Y-74101000D01*
%TO.N,Net-(J4-Pin_6)*%
X132320000Y-73847000D02*
X132574000Y-74101000D01*
X132320000Y-70291000D02*
X132320000Y-73847000D01*
%TO.N,Net-(J4-Pin_5)*%
X130670000Y-70291000D02*
X130670000Y-73465000D01*
X130670000Y-73465000D02*
X130034000Y-74101000D01*
%TO.N,Net-(J4-Pin_4)*%
X127303000Y-70291000D02*
X127303000Y-73910000D01*
X127303000Y-73910000D02*
X127494000Y-74101000D01*
%TO.N,Net-(J4-Pin_3)*%
X125653000Y-73402000D02*
X124954000Y-74101000D01*
X125653000Y-70291000D02*
X125653000Y-73402000D01*
%TO.N,Net-(J4-Pin_2)*%
X121969000Y-73656000D02*
X122414000Y-74101000D01*
X121969000Y-70291000D02*
X121969000Y-73656000D01*
%TO.N,Net-(J4-Pin_1)*%
X120319000Y-73656000D02*
X119874000Y-74101000D01*
X120319000Y-70291000D02*
X120319000Y-73656000D01*
%TO.N,Net-(J12-Pin_3)*%
X147100000Y-84200000D02*
X147910000Y-85010000D01*
X147720000Y-80200000D02*
X147100000Y-80820000D01*
X147100000Y-80820000D02*
X147100000Y-84200000D01*
X147910000Y-85010000D02*
X150230000Y-85010000D01*
%TO.N,Net-(J12-Pin_2)*%
X148830000Y-83740000D02*
X150230000Y-83740000D01*
X150260000Y-80200000D02*
X148380000Y-82080000D01*
X148380000Y-83290000D02*
X148830000Y-83740000D01*
X148380000Y-82080000D02*
X148380000Y-83290000D01*
%TO.N,Net-(J12-Pin_1)*%
X152132000Y-86788000D02*
X151370000Y-87550000D01*
X152132000Y-80868000D02*
X152132000Y-86788000D01*
X151370000Y-87550000D02*
X150230000Y-87550000D01*
X152800000Y-80200000D02*
X152132000Y-80868000D01*
%TO.N,Net-(J13-Pin_1)*%
X127922000Y-102743000D02*
X133475000Y-108296000D01*
X133475000Y-108296000D02*
X138003000Y-108296000D01*
X138003000Y-108296000D02*
X139178000Y-107121000D01*
%TO.N,Net-(J24-Pin_4)*%
X155220800Y-85050800D02*
X155180000Y-85010000D01*
X163364200Y-85050800D02*
X155220800Y-85050800D01*
%TO.N,Net-(J24-Pin_2)*%
X162135000Y-91360000D02*
X155180000Y-91360000D01*
X162135000Y-91360000D02*
X163364200Y-90130800D01*
%TO.N,Net-(D5-A)*%
X134712500Y-76920000D02*
X135152500Y-77360000D01*
X132700000Y-77775000D02*
X132700000Y-76970000D01*
X132750000Y-76920000D02*
X134712500Y-76920000D01*
X132700000Y-76970000D02*
X132750000Y-76920000D01*
%TO.N,Net-(J28-Pin_1)*%
X132700000Y-79425000D02*
X133606208Y-80331208D01*
X133606208Y-80331208D02*
X137986792Y-80331208D01*
D49*
%TO.N,Net-(J29-In)*%
X87200000Y-80920000D02*
X87200000Y-38093000D01*
X87200000Y-38093000D02*
X87177000Y-38070000D01*
%TO.N,Net-(J31-In)*%
X87200000Y-89060000D02*
X87297000Y-89157000D01*
X87297000Y-131810000D02*
X87177000Y-131930000D01*
X87297000Y-89157000D02*
X87297000Y-131810000D01*
D50*
%TO.N,Net-(C16-Pad1)*%
X82000000Y-124913036D02*
X82025000Y-124938036D01*
X82000000Y-96375000D02*
X82000000Y-124913036D01*
X82025000Y-124938036D02*
X82025000Y-126600000D01*
D45*
%TO.N,Net-(D6-A)*%
X82000000Y-94825000D02*
X81623200Y-95201800D01*
X81623200Y-95201800D02*
X78182200Y-95201800D01*
X78182200Y-95201800D02*
X78084000Y-95300000D01*
%TO.N,Net-(C17-Pad2)*%
X74774000Y-94241600D02*
X74831800Y-94183800D01*
X74774000Y-96113600D02*
X74774000Y-94241600D01*
X74831800Y-94183800D02*
X73481800Y-94183800D01*
D50*
%TO.N,Net-(C18-Pad1)*%
X92608400Y-123498708D02*
X92608400Y-95647563D01*
X92608400Y-95647563D02*
X92625000Y-95630963D01*
X92600000Y-123507108D02*
X92608400Y-123498708D01*
X92600000Y-124675000D02*
X92600000Y-123507108D01*
X92625000Y-95630963D02*
X92625000Y-94300000D01*
D45*
%TO.N,Net-(D7-A)*%
X96416000Y-125730000D02*
X96339800Y-125653800D01*
X93171200Y-125653800D02*
X92600000Y-126225000D01*
X96339800Y-125653800D02*
X93171200Y-125653800D01*
%TO.N,Net-(C19-Pad2)*%
X101281400Y-126593600D02*
X101300000Y-126575000D01*
X99725000Y-126593600D02*
X101281400Y-126593600D01*
X99675000Y-126543600D02*
X99675000Y-125018800D01*
X99725000Y-126593600D02*
X99675000Y-126543600D01*
D50*
%TO.N,Net-(C20-Pad1)*%
X81800000Y-45775000D02*
X81800000Y-74975000D01*
X81800000Y-74975000D02*
X81825000Y-75000000D01*
D45*
%TO.N,Net-(D8-A)*%
X81796400Y-44221400D02*
X81800000Y-44225000D01*
X77705400Y-44221400D02*
X81796400Y-44221400D01*
X77584000Y-44100000D02*
X77705400Y-44221400D01*
%TO.N,Net-(C21-Pad2)*%
X72725000Y-43400000D02*
X72700000Y-43425000D01*
X72919600Y-43205400D02*
X72700000Y-43425000D01*
X74375000Y-45100000D02*
X74375000Y-43600000D01*
X74175000Y-43400000D02*
X72725000Y-43400000D01*
X74375000Y-45100000D02*
X74475000Y-45100000D01*
X74375000Y-43600000D02*
X74175000Y-43400000D01*
X74475000Y-45100000D02*
X74977200Y-44597800D01*
D50*
%TO.N,Net-(C22-Pad1)*%
X92700000Y-44211563D02*
X92700000Y-74525000D01*
X92725000Y-44186563D02*
X92725000Y-43332400D01*
X92700000Y-44211563D02*
X92725000Y-44186563D01*
D45*
%TO.N,Net-(D9-A)*%
X93675000Y-75100000D02*
X92700000Y-76075000D01*
X97016000Y-75100000D02*
X93675000Y-75100000D01*
%TO.N,Net-(C23-Pad2)*%
X100025000Y-74324800D02*
X99487200Y-73787000D01*
X100025000Y-76100000D02*
X100025000Y-74324800D01*
X100025000Y-76100000D02*
X101275000Y-76100000D01*
X101275000Y-76100000D02*
X101500000Y-75875000D01*
%TO.N,Net-(D6-K-Pad1)*%
X76618600Y-99847400D02*
X77250000Y-99847400D01*
X77250000Y-99847400D02*
X78926400Y-98171000D01*
X78926400Y-98171000D02*
X78926400Y-97439600D01*
X78926400Y-97439600D02*
X80116000Y-96250000D01*
%TO.N,Net-(D6-K-Pad3)*%
X76483800Y-94185800D02*
X76481800Y-94183800D01*
X80116000Y-94284000D02*
X80017800Y-94185800D01*
X80017800Y-94185800D02*
X76483800Y-94185800D01*
%TO.N,Net-(D7-K-Pad1)*%
X96533200Y-122829800D02*
X94583000Y-124780000D01*
X94583000Y-124780000D02*
X94384000Y-124780000D01*
X96533200Y-121412000D02*
X96533200Y-122829800D01*
%TO.N,Net-(D7-K-Pad3)*%
X94384000Y-126746000D02*
X94460200Y-126669800D01*
X94460200Y-126669800D02*
X97998800Y-126669800D01*
X97998800Y-126669800D02*
X98075000Y-126593600D01*
%TO.N,Net-(D8-K-Pad1)*%
X78215200Y-47928800D02*
X78215200Y-47230200D01*
X77325200Y-48818800D02*
X78215200Y-47928800D01*
X78215200Y-47230200D02*
X79616000Y-45829400D01*
X79616000Y-45829400D02*
X79616000Y-45050000D01*
%TO.N,Net-(D8-K-Pad3)*%
X79616000Y-43084000D02*
X79494600Y-43205400D01*
X79494600Y-43205400D02*
X76627200Y-43205400D01*
%TO.N,Net-(D9-K-Pad1)*%
X96948200Y-72249800D02*
X95048000Y-74150000D01*
X95048000Y-74150000D02*
X94984000Y-74150000D01*
X96948200Y-70104000D02*
X96948200Y-72249800D01*
%TO.N,Net-(D9-K-Pad3)*%
X94984000Y-76116000D02*
X95000000Y-76100000D01*
X95000000Y-76100000D02*
X98375000Y-76100000D01*
%TO.N,Net-(R29-Pad1)*%
X76411800Y-96125800D02*
X76424000Y-96113600D01*
X76411800Y-97993200D02*
X76411800Y-96125800D01*
%TO.N,Net-(R33-Pad1)*%
X98025000Y-125018800D02*
X98025000Y-123300000D01*
%TO.N,Net-(R37-Pad1)*%
X76025000Y-45100000D02*
X76025000Y-46900000D01*
%TO.N,Net-(R41-Pad1)*%
X97837200Y-73787000D02*
X97837200Y-71818000D01*
X97837200Y-71818000D02*
X97849400Y-71805800D01*
D50*
%TO.N,Net-(C17-Pad1)*%
X74371200Y-100893200D02*
X74371200Y-122504200D01*
X74761800Y-100502600D02*
X74371200Y-100893200D01*
X74371200Y-122504200D02*
X74523600Y-122656600D01*
X74361800Y-97993200D02*
X73160600Y-96792000D01*
X74761800Y-97993200D02*
X74361800Y-97993200D01*
X74761800Y-97993200D02*
X74761800Y-100502600D01*
X73160600Y-96792000D02*
X73160600Y-95681800D01*
%TO.N,Net-(C19-Pad1)*%
X101300000Y-124525000D02*
X101300000Y-125025000D01*
X98583200Y-121412000D02*
X99675000Y-122503800D01*
X99675000Y-123300000D02*
X100075000Y-123300000D01*
X100075000Y-123300000D02*
X101300000Y-124525000D01*
X98221800Y-98233200D02*
X99618800Y-96836200D01*
X98183200Y-121412000D02*
X98583200Y-121412000D01*
X99675000Y-122503800D02*
X99675000Y-123300000D01*
X98183200Y-121412000D02*
X98221800Y-121373400D01*
X98221800Y-121373400D02*
X98221800Y-98233200D01*
%TO.N,Net-(R43-Pad1)*%
X74695200Y-126600000D02*
X80325000Y-126600000D01*
X74422000Y-126326800D02*
X74422000Y-124472200D01*
X74422000Y-126326800D02*
X74695200Y-126600000D01*
%TO.N,Net-(R44-Pad1)*%
X97942400Y-94335600D02*
X97981800Y-94296200D01*
X98743000Y-95136200D02*
X99618800Y-95136200D01*
X97981800Y-94296200D02*
X99618800Y-94296200D01*
X97942400Y-94335600D02*
X94325000Y-94335600D01*
X94325000Y-94335600D02*
X94325000Y-94300000D01*
X97942400Y-94335600D02*
X98743000Y-95136200D01*
%TO.N,Net-(R45-Pad1)*%
X99944400Y-43332400D02*
X94425000Y-43332400D01*
X100033800Y-45022000D02*
X100033800Y-43243000D01*
X100033800Y-43243000D02*
X99944400Y-43332400D01*
%TO.N,Net-(R46-Pad1)*%
X73541600Y-74281800D02*
X79381800Y-74281800D01*
X73541600Y-74281800D02*
X73541600Y-75361800D01*
X79381800Y-74281800D02*
X80100000Y-75000000D01*
%TO.N,/GND_S*%
X91557000Y-38070000D02*
X94356400Y-38070000D01*
X76009000Y-77279000D02*
X73558400Y-77279000D01*
X79650000Y-80920000D02*
X76009000Y-77279000D01*
X76460000Y-128460000D02*
X74583000Y-128460000D01*
X97829400Y-41543000D02*
X100033800Y-41543000D01*
X82820000Y-80920000D02*
X79650000Y-80920000D01*
X79930000Y-131930000D02*
X76460000Y-128460000D01*
X97828600Y-92596200D02*
X99618800Y-92596200D01*
X82797000Y-131930000D02*
X79930000Y-131930000D01*
X94292400Y-89060000D02*
X97828600Y-92596200D01*
X94356400Y-38070000D02*
X97829400Y-41543000D01*
X91580000Y-89060000D02*
X94292400Y-89060000D01*
%TO.N,Net-(C21-Pad1)*%
X74000000Y-46900000D02*
X74375000Y-46900000D01*
X74375000Y-47518600D02*
X75675200Y-48818800D01*
X74375000Y-46900000D02*
X74375000Y-47518600D01*
X75675200Y-48818800D02*
X75675200Y-70448200D01*
X72700000Y-44975000D02*
X72700000Y-45600000D01*
X72700000Y-45600000D02*
X74000000Y-46900000D01*
X75675200Y-70448200D02*
X73541600Y-72581800D01*
%TO.N,Net-(C23-Pad1)*%
X98598200Y-70104000D02*
X98598200Y-48157600D01*
X98598200Y-48157600D02*
X100033800Y-46722000D01*
X101500000Y-74325000D02*
X101500000Y-73672600D01*
X99499400Y-71005200D02*
X98598200Y-70104000D01*
X99633200Y-71805800D02*
X99499400Y-71805800D01*
X101500000Y-73672600D02*
X99633200Y-71805800D01*
X99499400Y-71805800D02*
X99499400Y-71005200D01*
D45*
%TO.N,Net-(J12-Pin_4)*%
X145680000Y-88820000D02*
X145600000Y-88900000D01*
X150230000Y-88820000D02*
X145680000Y-88820000D01*
%TD*%
%TA.AperFunction,Conductor*%
%TO.N,/GND_S*%
G36*
X82943039Y-35520185D02*
G01*
X82988794Y-35572989D01*
X83000000Y-35624500D01*
X83000000Y-43791996D01*
X82980315Y-43859035D01*
X82927511Y-43904790D01*
X82858353Y-43914734D01*
X82794797Y-43885709D01*
X82758294Y-43831000D01*
X82740662Y-43777792D01*
X82712003Y-43691303D01*
X82711999Y-43691297D01*
X82711998Y-43691294D01*
X82622970Y-43546959D01*
X82622967Y-43546955D01*
X82503044Y-43427032D01*
X82503040Y-43427029D01*
X82358705Y-43338001D01*
X82358699Y-43337998D01*
X82358697Y-43337997D01*
X82354388Y-43336569D01*
X82197709Y-43284651D01*
X82098346Y-43274500D01*
X81501662Y-43274500D01*
X81501644Y-43274501D01*
X81402292Y-43284650D01*
X81402289Y-43284651D01*
X81241305Y-43337996D01*
X81241294Y-43338001D01*
X81096959Y-43427029D01*
X81096955Y-43427032D01*
X81054870Y-43469117D01*
X80993547Y-43502601D01*
X80923855Y-43497616D01*
X80867922Y-43455744D01*
X80843506Y-43390280D01*
X80848113Y-43346841D01*
X80851098Y-43336569D01*
X80854000Y-43299694D01*
X80854000Y-42868306D01*
X80851098Y-42831431D01*
X80826556Y-42746959D01*
X80805245Y-42673606D01*
X80805244Y-42673603D01*
X80805244Y-42673602D01*
X80721581Y-42532135D01*
X80721579Y-42532133D01*
X80721576Y-42532129D01*
X80605370Y-42415923D01*
X80605362Y-42415917D01*
X80463896Y-42332255D01*
X80463893Y-42332254D01*
X80306073Y-42286402D01*
X80306067Y-42286401D01*
X80269196Y-42283500D01*
X80269194Y-42283500D01*
X78962806Y-42283500D01*
X78962804Y-42283500D01*
X78925932Y-42286401D01*
X78925926Y-42286402D01*
X78768106Y-42332254D01*
X78768103Y-42332255D01*
X78626637Y-42415917D01*
X78626629Y-42415923D01*
X78504902Y-42537651D01*
X78503952Y-42536701D01*
X78453955Y-42572808D01*
X78412621Y-42579900D01*
X76587850Y-42579900D01*
X76587848Y-42579900D01*
X76587833Y-42579901D01*
X76539225Y-42586041D01*
X76470247Y-42574913D01*
X76459541Y-42569138D01*
X76314606Y-42481522D01*
X76152196Y-42430914D01*
X76152194Y-42430913D01*
X76152192Y-42430913D01*
X76102778Y-42426423D01*
X76081616Y-42424500D01*
X75568384Y-42424500D01*
X75549145Y-42426248D01*
X75497807Y-42430913D01*
X75335393Y-42481522D01*
X75189811Y-42569530D01*
X75189810Y-42569531D01*
X75087681Y-42671661D01*
X75026358Y-42705146D01*
X74956666Y-42700162D01*
X74912319Y-42671661D01*
X74810188Y-42569530D01*
X74809536Y-42569136D01*
X74664606Y-42481522D01*
X74502196Y-42430914D01*
X74502194Y-42430913D01*
X74502192Y-42430913D01*
X74452778Y-42426423D01*
X74431616Y-42424500D01*
X73918384Y-42424500D01*
X73899145Y-42426248D01*
X73847807Y-42430913D01*
X73685393Y-42481522D01*
X73539814Y-42569528D01*
X73521396Y-42587946D01*
X73460071Y-42621428D01*
X73390380Y-42616441D01*
X73368621Y-42605799D01*
X73258705Y-42538001D01*
X73258699Y-42537998D01*
X73258697Y-42537997D01*
X73241013Y-42532137D01*
X73097709Y-42484651D01*
X72998346Y-42474500D01*
X72401662Y-42474500D01*
X72401644Y-42474501D01*
X72302292Y-42484650D01*
X72302289Y-42484651D01*
X72141305Y-42537996D01*
X72141294Y-42538001D01*
X71996959Y-42627029D01*
X71996955Y-42627032D01*
X71877032Y-42746955D01*
X71877029Y-42746959D01*
X71788001Y-42891294D01*
X71787996Y-42891305D01*
X71734651Y-43052290D01*
X71724500Y-43151647D01*
X71724500Y-43698337D01*
X71724501Y-43698355D01*
X71734650Y-43797707D01*
X71734651Y-43797710D01*
X71763811Y-43885709D01*
X71787997Y-43958697D01*
X71788001Y-43958703D01*
X71797678Y-43974393D01*
X71816118Y-44041786D01*
X71795195Y-44108449D01*
X71785520Y-44121073D01*
X71684240Y-44236997D01*
X71684236Y-44237002D01*
X71568787Y-44430232D01*
X71568786Y-44430234D01*
X71489692Y-44640976D01*
X71449500Y-44862450D01*
X71449500Y-45526293D01*
X71449110Y-45533231D01*
X71447130Y-45550812D01*
X71444762Y-45571823D01*
X71444761Y-45571831D01*
X71449359Y-45640013D01*
X71449500Y-45644186D01*
X71449500Y-45656156D01*
X71453277Y-45698124D01*
X71459903Y-45796407D01*
X71459903Y-45796412D01*
X71460972Y-45800652D01*
X71464230Y-45819824D01*
X71464623Y-45824190D01*
X71490835Y-45919165D01*
X71514903Y-46014681D01*
X71516715Y-46018670D01*
X71523340Y-46036944D01*
X71524504Y-46041162D01*
X71524507Y-46041170D01*
X71567253Y-46129935D01*
X71607993Y-46219626D01*
X71607994Y-46219629D01*
X71610483Y-46223221D01*
X71620269Y-46240026D01*
X71622166Y-46243965D01*
X71622174Y-46243979D01*
X71680078Y-46323676D01*
X71736180Y-46404655D01*
X71739273Y-46407748D01*
X71751907Y-46422539D01*
X71754478Y-46426078D01*
X71754481Y-46426081D01*
X71825679Y-46494153D01*
X73063642Y-47732116D01*
X73068279Y-47737304D01*
X73092491Y-47767666D01*
X73134702Y-47804544D01*
X73172237Y-47863476D01*
X73173359Y-47867626D01*
X73189902Y-47933277D01*
X73189904Y-47933283D01*
X73191715Y-47937270D01*
X73198340Y-47955544D01*
X73199504Y-47959762D01*
X73199507Y-47959770D01*
X73242253Y-48048535D01*
X73282993Y-48138226D01*
X73282994Y-48138229D01*
X73285483Y-48141821D01*
X73295269Y-48158626D01*
X73297166Y-48162565D01*
X73297174Y-48162579D01*
X73355078Y-48242276D01*
X73411180Y-48323255D01*
X73414273Y-48326348D01*
X73426907Y-48341139D01*
X73429478Y-48344678D01*
X73429481Y-48344681D01*
X73500679Y-48412753D01*
X74388381Y-49300455D01*
X74421866Y-49361778D01*
X74424700Y-49388136D01*
X74424700Y-69878864D01*
X74405015Y-69945903D01*
X74388381Y-69966545D01*
X72617659Y-71737266D01*
X72509532Y-71866780D01*
X72509528Y-71866786D01*
X72398447Y-72062554D01*
X72324102Y-72275013D01*
X72324101Y-72275016D01*
X72288889Y-72497336D01*
X72293940Y-72722378D01*
X72339090Y-72942888D01*
X72339094Y-72942901D01*
X72422892Y-73151808D01*
X72542651Y-73342404D01*
X72547521Y-73347731D01*
X72578224Y-73410493D01*
X72570121Y-73479892D01*
X72559483Y-73499708D01*
X72546715Y-73519050D01*
X72541662Y-73525685D01*
X72536330Y-73531790D01*
X72525833Y-73543805D01*
X72483222Y-73615125D01*
X72481742Y-73617480D01*
X72435970Y-73686823D01*
X72435962Y-73686837D01*
X72426508Y-73708953D01*
X72422721Y-73716385D01*
X72410386Y-73737034D01*
X72410385Y-73737036D01*
X72381187Y-73814825D01*
X72380153Y-73817404D01*
X72347497Y-73893812D01*
X72347495Y-73893818D01*
X72342142Y-73917266D01*
X72339743Y-73925256D01*
X72331295Y-73947767D01*
X72331292Y-73947777D01*
X72316456Y-74029529D01*
X72315898Y-74032253D01*
X72297410Y-74113254D01*
X72297409Y-74113267D01*
X72296330Y-74137291D01*
X72295396Y-74145578D01*
X72292661Y-74160645D01*
X72291100Y-74169251D01*
X72291100Y-74252351D01*
X72291038Y-74255107D01*
X72287988Y-74323016D01*
X72287310Y-74338127D01*
X72287310Y-74338129D01*
X72290538Y-74361963D01*
X72291100Y-74370294D01*
X72291100Y-75417951D01*
X72306222Y-75585986D01*
X72306223Y-75585992D01*
X72366103Y-75802960D01*
X72366108Y-75802973D01*
X72463767Y-76005766D01*
X72463771Y-76005774D01*
X72596073Y-76187872D01*
X72596074Y-76187874D01*
X72758776Y-76343433D01*
X72946633Y-76467436D01*
X73153604Y-76555900D01*
X73153607Y-76555901D01*
X73153612Y-76555903D01*
X73373063Y-76605991D01*
X73597930Y-76616090D01*
X73820987Y-76585875D01*
X74035064Y-76516317D01*
X74097126Y-76482918D01*
X74119002Y-76473725D01*
X74123006Y-76472478D01*
X74174178Y-76441541D01*
X74176827Y-76440029D01*
X74233281Y-76409652D01*
X74250036Y-76396289D01*
X74256613Y-76391708D01*
X74268585Y-76384472D01*
X74280818Y-76372237D01*
X74285979Y-76367625D01*
X74409266Y-76269308D01*
X74557365Y-76099796D01*
X74672815Y-75906564D01*
X74751907Y-75695824D01*
X74763098Y-75634159D01*
X74794436Y-75571712D01*
X74854562Y-75536121D01*
X74885105Y-75532300D01*
X78812464Y-75532300D01*
X78879503Y-75551985D01*
X78900145Y-75568619D01*
X79255470Y-75923944D01*
X79384981Y-76032068D01*
X79580755Y-76143153D01*
X79708552Y-76187872D01*
X79793213Y-76217497D01*
X79793216Y-76217498D01*
X79835054Y-76224124D01*
X80015540Y-76252710D01*
X80240578Y-76247659D01*
X80461096Y-76202508D01*
X80670009Y-76118707D01*
X80860602Y-75998949D01*
X80880744Y-75980537D01*
X80943503Y-75949838D01*
X81012901Y-75957942D01*
X81043872Y-75976876D01*
X81109981Y-76032068D01*
X81305755Y-76143153D01*
X81433552Y-76187872D01*
X81518213Y-76217497D01*
X81518216Y-76217498D01*
X81560054Y-76224124D01*
X81740540Y-76252710D01*
X81965578Y-76247659D01*
X82186096Y-76202508D01*
X82395009Y-76118707D01*
X82585602Y-75998949D01*
X82751748Y-75847085D01*
X82777342Y-75813471D01*
X82833615Y-75772057D01*
X82903345Y-75767641D01*
X82964393Y-75801625D01*
X82997377Y-75863219D01*
X83000000Y-75888588D01*
X83000000Y-94024626D01*
X82980315Y-94091665D01*
X82927511Y-94137420D01*
X82858353Y-94147364D01*
X82794797Y-94118339D01*
X82788319Y-94112307D01*
X82703044Y-94027032D01*
X82703040Y-94027029D01*
X82558705Y-93938001D01*
X82558699Y-93937998D01*
X82558697Y-93937997D01*
X82545754Y-93933708D01*
X82397709Y-93884651D01*
X82298346Y-93874500D01*
X81701662Y-93874500D01*
X81701644Y-93874501D01*
X81602292Y-93884650D01*
X81602286Y-93884652D01*
X81454244Y-93933708D01*
X81384416Y-93936110D01*
X81324374Y-93900378D01*
X81308509Y-93879123D01*
X81221582Y-93732137D01*
X81221581Y-93732135D01*
X81221579Y-93732133D01*
X81221576Y-93732129D01*
X81105370Y-93615923D01*
X81105362Y-93615917D01*
X80963896Y-93532255D01*
X80963893Y-93532254D01*
X80806073Y-93486402D01*
X80806067Y-93486401D01*
X80769196Y-93483500D01*
X80769194Y-93483500D01*
X79462806Y-93483500D01*
X79462804Y-93483500D01*
X79425932Y-93486401D01*
X79425926Y-93486402D01*
X79268106Y-93532254D01*
X79268103Y-93532255D01*
X79249881Y-93543032D01*
X79186760Y-93560300D01*
X77359611Y-93560300D01*
X77292572Y-93540615D01*
X77253494Y-93500450D01*
X77237272Y-93473615D01*
X77237270Y-93473613D01*
X77237269Y-93473611D01*
X77116988Y-93353330D01*
X76971406Y-93265322D01*
X76905550Y-93244801D01*
X76808996Y-93214714D01*
X76808994Y-93214713D01*
X76808992Y-93214713D01*
X76759578Y-93210223D01*
X76738416Y-93208300D01*
X76225184Y-93208300D01*
X76205945Y-93210048D01*
X76154607Y-93214713D01*
X75992193Y-93265322D01*
X75846611Y-93353330D01*
X75846610Y-93353331D01*
X75744481Y-93455461D01*
X75683158Y-93488946D01*
X75613466Y-93483962D01*
X75569119Y-93455461D01*
X75466988Y-93353330D01*
X75321406Y-93265322D01*
X75255550Y-93244801D01*
X75158996Y-93214714D01*
X75158994Y-93214713D01*
X75158992Y-93214713D01*
X75109578Y-93210223D01*
X75088416Y-93208300D01*
X74575184Y-93208300D01*
X74555945Y-93210048D01*
X74504607Y-93214713D01*
X74342193Y-93265322D01*
X74196611Y-93353330D01*
X74196610Y-93353331D01*
X74127558Y-93422384D01*
X74066235Y-93455869D01*
X73996543Y-93450885D01*
X73952196Y-93422384D01*
X73863644Y-93333832D01*
X73863640Y-93333829D01*
X73719305Y-93244801D01*
X73719299Y-93244798D01*
X73719297Y-93244797D01*
X73628509Y-93214713D01*
X73558309Y-93191451D01*
X73458946Y-93181300D01*
X72862262Y-93181300D01*
X72862244Y-93181301D01*
X72762892Y-93191450D01*
X72762889Y-93191451D01*
X72601905Y-93244796D01*
X72601894Y-93244801D01*
X72457559Y-93333829D01*
X72457555Y-93333832D01*
X72337632Y-93453755D01*
X72337629Y-93453759D01*
X72248601Y-93598094D01*
X72248596Y-93598105D01*
X72195251Y-93759090D01*
X72185100Y-93858447D01*
X72185100Y-94405137D01*
X72185101Y-94405155D01*
X72195250Y-94504507D01*
X72195251Y-94504510D01*
X72210874Y-94551656D01*
X72248597Y-94665497D01*
X72248601Y-94665503D01*
X72258278Y-94681193D01*
X72276718Y-94748586D01*
X72255795Y-94815249D01*
X72246120Y-94827873D01*
X72144840Y-94943797D01*
X72144836Y-94943802D01*
X72036574Y-95125004D01*
X72029385Y-95137036D01*
X72022620Y-95155062D01*
X71950292Y-95347776D01*
X71910100Y-95569250D01*
X71910100Y-96718293D01*
X71909710Y-96725231D01*
X71907392Y-96745804D01*
X71905362Y-96763823D01*
X71905361Y-96763831D01*
X71909959Y-96832013D01*
X71910100Y-96836186D01*
X71910100Y-96848156D01*
X71913877Y-96890124D01*
X71920503Y-96988407D01*
X71920503Y-96988412D01*
X71921572Y-96992652D01*
X71924830Y-97011824D01*
X71925223Y-97016190D01*
X71951435Y-97111165D01*
X71975503Y-97206681D01*
X71977315Y-97210670D01*
X71983940Y-97228944D01*
X71985104Y-97233162D01*
X71985107Y-97233170D01*
X72027853Y-97321935D01*
X72068593Y-97411626D01*
X72068594Y-97411629D01*
X72071083Y-97415221D01*
X72080869Y-97432026D01*
X72082766Y-97435965D01*
X72082774Y-97435979D01*
X72140678Y-97515676D01*
X72196780Y-97596655D01*
X72199873Y-97599748D01*
X72212507Y-97614539D01*
X72215078Y-97618078D01*
X72215081Y-97618081D01*
X72286279Y-97686153D01*
X73425442Y-98825316D01*
X73430079Y-98830504D01*
X73454292Y-98860866D01*
X73468885Y-98873616D01*
X73506419Y-98932547D01*
X73511300Y-98966996D01*
X73511300Y-99930264D01*
X73491615Y-99997303D01*
X73480679Y-100011851D01*
X73458565Y-100037160D01*
X73455721Y-100040204D01*
X73447262Y-100048663D01*
X73447254Y-100048672D01*
X73420249Y-100081018D01*
X73355434Y-100155204D01*
X73355430Y-100155210D01*
X73353181Y-100158974D01*
X73341946Y-100174808D01*
X73339134Y-100178177D01*
X73339132Y-100178181D01*
X73290516Y-100263859D01*
X73264745Y-100306994D01*
X73239983Y-100348438D01*
X73238447Y-100352532D01*
X73230208Y-100370145D01*
X73228050Y-100373947D01*
X73228046Y-100373957D01*
X73195507Y-100466946D01*
X73160894Y-100559170D01*
X73160889Y-100559188D01*
X73160109Y-100563488D01*
X73155152Y-100582269D01*
X73153703Y-100586409D01*
X73153702Y-100586415D01*
X73138289Y-100683727D01*
X73120700Y-100780648D01*
X73120700Y-100785027D01*
X73119173Y-100804429D01*
X73118489Y-100808740D01*
X73120700Y-100907221D01*
X73120700Y-122430493D01*
X73120310Y-122437431D01*
X73117992Y-122458004D01*
X73115962Y-122476023D01*
X73115961Y-122476031D01*
X73120559Y-122544213D01*
X73120700Y-122548386D01*
X73120700Y-122560356D01*
X73124477Y-122602324D01*
X73131103Y-122700607D01*
X73131103Y-122700612D01*
X73132172Y-122704852D01*
X73135430Y-122724024D01*
X73135823Y-122728390D01*
X73162035Y-122823365D01*
X73186103Y-122918881D01*
X73187915Y-122922870D01*
X73194540Y-122941144D01*
X73195704Y-122945362D01*
X73195707Y-122945370D01*
X73238453Y-123034135D01*
X73279193Y-123123826D01*
X73279194Y-123123829D01*
X73281683Y-123127421D01*
X73291469Y-123144226D01*
X73293366Y-123148165D01*
X73293374Y-123148179D01*
X73351278Y-123227876D01*
X73407380Y-123308855D01*
X73410473Y-123311948D01*
X73423107Y-123326739D01*
X73425678Y-123330278D01*
X73425682Y-123330282D01*
X73496871Y-123398346D01*
X73523135Y-123424611D01*
X73556620Y-123485934D01*
X73551636Y-123555626D01*
X73528835Y-123593876D01*
X73406240Y-123734197D01*
X73406236Y-123734202D01*
X73290787Y-123927432D01*
X73290786Y-123927434D01*
X73211692Y-124138176D01*
X73171500Y-124359650D01*
X73171500Y-126253093D01*
X73171110Y-126260031D01*
X73168792Y-126280604D01*
X73166762Y-126298623D01*
X73166761Y-126298631D01*
X73171359Y-126366813D01*
X73171500Y-126370986D01*
X73171500Y-126382956D01*
X73175277Y-126424924D01*
X73181903Y-126523207D01*
X73181903Y-126523212D01*
X73182972Y-126527452D01*
X73186230Y-126546624D01*
X73186623Y-126550990D01*
X73212835Y-126645965D01*
X73236903Y-126741481D01*
X73238715Y-126745470D01*
X73245340Y-126763744D01*
X73246504Y-126767962D01*
X73246507Y-126767970D01*
X73289253Y-126856735D01*
X73329993Y-126946426D01*
X73329994Y-126946429D01*
X73332483Y-126950021D01*
X73342269Y-126966826D01*
X73344166Y-126970765D01*
X73344174Y-126970779D01*
X73402078Y-127050476D01*
X73458180Y-127131455D01*
X73461273Y-127134548D01*
X73473905Y-127149336D01*
X73476478Y-127152878D01*
X73547674Y-127220948D01*
X73664722Y-127337996D01*
X73712251Y-127385525D01*
X73730687Y-127409056D01*
X73752525Y-127445181D01*
X73752526Y-127445182D01*
X73752528Y-127445185D01*
X73872815Y-127565472D01*
X73902521Y-127583430D01*
X73964771Y-127621062D01*
X73980084Y-127631987D01*
X73980181Y-127632068D01*
X74065859Y-127680683D01*
X74150436Y-127731215D01*
X74154527Y-127732750D01*
X74172155Y-127740996D01*
X74175955Y-127743153D01*
X74268946Y-127775692D01*
X74361176Y-127810307D01*
X74363765Y-127810776D01*
X74365474Y-127811087D01*
X74384289Y-127816053D01*
X74388417Y-127817498D01*
X74429944Y-127824075D01*
X74485727Y-127832910D01*
X74582650Y-127850500D01*
X74582653Y-127850500D01*
X74587028Y-127850500D01*
X74606431Y-127852028D01*
X74608138Y-127852297D01*
X74610740Y-127852710D01*
X74709202Y-127850500D01*
X80381155Y-127850500D01*
X80549188Y-127835377D01*
X80558127Y-127832910D01*
X80766160Y-127775496D01*
X80766162Y-127775495D01*
X80766170Y-127775493D01*
X80968973Y-127677829D01*
X81098902Y-127583429D01*
X81164708Y-127559950D01*
X81232762Y-127575775D01*
X81240098Y-127580261D01*
X81430033Y-127705636D01*
X81637004Y-127794100D01*
X81637007Y-127794101D01*
X81637012Y-127794103D01*
X81856463Y-127844191D01*
X82081330Y-127854290D01*
X82304387Y-127824075D01*
X82518464Y-127754517D01*
X82716681Y-127647852D01*
X82798687Y-127582453D01*
X82863374Y-127556046D01*
X82932069Y-127568802D01*
X82982963Y-127616672D01*
X83000000Y-127679401D01*
X83000000Y-134375500D01*
X82980315Y-134442539D01*
X82927511Y-134488294D01*
X82876000Y-134499500D01*
X70624500Y-134499500D01*
X70557461Y-134479815D01*
X70511706Y-134427011D01*
X70500500Y-134375500D01*
X70500500Y-35624500D01*
X70520185Y-35557461D01*
X70572989Y-35511706D01*
X70624500Y-35500500D01*
X82876000Y-35500500D01*
X82943039Y-35520185D01*
G37*
%TD.AperFunction*%
%TD*%
%TA.AperFunction,Conductor*%
%TO.N,/GND_S*%
G36*
X104846288Y-35519454D02*
G01*
X104927070Y-35573430D01*
X104981046Y-35654212D01*
X105000000Y-35749500D01*
X105000000Y-134250500D01*
X104981046Y-134345788D01*
X104927070Y-134426570D01*
X104846288Y-134480546D01*
X104751000Y-134499500D01*
X91249000Y-134499500D01*
X91153712Y-134480546D01*
X91072930Y-134426570D01*
X91018954Y-134345788D01*
X91000000Y-134250500D01*
X91000000Y-125325613D01*
X91018954Y-125230325D01*
X91072930Y-125149543D01*
X91153712Y-125095567D01*
X91249000Y-125076613D01*
X91344288Y-125095567D01*
X91425070Y-125149543D01*
X91473342Y-125217578D01*
X91522167Y-125318966D01*
X91522168Y-125318968D01*
X91522171Y-125318973D01*
X91645678Y-125488966D01*
X91686352Y-125577194D01*
X91690166Y-125674274D01*
X91680594Y-125713642D01*
X91634652Y-125852289D01*
X91634651Y-125852294D01*
X91624500Y-125951652D01*
X91624500Y-126498342D01*
X91634652Y-126597713D01*
X91687995Y-126758693D01*
X91687996Y-126758695D01*
X91687997Y-126758697D01*
X91777032Y-126903044D01*
X91896956Y-127022968D01*
X92041303Y-127112003D01*
X92202292Y-127165349D01*
X92301655Y-127175500D01*
X92898344Y-127175499D01*
X92997708Y-127165349D01*
X92997716Y-127165346D01*
X93002078Y-127164413D01*
X93007662Y-127164331D01*
X93011232Y-127163967D01*
X93011263Y-127164279D01*
X93099223Y-127162998D01*
X93189514Y-127198867D01*
X93259206Y-127266559D01*
X93268529Y-127281142D01*
X93278419Y-127297865D01*
X93394635Y-127414081D01*
X93536102Y-127497744D01*
X93693931Y-127543598D01*
X93730806Y-127546500D01*
X93730808Y-127546500D01*
X95037192Y-127546500D01*
X95037194Y-127546500D01*
X95074069Y-127543598D01*
X95231898Y-127497744D01*
X95373365Y-127414081D01*
X95419218Y-127368227D01*
X95499997Y-127314254D01*
X95595285Y-127295300D01*
X97207904Y-127295300D01*
X97303192Y-127314254D01*
X97383970Y-127368227D01*
X97439815Y-127424072D01*
X97501873Y-127461587D01*
X97585391Y-127512077D01*
X97585393Y-127512077D01*
X97585394Y-127512078D01*
X97747804Y-127562686D01*
X97747808Y-127562686D01*
X97747811Y-127562687D01*
X97818369Y-127569099D01*
X97818377Y-127569099D01*
X97818384Y-127569100D01*
X97818390Y-127569100D01*
X98331610Y-127569100D01*
X98331616Y-127569100D01*
X98331623Y-127569099D01*
X98331630Y-127569099D01*
X98402188Y-127562687D01*
X98402189Y-127562686D01*
X98402196Y-127562686D01*
X98564606Y-127512078D01*
X98710185Y-127424072D01*
X98723933Y-127410323D01*
X98804712Y-127356350D01*
X98900000Y-127337396D01*
X98995288Y-127356350D01*
X99076066Y-127410323D01*
X99089815Y-127424072D01*
X99151873Y-127461587D01*
X99235391Y-127512077D01*
X99235393Y-127512077D01*
X99235394Y-127512078D01*
X99397804Y-127562686D01*
X99397808Y-127562686D01*
X99397811Y-127562687D01*
X99468369Y-127569099D01*
X99468377Y-127569099D01*
X99468384Y-127569100D01*
X99468390Y-127569100D01*
X99981610Y-127569100D01*
X99981616Y-127569100D01*
X99981623Y-127569099D01*
X99981630Y-127569099D01*
X100052188Y-127562687D01*
X100052189Y-127562686D01*
X100052196Y-127562686D01*
X100214606Y-127512078D01*
X100360185Y-127424072D01*
X100360193Y-127424063D01*
X100364379Y-127420785D01*
X100371985Y-127416938D01*
X100373074Y-127416280D01*
X100373123Y-127416362D01*
X100451077Y-127376938D01*
X100547955Y-127369606D01*
X100640264Y-127399906D01*
X100648665Y-127404863D01*
X100741303Y-127462003D01*
X100902292Y-127515349D01*
X101001655Y-127525500D01*
X101598344Y-127525499D01*
X101697708Y-127515349D01*
X101858697Y-127462003D01*
X102003044Y-127372968D01*
X102122968Y-127253044D01*
X102212003Y-127108697D01*
X102265349Y-126947708D01*
X102275500Y-126848345D01*
X102275499Y-126301656D01*
X102265349Y-126202292D01*
X102218417Y-126060658D01*
X102206436Y-125964245D01*
X102232263Y-125870585D01*
X102267260Y-125818513D01*
X102315765Y-125762996D01*
X102431215Y-125569764D01*
X102510307Y-125359024D01*
X102550500Y-125137547D01*
X102550500Y-124602218D01*
X102551282Y-124588282D01*
X102555238Y-124553173D01*
X102550781Y-124487075D01*
X102550500Y-124478702D01*
X102550500Y-124468846D01*
X102550499Y-124468828D01*
X102546725Y-124426902D01*
X102540097Y-124328587D01*
X102538348Y-124317545D01*
X102538649Y-124317497D01*
X102537675Y-124311763D01*
X102537374Y-124311818D01*
X102535375Y-124300803D01*
X102509169Y-124205852D01*
X102493985Y-124145593D01*
X102485096Y-124110317D01*
X102485094Y-124110314D01*
X102485094Y-124110311D01*
X102481402Y-124099759D01*
X102481689Y-124099658D01*
X102479709Y-124094196D01*
X102479424Y-124094304D01*
X102475492Y-124083828D01*
X102432742Y-123995056D01*
X102392005Y-123905371D01*
X102386485Y-123895643D01*
X102386749Y-123895492D01*
X102383823Y-123890468D01*
X102383563Y-123890624D01*
X102377830Y-123881028D01*
X102319914Y-123801314D01*
X102263821Y-123720347D01*
X102256655Y-123711764D01*
X102256888Y-123711569D01*
X102253107Y-123707142D01*
X102252879Y-123707342D01*
X102245527Y-123698926D01*
X102214313Y-123669083D01*
X102174320Y-123630846D01*
X101343781Y-122800307D01*
X101013834Y-122470359D01*
X101004523Y-122459940D01*
X100982508Y-122432334D01*
X100982502Y-122432329D01*
X100979144Y-122428816D01*
X100976940Y-122425352D01*
X100975535Y-122423590D01*
X100975723Y-122423439D01*
X100926993Y-122346845D01*
X100917662Y-122317571D01*
X100916430Y-122312681D01*
X100912675Y-122290571D01*
X100912376Y-122290626D01*
X100910378Y-122279617D01*
X100904966Y-122260008D01*
X100884167Y-122184644D01*
X100860096Y-122089116D01*
X100860094Y-122089113D01*
X100856403Y-122078563D01*
X100856690Y-122078462D01*
X100854709Y-122072995D01*
X100854423Y-122073103D01*
X100850496Y-122062641D01*
X100850493Y-122062630D01*
X100807749Y-121973871D01*
X100767007Y-121884174D01*
X100767005Y-121884171D01*
X100761487Y-121874447D01*
X100761752Y-121874296D01*
X100758827Y-121869272D01*
X100758566Y-121869429D01*
X100752829Y-121859827D01*
X100694929Y-121780135D01*
X100638824Y-121699150D01*
X100631655Y-121690563D01*
X100631888Y-121690368D01*
X100628109Y-121685943D01*
X100627880Y-121686144D01*
X100620522Y-121677722D01*
X100549341Y-121609666D01*
X99545229Y-120605555D01*
X99491254Y-120524774D01*
X99472300Y-120429486D01*
X99472300Y-98854313D01*
X99491254Y-98759025D01*
X99545227Y-98678246D01*
X100542744Y-97680730D01*
X100650868Y-97551219D01*
X100761953Y-97355445D01*
X100836298Y-97142983D01*
X100871510Y-96920660D01*
X100866459Y-96695622D01*
X100821308Y-96475104D01*
X100737507Y-96266191D01*
X100644228Y-96117739D01*
X100609581Y-96026974D01*
X100612306Y-95929857D01*
X100647253Y-95848092D01*
X100724435Y-95731168D01*
X100812903Y-95524188D01*
X100862991Y-95304737D01*
X100862991Y-95304733D01*
X100862992Y-95304729D01*
X100873090Y-95079867D01*
X100842875Y-94856813D01*
X100823361Y-94796757D01*
X100811942Y-94700278D01*
X100817418Y-94664406D01*
X100862991Y-94464737D01*
X100862991Y-94464732D01*
X100862992Y-94464729D01*
X100873090Y-94239867D01*
X100863428Y-94168545D01*
X100842875Y-94016813D01*
X100773317Y-93802736D01*
X100666652Y-93604519D01*
X100586997Y-93504635D01*
X100526311Y-93428537D01*
X100526309Y-93428536D01*
X100526308Y-93428534D01*
X100356796Y-93280435D01*
X100163564Y-93164985D01*
X100111601Y-93145483D01*
X99952822Y-93085892D01*
X99731348Y-93045700D01*
X99731347Y-93045700D01*
X98059018Y-93045700D01*
X98045082Y-93044917D01*
X98009973Y-93040962D01*
X98009971Y-93040962D01*
X97970830Y-93043601D01*
X97943880Y-93045418D01*
X97935506Y-93045700D01*
X97925644Y-93045700D01*
X97904660Y-93047588D01*
X97883676Y-93049477D01*
X97876570Y-93049956D01*
X97785390Y-93056103D01*
X97774345Y-93057853D01*
X97774297Y-93057553D01*
X97768566Y-93058527D01*
X97768621Y-93058825D01*
X97757611Y-93060823D01*
X97702159Y-93076127D01*
X97635917Y-93085100D01*
X94649924Y-93085100D01*
X94594517Y-93078857D01*
X94493533Y-93055808D01*
X94493529Y-93055807D01*
X94268667Y-93045709D01*
X94045612Y-93075925D01*
X94045611Y-93075925D01*
X93831533Y-93145484D01*
X93831532Y-93145484D01*
X93633323Y-93252145D01*
X93633316Y-93252149D01*
X93627203Y-93257025D01*
X93540885Y-93301616D01*
X93444074Y-93309780D01*
X93351508Y-93280274D01*
X93334785Y-93270155D01*
X93219968Y-93194365D01*
X93219969Y-93194365D01*
X93012987Y-93105896D01*
X93012981Y-93105895D01*
X92793534Y-93055808D01*
X92793529Y-93055807D01*
X92568667Y-93045709D01*
X92345612Y-93075925D01*
X92345611Y-93075925D01*
X92131533Y-93145484D01*
X92131532Y-93145484D01*
X91933323Y-93252145D01*
X91933320Y-93252147D01*
X91757337Y-93392488D01*
X91757336Y-93392490D01*
X91609237Y-93562001D01*
X91493786Y-93755233D01*
X91482122Y-93786312D01*
X91430894Y-93868864D01*
X91351975Y-93925528D01*
X91257378Y-93947677D01*
X91161506Y-93931940D01*
X91078954Y-93880712D01*
X91022290Y-93801793D01*
X91000141Y-93707196D01*
X91000000Y-93698818D01*
X91000000Y-74903856D01*
X91018954Y-74808568D01*
X91072930Y-74727786D01*
X91153712Y-74673810D01*
X91249000Y-74654856D01*
X91344288Y-74673810D01*
X91425070Y-74727786D01*
X91479046Y-74808568D01*
X91489027Y-74837612D01*
X91524506Y-74966169D01*
X91622168Y-75168968D01*
X91622169Y-75168970D01*
X91622171Y-75168973D01*
X91745678Y-75338966D01*
X91786352Y-75427194D01*
X91790166Y-75524274D01*
X91780594Y-75563642D01*
X91734652Y-75702289D01*
X91734651Y-75702294D01*
X91724500Y-75801652D01*
X91724500Y-76348342D01*
X91734652Y-76447713D01*
X91787995Y-76608693D01*
X91787996Y-76608695D01*
X91787997Y-76608697D01*
X91805437Y-76636971D01*
X91871733Y-76744454D01*
X91877032Y-76753044D01*
X91996956Y-76872968D01*
X92141303Y-76962003D01*
X92302292Y-77015349D01*
X92401655Y-77025500D01*
X92998344Y-77025499D01*
X93097708Y-77015349D01*
X93258697Y-76962003D01*
X93403044Y-76872968D01*
X93522968Y-76753044D01*
X93525746Y-76748539D01*
X93530982Y-76742908D01*
X93531963Y-76741668D01*
X93532062Y-76741746D01*
X93591902Y-76677389D01*
X93680251Y-76636971D01*
X93777341Y-76633439D01*
X93868393Y-76667331D01*
X93913739Y-76703185D01*
X93994635Y-76784081D01*
X94136102Y-76867744D01*
X94293931Y-76913598D01*
X94330806Y-76916500D01*
X94330808Y-76916500D01*
X95637192Y-76916500D01*
X95637194Y-76916500D01*
X95674069Y-76913598D01*
X95831898Y-76867744D01*
X95973365Y-76784081D01*
X95973372Y-76784073D01*
X95981529Y-76777748D01*
X96068440Y-76734324D01*
X96134139Y-76725500D01*
X97431943Y-76725500D01*
X97527231Y-76744454D01*
X97608013Y-76798430D01*
X97609869Y-76800525D01*
X97619526Y-76810182D01*
X97619528Y-76810185D01*
X97739815Y-76930472D01*
X97791975Y-76962004D01*
X97885391Y-77018477D01*
X97885393Y-77018477D01*
X97885394Y-77018478D01*
X98047804Y-77069086D01*
X98047808Y-77069086D01*
X98047811Y-77069087D01*
X98118369Y-77075499D01*
X98118377Y-77075499D01*
X98118384Y-77075500D01*
X98118390Y-77075500D01*
X98631610Y-77075500D01*
X98631616Y-77075500D01*
X98631623Y-77075499D01*
X98631630Y-77075499D01*
X98702188Y-77069087D01*
X98702189Y-77069086D01*
X98702196Y-77069086D01*
X98864606Y-77018478D01*
X98869786Y-77015347D01*
X98886067Y-77005503D01*
X99010185Y-76930472D01*
X99023933Y-76916723D01*
X99104712Y-76862750D01*
X99200000Y-76843796D01*
X99295288Y-76862750D01*
X99376066Y-76916723D01*
X99389815Y-76930472D01*
X99441975Y-76962004D01*
X99535391Y-77018477D01*
X99535393Y-77018477D01*
X99535394Y-77018478D01*
X99697804Y-77069086D01*
X99697808Y-77069086D01*
X99697811Y-77069087D01*
X99768369Y-77075499D01*
X99768377Y-77075499D01*
X99768384Y-77075500D01*
X99768390Y-77075500D01*
X100281610Y-77075500D01*
X100281616Y-77075500D01*
X100281623Y-77075499D01*
X100281630Y-77075499D01*
X100352188Y-77069087D01*
X100352189Y-77069086D01*
X100352196Y-77069086D01*
X100514606Y-77018478D01*
X100519786Y-77015347D01*
X100539778Y-77003260D01*
X100660185Y-76930472D01*
X100748092Y-76842564D01*
X100828870Y-76788590D01*
X100924158Y-76769636D01*
X101002479Y-76782274D01*
X101102292Y-76815349D01*
X101201655Y-76825500D01*
X101798344Y-76825499D01*
X101897708Y-76815349D01*
X102058697Y-76762003D01*
X102203044Y-76672968D01*
X102322968Y-76553044D01*
X102412003Y-76408697D01*
X102465349Y-76247708D01*
X102475500Y-76148345D01*
X102475499Y-75601656D01*
X102465349Y-75502292D01*
X102418417Y-75360658D01*
X102406436Y-75264245D01*
X102432263Y-75170585D01*
X102467260Y-75118513D01*
X102515765Y-75062996D01*
X102631215Y-74869764D01*
X102710307Y-74659024D01*
X102750500Y-74437547D01*
X102750500Y-73749818D01*
X102751282Y-73735882D01*
X102755238Y-73700773D01*
X102750781Y-73634681D01*
X102750500Y-73626305D01*
X102750500Y-73616453D01*
X102750499Y-73616435D01*
X102746722Y-73574474D01*
X102740096Y-73476190D01*
X102738346Y-73465139D01*
X102738648Y-73465091D01*
X102737676Y-73459370D01*
X102737376Y-73459425D01*
X102735379Y-73448422D01*
X102735377Y-73448416D01*
X102735377Y-73448412D01*
X102709164Y-73353434D01*
X102685096Y-73257917D01*
X102685094Y-73257912D01*
X102681402Y-73247360D01*
X102681689Y-73247259D01*
X102679711Y-73241801D01*
X102679426Y-73241909D01*
X102675495Y-73231437D01*
X102675493Y-73231430D01*
X102632746Y-73142664D01*
X102592007Y-73052974D01*
X102592003Y-73052969D01*
X102586490Y-73043252D01*
X102586755Y-73043101D01*
X102583830Y-73038078D01*
X102583569Y-73038234D01*
X102577828Y-73028626D01*
X102519921Y-72948923D01*
X102463822Y-72867949D01*
X102463820Y-72867946D01*
X102463816Y-72867942D01*
X102456654Y-72859363D01*
X102456887Y-72859168D01*
X102453107Y-72854742D01*
X102452879Y-72854942D01*
X102445527Y-72846526D01*
X102399988Y-72802987D01*
X102374320Y-72778446D01*
X100826729Y-71230855D01*
X100772753Y-71150073D01*
X100753799Y-71054785D01*
X100754393Y-71044207D01*
X100754635Y-71033383D01*
X100754637Y-71033372D01*
X100750181Y-70967289D01*
X100749900Y-70958916D01*
X100749900Y-70949056D01*
X100749900Y-70949045D01*
X100746121Y-70907059D01*
X100739496Y-70808787D01*
X100739494Y-70808781D01*
X100737746Y-70797738D01*
X100738048Y-70797690D01*
X100737076Y-70791971D01*
X100736776Y-70792026D01*
X100734778Y-70781017D01*
X100708567Y-70686043D01*
X100684495Y-70590514D01*
X100680803Y-70579963D01*
X100681090Y-70579862D01*
X100679109Y-70574395D01*
X100678823Y-70574503D01*
X100674896Y-70564041D01*
X100674893Y-70564030D01*
X100632149Y-70475271D01*
X100591407Y-70385574D01*
X100591405Y-70385571D01*
X100585887Y-70375847D01*
X100586152Y-70375696D01*
X100583230Y-70370678D01*
X100582969Y-70370834D01*
X100577228Y-70361226D01*
X100519321Y-70281523D01*
X100463222Y-70200549D01*
X100463220Y-70200546D01*
X100463216Y-70200542D01*
X100456054Y-70191963D01*
X100456287Y-70191768D01*
X100452507Y-70187342D01*
X100452279Y-70187542D01*
X100444927Y-70179126D01*
X100413713Y-70149283D01*
X100373720Y-70111046D01*
X100035043Y-69772369D01*
X99921630Y-69658955D01*
X99867654Y-69578174D01*
X99848700Y-69482886D01*
X99848700Y-48778713D01*
X99867654Y-48683425D01*
X99921627Y-48602646D01*
X100957745Y-47566529D01*
X101065868Y-47437019D01*
X101176953Y-47241245D01*
X101251298Y-47028783D01*
X101286510Y-46806460D01*
X101281460Y-46581422D01*
X101236308Y-46360904D01*
X101152507Y-46151991D01*
X101060868Y-46006148D01*
X101026221Y-45915383D01*
X101028946Y-45818267D01*
X101057947Y-45745966D01*
X101165015Y-45566764D01*
X101244107Y-45356024D01*
X101284300Y-45134547D01*
X101284300Y-43361017D01*
X101286061Y-43338644D01*
X101285759Y-43338624D01*
X101286511Y-43327463D01*
X101284300Y-43228952D01*
X101284300Y-43186848D01*
X101284300Y-43186845D01*
X101283413Y-43176999D01*
X101282946Y-43168680D01*
X101281460Y-43102422D01*
X101274374Y-43067814D01*
X101272343Y-43053989D01*
X101271697Y-43046819D01*
X101269177Y-43018812D01*
X101251549Y-42954940D01*
X101249603Y-42946837D01*
X101236308Y-42881904D01*
X101223158Y-42849120D01*
X101218691Y-42835881D01*
X101209295Y-42801836D01*
X101209294Y-42801834D01*
X101209293Y-42801830D01*
X101180547Y-42742139D01*
X101177172Y-42734480D01*
X101152511Y-42672999D01*
X101152509Y-42672996D01*
X101152507Y-42672990D01*
X101133706Y-42643068D01*
X101126960Y-42630863D01*
X101111629Y-42599027D01*
X101111627Y-42599024D01*
X101111626Y-42599022D01*
X101072692Y-42545436D01*
X101067994Y-42538490D01*
X101032752Y-42482401D01*
X101032745Y-42482392D01*
X101008913Y-42456318D01*
X101000088Y-42445503D01*
X100979322Y-42416922D01*
X100931425Y-42371128D01*
X100925587Y-42365157D01*
X100880886Y-42316251D01*
X100880881Y-42316247D01*
X100880879Y-42316245D01*
X100852775Y-42294847D01*
X100842152Y-42285774D01*
X100816627Y-42261369D01*
X100816625Y-42261367D01*
X100761341Y-42224875D01*
X100754506Y-42220025D01*
X100723760Y-42196615D01*
X100701796Y-42179892D01*
X100701793Y-42179890D01*
X100701791Y-42179889D01*
X100670310Y-42163848D01*
X100658240Y-42156819D01*
X100628768Y-42137364D01*
X100567854Y-42111328D01*
X100560263Y-42107777D01*
X100501236Y-42077701D01*
X100467396Y-42067539D01*
X100454263Y-42062777D01*
X100442852Y-42057900D01*
X100421788Y-42048897D01*
X100407854Y-42045716D01*
X100357207Y-42034156D01*
X100349104Y-42032018D01*
X100285653Y-42012964D01*
X100250543Y-42009008D01*
X100236772Y-42006668D01*
X100202337Y-41998809D01*
X100136164Y-41995836D01*
X100127813Y-41995179D01*
X100073028Y-41989007D01*
X100061973Y-41987762D01*
X100061972Y-41987762D01*
X100026722Y-41990137D01*
X100012759Y-41990294D01*
X99988984Y-41989226D01*
X99977470Y-41988710D01*
X99977469Y-41988710D01*
X99977467Y-41988710D01*
X99911826Y-41997601D01*
X99903487Y-41998446D01*
X99837394Y-42002902D01*
X99837385Y-42002903D01*
X99803132Y-42011534D01*
X99789419Y-42014182D01*
X99754411Y-42018925D01*
X99754408Y-42018925D01*
X99691404Y-42039397D01*
X99683354Y-42041716D01*
X99619127Y-42057900D01*
X99619119Y-42057903D01*
X99619117Y-42057904D01*
X99615355Y-42059612D01*
X99611972Y-42060404D01*
X99608571Y-42061595D01*
X99608443Y-42061230D01*
X99520761Y-42081759D01*
X99512388Y-42081900D01*
X94368845Y-42081900D01*
X94326836Y-42085680D01*
X94200809Y-42097023D01*
X93983830Y-42156906D01*
X93781029Y-42254569D01*
X93721156Y-42298069D01*
X93632925Y-42338743D01*
X93535845Y-42342556D01*
X93444695Y-42308928D01*
X93437627Y-42304431D01*
X93319968Y-42226765D01*
X93319969Y-42226765D01*
X93112987Y-42138296D01*
X93112981Y-42138295D01*
X92893534Y-42088208D01*
X92893529Y-42088207D01*
X92668667Y-42078109D01*
X92445612Y-42108325D01*
X92445611Y-42108325D01*
X92231533Y-42177884D01*
X92231532Y-42177884D01*
X92033323Y-42284545D01*
X92033320Y-42284547D01*
X91857337Y-42424888D01*
X91857336Y-42424890D01*
X91709237Y-42594401D01*
X91593785Y-42787635D01*
X91514691Y-42998377D01*
X91493998Y-43112409D01*
X91458334Y-43202782D01*
X91390801Y-43272627D01*
X91301680Y-43311312D01*
X91204539Y-43312946D01*
X91114166Y-43277282D01*
X91044321Y-43209749D01*
X91005636Y-43120628D01*
X91000000Y-43067948D01*
X91000000Y-35749500D01*
X91018954Y-35654212D01*
X91072930Y-35573430D01*
X91153712Y-35519454D01*
X91249000Y-35500500D01*
X104751000Y-35500500D01*
X104846288Y-35519454D01*
G37*
%TD.AperFunction*%
%TD*%
M02*
