%TF.GenerationSoftware,KiCad,Pcbnew,7.0.9*%
%TF.CreationDate,2023-12-08T23:53:58+01:00*%
%TF.ProjectId,SMPS_V1_data,534d5053-5f56-4315-9f64-6174612e6b69,rev?*%
%TF.SameCoordinates,Original*%
%TF.FileFunction,Legend,Bot*%
%TF.FilePolarity,Positive*%
%FSLAX46Y46*%
G04 Gerber Fmt 4.6, Leading zero omitted, Abs format (unit mm)*
G04 Created by KiCad (PCBNEW 7.0.9) date 2023-12-08 23:53:58*
%MOMM*%
%LPD*%
G01*
G04 APERTURE LIST*
%ADD10C,0.150000*%
%ADD11C,0.120000*%
%ADD12C,0.152400*%
G04 APERTURE END LIST*
D10*
X164173723Y-94455619D02*
X164173723Y-95169904D01*
X164173723Y-95169904D02*
X164221342Y-95312761D01*
X164221342Y-95312761D02*
X164316580Y-95408000D01*
X164316580Y-95408000D02*
X164459437Y-95455619D01*
X164459437Y-95455619D02*
X164554675Y-95455619D01*
X163745151Y-94550857D02*
X163697532Y-94503238D01*
X163697532Y-94503238D02*
X163602294Y-94455619D01*
X163602294Y-94455619D02*
X163364199Y-94455619D01*
X163364199Y-94455619D02*
X163268961Y-94503238D01*
X163268961Y-94503238D02*
X163221342Y-94550857D01*
X163221342Y-94550857D02*
X163173723Y-94646095D01*
X163173723Y-94646095D02*
X163173723Y-94741333D01*
X163173723Y-94741333D02*
X163221342Y-94884190D01*
X163221342Y-94884190D02*
X163792770Y-95455619D01*
X163792770Y-95455619D02*
X163173723Y-95455619D01*
X162268961Y-94455619D02*
X162745151Y-94455619D01*
X162745151Y-94455619D02*
X162792770Y-94931809D01*
X162792770Y-94931809D02*
X162745151Y-94884190D01*
X162745151Y-94884190D02*
X162649913Y-94836571D01*
X162649913Y-94836571D02*
X162411818Y-94836571D01*
X162411818Y-94836571D02*
X162316580Y-94884190D01*
X162316580Y-94884190D02*
X162268961Y-94931809D01*
X162268961Y-94931809D02*
X162221342Y-95027047D01*
X162221342Y-95027047D02*
X162221342Y-95265142D01*
X162221342Y-95265142D02*
X162268961Y-95360380D01*
X162268961Y-95360380D02*
X162316580Y-95408000D01*
X162316580Y-95408000D02*
X162411818Y-95455619D01*
X162411818Y-95455619D02*
X162649913Y-95455619D01*
X162649913Y-95455619D02*
X162745151Y-95408000D01*
X162745151Y-95408000D02*
X162792770Y-95360380D01*
X121291857Y-103068580D02*
X121339476Y-103116200D01*
X121339476Y-103116200D02*
X121482333Y-103163819D01*
X121482333Y-103163819D02*
X121577571Y-103163819D01*
X121577571Y-103163819D02*
X121720428Y-103116200D01*
X121720428Y-103116200D02*
X121815666Y-103020961D01*
X121815666Y-103020961D02*
X121863285Y-102925723D01*
X121863285Y-102925723D02*
X121910904Y-102735247D01*
X121910904Y-102735247D02*
X121910904Y-102592390D01*
X121910904Y-102592390D02*
X121863285Y-102401914D01*
X121863285Y-102401914D02*
X121815666Y-102306676D01*
X121815666Y-102306676D02*
X121720428Y-102211438D01*
X121720428Y-102211438D02*
X121577571Y-102163819D01*
X121577571Y-102163819D02*
X121482333Y-102163819D01*
X121482333Y-102163819D02*
X121339476Y-102211438D01*
X121339476Y-102211438D02*
X121291857Y-102259057D01*
X120339476Y-103163819D02*
X120910904Y-103163819D01*
X120625190Y-103163819D02*
X120625190Y-102163819D01*
X120625190Y-102163819D02*
X120720428Y-102306676D01*
X120720428Y-102306676D02*
X120815666Y-102401914D01*
X120815666Y-102401914D02*
X120910904Y-102449533D01*
X119482333Y-102497152D02*
X119482333Y-103163819D01*
X119720428Y-102116200D02*
X119958523Y-102830485D01*
X119958523Y-102830485D02*
X119339476Y-102830485D01*
X128423818Y-86203834D02*
X127623818Y-86203834D01*
X127623818Y-86203834D02*
X127623818Y-86394310D01*
X127623818Y-86394310D02*
X127661913Y-86508596D01*
X127661913Y-86508596D02*
X127738103Y-86584786D01*
X127738103Y-86584786D02*
X127814294Y-86622881D01*
X127814294Y-86622881D02*
X127966675Y-86660977D01*
X127966675Y-86660977D02*
X128080961Y-86660977D01*
X128080961Y-86660977D02*
X128233342Y-86622881D01*
X128233342Y-86622881D02*
X128309532Y-86584786D01*
X128309532Y-86584786D02*
X128385723Y-86508596D01*
X128385723Y-86508596D02*
X128423818Y-86394310D01*
X128423818Y-86394310D02*
X128423818Y-86203834D01*
X127700008Y-86965738D02*
X127661913Y-87003834D01*
X127661913Y-87003834D02*
X127623818Y-87080024D01*
X127623818Y-87080024D02*
X127623818Y-87270500D01*
X127623818Y-87270500D02*
X127661913Y-87346691D01*
X127661913Y-87346691D02*
X127700008Y-87384786D01*
X127700008Y-87384786D02*
X127776199Y-87422881D01*
X127776199Y-87422881D02*
X127852389Y-87422881D01*
X127852389Y-87422881D02*
X127966675Y-87384786D01*
X127966675Y-87384786D02*
X128423818Y-86927643D01*
X128423818Y-86927643D02*
X128423818Y-87422881D01*
X121278857Y-98483580D02*
X121326476Y-98531200D01*
X121326476Y-98531200D02*
X121469333Y-98578819D01*
X121469333Y-98578819D02*
X121564571Y-98578819D01*
X121564571Y-98578819D02*
X121707428Y-98531200D01*
X121707428Y-98531200D02*
X121802666Y-98435961D01*
X121802666Y-98435961D02*
X121850285Y-98340723D01*
X121850285Y-98340723D02*
X121897904Y-98150247D01*
X121897904Y-98150247D02*
X121897904Y-98007390D01*
X121897904Y-98007390D02*
X121850285Y-97816914D01*
X121850285Y-97816914D02*
X121802666Y-97721676D01*
X121802666Y-97721676D02*
X121707428Y-97626438D01*
X121707428Y-97626438D02*
X121564571Y-97578819D01*
X121564571Y-97578819D02*
X121469333Y-97578819D01*
X121469333Y-97578819D02*
X121326476Y-97626438D01*
X121326476Y-97626438D02*
X121278857Y-97674057D01*
X120326476Y-98578819D02*
X120897904Y-98578819D01*
X120612190Y-98578819D02*
X120612190Y-97578819D01*
X120612190Y-97578819D02*
X120707428Y-97721676D01*
X120707428Y-97721676D02*
X120802666Y-97816914D01*
X120802666Y-97816914D02*
X120897904Y-97864533D01*
X119421714Y-97578819D02*
X119897904Y-97578819D01*
X119897904Y-97578819D02*
X119945523Y-98055009D01*
X119945523Y-98055009D02*
X119897904Y-98007390D01*
X119897904Y-98007390D02*
X119802666Y-97959771D01*
X119802666Y-97959771D02*
X119564571Y-97959771D01*
X119564571Y-97959771D02*
X119469333Y-98007390D01*
X119469333Y-98007390D02*
X119421714Y-98055009D01*
X119421714Y-98055009D02*
X119374095Y-98150247D01*
X119374095Y-98150247D02*
X119374095Y-98388342D01*
X119374095Y-98388342D02*
X119421714Y-98483580D01*
X119421714Y-98483580D02*
X119469333Y-98531200D01*
X119469333Y-98531200D02*
X119564571Y-98578819D01*
X119564571Y-98578819D02*
X119802666Y-98578819D01*
X119802666Y-98578819D02*
X119897904Y-98531200D01*
X119897904Y-98531200D02*
X119945523Y-98483580D01*
X125822819Y-96813142D02*
X125346628Y-96479809D01*
X125822819Y-96241714D02*
X124822819Y-96241714D01*
X124822819Y-96241714D02*
X124822819Y-96622666D01*
X124822819Y-96622666D02*
X124870438Y-96717904D01*
X124870438Y-96717904D02*
X124918057Y-96765523D01*
X124918057Y-96765523D02*
X125013295Y-96813142D01*
X125013295Y-96813142D02*
X125156152Y-96813142D01*
X125156152Y-96813142D02*
X125251390Y-96765523D01*
X125251390Y-96765523D02*
X125299009Y-96717904D01*
X125299009Y-96717904D02*
X125346628Y-96622666D01*
X125346628Y-96622666D02*
X125346628Y-96241714D01*
X124918057Y-97194095D02*
X124870438Y-97241714D01*
X124870438Y-97241714D02*
X124822819Y-97336952D01*
X124822819Y-97336952D02*
X124822819Y-97575047D01*
X124822819Y-97575047D02*
X124870438Y-97670285D01*
X124870438Y-97670285D02*
X124918057Y-97717904D01*
X124918057Y-97717904D02*
X125013295Y-97765523D01*
X125013295Y-97765523D02*
X125108533Y-97765523D01*
X125108533Y-97765523D02*
X125251390Y-97717904D01*
X125251390Y-97717904D02*
X125822819Y-97146476D01*
X125822819Y-97146476D02*
X125822819Y-97765523D01*
X124822819Y-98098857D02*
X124822819Y-98717904D01*
X124822819Y-98717904D02*
X125203771Y-98384571D01*
X125203771Y-98384571D02*
X125203771Y-98527428D01*
X125203771Y-98527428D02*
X125251390Y-98622666D01*
X125251390Y-98622666D02*
X125299009Y-98670285D01*
X125299009Y-98670285D02*
X125394247Y-98717904D01*
X125394247Y-98717904D02*
X125632342Y-98717904D01*
X125632342Y-98717904D02*
X125727580Y-98670285D01*
X125727580Y-98670285D02*
X125775200Y-98622666D01*
X125775200Y-98622666D02*
X125822819Y-98527428D01*
X125822819Y-98527428D02*
X125822819Y-98241714D01*
X125822819Y-98241714D02*
X125775200Y-98146476D01*
X125775200Y-98146476D02*
X125727580Y-98098857D01*
D11*
%TO.C,J25*%
X162034200Y-83720800D02*
X164694200Y-83720800D01*
X162034200Y-91400800D02*
X162034200Y-83720800D01*
X162034200Y-91400800D02*
X164694200Y-91400800D01*
X162034200Y-92670800D02*
X162034200Y-94000800D01*
X162034200Y-94000800D02*
X163364200Y-94000800D01*
X164694200Y-91400800D02*
X164694200Y-83720800D01*
%TO.C,C14*%
X120508420Y-100769000D02*
X120789580Y-100769000D01*
X120508420Y-101789000D02*
X120789580Y-101789000D01*
D12*
%TO.C,D2*%
X126917600Y-93224400D02*
X127730400Y-93224400D01*
X127730400Y-93224400D02*
X127730400Y-92665600D01*
X127730400Y-90938400D02*
X127730400Y-90379600D01*
X127730400Y-90379600D02*
X126917600Y-90379600D01*
D11*
%TO.C,C15*%
X120495420Y-96184000D02*
X120776580Y-96184000D01*
X120495420Y-97204000D02*
X120776580Y-97204000D01*
%TO.C,R23*%
X123415500Y-97693258D02*
X123415500Y-97218742D01*
X124460500Y-97693258D02*
X124460500Y-97218742D01*
%TD*%
M02*
