%TF.GenerationSoftware,KiCad,Pcbnew,7.0.9*%
%TF.CreationDate,2023-12-08T23:53:58+01:00*%
%TF.ProjectId,SMPS_V1_data,534d5053-5f56-4315-9f64-6174612e6b69,rev?*%
%TF.SameCoordinates,Original*%
%TF.FileFunction,Paste,Top*%
%TF.FilePolarity,Positive*%
%FSLAX46Y46*%
G04 Gerber Fmt 4.6, Leading zero omitted, Abs format (unit mm)*
G04 Created by KiCad (PCBNEW 7.0.9) date 2023-12-08 23:53:58*
%MOMM*%
%LPD*%
G01*
G04 APERTURE LIST*
G04 Aperture macros list*
%AMRoundRect*
0 Rectangle with rounded corners*
0 $1 Rounding radius*
0 $2 $3 $4 $5 $6 $7 $8 $9 X,Y pos of 4 corners*
0 Add a 4 corners polygon primitive as box body*
4,1,4,$2,$3,$4,$5,$6,$7,$8,$9,$2,$3,0*
0 Add four circle primitives for the rounded corners*
1,1,$1+$1,$2,$3*
1,1,$1+$1,$4,$5*
1,1,$1+$1,$6,$7*
1,1,$1+$1,$8,$9*
0 Add four rect primitives between the rounded corners*
20,1,$1+$1,$2,$3,$4,$5,0*
20,1,$1+$1,$4,$5,$6,$7,0*
20,1,$1+$1,$6,$7,$8,$9,0*
20,1,$1+$1,$8,$9,$2,$3,0*%
G04 Aperture macros list end*
%ADD10RoundRect,0.200000X0.200000X0.275000X-0.200000X0.275000X-0.200000X-0.275000X0.200000X-0.275000X0*%
%ADD11RoundRect,0.200000X-0.200000X-0.275000X0.200000X-0.275000X0.200000X0.275000X-0.200000X0.275000X0*%
%ADD12RoundRect,0.075000X0.700000X0.075000X-0.700000X0.075000X-0.700000X-0.075000X0.700000X-0.075000X0*%
%ADD13RoundRect,0.075000X0.075000X0.700000X-0.075000X0.700000X-0.075000X-0.700000X0.075000X-0.700000X0*%
%ADD14RoundRect,0.243750X-0.243750X-0.456250X0.243750X-0.456250X0.243750X0.456250X-0.243750X0.456250X0*%
%ADD15RoundRect,0.225000X0.250000X-0.225000X0.250000X0.225000X-0.250000X0.225000X-0.250000X-0.225000X0*%
%ADD16R,2.290000X5.080000*%
%ADD17R,2.420000X5.080000*%
%ADD18RoundRect,0.243750X0.243750X0.456250X-0.243750X0.456250X-0.243750X-0.456250X0.243750X-0.456250X0*%
%ADD19RoundRect,0.225000X-0.225000X-0.250000X0.225000X-0.250000X0.225000X0.250000X-0.225000X0.250000X0*%
%ADD20RoundRect,0.243750X-0.456250X0.243750X-0.456250X-0.243750X0.456250X-0.243750X0.456250X0.243750X0*%
%ADD21RoundRect,0.225000X-0.250000X0.225000X-0.250000X-0.225000X0.250000X-0.225000X0.250000X0.225000X0*%
%ADD22RoundRect,0.150000X0.587500X0.150000X-0.587500X0.150000X-0.587500X-0.150000X0.587500X-0.150000X0*%
%ADD23RoundRect,0.200000X-0.275000X0.200000X-0.275000X-0.200000X0.275000X-0.200000X0.275000X0.200000X0*%
%ADD24RoundRect,0.250000X-0.650000X0.325000X-0.650000X-0.325000X0.650000X-0.325000X0.650000X0.325000X0*%
%ADD25R,1.700000X2.090000*%
%ADD26RoundRect,0.200000X0.275000X-0.200000X0.275000X0.200000X-0.275000X0.200000X-0.275000X-0.200000X0*%
%ADD27RoundRect,0.150000X-0.825000X-0.150000X0.825000X-0.150000X0.825000X0.150000X-0.825000X0.150000X0*%
%ADD28RoundRect,0.225000X0.225000X0.250000X-0.225000X0.250000X-0.225000X-0.250000X0.225000X-0.250000X0*%
%ADD29RoundRect,0.150000X-0.587500X-0.150000X0.587500X-0.150000X0.587500X0.150000X-0.587500X0.150000X0*%
%ADD30R,1.200000X2.200000*%
%ADD31R,3.500000X2.200000*%
%ADD32R,2.200000X1.200000*%
%ADD33R,2.200000X3.500000*%
%ADD34RoundRect,0.250000X0.325000X0.650000X-0.325000X0.650000X-0.325000X-0.650000X0.325000X-0.650000X0*%
%ADD35R,0.660000X1.100000*%
G04 APERTURE END LIST*
D10*
%TO.C,R36*%
X77325200Y-48818800D03*
X75675200Y-48818800D03*
%TD*%
%TO.C,R35*%
X75825000Y-43400000D03*
X74175000Y-43400000D03*
%TD*%
D11*
%TO.C,R38*%
X74375000Y-46900000D03*
X76025000Y-46900000D03*
%TD*%
D12*
%TO.C,U3*%
X127922000Y-102743000D03*
X127922000Y-102243000D03*
X127922000Y-101743000D03*
X127922000Y-101243000D03*
X127922000Y-100743000D03*
X127922000Y-100243000D03*
X127922000Y-99743000D03*
X127922000Y-99243000D03*
X127922000Y-98743000D03*
X127922000Y-98243000D03*
X127922000Y-97743000D03*
X127922000Y-97243000D03*
X127922000Y-96743000D03*
X127922000Y-96243000D03*
X127922000Y-95743000D03*
X127922000Y-95243000D03*
D13*
X125997000Y-93318000D03*
X125497000Y-93318000D03*
X124997000Y-93318000D03*
X124497000Y-93318000D03*
X123997000Y-93318000D03*
X123497000Y-93318000D03*
X122997000Y-93318000D03*
X122497000Y-93318000D03*
X121997000Y-93318000D03*
X121497000Y-93318000D03*
X120997000Y-93318000D03*
X120497000Y-93318000D03*
X119997000Y-93318000D03*
X119497000Y-93318000D03*
X118997000Y-93318000D03*
X118497000Y-93318000D03*
D12*
X116572000Y-95243000D03*
X116572000Y-95743000D03*
X116572000Y-96243000D03*
X116572000Y-96743000D03*
X116572000Y-97243000D03*
X116572000Y-97743000D03*
X116572000Y-98243000D03*
X116572000Y-98743000D03*
X116572000Y-99243000D03*
X116572000Y-99743000D03*
X116572000Y-100243000D03*
X116572000Y-100743000D03*
X116572000Y-101243000D03*
X116572000Y-101743000D03*
X116572000Y-102243000D03*
X116572000Y-102743000D03*
D13*
X118497000Y-104668000D03*
X118997000Y-104668000D03*
X119497000Y-104668000D03*
X119997000Y-104668000D03*
X120497000Y-104668000D03*
X120997000Y-104668000D03*
X121497000Y-104668000D03*
X121997000Y-104668000D03*
X122497000Y-104668000D03*
X122997000Y-104668000D03*
X123497000Y-104668000D03*
X123997000Y-104668000D03*
X124497000Y-104668000D03*
X124997000Y-104668000D03*
X125497000Y-104668000D03*
X125997000Y-104668000D03*
%TD*%
D14*
%TO.C,D4*%
X146380100Y-59965600D03*
X148255100Y-59965600D03*
%TD*%
D15*
%TO.C,C6*%
X127494000Y-106854000D03*
X127494000Y-105304000D03*
%TD*%
D10*
%TO.C,R44*%
X94275000Y-94300000D03*
X92625000Y-94300000D03*
%TD*%
D11*
%TO.C,R33*%
X98025000Y-125018800D03*
X99675000Y-125018800D03*
%TD*%
D10*
%TO.C,R29*%
X76424000Y-96113600D03*
X74774000Y-96113600D03*
%TD*%
D16*
%TO.C,J30*%
X87200000Y-80920000D03*
D17*
X82820000Y-80920000D03*
X91580000Y-80920000D03*
%TD*%
D16*
%TO.C,J32*%
X87250000Y-131930000D03*
D17*
X82870000Y-131930000D03*
X91630000Y-131930000D03*
%TD*%
D10*
%TO.C,R27*%
X76618600Y-99847400D03*
X74968600Y-99847400D03*
%TD*%
D11*
%TO.C,R30*%
X74761800Y-97993200D03*
X76411800Y-97993200D03*
%TD*%
D18*
%TO.C,D5*%
X137027500Y-77360000D03*
X135152500Y-77360000D03*
%TD*%
D16*
%TO.C,J31*%
X87200000Y-89060000D03*
D17*
X91580000Y-89060000D03*
X82820000Y-89060000D03*
%TD*%
D19*
%TO.C,C4*%
X125195000Y-57832000D03*
X126745000Y-57832000D03*
%TD*%
D10*
%TO.C,R4*%
X137209000Y-70291000D03*
X135559000Y-70291000D03*
%TD*%
D20*
%TO.C,C1*%
X107174000Y-70623500D03*
X107174000Y-72498500D03*
%TD*%
D21*
%TO.C,C18*%
X92600000Y-124675000D03*
X92600000Y-126225000D03*
%TD*%
D11*
%TO.C,R43*%
X80375000Y-126600000D03*
X82025000Y-126600000D03*
%TD*%
D15*
%TO.C,C16*%
X82000000Y-96375000D03*
X82000000Y-94825000D03*
%TD*%
D22*
%TO.C,D8*%
X79616000Y-45050000D03*
X77584000Y-44100000D03*
X79616000Y-43084000D03*
%TD*%
D15*
%TO.C,C21*%
X72700000Y-44975000D03*
X72700000Y-43425000D03*
%TD*%
D10*
%TO.C,R34*%
X99675000Y-123300000D03*
X98025000Y-123300000D03*
%TD*%
D23*
%TO.C,R53*%
X100033800Y-45022000D03*
X100033800Y-46672000D03*
%TD*%
D24*
%TO.C,C9*%
X158990000Y-89680000D03*
X158990000Y-92630000D03*
%TD*%
D22*
%TO.C,D6*%
X80116000Y-96250000D03*
X78084000Y-95300000D03*
X80116000Y-94284000D03*
%TD*%
D24*
%TO.C,C10*%
X159244000Y-83330000D03*
X159244000Y-86280000D03*
%TD*%
D25*
%TO.C,D1*%
X159269400Y-71417400D03*
X159269400Y-67157400D03*
%TD*%
D11*
%TO.C,R41*%
X97837200Y-73787000D03*
X99487200Y-73787000D03*
%TD*%
D26*
%TO.C,R52*%
X73541600Y-74281800D03*
X73541600Y-72631800D03*
%TD*%
D21*
%TO.C,C19*%
X101300000Y-125025000D03*
X101300000Y-126575000D03*
%TD*%
D10*
%TO.C,R3*%
X127303000Y-70291000D03*
X125653000Y-70291000D03*
%TD*%
%TO.C,R24*%
X147876400Y-56866800D03*
X146226400Y-56866800D03*
%TD*%
%TO.C,R37*%
X76025000Y-45100000D03*
X74375000Y-45100000D03*
%TD*%
D11*
%TO.C,R31*%
X98075000Y-126593600D03*
X99725000Y-126593600D03*
%TD*%
%TO.C,R25*%
X118235600Y-57730400D03*
X119885600Y-57730400D03*
%TD*%
D26*
%TO.C,R47*%
X74422000Y-124472200D03*
X74422000Y-122822200D03*
%TD*%
D23*
%TO.C,R48*%
X74583000Y-126810000D03*
X74583000Y-128460000D03*
%TD*%
D10*
%TO.C,R28*%
X76481800Y-94183800D03*
X74831800Y-94183800D03*
%TD*%
D26*
%TO.C,R50*%
X99618800Y-94246200D03*
X99618800Y-92596200D03*
%TD*%
D21*
%TO.C,C22*%
X92700000Y-74525000D03*
X92700000Y-76075000D03*
%TD*%
D11*
%TO.C,R40*%
X96948200Y-70104000D03*
X98598200Y-70104000D03*
%TD*%
D26*
%TO.C,R54*%
X100033800Y-43243000D03*
X100033800Y-41593000D03*
%TD*%
D15*
%TO.C,C20*%
X81800000Y-45775000D03*
X81800000Y-44225000D03*
%TD*%
D21*
%TO.C,C23*%
X101500000Y-74325000D03*
X101500000Y-75875000D03*
%TD*%
D14*
%TO.C,D3*%
X118163000Y-60981600D03*
X120038000Y-60981600D03*
%TD*%
D11*
%TO.C,R46*%
X80175000Y-75000000D03*
X81825000Y-75000000D03*
%TD*%
D27*
%TO.C,U4*%
X150230000Y-83740000D03*
X150230000Y-85010000D03*
X150230000Y-86280000D03*
X150230000Y-87550000D03*
X150230000Y-88820000D03*
X150230000Y-90090000D03*
X150230000Y-91360000D03*
X150230000Y-92630000D03*
X155180000Y-92630000D03*
X155180000Y-91360000D03*
X155180000Y-90090000D03*
X155180000Y-88820000D03*
X155180000Y-87550000D03*
X155180000Y-86280000D03*
X155180000Y-85010000D03*
X155180000Y-83740000D03*
%TD*%
D28*
%TO.C,C5*%
X131825000Y-90357000D03*
X130275000Y-90357000D03*
%TD*%
D10*
%TO.C,R1*%
X132320000Y-70291000D03*
X130670000Y-70291000D03*
%TD*%
D21*
%TO.C,C11*%
X159752000Y-100999000D03*
X159752000Y-102549000D03*
%TD*%
D26*
%TO.C,R26*%
X132700000Y-79425000D03*
X132700000Y-77775000D03*
%TD*%
D19*
%TO.C,C8*%
X151090000Y-106274000D03*
X152640000Y-106274000D03*
%TD*%
D29*
%TO.C,D9*%
X94984000Y-74150000D03*
X97016000Y-75100000D03*
X94984000Y-76116000D03*
%TD*%
D30*
%TO.C,U2*%
X110462000Y-74407000D03*
D31*
X112762000Y-68207000D03*
D30*
X112762000Y-74407000D03*
X114962000Y-74407000D03*
%TD*%
D32*
%TO.C,U5*%
X155942000Y-103988000D03*
D33*
X149742000Y-101688000D03*
D32*
X155942000Y-101688000D03*
X155942000Y-99488000D03*
%TD*%
D11*
%TO.C,R39*%
X98375000Y-76100000D03*
X100025000Y-76100000D03*
%TD*%
D10*
%TO.C,R2*%
X121969000Y-70291000D03*
X120319000Y-70291000D03*
%TD*%
D34*
%TO.C,C7*%
X155844000Y-59356000D03*
X152894000Y-59356000D03*
%TD*%
D23*
%TO.C,R51*%
X73558400Y-75629000D03*
X73558400Y-77279000D03*
%TD*%
D10*
%TO.C,R42*%
X99499400Y-71805800D03*
X97849400Y-71805800D03*
%TD*%
D28*
%TO.C,C3*%
X130301000Y-57832000D03*
X128751000Y-57832000D03*
%TD*%
D23*
%TO.C,R49*%
X99618800Y-95136200D03*
X99618800Y-96786200D03*
%TD*%
D35*
%TO.C,U1*%
X127052000Y-62421000D03*
X128002000Y-62421000D03*
X128952000Y-62421000D03*
X128952000Y-59821000D03*
X127052000Y-59821000D03*
%TD*%
D29*
%TO.C,D7*%
X94384000Y-124780000D03*
X96416000Y-125730000D03*
X94384000Y-126746000D03*
%TD*%
D10*
%TO.C,R45*%
X94425000Y-43332400D03*
X92775000Y-43332400D03*
%TD*%
D11*
%TO.C,R32*%
X96533200Y-121412000D03*
X98183200Y-121412000D03*
%TD*%
D15*
%TO.C,C17*%
X73160600Y-95681800D03*
X73160600Y-94131800D03*
%TD*%
D16*
%TO.C,J29*%
X87250000Y-38070000D03*
D17*
X91630000Y-38070000D03*
X82870000Y-38070000D03*
%TD*%
D15*
%TO.C,C2*%
X131558000Y-65211000D03*
X131558000Y-63661000D03*
%TD*%
M02*
