%TF.GenerationSoftware,KiCad,Pcbnew,7.0.9*%
%TF.CreationDate,2023-12-08T23:53:58+01:00*%
%TF.ProjectId,SMPS_V1_data,534d5053-5f56-4315-9f64-6174612e6b69,rev?*%
%TF.SameCoordinates,Original*%
%TF.FileFunction,Soldermask,Bot*%
%TF.FilePolarity,Negative*%
%FSLAX46Y46*%
G04 Gerber Fmt 4.6, Leading zero omitted, Abs format (unit mm)*
G04 Created by KiCad (PCBNEW 7.0.9) date 2023-12-08 23:53:58*
%MOMM*%
%LPD*%
G01*
G04 APERTURE LIST*
G04 Aperture macros list*
%AMRoundRect*
0 Rectangle with rounded corners*
0 $1 Rounding radius*
0 $2 $3 $4 $5 $6 $7 $8 $9 X,Y pos of 4 corners*
0 Add a 4 corners polygon primitive as box body*
4,1,4,$2,$3,$4,$5,$6,$7,$8,$9,$2,$3,0*
0 Add four circle primitives for the rounded corners*
1,1,$1+$1,$2,$3*
1,1,$1+$1,$4,$5*
1,1,$1+$1,$6,$7*
1,1,$1+$1,$8,$9*
0 Add four rect primitives between the rounded corners*
20,1,$1+$1,$2,$3,$4,$5,0*
20,1,$1+$1,$4,$5,$6,$7,0*
20,1,$1+$1,$6,$7,$8,$9,0*
20,1,$1+$1,$8,$9,$2,$3,0*%
G04 Aperture macros list end*
%ADD10R,2.420000X5.080000*%
%ADD11R,1.700000X1.700000*%
%ADD12O,1.700000X1.700000*%
%ADD13RoundRect,0.102000X1.200000X1.200000X-1.200000X1.200000X-1.200000X-1.200000X1.200000X-1.200000X0*%
%ADD14C,2.604000*%
%ADD15RoundRect,0.225000X-0.225000X-0.250000X0.225000X-0.250000X0.225000X0.250000X-0.225000X0.250000X0*%
%ADD16RoundRect,0.102000X0.700000X-0.500000X0.700000X0.500000X-0.700000X0.500000X-0.700000X-0.500000X0*%
%ADD17RoundRect,0.200000X0.275000X-0.200000X0.275000X0.200000X-0.275000X0.200000X-0.275000X-0.200000X0*%
G04 APERTURE END LIST*
D10*
%TO.C,J30*%
X82820000Y-80920000D03*
X91580000Y-80920000D03*
%TD*%
%TO.C,J32*%
X82870000Y-131930000D03*
X91630000Y-131930000D03*
%TD*%
%TO.C,J31*%
X91580000Y-89060000D03*
X82820000Y-89060000D03*
%TD*%
D11*
%TO.C,J26*%
X121511200Y-50923200D03*
D12*
X121511200Y-53463200D03*
%TD*%
D11*
%TO.C,J5*%
X116250000Y-91770000D03*
D12*
X116250000Y-89230000D03*
%TD*%
D11*
%TO.C,J4*%
X119874000Y-74101000D03*
D12*
X122414000Y-74101000D03*
X124954000Y-74101000D03*
X127494000Y-74101000D03*
X130034000Y-74101000D03*
X132574000Y-74101000D03*
X135114000Y-74101000D03*
X137654000Y-74101000D03*
%TD*%
D11*
%TO.C,J1*%
X107682000Y-77911000D03*
D12*
X107682000Y-80451000D03*
X107682000Y-82991000D03*
%TD*%
D11*
%TO.C,J2*%
X107682000Y-88579000D03*
D12*
X110222000Y-88579000D03*
X107682000Y-91119000D03*
X110222000Y-91119000D03*
X107682000Y-93659000D03*
X110222000Y-93659000D03*
X107682000Y-96199000D03*
X110222000Y-96199000D03*
X107682000Y-98739000D03*
X110222000Y-98739000D03*
X107682000Y-101279000D03*
X110222000Y-101279000D03*
X107682000Y-103819000D03*
X110222000Y-103819000D03*
X107682000Y-106359000D03*
X110222000Y-106359000D03*
%TD*%
D11*
%TO.C,J14*%
X159320200Y-77542400D03*
%TD*%
%TO.C,J8*%
X120382000Y-120570000D03*
D12*
X122922000Y-120570000D03*
X125462000Y-120570000D03*
X128002000Y-120570000D03*
X130542000Y-120570000D03*
X133082000Y-120570000D03*
%TD*%
D11*
%TO.C,J10*%
X107800000Y-125130000D03*
D12*
X107800000Y-122590000D03*
X107800000Y-120050000D03*
X107800000Y-117510000D03*
X107800000Y-114970000D03*
%TD*%
D11*
%TO.C,J13*%
X139178000Y-107121000D03*
D12*
X136638000Y-107121000D03*
X139178000Y-104581000D03*
X136638000Y-104581000D03*
X139178000Y-102041000D03*
X136638000Y-102041000D03*
X139178000Y-99501000D03*
X136638000Y-99501000D03*
X139178000Y-96961000D03*
X136638000Y-96961000D03*
X139178000Y-94421000D03*
X136638000Y-94421000D03*
X139178000Y-91881000D03*
X136638000Y-91881000D03*
X139178000Y-89341000D03*
X136638000Y-89341000D03*
%TD*%
D13*
%TO.C,J11*%
X143750000Y-49912500D03*
D14*
X138670000Y-49912500D03*
%TD*%
D11*
%TO.C,J28*%
X137986792Y-80331208D03*
%TD*%
%TO.C,J9*%
X130796000Y-125142000D03*
D12*
X133336000Y-125142000D03*
%TD*%
D11*
%TO.C,J6*%
X132066000Y-82229000D03*
D12*
X132066000Y-84769000D03*
X129526000Y-82229000D03*
X129526000Y-84769000D03*
X126986000Y-82229000D03*
X126986000Y-84769000D03*
X124446000Y-82229000D03*
X124446000Y-84769000D03*
X121906000Y-82229000D03*
X121906000Y-84769000D03*
%TD*%
D13*
%TO.C,J3*%
X115810000Y-49895000D03*
D14*
X110730000Y-49895000D03*
%TD*%
D11*
%TO.C,J7*%
X114286000Y-113217000D03*
D12*
X114286000Y-110677000D03*
X116826000Y-113217000D03*
X116826000Y-110677000D03*
X119366000Y-113217000D03*
X119366000Y-110677000D03*
X121906000Y-113217000D03*
X121906000Y-110677000D03*
X124446000Y-113217000D03*
X124446000Y-110677000D03*
X126986000Y-113217000D03*
X126986000Y-110677000D03*
X129526000Y-113217000D03*
X129526000Y-110677000D03*
X132066000Y-113217000D03*
X132066000Y-110677000D03*
%TD*%
D11*
%TO.C,J27*%
X149756000Y-50923200D03*
D12*
X149756000Y-53463200D03*
%TD*%
D10*
%TO.C,J29*%
X91630000Y-38070000D03*
X82870000Y-38070000D03*
%TD*%
D11*
%TO.C,J12*%
X152900000Y-79900000D03*
D12*
X150360000Y-79900000D03*
X147820000Y-79900000D03*
X145280000Y-79900000D03*
%TD*%
D11*
%TO.C,J25*%
X163364200Y-92670800D03*
D12*
X163364200Y-90130800D03*
X163364200Y-87590800D03*
X163364200Y-85050800D03*
%TD*%
D15*
%TO.C,C14*%
X119874000Y-101279000D03*
X121424000Y-101279000D03*
%TD*%
D16*
%TO.C,D2*%
X125970000Y-92752000D03*
X125970000Y-90852000D03*
X128170000Y-91802000D03*
%TD*%
D15*
%TO.C,C15*%
X119861000Y-96694000D03*
X121411000Y-96694000D03*
%TD*%
D17*
%TO.C,R23*%
X123938000Y-98281000D03*
X123938000Y-96631000D03*
%TD*%
M02*
