%TF.GenerationSoftware,KiCad,Pcbnew,7.0.9*%
%TF.CreationDate,2023-12-08T23:53:58+01:00*%
%TF.ProjectId,SMPS_V1_data,534d5053-5f56-4315-9f64-6174612e6b69,rev?*%
%TF.SameCoordinates,Original*%
%TF.FileFunction,Copper,L2,Bot*%
%TF.FilePolarity,Positive*%
%FSLAX46Y46*%
G04 Gerber Fmt 4.6, Leading zero omitted, Abs format (unit mm)*
G04 Created by KiCad (PCBNEW 7.0.9) date 2023-12-08 23:53:58*
%MOMM*%
%LPD*%
G01*
G04 APERTURE LIST*
G04 Aperture macros list*
%AMRoundRect*
0 Rectangle with rounded corners*
0 $1 Rounding radius*
0 $2 $3 $4 $5 $6 $7 $8 $9 X,Y pos of 4 corners*
0 Add a 4 corners polygon primitive as box body*
4,1,4,$2,$3,$4,$5,$6,$7,$8,$9,$2,$3,0*
0 Add four circle primitives for the rounded corners*
1,1,$1+$1,$2,$3*
1,1,$1+$1,$4,$5*
1,1,$1+$1,$6,$7*
1,1,$1+$1,$8,$9*
0 Add four rect primitives between the rounded corners*
20,1,$1+$1,$2,$3,$4,$5,0*
20,1,$1+$1,$4,$5,$6,$7,0*
20,1,$1+$1,$6,$7,$8,$9,0*
20,1,$1+$1,$8,$9,$2,$3,0*%
G04 Aperture macros list end*
%TA.AperFunction,SMDPad,CuDef*%
%ADD10R,2.420000X5.080000*%
%TD*%
%TA.AperFunction,SMDPad,CuDef*%
%ADD11R,0.460000X0.950000*%
%TD*%
%TA.AperFunction,ComponentPad*%
%ADD12C,0.970000*%
%TD*%
%TA.AperFunction,ComponentPad*%
%ADD13R,1.700000X1.700000*%
%TD*%
%TA.AperFunction,ComponentPad*%
%ADD14O,1.700000X1.700000*%
%TD*%
%TA.AperFunction,ComponentPad*%
%ADD15R,2.400000X2.400000*%
%TD*%
%TA.AperFunction,ComponentPad*%
%ADD16C,2.400000*%
%TD*%
%TA.AperFunction,SMDPad,CuDef*%
%ADD17RoundRect,0.225000X-0.225000X-0.250000X0.225000X-0.250000X0.225000X0.250000X-0.225000X0.250000X0*%
%TD*%
%TA.AperFunction,SMDPad,CuDef*%
%ADD18R,1.400000X1.000000*%
%TD*%
%TA.AperFunction,SMDPad,CuDef*%
%ADD19RoundRect,0.200000X0.275000X-0.200000X0.275000X0.200000X-0.275000X0.200000X-0.275000X-0.200000X0*%
%TD*%
%TA.AperFunction,ViaPad*%
%ADD20C,1.200000*%
%TD*%
%TA.AperFunction,ViaPad*%
%ADD21C,0.800000*%
%TD*%
%TA.AperFunction,ViaPad*%
%ADD22C,1.000000*%
%TD*%
%TA.AperFunction,Conductor*%
%ADD23C,0.750000*%
%TD*%
%TA.AperFunction,Conductor*%
%ADD24C,0.250000*%
%TD*%
%TA.AperFunction,Conductor*%
%ADD25C,0.400000*%
%TD*%
%TA.AperFunction,Conductor*%
%ADD26C,1.000000*%
%TD*%
G04 APERTURE END LIST*
D10*
%TO.P,J30,2,Ext*%
%TO.N,/GND_S*%
X82820000Y-80920000D03*
X91580000Y-80920000D03*
D11*
X82820000Y-77930000D03*
X91580000Y-77930000D03*
D12*
X82820000Y-77480000D03*
X91580000Y-77480000D03*
%TD*%
D10*
%TO.P,J32,2,Ext*%
%TO.N,/GND_S*%
X82870000Y-131930000D03*
X91630000Y-131930000D03*
D11*
X82870000Y-128940000D03*
X91630000Y-128940000D03*
D12*
X82870000Y-128490000D03*
X91630000Y-128490000D03*
%TD*%
D10*
%TO.P,J31,2,Ext*%
%TO.N,/GND_S*%
X91580000Y-89060000D03*
X82820000Y-89060000D03*
D11*
X91580000Y-92050000D03*
X82820000Y-92050000D03*
D12*
X91580000Y-92500000D03*
X82820000Y-92500000D03*
%TD*%
D13*
%TO.P,J26,1,Pin_1*%
%TO.N,GND_D*%
X121511200Y-50923200D03*
D14*
%TO.P,J26,2,Pin_2*%
%TO.N,VCC5_IN*%
X121511200Y-53463200D03*
%TD*%
D13*
%TO.P,J5,1,Pin_1*%
%TO.N,GND_A*%
X116250000Y-91770000D03*
D14*
%TO.P,J5,2,Pin_2*%
X116250000Y-89230000D03*
%TD*%
D13*
%TO.P,J4,1,Pin_1*%
%TO.N,Net-(J4-Pin_1)*%
X119874000Y-74101000D03*
D14*
%TO.P,J4,2,Pin_2*%
%TO.N,Net-(J4-Pin_2)*%
X122414000Y-74101000D03*
%TO.P,J4,3,Pin_3*%
%TO.N,Net-(J4-Pin_3)*%
X124954000Y-74101000D03*
%TO.P,J4,4,Pin_4*%
%TO.N,Net-(J4-Pin_4)*%
X127494000Y-74101000D03*
%TO.P,J4,5,Pin_5*%
%TO.N,Net-(J4-Pin_5)*%
X130034000Y-74101000D03*
%TO.P,J4,6,Pin_6*%
%TO.N,Net-(J4-Pin_6)*%
X132574000Y-74101000D03*
%TO.P,J4,7,Pin_7*%
%TO.N,Net-(J4-Pin_7)*%
X135114000Y-74101000D03*
%TO.P,J4,8,Pin_8*%
%TO.N,Net-(J4-Pin_8)*%
X137654000Y-74101000D03*
%TD*%
D13*
%TO.P,J1,1,Pin_1*%
%TO.N,/PB10*%
X107682000Y-77911000D03*
D14*
%TO.P,J1,2,Pin_2*%
%TO.N,GND_D*%
X107682000Y-80451000D03*
%TO.P,J1,3,Pin_3*%
X107682000Y-82991000D03*
%TD*%
D13*
%TO.P,J2,1,Pin_1*%
%TO.N,/PB11*%
X107682000Y-88579000D03*
D14*
%TO.P,J2,2,Pin_2*%
%TO.N,/PB12*%
X110222000Y-88579000D03*
%TO.P,J2,3,Pin_3*%
%TO.N,/PB13*%
X107682000Y-91119000D03*
%TO.P,J2,4,Pin_4*%
%TO.N,/PB14*%
X110222000Y-91119000D03*
%TO.P,J2,5,Pin_5*%
%TO.N,/PB15*%
X107682000Y-93659000D03*
%TO.P,J2,6,Pin_6*%
%TO.N,/PC6*%
X110222000Y-93659000D03*
%TO.P,J2,7,Pin_7*%
%TO.N,/PC7*%
X107682000Y-96199000D03*
%TO.P,J2,8,Pin_8*%
%TO.N,/PC8*%
X110222000Y-96199000D03*
%TO.P,J2,9,Pin_9*%
%TO.N,/PC9*%
X107682000Y-98739000D03*
%TO.P,J2,10,Pin_10*%
%TO.N,/PA8*%
X110222000Y-98739000D03*
%TO.P,J2,11,Pin_11*%
%TO.N,/PA9*%
X107682000Y-101279000D03*
%TO.P,J2,12,Pin_12*%
%TO.N,/PA10*%
X110222000Y-101279000D03*
%TO.P,J2,13,Pin_13*%
%TO.N,/PA11*%
X107682000Y-103819000D03*
%TO.P,J2,14,Pin_14*%
%TO.N,/PA12*%
X110222000Y-103819000D03*
%TO.P,J2,15,Pin_15*%
%TO.N,GND_D*%
X107682000Y-106359000D03*
%TO.P,J2,16,Pin_16*%
X110222000Y-106359000D03*
%TD*%
D13*
%TO.P,J14,1,Pin_1*%
%TO.N,Net-(D1-K)*%
X159320200Y-77542400D03*
%TD*%
%TO.P,J8,1,Pin_1*%
%TO.N,VCC3_D*%
X120382000Y-120570000D03*
D14*
%TO.P,J8,2,Pin_2*%
%TO.N,SWCLK*%
X122922000Y-120570000D03*
%TO.P,J8,3,Pin_3*%
%TO.N,GND_D*%
X125462000Y-120570000D03*
%TO.P,J8,4,Pin_4*%
%TO.N,SWDIO*%
X128002000Y-120570000D03*
%TO.P,J8,5,Pin_5*%
%TO.N,NRST*%
X130542000Y-120570000D03*
%TO.P,J8,6,Pin_6*%
%TO.N,SWO*%
X133082000Y-120570000D03*
%TD*%
D13*
%TO.P,J10,1,Pin_1*%
%TO.N,GND_D*%
X107800000Y-125130000D03*
D14*
%TO.P,J10,2,Pin_2*%
%TO.N,/PC8*%
X107800000Y-122590000D03*
%TO.P,J10,3,Pin_3*%
%TO.N,/PC9*%
X107800000Y-120050000D03*
%TO.P,J10,4,Pin_4*%
%TO.N,VCC3_D*%
X107800000Y-117510000D03*
%TO.P,J10,5,Pin_5*%
%TO.N,VCC5_D*%
X107800000Y-114970000D03*
%TD*%
D13*
%TO.P,J13,1,Pin_1*%
%TO.N,Net-(J13-Pin_1)*%
X139178000Y-107121000D03*
D14*
%TO.P,J13,2,Pin_2*%
%TO.N,/PC13*%
X136638000Y-107121000D03*
%TO.P,J13,3,Pin_3*%
%TO.N,/PC14*%
X139178000Y-104581000D03*
%TO.P,J13,4,Pin_4*%
%TO.N,/PC15*%
X136638000Y-104581000D03*
%TO.P,J13,5,Pin_5*%
%TO.N,/PF0*%
X139178000Y-102041000D03*
%TO.P,J13,6,Pin_6*%
%TO.N,/PF1*%
X136638000Y-102041000D03*
%TO.P,J13,7,Pin_7*%
%TO.N,NRST*%
X139178000Y-99501000D03*
%TO.P,J13,8,Pin_8*%
%TO.N,/PC0*%
X136638000Y-99501000D03*
%TO.P,J13,9,Pin_9*%
%TO.N,/PC1*%
X139178000Y-96961000D03*
%TO.P,J13,10,Pin_10*%
%TO.N,/PC2*%
X136638000Y-96961000D03*
%TO.P,J13,11,Pin_11*%
%TO.N,/PC3*%
X139178000Y-94421000D03*
%TO.P,J13,12,Pin_12*%
%TO.N,/PA0*%
X136638000Y-94421000D03*
%TO.P,J13,13,Pin_13*%
%TO.N,/PA1*%
X139178000Y-91881000D03*
%TO.P,J13,14,Pin_14*%
%TO.N,STLINK_RX*%
X136638000Y-91881000D03*
%TO.P,J13,15,Pin_15*%
%TO.N,GND_D*%
X139178000Y-89341000D03*
%TO.P,J13,16,Pin_16*%
X136638000Y-89341000D03*
%TD*%
D15*
%TO.P,J11,1,1*%
%TO.N,GND_D*%
X143750000Y-49912500D03*
D16*
%TO.P,J11,2,2*%
%TO.N,VCC12_IN*%
X138670000Y-49912500D03*
%TD*%
D13*
%TO.P,J28,1,Pin_1*%
%TO.N,Net-(J28-Pin_1)*%
X137986792Y-80331208D03*
%TD*%
%TO.P,J9,1,Pin_1*%
%TO.N,STLINK_TX*%
X130796000Y-125142000D03*
D14*
%TO.P,J9,2,Pin_2*%
%TO.N,STLINK_RX*%
X133336000Y-125142000D03*
%TD*%
D13*
%TO.P,J6,1,Pin_1*%
%TO.N,STLINK_TX*%
X132066000Y-82229000D03*
D14*
%TO.P,J6,2,Pin_2*%
%TO.N,/PA4*%
X132066000Y-84769000D03*
%TO.P,J6,3,Pin_3*%
%TO.N,/PA5*%
X129526000Y-82229000D03*
%TO.P,J6,4,Pin_4*%
%TO.N,/PA6*%
X129526000Y-84769000D03*
%TO.P,J6,5,Pin_5*%
%TO.N,/PA7*%
X126986000Y-82229000D03*
%TO.P,J6,6,Pin_6*%
%TO.N,/PC4*%
X126986000Y-84769000D03*
%TO.P,J6,7,Pin_7*%
%TO.N,/PC5*%
X124446000Y-82229000D03*
%TO.P,J6,8,Pin_8*%
%TO.N,/PB0*%
X124446000Y-84769000D03*
%TO.P,J6,9,Pin_9*%
%TO.N,/PB1*%
X121906000Y-82229000D03*
%TO.P,J6,10,Pin_10*%
%TO.N,/PB2*%
X121906000Y-84769000D03*
%TD*%
D15*
%TO.P,J3,1,1*%
%TO.N,GND_D*%
X115810000Y-49895000D03*
D16*
%TO.P,J3,2,2*%
%TO.N,VCC5_IN*%
X110730000Y-49895000D03*
%TD*%
D13*
%TO.P,J7,1,Pin_1*%
%TO.N,SWDIO*%
X114286000Y-113217000D03*
D14*
%TO.P,J7,2,Pin_2*%
%TO.N,SWCLK*%
X114286000Y-110677000D03*
%TO.P,J7,3,Pin_3*%
%TO.N,/PA15*%
X116826000Y-113217000D03*
%TO.P,J7,4,Pin_4*%
%TO.N,/PC10*%
X116826000Y-110677000D03*
%TO.P,J7,5,Pin_5*%
%TO.N,/PC11*%
X119366000Y-113217000D03*
%TO.P,J7,6,Pin_6*%
%TO.N,/PC12*%
X119366000Y-110677000D03*
%TO.P,J7,7,Pin_7*%
%TO.N,/PD2*%
X121906000Y-113217000D03*
%TO.P,J7,8,Pin_8*%
%TO.N,SWO*%
X121906000Y-110677000D03*
%TO.P,J7,9,Pin_9*%
%TO.N,/PB4*%
X124446000Y-113217000D03*
%TO.P,J7,10,Pin_10*%
%TO.N,/PB5*%
X124446000Y-110677000D03*
%TO.P,J7,11,Pin_11*%
%TO.N,/PB6*%
X126986000Y-113217000D03*
%TO.P,J7,12,Pin_12*%
%TO.N,/PB7*%
X126986000Y-110677000D03*
%TO.P,J7,13,Pin_13*%
%TO.N,/PB8*%
X129526000Y-113217000D03*
%TO.P,J7,14,Pin_14*%
%TO.N,/PB9*%
X129526000Y-110677000D03*
%TO.P,J7,15,Pin_15*%
%TO.N,GND_D*%
X132066000Y-113217000D03*
%TO.P,J7,16,Pin_16*%
X132066000Y-110677000D03*
%TD*%
D13*
%TO.P,J27,1,Pin_1*%
%TO.N,GND_D*%
X149756000Y-50923200D03*
D14*
%TO.P,J27,2,Pin_2*%
%TO.N,VCC12_IN*%
X149756000Y-53463200D03*
%TD*%
D10*
%TO.P,J29,2,Ext*%
%TO.N,/GND_S*%
X91630000Y-38070000D03*
X82870000Y-38070000D03*
D11*
X91630000Y-41060000D03*
X82870000Y-41060000D03*
D12*
X91630000Y-41510000D03*
X82870000Y-41510000D03*
%TD*%
D13*
%TO.P,J12,1,Pin_1*%
%TO.N,Net-(J12-Pin_1)*%
X152900000Y-79900000D03*
D14*
%TO.P,J12,2,Pin_2*%
%TO.N,Net-(J12-Pin_2)*%
X150360000Y-79900000D03*
%TO.P,J12,3,Pin_3*%
%TO.N,Net-(J12-Pin_3)*%
X147820000Y-79900000D03*
%TO.P,J12,4,Pin_4*%
%TO.N,Net-(J12-Pin_4)*%
X145280000Y-79900000D03*
%TD*%
D13*
%TO.P,J25,1,Pin_1*%
%TO.N,Net-(J18-Pin_1)*%
X163364200Y-92670800D03*
D14*
%TO.P,J25,2,Pin_2*%
%TO.N,Net-(J24-Pin_2)*%
X163364200Y-90130800D03*
%TO.P,J25,3,Pin_3*%
%TO.N,Net-(J17-Pin_1)*%
X163364200Y-87590800D03*
%TO.P,J25,4,Pin_4*%
%TO.N,Net-(J24-Pin_4)*%
X163364200Y-85050800D03*
%TD*%
D17*
%TO.P,C14,1*%
%TO.N,GND_D*%
X119874000Y-101279000D03*
%TO.P,C14,2*%
%TO.N,VDD3_D*%
X121424000Y-101279000D03*
%TD*%
D18*
%TO.P,D2,1*%
%TO.N,VDD3_A*%
X125970000Y-92752000D03*
%TO.P,D2,2*%
X125970000Y-90852000D03*
%TO.P,D2,3*%
%TO.N,VDD3_D*%
X128170000Y-91802000D03*
%TD*%
D17*
%TO.P,C15,1*%
%TO.N,VDD3_A*%
X119861000Y-96694000D03*
%TO.P,C15,2*%
%TO.N,GND_A*%
X121411000Y-96694000D03*
%TD*%
D19*
%TO.P,R23,1*%
%TO.N,GND_D*%
X123938000Y-98281000D03*
%TO.P,R23,2*%
%TO.N,GND_A*%
X123938000Y-96631000D03*
%TD*%
D20*
%TO.N,VCC5_IN*%
X155434000Y-97964000D03*
X155390000Y-65140000D03*
D21*
%TO.N,GND_A*%
X120751600Y-90119200D03*
X121579099Y-95437000D03*
X116064000Y-84007000D03*
%TO.N,VCC5_D*%
X113524000Y-107108000D03*
X112762000Y-77136000D03*
%TO.N,VDD3_D*%
X122668000Y-101279000D03*
D22*
X130275000Y-92740000D03*
%TO.N,VCC12_IN*%
X161268400Y-59457600D03*
D21*
X161276000Y-89582000D03*
%TO.N,VCC3_D*%
X144766000Y-92884000D03*
X112201000Y-117497677D03*
X144512000Y-122601990D03*
X144645942Y-86306502D03*
X112254012Y-122094000D03*
%TO.N,VDD3_A*%
X119540000Y-87470000D03*
X117080000Y-84790000D03*
X120128000Y-95424000D03*
X125462000Y-61388000D03*
D20*
%TO.N,GND_D*%
X138990000Y-77288400D03*
D22*
X111351000Y-115998000D03*
D21*
X118107600Y-63115200D03*
D22*
X133590000Y-55292000D03*
D20*
X147878800Y-110677000D03*
D22*
X128002000Y-63928000D03*
D20*
X113944400Y-102617500D03*
X139039600Y-110677000D03*
X114484479Y-85108721D03*
D22*
X111238000Y-125396000D03*
D21*
X119112000Y-94662000D03*
D22*
X133336000Y-63420000D03*
D21*
X118350000Y-101533000D03*
X119174400Y-52142400D03*
X125208000Y-103298000D03*
X126224000Y-98472000D03*
D20*
X118243679Y-88867921D03*
D22*
X128256000Y-55292000D03*
D21*
%TO.N,SWDIO*%
X114280012Y-116506000D03*
X127640000Y-116740000D03*
%TO.N,STLINK_TX*%
X142480000Y-123364000D03*
X144163000Y-84359670D03*
%TO.N,STLINK_RX*%
X141210000Y-124888000D03*
X141429048Y-90615476D03*
%TO.N,NRST*%
X142480000Y-118420000D03*
X142590000Y-99501000D03*
%TO.N,/PC8*%
X110476000Y-122602000D03*
%TO.N,/PC9*%
X109714000Y-120062000D03*
%TO.N,/GND_S*%
X103750000Y-104750000D03*
X71750000Y-37750000D03*
X103750000Y-73000000D03*
X71750000Y-53250000D03*
X71750000Y-61500000D03*
X103750000Y-93250000D03*
X97000000Y-82000000D03*
X71500000Y-99000000D03*
X103750000Y-98000000D03*
X71500000Y-127250000D03*
X71750000Y-82250000D03*
X103750000Y-52500000D03*
X103750000Y-82000000D03*
X103750000Y-110750000D03*
X103750000Y-60500000D03*
X71500000Y-116250000D03*
X79750000Y-133279500D03*
X103750000Y-127250000D03*
X71500000Y-133250000D03*
X77250000Y-37750000D03*
X71500000Y-110500000D03*
X103750000Y-116000000D03*
X71500000Y-94250000D03*
X103750000Y-45500000D03*
X71750000Y-47000000D03*
X71500000Y-89500000D03*
X103750000Y-122250000D03*
X94250000Y-132750000D03*
X77000000Y-82269500D03*
X71750000Y-77500000D03*
X71500000Y-105250000D03*
X103750000Y-68000000D03*
X71750000Y-69500000D03*
X103750000Y-88000000D03*
X103500000Y-38000000D03*
X71500000Y-121250000D03*
X71750000Y-41750000D03*
X103750000Y-132750000D03*
%TO.N,Net-(J12-Pin_4)*%
X145600000Y-88900000D03*
%TD*%
D23*
%TO.N,VCC5_IN*%
X155434000Y-97964000D02*
X155434000Y-65184000D01*
X155434000Y-65184000D02*
X155390000Y-65140000D01*
D24*
%TO.N,GND_A*%
X121652000Y-96453000D02*
X121411000Y-96694000D01*
X121652000Y-96453000D02*
X122414000Y-96453000D01*
X116250000Y-91770000D02*
X116250000Y-89230000D01*
X117139200Y-90119200D02*
X116250000Y-89230000D01*
X121652000Y-95437000D02*
X121579099Y-95437000D01*
X116064000Y-84007000D02*
X116064000Y-89044000D01*
X116064000Y-89044000D02*
X116250000Y-89230000D01*
X122414000Y-96199000D02*
X122414000Y-96453000D01*
X123430000Y-96453000D02*
X121652000Y-96453000D01*
X120751600Y-90119200D02*
X117139200Y-90119200D01*
X116572000Y-92092000D02*
X116250000Y-91770000D01*
X122414000Y-96199000D02*
X121652000Y-95437000D01*
%TO.N,VCC5_D*%
X112762000Y-106346000D02*
X112762000Y-77136000D01*
X113524000Y-107108000D02*
X112762000Y-106346000D01*
D25*
%TO.N,VDD3_D*%
X130275000Y-92740000D02*
X129108000Y-92740000D01*
D24*
X121424000Y-101279000D02*
X122668000Y-101279000D01*
D25*
X129108000Y-92740000D02*
X128170000Y-91802000D01*
%TO.N,VCC12_IN*%
X138670000Y-49912500D02*
X138670000Y-53300000D01*
X144853000Y-59483000D02*
X161276000Y-59483000D01*
X147949200Y-55270000D02*
X140810000Y-55270000D01*
X140810000Y-55270000D02*
X140725000Y-55355000D01*
X138670000Y-53300000D02*
X140725000Y-55355000D01*
X161276000Y-59483000D02*
X161276000Y-89582000D01*
X149756000Y-53463200D02*
X147949200Y-55270000D01*
X140725000Y-55355000D02*
X144853000Y-59483000D01*
D24*
%TO.N,VCC3_D*%
X144512000Y-94154000D02*
X144512000Y-93138000D01*
X112508000Y-121840012D02*
X112508000Y-117804677D01*
X145305000Y-121808990D02*
X144512000Y-122601990D01*
X144512000Y-94154000D02*
X144512000Y-86440444D01*
X112254012Y-122094000D02*
X112508000Y-121840012D01*
X144512000Y-93138000D02*
X144766000Y-92884000D01*
X144512000Y-94154000D02*
X145305000Y-94947000D01*
X145305000Y-94947000D02*
X145305000Y-121808990D01*
X112508000Y-117804677D02*
X112201000Y-117497677D01*
X144512000Y-86440444D02*
X144645942Y-86306502D01*
%TO.N,VDD3_A*%
X124822000Y-92752000D02*
X125970000Y-92752000D01*
X125462000Y-61388000D02*
X117080000Y-69770000D01*
X119620000Y-96453000D02*
X119620000Y-95932000D01*
X119861000Y-96694000D02*
X119620000Y-96453000D01*
X119620000Y-95932000D02*
X120128000Y-95424000D01*
X119540000Y-87470000D02*
X124822000Y-92752000D01*
X117080000Y-69770000D02*
X117080000Y-84790000D01*
X125970000Y-90852000D02*
X125970000Y-92752000D01*
%TO.N,GND_D*%
X119620000Y-99234000D02*
X118350000Y-100504000D01*
X125716000Y-97964000D02*
X126224000Y-98472000D01*
X118350000Y-100504000D02*
X118350000Y-101533000D01*
D25*
X111238000Y-125396000D02*
X111351000Y-125283000D01*
D24*
X123938000Y-98281000D02*
X126033000Y-98281000D01*
X118107600Y-63115200D02*
X118107600Y-53209200D01*
X118350000Y-101533000D02*
X119620000Y-101533000D01*
X118107600Y-53209200D02*
X119174400Y-52142400D01*
D26*
X140394516Y-62034516D02*
X140394516Y-77288400D01*
D24*
X123938000Y-98281000D02*
X122985000Y-98281000D01*
X119112000Y-94662000D02*
X124954000Y-94662000D01*
X120636000Y-103298000D02*
X119874000Y-102536000D01*
D26*
X133652000Y-55292000D02*
X140394516Y-62034516D01*
X140394516Y-88124484D02*
X139178000Y-89341000D01*
D24*
X125208000Y-103298000D02*
X120636000Y-103298000D01*
D25*
X133336000Y-63420000D02*
X133336000Y-55546000D01*
X133336000Y-55546000D02*
X133590000Y-55292000D01*
D24*
X124954000Y-94662000D02*
X125716000Y-95424000D01*
X126033000Y-98281000D02*
X126224000Y-98472000D01*
D23*
X140394516Y-77288400D02*
X138990000Y-77288400D01*
D24*
X119874000Y-102536000D02*
X119874000Y-101279000D01*
X122985000Y-98281000D02*
X122960000Y-98256000D01*
X122960000Y-98256000D02*
X121982000Y-99234000D01*
D25*
X128002000Y-63928000D02*
X128002000Y-55546000D01*
D24*
X119620000Y-101533000D02*
X119874000Y-101279000D01*
X125716000Y-95424000D02*
X125716000Y-97964000D01*
D25*
X128002000Y-55546000D02*
X128256000Y-55292000D01*
D24*
X121982000Y-99234000D02*
X119620000Y-99234000D01*
D26*
X133590000Y-55292000D02*
X133652000Y-55292000D01*
X140394516Y-77288400D02*
X140394516Y-88124484D01*
D25*
X111351000Y-125283000D02*
X111351000Y-115998000D01*
D24*
%TO.N,SWO*%
X121652000Y-110423000D02*
X123176000Y-111947000D01*
X123176000Y-113608701D02*
X125242299Y-115675000D01*
X125242299Y-115675000D02*
X128187000Y-115675000D01*
X128187000Y-115675000D02*
X133082000Y-120570000D01*
X123176000Y-111947000D02*
X123176000Y-113608701D01*
%TO.N,SWCLK*%
X122922000Y-119808000D02*
X122922000Y-120570000D01*
X115422500Y-111813500D02*
X115461000Y-111852000D01*
X117842000Y-117776000D02*
X120890000Y-117776000D01*
X115461000Y-115395000D02*
X117842000Y-117776000D01*
X115461000Y-111852000D02*
X115461000Y-115395000D01*
X120890000Y-117776000D02*
X122922000Y-119808000D01*
X114286000Y-110677000D02*
X115422500Y-111813500D01*
%TO.N,SWDIO*%
X114286000Y-116500012D02*
X114280012Y-116506000D01*
X114286000Y-113217000D02*
X114286000Y-116500012D01*
X128002000Y-120570000D02*
X128002000Y-117102000D01*
X128002000Y-117102000D02*
X127640000Y-116740000D01*
%TO.N,STLINK_TX*%
X143888000Y-84634670D02*
X144163000Y-84359670D01*
X143888000Y-121956000D02*
X143888000Y-84634670D01*
X142480000Y-123364000D02*
X143888000Y-121956000D01*
%TO.N,STLINK_RX*%
X141429048Y-90615476D02*
X141464000Y-90650428D01*
X141464000Y-124634000D02*
X141210000Y-124888000D01*
X141464000Y-90650428D02*
X141464000Y-124634000D01*
%TO.N,NRST*%
X142480000Y-99611000D02*
X142480000Y-118420000D01*
X142590000Y-99501000D02*
X142480000Y-99611000D01*
%TO.N,/PC8*%
X110476000Y-108124000D02*
X111746000Y-106854000D01*
X111746000Y-97723000D02*
X110222000Y-96199000D01*
X111746000Y-106854000D02*
X111746000Y-97723000D01*
X110476000Y-122602000D02*
X110476000Y-108124000D01*
%TO.N,/PC9*%
X109714000Y-108378000D02*
X108952000Y-107616000D01*
X108952000Y-100009000D02*
X107682000Y-98739000D01*
X108952000Y-107616000D02*
X108952000Y-100009000D01*
X109714000Y-120062000D02*
X109714000Y-108378000D01*
%TO.N,/GND_S*%
X77000000Y-82250000D02*
X77000000Y-82269500D01*
X79750000Y-133000000D02*
X79750000Y-133279500D01*
%TO.N,Net-(J12-Pin_4)*%
X145600000Y-80220000D02*
X145280000Y-79900000D01*
X145600000Y-88900000D02*
X145600000Y-80220000D01*
%TD*%
%TA.AperFunction,Conductor*%
%TO.N,/GND_S*%
G36*
X104943039Y-35520185D02*
G01*
X104988794Y-35572989D01*
X105000000Y-35624500D01*
X105000000Y-134375500D01*
X104980315Y-134442539D01*
X104927511Y-134488294D01*
X104876000Y-134499500D01*
X70624500Y-134499500D01*
X70557461Y-134479815D01*
X70511706Y-134427011D01*
X70500500Y-134375500D01*
X70500500Y-35624500D01*
X70520185Y-35557461D01*
X70572989Y-35511706D01*
X70624500Y-35500500D01*
X104876000Y-35500500D01*
X104943039Y-35520185D01*
G37*
%TD.AperFunction*%
%TD*%
%TA.AperFunction,Conductor*%
%TO.N,GND_D*%
G36*
X111306703Y-117717036D02*
G01*
X111343431Y-117772431D01*
X111373818Y-117865955D01*
X111373821Y-117865961D01*
X111468467Y-118029893D01*
X111585425Y-118159788D01*
X111595129Y-118170565D01*
X111748265Y-118281825D01*
X111748267Y-118281826D01*
X111748270Y-118281828D01*
X111808936Y-118308838D01*
X111862172Y-118354087D01*
X111882494Y-118420936D01*
X111882500Y-118422117D01*
X111882500Y-121193161D01*
X111862815Y-121260200D01*
X111810011Y-121305955D01*
X111808942Y-121306438D01*
X111801280Y-121309849D01*
X111648141Y-121421111D01*
X111521478Y-121561785D01*
X111426833Y-121725715D01*
X111426830Y-121725722D01*
X111368339Y-121905740D01*
X111368338Y-121905744D01*
X111366245Y-121925659D01*
X111365307Y-121934586D01*
X111338721Y-121999201D01*
X111281423Y-122039184D01*
X111211604Y-122041843D01*
X111151431Y-122006333D01*
X111149873Y-122004635D01*
X111140299Y-121994002D01*
X111133347Y-121986281D01*
X111103120Y-121923288D01*
X111101500Y-121903312D01*
X111101500Y-117810749D01*
X111121185Y-117743710D01*
X111173989Y-117697955D01*
X111243147Y-117688011D01*
X111306703Y-117717036D01*
G37*
%TD.AperFunction*%
%TA.AperFunction,Conductor*%
G36*
X111059350Y-104969830D02*
G01*
X111107163Y-105020778D01*
X111120500Y-105076722D01*
X111120500Y-106543546D01*
X111100815Y-106610585D01*
X111084181Y-106631227D01*
X110092208Y-107623199D01*
X110079951Y-107633020D01*
X110080134Y-107633241D01*
X110074121Y-107638215D01*
X110057435Y-107655983D01*
X109997192Y-107691375D01*
X109927379Y-107688579D01*
X109879366Y-107658776D01*
X109769489Y-107548899D01*
X109613819Y-107393228D01*
X109580334Y-107331905D01*
X109577500Y-107305547D01*
X109577500Y-105203218D01*
X109597185Y-105136179D01*
X109649989Y-105090424D01*
X109719147Y-105080480D01*
X109753906Y-105090837D01*
X109758330Y-105092900D01*
X109758332Y-105092900D01*
X109758337Y-105092903D01*
X109986592Y-105154063D01*
X110174918Y-105170539D01*
X110221999Y-105174659D01*
X110222000Y-105174659D01*
X110222001Y-105174659D01*
X110261234Y-105171226D01*
X110457408Y-105154063D01*
X110685663Y-105092903D01*
X110899830Y-104993035D01*
X110925377Y-104975146D01*
X110991582Y-104952820D01*
X111059350Y-104969830D01*
G37*
%TD.AperFunction*%
%TA.AperFunction,Conductor*%
G36*
X169442539Y-35520185D02*
G01*
X169488294Y-35572989D01*
X169499500Y-35624500D01*
X169499500Y-134375500D01*
X169479815Y-134442539D01*
X169427011Y-134488294D01*
X169375500Y-134499500D01*
X106124000Y-134499500D01*
X106056961Y-134479815D01*
X106011206Y-134427011D01*
X106000000Y-134375500D01*
X106000000Y-126039870D01*
X129445500Y-126039870D01*
X129445501Y-126039876D01*
X129451908Y-126099483D01*
X129502202Y-126234328D01*
X129502206Y-126234335D01*
X129588452Y-126349544D01*
X129588455Y-126349547D01*
X129703664Y-126435793D01*
X129703671Y-126435797D01*
X129838517Y-126486091D01*
X129838516Y-126486091D01*
X129845444Y-126486835D01*
X129898127Y-126492500D01*
X131693872Y-126492499D01*
X131753483Y-126486091D01*
X131888331Y-126435796D01*
X132003546Y-126349546D01*
X132089796Y-126234331D01*
X132138810Y-126102916D01*
X132180681Y-126046984D01*
X132246145Y-126022566D01*
X132314418Y-126037417D01*
X132342673Y-126058569D01*
X132464599Y-126180495D01*
X132561384Y-126248265D01*
X132658165Y-126316032D01*
X132658167Y-126316033D01*
X132658170Y-126316035D01*
X132872337Y-126415903D01*
X133100592Y-126477063D01*
X133277034Y-126492500D01*
X133335999Y-126497659D01*
X133336000Y-126497659D01*
X133336001Y-126497659D01*
X133394966Y-126492500D01*
X133571408Y-126477063D01*
X133799663Y-126415903D01*
X134013830Y-126316035D01*
X134207401Y-126180495D01*
X134374495Y-126013401D01*
X134510035Y-125819830D01*
X134609903Y-125605663D01*
X134671063Y-125377408D01*
X134691659Y-125142000D01*
X134671063Y-124906592D01*
X134666081Y-124888000D01*
X140304540Y-124888000D01*
X140324326Y-125076256D01*
X140324327Y-125076259D01*
X140382818Y-125256277D01*
X140382821Y-125256284D01*
X140477467Y-125420216D01*
X140604129Y-125560888D01*
X140757265Y-125672148D01*
X140757270Y-125672151D01*
X140930192Y-125749142D01*
X140930197Y-125749144D01*
X141115354Y-125788500D01*
X141115355Y-125788500D01*
X141304644Y-125788500D01*
X141304646Y-125788500D01*
X141489803Y-125749144D01*
X141662730Y-125672151D01*
X141815871Y-125560888D01*
X141942533Y-125420216D01*
X142037179Y-125256284D01*
X142095674Y-125076256D01*
X142115460Y-124888000D01*
X142095674Y-124699744D01*
X142095672Y-124699740D01*
X142095416Y-124698532D01*
X142095372Y-124696885D01*
X142094994Y-124693280D01*
X142095277Y-124693250D01*
X142094450Y-124661620D01*
X142093915Y-124661604D01*
X142094160Y-124653805D01*
X142089775Y-124607415D01*
X142089500Y-124601577D01*
X142089500Y-124354741D01*
X142109185Y-124287702D01*
X142161989Y-124241947D01*
X142231147Y-124232003D01*
X142239266Y-124233448D01*
X142385354Y-124264500D01*
X142385355Y-124264500D01*
X142574644Y-124264500D01*
X142574646Y-124264500D01*
X142759803Y-124225144D01*
X142932730Y-124148151D01*
X143085871Y-124036888D01*
X143212533Y-123896216D01*
X143307179Y-123732284D01*
X143365674Y-123552256D01*
X143383321Y-123384345D01*
X143409905Y-123319732D01*
X143418952Y-123309636D01*
X143599380Y-123129208D01*
X143660701Y-123095725D01*
X143730393Y-123100709D01*
X143779209Y-123133919D01*
X143779466Y-123134204D01*
X143779467Y-123134206D01*
X143779476Y-123134216D01*
X143906129Y-123274878D01*
X144059265Y-123386138D01*
X144059270Y-123386141D01*
X144232192Y-123463132D01*
X144232197Y-123463134D01*
X144417354Y-123502490D01*
X144417355Y-123502490D01*
X144606644Y-123502490D01*
X144606646Y-123502490D01*
X144791803Y-123463134D01*
X144964730Y-123386141D01*
X145117871Y-123274878D01*
X145244533Y-123134206D01*
X145339179Y-122970274D01*
X145397674Y-122790246D01*
X145415321Y-122622334D01*
X145441904Y-122557724D01*
X145450951Y-122547628D01*
X145688788Y-122309791D01*
X145701042Y-122299976D01*
X145700859Y-122299754D01*
X145706866Y-122294782D01*
X145706877Y-122294776D01*
X145737775Y-122261872D01*
X145754227Y-122244354D01*
X145764671Y-122233908D01*
X145775120Y-122223461D01*
X145779379Y-122217968D01*
X145783152Y-122213551D01*
X145815062Y-122179572D01*
X145824713Y-122162014D01*
X145835396Y-122145751D01*
X145847673Y-122129926D01*
X145866185Y-122087143D01*
X145868738Y-122081931D01*
X145891197Y-122041082D01*
X145896180Y-122021670D01*
X145902481Y-122003270D01*
X145910437Y-121984886D01*
X145917729Y-121938842D01*
X145918906Y-121933161D01*
X145930500Y-121888009D01*
X145930500Y-121867973D01*
X145932027Y-121848572D01*
X145935160Y-121828794D01*
X145930775Y-121782405D01*
X145930500Y-121776567D01*
X145930500Y-95029737D01*
X145932224Y-95014123D01*
X145931938Y-95014096D01*
X145932672Y-95006333D01*
X145930500Y-94937202D01*
X145930500Y-94907651D01*
X145930500Y-94907650D01*
X145929629Y-94900759D01*
X145929172Y-94894945D01*
X145928765Y-94882002D01*
X145927709Y-94848372D01*
X145922120Y-94829137D01*
X145918174Y-94810084D01*
X145915664Y-94790208D01*
X145898501Y-94746859D01*
X145896614Y-94741346D01*
X145883617Y-94696610D01*
X145883616Y-94696608D01*
X145873421Y-94679369D01*
X145864860Y-94661893D01*
X145857486Y-94643269D01*
X145857486Y-94643267D01*
X145847474Y-94629488D01*
X145830083Y-94605550D01*
X145826900Y-94600705D01*
X145803170Y-94560579D01*
X145803165Y-94560573D01*
X145789005Y-94546413D01*
X145776370Y-94531620D01*
X145764593Y-94515412D01*
X145728693Y-94485713D01*
X145724381Y-94481790D01*
X145173819Y-93931228D01*
X145140334Y-93869905D01*
X145137500Y-93843547D01*
X145137500Y-93784843D01*
X145157185Y-93717804D01*
X145209989Y-93672049D01*
X145210958Y-93671611D01*
X145218730Y-93668151D01*
X145371871Y-93556888D01*
X145498533Y-93416216D01*
X145593179Y-93252284D01*
X145651674Y-93072256D01*
X145671460Y-92884000D01*
X145651674Y-92695744D01*
X145593179Y-92515716D01*
X145498533Y-92351784D01*
X145371871Y-92211112D01*
X145371870Y-92211111D01*
X145218731Y-92099849D01*
X145211061Y-92096434D01*
X145157825Y-92051182D01*
X145137506Y-91984332D01*
X145137500Y-91983156D01*
X145137500Y-89870745D01*
X145157185Y-89803706D01*
X145209989Y-89757951D01*
X145279147Y-89748007D01*
X145311935Y-89757465D01*
X145320197Y-89761144D01*
X145505354Y-89800500D01*
X145505355Y-89800500D01*
X145694644Y-89800500D01*
X145694646Y-89800500D01*
X145879803Y-89761144D01*
X146052730Y-89684151D01*
X146205871Y-89572888D01*
X146332533Y-89432216D01*
X146427179Y-89268284D01*
X146485674Y-89088256D01*
X146505460Y-88900000D01*
X146485674Y-88711744D01*
X146427179Y-88531716D01*
X146332533Y-88367784D01*
X146310754Y-88343596D01*
X146257350Y-88284284D01*
X146227120Y-88221292D01*
X146225500Y-88201312D01*
X146225500Y-80915758D01*
X146245185Y-80848719D01*
X146261819Y-80828077D01*
X146273327Y-80816569D01*
X146318495Y-80771401D01*
X146448425Y-80585842D01*
X146503002Y-80542217D01*
X146572500Y-80535023D01*
X146634855Y-80566546D01*
X146651575Y-80585842D01*
X146781500Y-80771395D01*
X146781505Y-80771401D01*
X146948599Y-80938495D01*
X147045384Y-81006265D01*
X147142165Y-81074032D01*
X147142167Y-81074033D01*
X147142170Y-81074035D01*
X147356337Y-81173903D01*
X147584592Y-81235063D01*
X147761034Y-81250500D01*
X147819999Y-81255659D01*
X147820000Y-81255659D01*
X147820001Y-81255659D01*
X147878966Y-81250500D01*
X148055408Y-81235063D01*
X148283663Y-81173903D01*
X148497830Y-81074035D01*
X148691401Y-80938495D01*
X148858495Y-80771401D01*
X148988425Y-80585842D01*
X149043002Y-80542217D01*
X149112500Y-80535023D01*
X149174855Y-80566546D01*
X149191575Y-80585842D01*
X149321500Y-80771395D01*
X149321505Y-80771401D01*
X149488599Y-80938495D01*
X149585384Y-81006265D01*
X149682165Y-81074032D01*
X149682167Y-81074033D01*
X149682170Y-81074035D01*
X149896337Y-81173903D01*
X150124592Y-81235063D01*
X150301034Y-81250500D01*
X150359999Y-81255659D01*
X150360000Y-81255659D01*
X150360001Y-81255659D01*
X150418966Y-81250500D01*
X150595408Y-81235063D01*
X150823663Y-81173903D01*
X151037830Y-81074035D01*
X151231401Y-80938495D01*
X151353329Y-80816566D01*
X151414648Y-80783084D01*
X151484340Y-80788068D01*
X151540274Y-80829939D01*
X151557189Y-80860917D01*
X151606202Y-80992328D01*
X151606206Y-80992335D01*
X151692452Y-81107544D01*
X151692455Y-81107547D01*
X151807664Y-81193793D01*
X151807671Y-81193797D01*
X151942517Y-81244091D01*
X151942516Y-81244091D01*
X151949444Y-81244835D01*
X152002127Y-81250500D01*
X153797872Y-81250499D01*
X153857483Y-81244091D01*
X153992331Y-81193796D01*
X154107546Y-81107546D01*
X154193796Y-80992331D01*
X154244091Y-80857483D01*
X154250500Y-80797873D01*
X154250499Y-79002128D01*
X154244091Y-78942517D01*
X154242810Y-78939083D01*
X154193797Y-78807671D01*
X154193793Y-78807664D01*
X154107547Y-78692455D01*
X154107544Y-78692452D01*
X153992335Y-78606206D01*
X153992328Y-78606202D01*
X153857482Y-78555908D01*
X153857483Y-78555908D01*
X153797883Y-78549501D01*
X153797881Y-78549500D01*
X153797873Y-78549500D01*
X153797864Y-78549500D01*
X152002129Y-78549500D01*
X152002123Y-78549501D01*
X151942516Y-78555908D01*
X151807671Y-78606202D01*
X151807664Y-78606206D01*
X151692455Y-78692452D01*
X151692452Y-78692455D01*
X151606206Y-78807664D01*
X151606203Y-78807669D01*
X151557189Y-78939083D01*
X151515317Y-78995016D01*
X151449853Y-79019433D01*
X151381580Y-79004581D01*
X151353326Y-78983430D01*
X151231402Y-78861506D01*
X151231395Y-78861501D01*
X151037834Y-78725967D01*
X151037830Y-78725965D01*
X151037828Y-78725964D01*
X150823663Y-78626097D01*
X150823659Y-78626096D01*
X150823655Y-78626094D01*
X150595413Y-78564938D01*
X150595403Y-78564936D01*
X150360001Y-78544341D01*
X150359999Y-78544341D01*
X150124596Y-78564936D01*
X150124586Y-78564938D01*
X149896344Y-78626094D01*
X149896335Y-78626098D01*
X149682171Y-78725964D01*
X149682169Y-78725965D01*
X149488597Y-78861505D01*
X149321505Y-79028597D01*
X149191575Y-79214158D01*
X149136998Y-79257783D01*
X149067500Y-79264977D01*
X149005145Y-79233454D01*
X148988425Y-79214158D01*
X148858494Y-79028597D01*
X148691402Y-78861506D01*
X148691395Y-78861501D01*
X148497834Y-78725967D01*
X148497830Y-78725965D01*
X148497828Y-78725964D01*
X148283663Y-78626097D01*
X148283659Y-78626096D01*
X148283655Y-78626094D01*
X148055413Y-78564938D01*
X148055403Y-78564936D01*
X147820001Y-78544341D01*
X147819999Y-78544341D01*
X147584596Y-78564936D01*
X147584586Y-78564938D01*
X147356344Y-78626094D01*
X147356335Y-78626098D01*
X147142171Y-78725964D01*
X147142169Y-78725965D01*
X146948597Y-78861505D01*
X146781505Y-79028597D01*
X146651575Y-79214158D01*
X146596998Y-79257783D01*
X146527500Y-79264977D01*
X146465145Y-79233454D01*
X146448425Y-79214158D01*
X146318494Y-79028597D01*
X146151402Y-78861506D01*
X146151395Y-78861501D01*
X145957834Y-78725967D01*
X145957830Y-78725965D01*
X145957828Y-78725964D01*
X145743663Y-78626097D01*
X145743659Y-78626096D01*
X145743655Y-78626094D01*
X145515413Y-78564938D01*
X145515403Y-78564936D01*
X145280001Y-78544341D01*
X145279999Y-78544341D01*
X145044596Y-78564936D01*
X145044586Y-78564938D01*
X144816344Y-78626094D01*
X144816335Y-78626098D01*
X144602171Y-78725964D01*
X144602169Y-78725965D01*
X144408597Y-78861505D01*
X144241505Y-79028597D01*
X144105965Y-79222169D01*
X144105964Y-79222171D01*
X144006098Y-79436335D01*
X144006094Y-79436344D01*
X143944938Y-79664586D01*
X143944936Y-79664596D01*
X143924341Y-79899999D01*
X143924341Y-79900000D01*
X143944936Y-80135403D01*
X143944938Y-80135413D01*
X144006094Y-80363655D01*
X144006096Y-80363659D01*
X144006097Y-80363663D01*
X144010000Y-80372032D01*
X144105965Y-80577830D01*
X144105967Y-80577834D01*
X144214281Y-80732521D01*
X144241505Y-80771401D01*
X144408599Y-80938495D01*
X144505384Y-81006265D01*
X144602165Y-81074032D01*
X144602167Y-81074033D01*
X144602170Y-81074035D01*
X144816337Y-81173903D01*
X144816343Y-81173904D01*
X144816344Y-81173905D01*
X144882593Y-81191656D01*
X144942253Y-81228020D01*
X144972783Y-81290867D01*
X144974500Y-81311431D01*
X144974500Y-83593422D01*
X144954815Y-83660461D01*
X144902011Y-83706216D01*
X144832853Y-83716160D01*
X144774816Y-83689655D01*
X144774129Y-83690602D01*
X144769458Y-83687208D01*
X144769297Y-83687135D01*
X144769018Y-83686889D01*
X144768869Y-83686781D01*
X144732643Y-83660461D01*
X144615734Y-83575521D01*
X144615729Y-83575518D01*
X144442807Y-83498527D01*
X144442802Y-83498525D01*
X144297001Y-83467535D01*
X144257646Y-83459170D01*
X144068354Y-83459170D01*
X144035897Y-83466068D01*
X143883197Y-83498525D01*
X143883192Y-83498527D01*
X143710270Y-83575518D01*
X143710265Y-83575521D01*
X143557129Y-83686781D01*
X143430466Y-83827455D01*
X143335821Y-83991385D01*
X143335818Y-83991392D01*
X143277327Y-84171410D01*
X143277326Y-84171414D01*
X143263250Y-84305344D01*
X143257540Y-84359670D01*
X143271263Y-84490248D01*
X143268047Y-84534042D01*
X143262501Y-84555644D01*
X143262500Y-84555653D01*
X143262500Y-84575686D01*
X143260973Y-84595085D01*
X143257840Y-84614864D01*
X143257840Y-84614865D01*
X143262225Y-84661253D01*
X143262500Y-84667091D01*
X143262500Y-98633157D01*
X143242815Y-98700196D01*
X143190011Y-98745951D01*
X143120853Y-98755895D01*
X143065615Y-98733476D01*
X143042730Y-98716849D01*
X143042728Y-98716848D01*
X143042729Y-98716848D01*
X142869807Y-98639857D01*
X142869802Y-98639855D01*
X142724001Y-98608865D01*
X142684646Y-98600500D01*
X142495354Y-98600500D01*
X142462897Y-98607398D01*
X142310197Y-98639855D01*
X142263935Y-98660453D01*
X142194685Y-98669737D01*
X142131409Y-98640109D01*
X142094196Y-98580974D01*
X142089500Y-98547173D01*
X142089500Y-91275344D01*
X142109185Y-91208305D01*
X142121351Y-91192371D01*
X142161581Y-91147692D01*
X142256227Y-90983760D01*
X142314722Y-90803732D01*
X142334508Y-90615476D01*
X142314722Y-90427220D01*
X142256227Y-90247192D01*
X142161581Y-90083260D01*
X142034919Y-89942588D01*
X142016905Y-89929500D01*
X141881782Y-89831327D01*
X141881777Y-89831324D01*
X141708855Y-89754333D01*
X141708850Y-89754331D01*
X141563049Y-89723341D01*
X141523694Y-89714976D01*
X141334402Y-89714976D01*
X141301945Y-89721874D01*
X141149245Y-89754331D01*
X141149240Y-89754333D01*
X140976318Y-89831324D01*
X140976313Y-89831327D01*
X140823177Y-89942587D01*
X140696514Y-90083261D01*
X140601869Y-90247191D01*
X140601866Y-90247198D01*
X140545882Y-90419500D01*
X140543374Y-90427220D01*
X140523588Y-90615476D01*
X140543374Y-90803732D01*
X140543375Y-90803735D01*
X140601866Y-90983753D01*
X140601869Y-90983760D01*
X140696515Y-91147692D01*
X140806652Y-91270011D01*
X140836880Y-91332999D01*
X140838500Y-91352980D01*
X140838500Y-123987156D01*
X140818815Y-124054195D01*
X140766011Y-124099950D01*
X140764939Y-124100434D01*
X140757268Y-124103849D01*
X140604129Y-124215111D01*
X140477466Y-124355785D01*
X140382821Y-124519715D01*
X140382818Y-124519722D01*
X140326436Y-124693250D01*
X140324326Y-124699744D01*
X140304540Y-124888000D01*
X134666081Y-124888000D01*
X134609903Y-124678337D01*
X134510035Y-124464171D01*
X134374495Y-124270599D01*
X134374494Y-124270597D01*
X134207402Y-124103506D01*
X134207395Y-124103501D01*
X134013834Y-123967967D01*
X134013830Y-123967965D01*
X133965995Y-123945659D01*
X133799663Y-123868097D01*
X133799659Y-123868096D01*
X133799655Y-123868094D01*
X133571413Y-123806938D01*
X133571403Y-123806936D01*
X133336001Y-123786341D01*
X133335999Y-123786341D01*
X133100596Y-123806936D01*
X133100586Y-123806938D01*
X132872344Y-123868094D01*
X132872335Y-123868098D01*
X132658171Y-123967964D01*
X132658169Y-123967965D01*
X132464600Y-124103503D01*
X132342673Y-124225430D01*
X132281350Y-124258914D01*
X132211658Y-124253930D01*
X132155725Y-124212058D01*
X132138810Y-124181081D01*
X132089797Y-124049671D01*
X132089793Y-124049664D01*
X132003547Y-123934455D01*
X132003544Y-123934452D01*
X131888335Y-123848206D01*
X131888328Y-123848202D01*
X131753482Y-123797908D01*
X131753483Y-123797908D01*
X131693883Y-123791501D01*
X131693881Y-123791500D01*
X131693873Y-123791500D01*
X131693864Y-123791500D01*
X129898129Y-123791500D01*
X129898123Y-123791501D01*
X129838516Y-123797908D01*
X129703671Y-123848202D01*
X129703664Y-123848206D01*
X129588455Y-123934452D01*
X129588452Y-123934455D01*
X129502206Y-124049664D01*
X129502202Y-124049671D01*
X129451908Y-124184517D01*
X129445501Y-124244116D01*
X129445500Y-124244135D01*
X129445500Y-126039870D01*
X106000000Y-126039870D01*
X106000000Y-103819000D01*
X106326341Y-103819000D01*
X106346936Y-104054403D01*
X106346938Y-104054413D01*
X106408094Y-104282655D01*
X106408096Y-104282659D01*
X106408097Y-104282663D01*
X106507965Y-104496830D01*
X106507967Y-104496834D01*
X106616281Y-104651521D01*
X106643505Y-104690401D01*
X106810599Y-104857495D01*
X106907384Y-104925265D01*
X107004165Y-104993032D01*
X107004167Y-104993033D01*
X107004170Y-104993035D01*
X107218337Y-105092903D01*
X107446592Y-105154063D01*
X107634918Y-105170539D01*
X107681999Y-105174659D01*
X107682000Y-105174659D01*
X107682001Y-105174659D01*
X107721234Y-105171226D01*
X107917408Y-105154063D01*
X108145663Y-105092903D01*
X108150094Y-105090837D01*
X108219171Y-105080344D01*
X108282955Y-105108863D01*
X108321196Y-105167339D01*
X108326500Y-105203218D01*
X108326500Y-107533255D01*
X108324775Y-107548872D01*
X108325061Y-107548899D01*
X108324326Y-107556665D01*
X108326500Y-107625814D01*
X108326500Y-107655343D01*
X108326501Y-107655360D01*
X108327368Y-107662231D01*
X108327826Y-107668050D01*
X108329290Y-107714624D01*
X108329291Y-107714627D01*
X108334880Y-107733867D01*
X108338824Y-107752911D01*
X108341336Y-107772792D01*
X108358490Y-107816119D01*
X108360382Y-107821647D01*
X108373381Y-107866388D01*
X108383580Y-107883634D01*
X108392138Y-107901103D01*
X108399514Y-107919732D01*
X108426898Y-107957423D01*
X108430106Y-107962307D01*
X108453827Y-108002416D01*
X108453833Y-108002424D01*
X108467990Y-108016580D01*
X108480628Y-108031376D01*
X108492405Y-108047586D01*
X108492406Y-108047587D01*
X108528309Y-108077288D01*
X108532620Y-108081210D01*
X108798181Y-108346771D01*
X109052181Y-108600771D01*
X109085666Y-108662094D01*
X109088500Y-108688452D01*
X109088500Y-114062365D01*
X109068815Y-114129404D01*
X109016011Y-114175159D01*
X108946853Y-114185103D01*
X108883297Y-114156078D01*
X108862925Y-114133489D01*
X108838491Y-114098594D01*
X108671402Y-113931506D01*
X108671395Y-113931501D01*
X108477834Y-113795967D01*
X108477830Y-113795965D01*
X108477828Y-113795964D01*
X108263663Y-113696097D01*
X108263659Y-113696096D01*
X108263655Y-113696094D01*
X108035413Y-113634938D01*
X108035403Y-113634936D01*
X107800001Y-113614341D01*
X107799999Y-113614341D01*
X107564596Y-113634936D01*
X107564586Y-113634938D01*
X107336344Y-113696094D01*
X107336335Y-113696098D01*
X107122171Y-113795964D01*
X107122169Y-113795965D01*
X106928597Y-113931505D01*
X106761505Y-114098597D01*
X106625965Y-114292169D01*
X106625964Y-114292171D01*
X106526098Y-114506335D01*
X106526094Y-114506344D01*
X106464938Y-114734586D01*
X106464936Y-114734596D01*
X106444341Y-114969999D01*
X106444341Y-114970000D01*
X106464936Y-115205403D01*
X106464938Y-115205413D01*
X106526094Y-115433655D01*
X106526096Y-115433659D01*
X106526097Y-115433663D01*
X106625965Y-115647830D01*
X106625967Y-115647834D01*
X106761501Y-115841395D01*
X106761506Y-115841402D01*
X106928597Y-116008493D01*
X106928603Y-116008498D01*
X107114158Y-116138425D01*
X107157783Y-116193002D01*
X107164977Y-116262500D01*
X107133454Y-116324855D01*
X107114158Y-116341575D01*
X106928597Y-116471505D01*
X106761505Y-116638597D01*
X106625965Y-116832169D01*
X106625964Y-116832171D01*
X106526098Y-117046335D01*
X106526094Y-117046344D01*
X106464938Y-117274586D01*
X106464936Y-117274596D01*
X106444341Y-117509999D01*
X106444341Y-117510000D01*
X106464936Y-117745403D01*
X106464938Y-117745413D01*
X106526094Y-117973655D01*
X106526096Y-117973659D01*
X106526097Y-117973663D01*
X106526408Y-117974329D01*
X106625965Y-118187830D01*
X106625967Y-118187834D01*
X106694748Y-118286062D01*
X106755959Y-118373481D01*
X106761501Y-118381395D01*
X106761506Y-118381402D01*
X106928597Y-118548493D01*
X106928603Y-118548498D01*
X107114158Y-118678425D01*
X107157783Y-118733002D01*
X107164977Y-118802500D01*
X107133454Y-118864855D01*
X107114158Y-118881575D01*
X106928597Y-119011505D01*
X106761505Y-119178597D01*
X106625965Y-119372169D01*
X106625964Y-119372171D01*
X106526098Y-119586335D01*
X106526094Y-119586344D01*
X106464938Y-119814586D01*
X106464936Y-119814596D01*
X106444341Y-120049999D01*
X106444341Y-120050000D01*
X106464936Y-120285403D01*
X106464938Y-120285413D01*
X106526094Y-120513655D01*
X106526096Y-120513659D01*
X106526097Y-120513663D01*
X106622537Y-120720478D01*
X106625965Y-120727830D01*
X106625967Y-120727834D01*
X106680289Y-120805413D01*
X106761501Y-120921396D01*
X106761506Y-120921402D01*
X106928597Y-121088493D01*
X106928603Y-121088498D01*
X107114158Y-121218425D01*
X107157783Y-121273002D01*
X107164977Y-121342500D01*
X107133454Y-121404855D01*
X107114158Y-121421575D01*
X106928597Y-121551505D01*
X106761505Y-121718597D01*
X106625965Y-121912169D01*
X106625964Y-121912171D01*
X106526098Y-122126335D01*
X106526094Y-122126344D01*
X106464938Y-122354586D01*
X106464936Y-122354596D01*
X106444341Y-122589999D01*
X106444341Y-122590000D01*
X106464936Y-122825403D01*
X106464938Y-122825413D01*
X106526094Y-123053655D01*
X106526096Y-123053659D01*
X106526097Y-123053663D01*
X106563521Y-123133919D01*
X106625965Y-123267830D01*
X106625967Y-123267834D01*
X106693304Y-123364000D01*
X106761505Y-123461401D01*
X106928599Y-123628495D01*
X107025384Y-123696265D01*
X107122165Y-123764032D01*
X107122167Y-123764033D01*
X107122170Y-123764035D01*
X107336337Y-123863903D01*
X107564592Y-123925063D01*
X107752918Y-123941539D01*
X107799999Y-123945659D01*
X107800000Y-123945659D01*
X107800001Y-123945659D01*
X107839234Y-123942226D01*
X108035408Y-123925063D01*
X108263663Y-123863903D01*
X108477830Y-123764035D01*
X108671401Y-123628495D01*
X108838495Y-123461401D01*
X108974035Y-123267830D01*
X109073903Y-123053663D01*
X109135063Y-122825408D01*
X109155659Y-122590000D01*
X109135063Y-122354592D01*
X109074865Y-122129926D01*
X109073905Y-122126344D01*
X109073904Y-122126343D01*
X109073903Y-122126337D01*
X108974035Y-121912171D01*
X108969532Y-121905739D01*
X108838494Y-121718597D01*
X108671402Y-121551506D01*
X108671396Y-121551501D01*
X108485842Y-121421575D01*
X108442217Y-121366998D01*
X108435023Y-121297500D01*
X108466546Y-121235145D01*
X108485842Y-121218425D01*
X108521923Y-121193161D01*
X108671401Y-121088495D01*
X108838495Y-120921401D01*
X108943600Y-120771295D01*
X108998174Y-120727672D01*
X109067673Y-120720478D01*
X109118058Y-120742102D01*
X109261265Y-120846148D01*
X109261270Y-120846151D01*
X109434192Y-120923142D01*
X109434197Y-120923144D01*
X109619354Y-120962500D01*
X109619355Y-120962500D01*
X109726500Y-120962500D01*
X109793539Y-120982185D01*
X109839294Y-121034989D01*
X109850500Y-121086500D01*
X109850500Y-121903312D01*
X109830815Y-121970351D01*
X109818650Y-121986284D01*
X109743466Y-122069784D01*
X109648821Y-122233715D01*
X109648818Y-122233722D01*
X109600798Y-122381514D01*
X109590326Y-122413744D01*
X109570540Y-122602000D01*
X109590326Y-122790256D01*
X109590327Y-122790258D01*
X109590327Y-122790259D01*
X109648818Y-122970277D01*
X109648821Y-122970284D01*
X109743467Y-123134216D01*
X109863774Y-123267830D01*
X109870129Y-123274888D01*
X110023265Y-123386148D01*
X110023270Y-123386151D01*
X110196192Y-123463142D01*
X110196197Y-123463144D01*
X110381354Y-123502500D01*
X110381355Y-123502500D01*
X110570644Y-123502500D01*
X110570646Y-123502500D01*
X110755803Y-123463144D01*
X110928730Y-123386151D01*
X111081871Y-123274888D01*
X111208533Y-123134216D01*
X111303179Y-122970284D01*
X111361674Y-122790256D01*
X111364705Y-122761413D01*
X111391287Y-122696801D01*
X111448584Y-122656816D01*
X111518403Y-122654155D01*
X111578577Y-122689663D01*
X111580175Y-122691404D01*
X111648141Y-122766888D01*
X111801277Y-122878148D01*
X111801282Y-122878151D01*
X111974204Y-122955142D01*
X111974209Y-122955144D01*
X112159366Y-122994500D01*
X112159367Y-122994500D01*
X112348656Y-122994500D01*
X112348658Y-122994500D01*
X112533815Y-122955144D01*
X112706742Y-122878151D01*
X112859883Y-122766888D01*
X112986545Y-122626216D01*
X113081191Y-122462284D01*
X113139686Y-122282256D01*
X113159472Y-122094000D01*
X113139686Y-121905744D01*
X113139683Y-121905735D01*
X113139420Y-121904493D01*
X113139375Y-121902797D01*
X113139006Y-121899280D01*
X113139283Y-121899250D01*
X113138457Y-121867634D01*
X113137915Y-121867617D01*
X113138160Y-121859817D01*
X113133775Y-121813427D01*
X113133500Y-121807589D01*
X113133500Y-117887419D01*
X113135224Y-117871799D01*
X113134939Y-117871772D01*
X113135673Y-117864010D01*
X113133500Y-117794849D01*
X113133500Y-117765333D01*
X113133500Y-117765327D01*
X113132631Y-117758456D01*
X113132173Y-117752629D01*
X113131893Y-117743710D01*
X113130710Y-117706050D01*
X113125119Y-117686807D01*
X113121173Y-117667755D01*
X113118664Y-117647885D01*
X113107755Y-117620333D01*
X113099727Y-117561728D01*
X113106460Y-117497677D01*
X113086674Y-117309421D01*
X113028179Y-117129393D01*
X112933533Y-116965461D01*
X112806871Y-116824789D01*
X112806870Y-116824788D01*
X112653734Y-116713528D01*
X112653729Y-116713525D01*
X112480807Y-116636534D01*
X112480802Y-116636532D01*
X112335001Y-116605542D01*
X112295646Y-116597177D01*
X112106354Y-116597177D01*
X112081946Y-116602365D01*
X111921197Y-116636532D01*
X111921192Y-116636534D01*
X111748270Y-116713525D01*
X111748265Y-116713528D01*
X111595129Y-116824788D01*
X111468466Y-116965462D01*
X111373821Y-117129392D01*
X111373818Y-117129399D01*
X111343431Y-117222922D01*
X111303993Y-117280598D01*
X111239635Y-117307796D01*
X111170788Y-117295881D01*
X111119313Y-117248637D01*
X111101500Y-117184604D01*
X111101500Y-110677000D01*
X112930341Y-110677000D01*
X112950936Y-110912403D01*
X112950938Y-110912413D01*
X113012094Y-111140655D01*
X113012096Y-111140659D01*
X113012097Y-111140663D01*
X113016000Y-111149032D01*
X113111965Y-111354830D01*
X113111967Y-111354834D01*
X113220281Y-111509521D01*
X113247501Y-111548396D01*
X113247506Y-111548402D01*
X113369430Y-111670326D01*
X113402915Y-111731649D01*
X113397931Y-111801341D01*
X113356059Y-111857274D01*
X113325083Y-111874189D01*
X113193669Y-111923203D01*
X113193664Y-111923206D01*
X113078455Y-112009452D01*
X113078452Y-112009455D01*
X112992206Y-112124664D01*
X112992202Y-112124671D01*
X112941908Y-112259517D01*
X112935501Y-112319116D01*
X112935500Y-112319135D01*
X112935500Y-114114870D01*
X112935501Y-114114876D01*
X112941908Y-114174483D01*
X112992202Y-114309328D01*
X112992206Y-114309335D01*
X113078452Y-114424544D01*
X113078455Y-114424547D01*
X113193664Y-114510793D01*
X113193671Y-114510797D01*
X113238618Y-114527561D01*
X113328517Y-114561091D01*
X113388127Y-114567500D01*
X113536500Y-114567499D01*
X113603539Y-114587183D01*
X113649294Y-114639987D01*
X113660500Y-114691499D01*
X113660500Y-115800662D01*
X113640815Y-115867701D01*
X113628650Y-115883634D01*
X113547478Y-115973785D01*
X113452833Y-116137715D01*
X113452830Y-116137722D01*
X113394339Y-116317740D01*
X113394338Y-116317744D01*
X113374552Y-116506000D01*
X113394338Y-116694256D01*
X113394339Y-116694259D01*
X113452830Y-116874277D01*
X113452833Y-116874284D01*
X113547479Y-117038216D01*
X113659013Y-117162087D01*
X113674141Y-117178888D01*
X113827277Y-117290148D01*
X113827282Y-117290151D01*
X114000204Y-117367142D01*
X114000209Y-117367144D01*
X114185366Y-117406500D01*
X114185367Y-117406500D01*
X114374656Y-117406500D01*
X114374658Y-117406500D01*
X114559815Y-117367144D01*
X114732742Y-117290151D01*
X114885883Y-117178888D01*
X115012545Y-117038216D01*
X115107191Y-116874284D01*
X115165686Y-116694256D01*
X115185472Y-116506000D01*
X115165686Y-116317744D01*
X115164793Y-116314995D01*
X115164745Y-116313317D01*
X115164334Y-116311383D01*
X115164687Y-116311307D01*
X115162796Y-116245154D01*
X115198876Y-116185320D01*
X115261576Y-116154491D01*
X115330991Y-116162455D01*
X115370403Y-116188993D01*
X116358123Y-117176714D01*
X117341197Y-118159788D01*
X117351022Y-118172051D01*
X117351243Y-118171869D01*
X117356214Y-118177878D01*
X117382217Y-118202295D01*
X117406635Y-118225226D01*
X117427529Y-118246120D01*
X117433011Y-118250373D01*
X117437443Y-118254157D01*
X117471418Y-118286062D01*
X117488976Y-118295714D01*
X117505235Y-118306395D01*
X117521064Y-118318673D01*
X117563838Y-118337182D01*
X117569056Y-118339738D01*
X117609908Y-118362197D01*
X117629316Y-118367180D01*
X117647717Y-118373480D01*
X117666104Y-118381437D01*
X117704025Y-118387443D01*
X117712119Y-118388725D01*
X117717839Y-118389909D01*
X117762981Y-118401500D01*
X117783016Y-118401500D01*
X117802415Y-118403027D01*
X117822196Y-118406160D01*
X117862434Y-118402356D01*
X117868582Y-118401775D01*
X117874420Y-118401500D01*
X120579548Y-118401500D01*
X120646587Y-118421185D01*
X120667229Y-118437819D01*
X121237228Y-119007819D01*
X121270713Y-119069142D01*
X121265729Y-119138834D01*
X121223857Y-119194767D01*
X121158393Y-119219184D01*
X121149547Y-119219500D01*
X119484129Y-119219500D01*
X119484123Y-119219501D01*
X119424516Y-119225908D01*
X119289671Y-119276202D01*
X119289664Y-119276206D01*
X119174455Y-119362452D01*
X119174452Y-119362455D01*
X119088206Y-119477664D01*
X119088202Y-119477671D01*
X119037908Y-119612517D01*
X119031501Y-119672116D01*
X119031500Y-119672135D01*
X119031500Y-121467870D01*
X119031501Y-121467876D01*
X119037908Y-121527483D01*
X119088202Y-121662328D01*
X119088206Y-121662335D01*
X119174452Y-121777544D01*
X119174455Y-121777547D01*
X119289664Y-121863793D01*
X119289671Y-121863797D01*
X119424517Y-121914091D01*
X119424516Y-121914091D01*
X119431444Y-121914835D01*
X119484127Y-121920500D01*
X121279872Y-121920499D01*
X121339483Y-121914091D01*
X121474331Y-121863796D01*
X121589546Y-121777546D01*
X121675796Y-121662331D01*
X121724810Y-121530916D01*
X121766681Y-121474984D01*
X121832145Y-121450566D01*
X121900418Y-121465417D01*
X121928673Y-121486569D01*
X122050599Y-121608495D01*
X122147384Y-121676265D01*
X122244165Y-121744032D01*
X122244167Y-121744033D01*
X122244170Y-121744035D01*
X122458337Y-121843903D01*
X122686592Y-121905063D01*
X122863034Y-121920500D01*
X122921999Y-121925659D01*
X122922000Y-121925659D01*
X122922001Y-121925659D01*
X122980966Y-121920500D01*
X123157408Y-121905063D01*
X123385663Y-121843903D01*
X123599830Y-121744035D01*
X123793401Y-121608495D01*
X123960495Y-121441401D01*
X124096035Y-121247830D01*
X124195903Y-121033663D01*
X124257063Y-120805408D01*
X124277659Y-120570000D01*
X124257063Y-120334592D01*
X124195903Y-120106337D01*
X124096035Y-119892171D01*
X124090425Y-119884158D01*
X123960494Y-119698597D01*
X123793402Y-119531506D01*
X123793395Y-119531501D01*
X123599834Y-119395967D01*
X123599830Y-119395965D01*
X123599828Y-119395964D01*
X123385663Y-119296097D01*
X123385659Y-119296096D01*
X123385655Y-119296094D01*
X123293481Y-119271397D01*
X123237893Y-119239303D01*
X122317263Y-118318673D01*
X121390803Y-117392212D01*
X121380980Y-117379950D01*
X121380759Y-117380134D01*
X121375786Y-117374123D01*
X121368352Y-117367142D01*
X121325364Y-117326773D01*
X121314919Y-117316328D01*
X121304475Y-117305883D01*
X121298986Y-117301625D01*
X121294561Y-117297847D01*
X121260582Y-117265938D01*
X121260580Y-117265936D01*
X121260577Y-117265935D01*
X121243029Y-117256288D01*
X121226763Y-117245604D01*
X121210933Y-117233325D01*
X121168168Y-117214818D01*
X121162922Y-117212248D01*
X121122093Y-117189803D01*
X121122092Y-117189802D01*
X121102693Y-117184822D01*
X121084281Y-117178518D01*
X121065898Y-117170562D01*
X121065892Y-117170560D01*
X121019874Y-117163272D01*
X121014152Y-117162087D01*
X120969021Y-117150500D01*
X120969019Y-117150500D01*
X120948984Y-117150500D01*
X120929586Y-117148973D01*
X120922162Y-117147797D01*
X120909805Y-117145840D01*
X120909804Y-117145840D01*
X120863416Y-117150225D01*
X120857578Y-117150500D01*
X118152453Y-117150500D01*
X118085414Y-117130815D01*
X118064772Y-117114181D01*
X116122819Y-115172228D01*
X116089334Y-115110905D01*
X116086500Y-115084547D01*
X116086500Y-114556918D01*
X116106185Y-114489879D01*
X116158989Y-114444124D01*
X116228147Y-114434180D01*
X116262899Y-114444534D01*
X116362337Y-114490903D01*
X116590592Y-114552063D01*
X116767034Y-114567500D01*
X116825999Y-114572659D01*
X116826000Y-114572659D01*
X116826001Y-114572659D01*
X116884966Y-114567500D01*
X117061408Y-114552063D01*
X117289663Y-114490903D01*
X117503830Y-114391035D01*
X117697401Y-114255495D01*
X117864495Y-114088401D01*
X117994425Y-113902842D01*
X118049002Y-113859217D01*
X118118500Y-113852023D01*
X118180855Y-113883546D01*
X118197575Y-113902842D01*
X118327500Y-114088395D01*
X118327505Y-114088401D01*
X118494599Y-114255495D01*
X118591384Y-114323265D01*
X118688165Y-114391032D01*
X118688167Y-114391033D01*
X118688170Y-114391035D01*
X118902337Y-114490903D01*
X119130592Y-114552063D01*
X119307034Y-114567500D01*
X119365999Y-114572659D01*
X119366000Y-114572659D01*
X119366001Y-114572659D01*
X119424966Y-114567500D01*
X119601408Y-114552063D01*
X119829663Y-114490903D01*
X120043830Y-114391035D01*
X120237401Y-114255495D01*
X120404495Y-114088401D01*
X120534425Y-113902842D01*
X120589002Y-113859217D01*
X120658500Y-113852023D01*
X120720855Y-113883546D01*
X120737575Y-113902842D01*
X120867500Y-114088395D01*
X120867505Y-114088401D01*
X121034599Y-114255495D01*
X121131384Y-114323265D01*
X121228165Y-114391032D01*
X121228167Y-114391033D01*
X121228170Y-114391035D01*
X121442337Y-114490903D01*
X121670592Y-114552063D01*
X121847034Y-114567500D01*
X121905999Y-114572659D01*
X121906000Y-114572659D01*
X121906001Y-114572659D01*
X121964966Y-114567500D01*
X122141408Y-114552063D01*
X122369663Y-114490903D01*
X122583830Y-114391035D01*
X122777401Y-114255495D01*
X122777414Y-114255481D01*
X122777776Y-114255179D01*
X122777977Y-114255090D01*
X122781836Y-114252389D01*
X122782378Y-114253163D01*
X122841779Y-114227154D01*
X122910773Y-114238180D01*
X122945180Y-114262471D01*
X123847643Y-115164935D01*
X124741496Y-116058788D01*
X124751321Y-116071051D01*
X124751542Y-116070869D01*
X124756513Y-116076878D01*
X124782516Y-116101295D01*
X124806934Y-116124226D01*
X124827828Y-116145120D01*
X124833310Y-116149373D01*
X124837742Y-116153157D01*
X124871717Y-116185062D01*
X124889275Y-116194714D01*
X124905532Y-116205393D01*
X124921363Y-116217673D01*
X124941036Y-116226186D01*
X124964132Y-116236182D01*
X124969376Y-116238750D01*
X125010207Y-116261197D01*
X125022822Y-116264435D01*
X125029604Y-116266177D01*
X125048018Y-116272481D01*
X125066403Y-116280438D01*
X125112456Y-116287732D01*
X125118125Y-116288906D01*
X125163280Y-116300500D01*
X125183315Y-116300500D01*
X125202712Y-116302026D01*
X125222495Y-116305160D01*
X125268883Y-116300775D01*
X125274721Y-116300500D01*
X126665289Y-116300500D01*
X126732328Y-116320185D01*
X126778083Y-116372989D01*
X126788027Y-116442147D01*
X126783220Y-116462817D01*
X126754326Y-116551744D01*
X126734540Y-116740000D01*
X126754326Y-116928256D01*
X126754327Y-116928259D01*
X126812818Y-117108277D01*
X126812821Y-117108284D01*
X126907467Y-117272216D01*
X127015512Y-117392212D01*
X127034129Y-117412888D01*
X127167792Y-117510000D01*
X127187270Y-117524151D01*
X127302939Y-117575651D01*
X127356173Y-117620899D01*
X127376494Y-117687748D01*
X127376500Y-117688928D01*
X127376500Y-119294773D01*
X127356815Y-119361812D01*
X127323623Y-119396348D01*
X127130597Y-119531505D01*
X126963505Y-119698597D01*
X126827965Y-119892169D01*
X126827964Y-119892171D01*
X126728098Y-120106335D01*
X126728094Y-120106344D01*
X126666938Y-120334586D01*
X126666936Y-120334596D01*
X126646341Y-120569999D01*
X126646341Y-120570000D01*
X126666936Y-120805403D01*
X126666938Y-120805413D01*
X126728094Y-121033655D01*
X126728096Y-121033659D01*
X126728097Y-121033663D01*
X126753665Y-121088493D01*
X126827965Y-121247830D01*
X126827967Y-121247834D01*
X126911407Y-121366998D01*
X126963505Y-121441401D01*
X127130599Y-121608495D01*
X127227384Y-121676265D01*
X127324165Y-121744032D01*
X127324167Y-121744033D01*
X127324170Y-121744035D01*
X127538337Y-121843903D01*
X127766592Y-121905063D01*
X127943034Y-121920500D01*
X128001999Y-121925659D01*
X128002000Y-121925659D01*
X128002001Y-121925659D01*
X128060966Y-121920500D01*
X128237408Y-121905063D01*
X128465663Y-121843903D01*
X128679830Y-121744035D01*
X128873401Y-121608495D01*
X129040495Y-121441401D01*
X129170425Y-121255842D01*
X129225002Y-121212217D01*
X129294500Y-121205023D01*
X129356855Y-121236546D01*
X129373575Y-121255842D01*
X129503500Y-121441395D01*
X129503505Y-121441401D01*
X129670599Y-121608495D01*
X129767384Y-121676265D01*
X129864165Y-121744032D01*
X129864167Y-121744033D01*
X129864170Y-121744035D01*
X130078337Y-121843903D01*
X130306592Y-121905063D01*
X130483034Y-121920500D01*
X130541999Y-121925659D01*
X130542000Y-121925659D01*
X130542001Y-121925659D01*
X130600966Y-121920500D01*
X130777408Y-121905063D01*
X131005663Y-121843903D01*
X131219830Y-121744035D01*
X131413401Y-121608495D01*
X131580495Y-121441401D01*
X131710425Y-121255842D01*
X131765002Y-121212217D01*
X131834500Y-121205023D01*
X131896855Y-121236546D01*
X131913575Y-121255842D01*
X132043500Y-121441395D01*
X132043505Y-121441401D01*
X132210599Y-121608495D01*
X132307384Y-121676265D01*
X132404165Y-121744032D01*
X132404167Y-121744033D01*
X132404170Y-121744035D01*
X132618337Y-121843903D01*
X132846592Y-121905063D01*
X133023034Y-121920500D01*
X133081999Y-121925659D01*
X133082000Y-121925659D01*
X133082001Y-121925659D01*
X133140966Y-121920500D01*
X133317408Y-121905063D01*
X133545663Y-121843903D01*
X133759830Y-121744035D01*
X133953401Y-121608495D01*
X134120495Y-121441401D01*
X134256035Y-121247830D01*
X134355903Y-121033663D01*
X134417063Y-120805408D01*
X134437659Y-120570000D01*
X134417063Y-120334592D01*
X134355903Y-120106337D01*
X134256035Y-119892171D01*
X134250425Y-119884158D01*
X134120494Y-119698597D01*
X133953402Y-119531506D01*
X133953395Y-119531501D01*
X133759834Y-119395967D01*
X133759830Y-119395965D01*
X133759828Y-119395964D01*
X133545663Y-119296097D01*
X133545659Y-119296096D01*
X133545655Y-119296094D01*
X133317413Y-119234938D01*
X133317403Y-119234936D01*
X133082001Y-119214341D01*
X133081999Y-119214341D01*
X132846590Y-119234937D01*
X132846589Y-119234937D01*
X132746124Y-119261855D01*
X132676274Y-119260191D01*
X132626352Y-119229761D01*
X128687803Y-115291212D01*
X128677980Y-115278950D01*
X128677759Y-115279134D01*
X128672786Y-115273123D01*
X128622364Y-115225773D01*
X128611919Y-115215328D01*
X128601475Y-115204883D01*
X128595986Y-115200625D01*
X128591561Y-115196847D01*
X128557582Y-115164938D01*
X128557580Y-115164936D01*
X128557577Y-115164935D01*
X128540029Y-115155288D01*
X128523763Y-115144604D01*
X128507936Y-115132327D01*
X128507935Y-115132326D01*
X128507933Y-115132325D01*
X128465168Y-115113818D01*
X128459922Y-115111248D01*
X128419093Y-115088803D01*
X128419092Y-115088802D01*
X128399693Y-115083822D01*
X128381281Y-115077518D01*
X128362898Y-115069562D01*
X128362892Y-115069560D01*
X128316874Y-115062272D01*
X128311152Y-115061087D01*
X128266021Y-115049500D01*
X128266019Y-115049500D01*
X128245984Y-115049500D01*
X128226586Y-115047973D01*
X128219162Y-115046797D01*
X128206805Y-115044840D01*
X128206804Y-115044840D01*
X128160416Y-115049225D01*
X128154578Y-115049500D01*
X125552751Y-115049500D01*
X125485712Y-115029815D01*
X125465070Y-115013181D01*
X125057477Y-114605588D01*
X125023992Y-114544265D01*
X125028976Y-114474573D01*
X125070848Y-114418640D01*
X125092741Y-114405531D01*
X125123830Y-114391035D01*
X125317401Y-114255495D01*
X125484495Y-114088401D01*
X125614425Y-113902842D01*
X125669002Y-113859217D01*
X125738500Y-113852023D01*
X125800855Y-113883546D01*
X125817575Y-113902842D01*
X125947500Y-114088395D01*
X125947505Y-114088401D01*
X126114599Y-114255495D01*
X126211384Y-114323265D01*
X126308165Y-114391032D01*
X126308167Y-114391033D01*
X126308170Y-114391035D01*
X126522337Y-114490903D01*
X126750592Y-114552063D01*
X126927034Y-114567500D01*
X126985999Y-114572659D01*
X126986000Y-114572659D01*
X126986001Y-114572659D01*
X127044966Y-114567500D01*
X127221408Y-114552063D01*
X127449663Y-114490903D01*
X127663830Y-114391035D01*
X127857401Y-114255495D01*
X128024495Y-114088401D01*
X128154425Y-113902842D01*
X128209002Y-113859217D01*
X128278500Y-113852023D01*
X128340855Y-113883546D01*
X128357575Y-113902842D01*
X128487500Y-114088395D01*
X128487505Y-114088401D01*
X128654599Y-114255495D01*
X128751384Y-114323265D01*
X128848165Y-114391032D01*
X128848167Y-114391033D01*
X128848170Y-114391035D01*
X129062337Y-114490903D01*
X129290592Y-114552063D01*
X129467034Y-114567500D01*
X129525999Y-114572659D01*
X129526000Y-114572659D01*
X129526001Y-114572659D01*
X129584966Y-114567500D01*
X129761408Y-114552063D01*
X129989663Y-114490903D01*
X130203830Y-114391035D01*
X130397401Y-114255495D01*
X130564495Y-114088401D01*
X130700035Y-113894830D01*
X130799903Y-113680663D01*
X130861063Y-113452408D01*
X130881659Y-113217000D01*
X130861063Y-112981592D01*
X130799903Y-112753337D01*
X130700035Y-112539171D01*
X130694425Y-112531158D01*
X130564494Y-112345597D01*
X130397402Y-112178506D01*
X130397396Y-112178501D01*
X130211842Y-112048575D01*
X130168217Y-111993998D01*
X130161023Y-111924500D01*
X130192546Y-111862145D01*
X130211842Y-111845425D01*
X130274800Y-111801341D01*
X130397401Y-111715495D01*
X130564495Y-111548401D01*
X130700035Y-111354830D01*
X130799903Y-111140663D01*
X130861063Y-110912408D01*
X130881659Y-110677000D01*
X130861063Y-110441592D01*
X130799903Y-110213337D01*
X130700035Y-109999171D01*
X130694425Y-109991158D01*
X130564494Y-109805597D01*
X130397402Y-109638506D01*
X130397395Y-109638501D01*
X130203834Y-109502967D01*
X130203830Y-109502965D01*
X130203828Y-109502964D01*
X129989663Y-109403097D01*
X129989659Y-109403096D01*
X129989655Y-109403094D01*
X129761413Y-109341938D01*
X129761403Y-109341936D01*
X129526001Y-109321341D01*
X129525999Y-109321341D01*
X129290596Y-109341936D01*
X129290586Y-109341938D01*
X129062344Y-109403094D01*
X129062335Y-109403098D01*
X128848171Y-109502964D01*
X128848169Y-109502965D01*
X128654597Y-109638505D01*
X128487505Y-109805597D01*
X128357575Y-109991158D01*
X128302998Y-110034783D01*
X128233500Y-110041977D01*
X128171145Y-110010454D01*
X128154425Y-109991158D01*
X128024494Y-109805597D01*
X127857402Y-109638506D01*
X127857395Y-109638501D01*
X127663834Y-109502967D01*
X127663830Y-109502965D01*
X127663828Y-109502964D01*
X127449663Y-109403097D01*
X127449659Y-109403096D01*
X127449655Y-109403094D01*
X127221413Y-109341938D01*
X127221403Y-109341936D01*
X126986001Y-109321341D01*
X126985999Y-109321341D01*
X126750596Y-109341936D01*
X126750586Y-109341938D01*
X126522344Y-109403094D01*
X126522335Y-109403098D01*
X126308171Y-109502964D01*
X126308169Y-109502965D01*
X126114597Y-109638505D01*
X125947505Y-109805597D01*
X125817575Y-109991158D01*
X125762998Y-110034783D01*
X125693500Y-110041977D01*
X125631145Y-110010454D01*
X125614425Y-109991158D01*
X125484494Y-109805597D01*
X125317402Y-109638506D01*
X125317395Y-109638501D01*
X125123834Y-109502967D01*
X125123830Y-109502965D01*
X125123828Y-109502964D01*
X124909663Y-109403097D01*
X124909659Y-109403096D01*
X124909655Y-109403094D01*
X124681413Y-109341938D01*
X124681403Y-109341936D01*
X124446001Y-109321341D01*
X124445999Y-109321341D01*
X124210596Y-109341936D01*
X124210586Y-109341938D01*
X123982344Y-109403094D01*
X123982335Y-109403098D01*
X123768171Y-109502964D01*
X123768169Y-109502965D01*
X123574597Y-109638505D01*
X123407505Y-109805597D01*
X123277575Y-109991158D01*
X123222998Y-110034783D01*
X123153500Y-110041977D01*
X123091145Y-110010454D01*
X123074425Y-109991158D01*
X122944494Y-109805597D01*
X122777402Y-109638506D01*
X122777395Y-109638501D01*
X122583834Y-109502967D01*
X122583830Y-109502965D01*
X122583828Y-109502964D01*
X122369663Y-109403097D01*
X122369659Y-109403096D01*
X122369655Y-109403094D01*
X122141413Y-109341938D01*
X122141403Y-109341936D01*
X121906001Y-109321341D01*
X121905999Y-109321341D01*
X121670596Y-109341936D01*
X121670586Y-109341938D01*
X121442344Y-109403094D01*
X121442335Y-109403098D01*
X121228171Y-109502964D01*
X121228169Y-109502965D01*
X121034597Y-109638505D01*
X120867505Y-109805597D01*
X120737575Y-109991158D01*
X120682998Y-110034783D01*
X120613500Y-110041977D01*
X120551145Y-110010454D01*
X120534425Y-109991158D01*
X120404494Y-109805597D01*
X120237402Y-109638506D01*
X120237395Y-109638501D01*
X120043834Y-109502967D01*
X120043830Y-109502965D01*
X120043828Y-109502964D01*
X119829663Y-109403097D01*
X119829659Y-109403096D01*
X119829655Y-109403094D01*
X119601413Y-109341938D01*
X119601403Y-109341936D01*
X119366001Y-109321341D01*
X119365999Y-109321341D01*
X119130596Y-109341936D01*
X119130586Y-109341938D01*
X118902344Y-109403094D01*
X118902335Y-109403098D01*
X118688171Y-109502964D01*
X118688169Y-109502965D01*
X118494597Y-109638505D01*
X118327505Y-109805597D01*
X118197575Y-109991158D01*
X118142998Y-110034783D01*
X118073500Y-110041977D01*
X118011145Y-110010454D01*
X117994425Y-109991158D01*
X117864494Y-109805597D01*
X117697402Y-109638506D01*
X117697395Y-109638501D01*
X117503834Y-109502967D01*
X117503830Y-109502965D01*
X117503828Y-109502964D01*
X117289663Y-109403097D01*
X117289659Y-109403096D01*
X117289655Y-109403094D01*
X117061413Y-109341938D01*
X117061403Y-109341936D01*
X116826001Y-109321341D01*
X116825999Y-109321341D01*
X116590596Y-109341936D01*
X116590586Y-109341938D01*
X116362344Y-109403094D01*
X116362335Y-109403098D01*
X116148171Y-109502964D01*
X116148169Y-109502965D01*
X115954597Y-109638505D01*
X115787505Y-109805597D01*
X115657575Y-109991158D01*
X115602998Y-110034783D01*
X115533500Y-110041977D01*
X115471145Y-110010454D01*
X115454425Y-109991158D01*
X115324494Y-109805597D01*
X115157402Y-109638506D01*
X115157395Y-109638501D01*
X114963834Y-109502967D01*
X114963830Y-109502965D01*
X114963828Y-109502964D01*
X114749663Y-109403097D01*
X114749659Y-109403096D01*
X114749655Y-109403094D01*
X114521413Y-109341938D01*
X114521403Y-109341936D01*
X114286001Y-109321341D01*
X114285999Y-109321341D01*
X114050596Y-109341936D01*
X114050586Y-109341938D01*
X113822344Y-109403094D01*
X113822335Y-109403098D01*
X113608171Y-109502964D01*
X113608169Y-109502965D01*
X113414597Y-109638505D01*
X113247505Y-109805597D01*
X113111965Y-109999169D01*
X113111964Y-109999171D01*
X113012098Y-110213335D01*
X113012094Y-110213344D01*
X112950938Y-110441586D01*
X112950936Y-110441596D01*
X112930341Y-110676999D01*
X112930341Y-110677000D01*
X111101500Y-110677000D01*
X111101500Y-108434452D01*
X111121185Y-108367413D01*
X111137819Y-108346771D01*
X111618202Y-107866388D01*
X112129788Y-107354801D01*
X112142042Y-107344986D01*
X112141859Y-107344764D01*
X112147866Y-107339792D01*
X112147877Y-107339786D01*
X112180029Y-107305547D01*
X112195227Y-107289364D01*
X112205671Y-107278918D01*
X112216120Y-107268471D01*
X112220379Y-107262978D01*
X112224152Y-107258561D01*
X112256062Y-107224582D01*
X112265713Y-107207024D01*
X112276396Y-107190761D01*
X112288673Y-107174936D01*
X112307185Y-107132153D01*
X112309738Y-107126941D01*
X112332197Y-107086092D01*
X112336420Y-107069640D01*
X112372157Y-107009603D01*
X112434680Y-106978416D01*
X112504139Y-106985983D01*
X112544206Y-107012796D01*
X112585038Y-107053628D01*
X112618523Y-107114951D01*
X112620678Y-107128347D01*
X112620798Y-107129488D01*
X112638326Y-107296256D01*
X112638327Y-107296259D01*
X112696818Y-107476277D01*
X112696821Y-107476284D01*
X112791467Y-107640216D01*
X112892945Y-107752918D01*
X112918129Y-107780888D01*
X113071265Y-107892148D01*
X113071270Y-107892151D01*
X113244192Y-107969142D01*
X113244197Y-107969144D01*
X113429354Y-108008500D01*
X113429355Y-108008500D01*
X113618644Y-108008500D01*
X113618646Y-108008500D01*
X113803803Y-107969144D01*
X113976730Y-107892151D01*
X114129871Y-107780888D01*
X114256533Y-107640216D01*
X114351179Y-107476284D01*
X114409674Y-107296256D01*
X114428094Y-107121000D01*
X135282341Y-107121000D01*
X135302936Y-107356403D01*
X135302938Y-107356413D01*
X135364094Y-107584655D01*
X135364096Y-107584659D01*
X135364097Y-107584663D01*
X135463965Y-107798830D01*
X135463967Y-107798834D01*
X135572281Y-107953521D01*
X135599505Y-107992401D01*
X135766599Y-108159495D01*
X135863384Y-108227265D01*
X135960165Y-108295032D01*
X135960167Y-108295033D01*
X135960170Y-108295035D01*
X136174337Y-108394903D01*
X136402592Y-108456063D01*
X136579034Y-108471500D01*
X136637999Y-108476659D01*
X136638000Y-108476659D01*
X136638001Y-108476659D01*
X136696966Y-108471500D01*
X136873408Y-108456063D01*
X137101663Y-108394903D01*
X137315830Y-108295035D01*
X137509401Y-108159495D01*
X137631329Y-108037566D01*
X137692648Y-108004084D01*
X137762340Y-108009068D01*
X137818274Y-108050939D01*
X137835189Y-108081917D01*
X137884202Y-108213328D01*
X137884206Y-108213335D01*
X137970452Y-108328544D01*
X137970455Y-108328547D01*
X138085664Y-108414793D01*
X138085671Y-108414797D01*
X138220517Y-108465091D01*
X138220516Y-108465091D01*
X138227444Y-108465835D01*
X138280127Y-108471500D01*
X140075872Y-108471499D01*
X140135483Y-108465091D01*
X140270331Y-108414796D01*
X140385546Y-108328546D01*
X140471796Y-108213331D01*
X140522091Y-108078483D01*
X140528500Y-108018873D01*
X140528499Y-106223128D01*
X140522091Y-106163517D01*
X140520810Y-106160083D01*
X140471797Y-106028671D01*
X140471793Y-106028664D01*
X140385547Y-105913455D01*
X140385544Y-105913452D01*
X140270335Y-105827206D01*
X140270328Y-105827202D01*
X140138917Y-105778189D01*
X140082983Y-105736318D01*
X140058566Y-105670853D01*
X140073418Y-105602580D01*
X140094563Y-105574332D01*
X140216495Y-105452401D01*
X140352035Y-105258830D01*
X140451903Y-105044663D01*
X140513063Y-104816408D01*
X140533659Y-104581000D01*
X140513063Y-104345592D01*
X140451903Y-104117337D01*
X140352035Y-103903171D01*
X140346425Y-103895158D01*
X140216494Y-103709597D01*
X140049402Y-103542506D01*
X140049396Y-103542501D01*
X139863842Y-103412575D01*
X139820217Y-103357998D01*
X139813023Y-103288500D01*
X139844546Y-103226145D01*
X139863842Y-103209425D01*
X139886026Y-103193891D01*
X140049401Y-103079495D01*
X140216495Y-102912401D01*
X140352035Y-102718830D01*
X140451903Y-102504663D01*
X140513063Y-102276408D01*
X140533659Y-102041000D01*
X140532857Y-102031839D01*
X140526295Y-101956830D01*
X140513063Y-101805592D01*
X140451903Y-101577337D01*
X140352035Y-101363171D01*
X140346425Y-101355158D01*
X140216494Y-101169597D01*
X140049402Y-101002506D01*
X140049396Y-101002501D01*
X139863842Y-100872575D01*
X139820217Y-100817998D01*
X139813023Y-100748500D01*
X139844546Y-100686145D01*
X139863842Y-100669425D01*
X139954262Y-100606112D01*
X140049401Y-100539495D01*
X140216495Y-100372401D01*
X140352035Y-100178830D01*
X140451903Y-99964663D01*
X140513063Y-99736408D01*
X140533659Y-99501000D01*
X140513063Y-99265592D01*
X140451903Y-99037337D01*
X140352035Y-98823171D01*
X140346425Y-98815158D01*
X140216494Y-98629597D01*
X140049402Y-98462506D01*
X140049396Y-98462501D01*
X139863842Y-98332575D01*
X139820217Y-98277998D01*
X139813023Y-98208500D01*
X139844546Y-98146145D01*
X139863842Y-98129425D01*
X139945205Y-98072454D01*
X140049401Y-97999495D01*
X140216495Y-97832401D01*
X140352035Y-97638830D01*
X140451903Y-97424663D01*
X140513063Y-97196408D01*
X140533659Y-96961000D01*
X140513063Y-96725592D01*
X140451903Y-96497337D01*
X140352035Y-96283171D01*
X140346425Y-96275158D01*
X140216494Y-96089597D01*
X140049402Y-95922506D01*
X140049396Y-95922501D01*
X139863842Y-95792575D01*
X139820217Y-95737998D01*
X139813023Y-95668500D01*
X139844546Y-95606145D01*
X139863842Y-95589425D01*
X139945205Y-95532454D01*
X140049401Y-95459495D01*
X140216495Y-95292401D01*
X140352035Y-95098830D01*
X140451903Y-94884663D01*
X140513063Y-94656408D01*
X140533659Y-94421000D01*
X140513063Y-94185592D01*
X140451903Y-93957337D01*
X140352035Y-93743171D01*
X140346425Y-93735158D01*
X140216494Y-93549597D01*
X140049402Y-93382506D01*
X140049396Y-93382501D01*
X139863842Y-93252575D01*
X139820217Y-93197998D01*
X139813023Y-93128500D01*
X139844546Y-93066145D01*
X139863842Y-93049425D01*
X139945205Y-92992454D01*
X140049401Y-92919495D01*
X140216495Y-92752401D01*
X140352035Y-92558830D01*
X140451903Y-92344663D01*
X140513063Y-92116408D01*
X140533659Y-91881000D01*
X140513063Y-91645592D01*
X140451903Y-91417337D01*
X140352035Y-91203171D01*
X140346425Y-91195158D01*
X140216494Y-91009597D01*
X140049402Y-90842506D01*
X140049395Y-90842501D01*
X139855834Y-90706967D01*
X139855830Y-90706965D01*
X139793009Y-90677671D01*
X139641663Y-90607097D01*
X139641659Y-90607096D01*
X139641655Y-90607094D01*
X139413413Y-90545938D01*
X139413403Y-90545936D01*
X139178001Y-90525341D01*
X139177999Y-90525341D01*
X138942596Y-90545936D01*
X138942586Y-90545938D01*
X138714344Y-90607094D01*
X138714335Y-90607098D01*
X138500171Y-90706964D01*
X138500169Y-90706965D01*
X138306597Y-90842505D01*
X138139505Y-91009597D01*
X138009575Y-91195158D01*
X137954998Y-91238783D01*
X137885500Y-91245977D01*
X137823145Y-91214454D01*
X137806425Y-91195158D01*
X137676494Y-91009597D01*
X137509402Y-90842506D01*
X137509395Y-90842501D01*
X137315834Y-90706967D01*
X137315830Y-90706965D01*
X137253009Y-90677671D01*
X137101663Y-90607097D01*
X137101659Y-90607096D01*
X137101655Y-90607094D01*
X136873413Y-90545938D01*
X136873403Y-90545936D01*
X136638001Y-90525341D01*
X136637999Y-90525341D01*
X136402596Y-90545936D01*
X136402586Y-90545938D01*
X136174344Y-90607094D01*
X136174335Y-90607098D01*
X135960171Y-90706964D01*
X135960169Y-90706965D01*
X135766597Y-90842505D01*
X135599505Y-91009597D01*
X135463965Y-91203169D01*
X135463964Y-91203171D01*
X135364098Y-91417335D01*
X135364094Y-91417344D01*
X135302938Y-91645586D01*
X135302936Y-91645596D01*
X135282341Y-91880999D01*
X135282341Y-91881000D01*
X135302936Y-92116403D01*
X135302938Y-92116413D01*
X135364094Y-92344655D01*
X135364096Y-92344659D01*
X135364097Y-92344663D01*
X135429521Y-92484965D01*
X135463965Y-92558830D01*
X135463967Y-92558834D01*
X135559833Y-92695744D01*
X135599501Y-92752396D01*
X135599506Y-92752402D01*
X135766597Y-92919493D01*
X135766603Y-92919498D01*
X135952158Y-93049425D01*
X135995783Y-93104002D01*
X136002977Y-93173500D01*
X135971454Y-93235855D01*
X135952158Y-93252575D01*
X135766597Y-93382505D01*
X135599505Y-93549597D01*
X135463965Y-93743169D01*
X135463964Y-93743171D01*
X135364098Y-93957335D01*
X135364094Y-93957344D01*
X135302938Y-94185586D01*
X135302936Y-94185596D01*
X135282341Y-94420999D01*
X135282341Y-94421000D01*
X135302936Y-94656403D01*
X135302938Y-94656413D01*
X135364094Y-94884655D01*
X135364096Y-94884659D01*
X135364097Y-94884663D01*
X135425363Y-95016048D01*
X135463965Y-95098830D01*
X135463967Y-95098834D01*
X135559833Y-95235744D01*
X135599501Y-95292396D01*
X135599506Y-95292402D01*
X135766597Y-95459493D01*
X135766603Y-95459498D01*
X135952158Y-95589425D01*
X135995783Y-95644002D01*
X136002977Y-95713500D01*
X135971454Y-95775855D01*
X135952158Y-95792575D01*
X135766597Y-95922505D01*
X135599505Y-96089597D01*
X135463965Y-96283169D01*
X135463964Y-96283171D01*
X135364098Y-96497335D01*
X135364094Y-96497344D01*
X135302938Y-96725586D01*
X135302936Y-96725596D01*
X135282341Y-96960999D01*
X135282341Y-96961000D01*
X135302936Y-97196403D01*
X135302938Y-97196413D01*
X135364094Y-97424655D01*
X135364096Y-97424659D01*
X135364097Y-97424663D01*
X135458703Y-97627546D01*
X135463965Y-97638830D01*
X135463967Y-97638834D01*
X135507150Y-97700505D01*
X135599501Y-97832396D01*
X135599506Y-97832402D01*
X135766597Y-97999493D01*
X135766603Y-97999498D01*
X135952158Y-98129425D01*
X135995783Y-98184002D01*
X136002977Y-98253500D01*
X135971454Y-98315855D01*
X135952158Y-98332575D01*
X135766597Y-98462505D01*
X135599505Y-98629597D01*
X135463965Y-98823169D01*
X135463964Y-98823171D01*
X135364098Y-99037335D01*
X135364094Y-99037344D01*
X135302938Y-99265586D01*
X135302936Y-99265596D01*
X135282341Y-99500999D01*
X135282341Y-99501000D01*
X135302936Y-99736403D01*
X135302938Y-99736413D01*
X135364094Y-99964655D01*
X135364096Y-99964659D01*
X135364097Y-99964663D01*
X135427154Y-100099889D01*
X135463965Y-100178830D01*
X135463967Y-100178834D01*
X135507150Y-100240505D01*
X135599501Y-100372396D01*
X135599506Y-100372402D01*
X135766597Y-100539493D01*
X135766603Y-100539498D01*
X135952158Y-100669425D01*
X135995783Y-100724002D01*
X136002977Y-100793500D01*
X135971454Y-100855855D01*
X135952158Y-100872575D01*
X135766597Y-101002505D01*
X135599505Y-101169597D01*
X135463965Y-101363169D01*
X135463964Y-101363171D01*
X135364098Y-101577335D01*
X135364094Y-101577344D01*
X135302938Y-101805586D01*
X135302936Y-101805596D01*
X135282341Y-102040999D01*
X135282341Y-102041000D01*
X135302936Y-102276403D01*
X135302938Y-102276413D01*
X135364094Y-102504655D01*
X135364096Y-102504659D01*
X135364097Y-102504663D01*
X135429521Y-102644965D01*
X135463965Y-102718830D01*
X135463967Y-102718834D01*
X135507150Y-102780505D01*
X135599501Y-102912396D01*
X135599506Y-102912402D01*
X135766597Y-103079493D01*
X135766603Y-103079498D01*
X135952158Y-103209425D01*
X135995783Y-103264002D01*
X136002977Y-103333500D01*
X135971454Y-103395855D01*
X135952158Y-103412575D01*
X135766597Y-103542505D01*
X135599505Y-103709597D01*
X135463965Y-103903169D01*
X135463964Y-103903171D01*
X135364098Y-104117335D01*
X135364094Y-104117344D01*
X135302938Y-104345586D01*
X135302936Y-104345596D01*
X135282341Y-104580999D01*
X135282341Y-104581000D01*
X135302936Y-104816403D01*
X135302938Y-104816413D01*
X135364094Y-105044655D01*
X135364096Y-105044659D01*
X135364097Y-105044663D01*
X135438033Y-105203218D01*
X135463965Y-105258830D01*
X135463967Y-105258834D01*
X135572281Y-105413521D01*
X135599501Y-105452396D01*
X135599506Y-105452402D01*
X135766597Y-105619493D01*
X135766603Y-105619498D01*
X135952158Y-105749425D01*
X135995783Y-105804002D01*
X136002977Y-105873500D01*
X135971454Y-105935855D01*
X135952158Y-105952575D01*
X135766597Y-106082505D01*
X135599505Y-106249597D01*
X135463965Y-106443169D01*
X135463964Y-106443171D01*
X135364098Y-106657335D01*
X135364094Y-106657344D01*
X135302938Y-106885586D01*
X135302936Y-106885596D01*
X135282341Y-107120999D01*
X135282341Y-107121000D01*
X114428094Y-107121000D01*
X114429460Y-107108000D01*
X114409674Y-106919744D01*
X114351179Y-106739716D01*
X114256533Y-106575784D01*
X114129871Y-106435112D01*
X114129870Y-106435111D01*
X113976734Y-106323851D01*
X113976729Y-106323848D01*
X113803807Y-106246857D01*
X113803802Y-106246855D01*
X113658001Y-106215865D01*
X113618646Y-106207500D01*
X113618645Y-106207500D01*
X113559453Y-106207500D01*
X113492414Y-106187815D01*
X113471772Y-106171181D01*
X113423819Y-106123228D01*
X113390334Y-106061905D01*
X113387500Y-106035547D01*
X113387500Y-101577337D01*
X120473500Y-101577337D01*
X120473501Y-101577355D01*
X120483650Y-101676707D01*
X120483651Y-101676710D01*
X120536996Y-101837694D01*
X120537001Y-101837705D01*
X120626029Y-101982040D01*
X120626032Y-101982044D01*
X120745955Y-102101967D01*
X120745959Y-102101970D01*
X120890294Y-102190998D01*
X120890297Y-102190999D01*
X120890303Y-102191003D01*
X121051292Y-102244349D01*
X121150655Y-102254500D01*
X121697344Y-102254499D01*
X121697352Y-102254498D01*
X121697355Y-102254498D01*
X121751760Y-102248940D01*
X121796708Y-102244349D01*
X121957697Y-102191003D01*
X122102044Y-102101968D01*
X122103518Y-102100493D01*
X122104782Y-102099803D01*
X122107712Y-102097487D01*
X122108107Y-102097987D01*
X122164837Y-102067006D01*
X122234529Y-102071985D01*
X122241606Y-102074876D01*
X122388197Y-102140144D01*
X122573354Y-102179500D01*
X122573355Y-102179500D01*
X122762644Y-102179500D01*
X122762646Y-102179500D01*
X122947803Y-102140144D01*
X123120730Y-102063151D01*
X123273871Y-101951888D01*
X123400533Y-101811216D01*
X123495179Y-101647284D01*
X123553674Y-101467256D01*
X123573460Y-101279000D01*
X123553674Y-101090744D01*
X123495179Y-100910716D01*
X123400533Y-100746784D01*
X123273871Y-100606112D01*
X123273870Y-100606111D01*
X123120734Y-100494851D01*
X123120729Y-100494848D01*
X122947807Y-100417857D01*
X122947802Y-100417855D01*
X122802001Y-100386865D01*
X122762646Y-100378500D01*
X122573354Y-100378500D01*
X122540897Y-100385398D01*
X122388197Y-100417855D01*
X122388196Y-100417855D01*
X122241637Y-100483108D01*
X122172387Y-100492392D01*
X122109111Y-100462763D01*
X122103521Y-100457509D01*
X122102044Y-100456032D01*
X122102040Y-100456029D01*
X121957705Y-100367001D01*
X121957699Y-100366998D01*
X121957697Y-100366997D01*
X121957694Y-100366996D01*
X121796709Y-100313651D01*
X121697346Y-100303500D01*
X121150662Y-100303500D01*
X121150644Y-100303501D01*
X121051292Y-100313650D01*
X121051289Y-100313651D01*
X120890305Y-100366996D01*
X120890294Y-100367001D01*
X120745959Y-100456029D01*
X120745955Y-100456032D01*
X120626032Y-100575955D01*
X120626029Y-100575959D01*
X120537001Y-100720294D01*
X120536996Y-100720305D01*
X120483651Y-100881290D01*
X120473500Y-100980647D01*
X120473500Y-101577337D01*
X113387500Y-101577337D01*
X113387500Y-96992337D01*
X118910500Y-96992337D01*
X118910501Y-96992355D01*
X118920650Y-97091707D01*
X118920651Y-97091710D01*
X118973996Y-97252694D01*
X118974001Y-97252705D01*
X119063029Y-97397040D01*
X119063032Y-97397044D01*
X119182955Y-97516967D01*
X119182959Y-97516970D01*
X119327294Y-97605998D01*
X119327297Y-97605999D01*
X119327303Y-97606003D01*
X119488292Y-97659349D01*
X119587655Y-97669500D01*
X120134344Y-97669499D01*
X120134352Y-97669498D01*
X120134355Y-97669498D01*
X120188760Y-97663940D01*
X120233708Y-97659349D01*
X120394697Y-97606003D01*
X120539044Y-97516968D01*
X120548319Y-97507693D01*
X120609642Y-97474208D01*
X120679334Y-97479192D01*
X120723681Y-97507693D01*
X120732955Y-97516967D01*
X120732959Y-97516970D01*
X120877294Y-97605998D01*
X120877297Y-97605999D01*
X120877303Y-97606003D01*
X121038292Y-97659349D01*
X121137655Y-97669500D01*
X121684344Y-97669499D01*
X121684352Y-97669498D01*
X121684355Y-97669498D01*
X121738760Y-97663940D01*
X121783708Y-97659349D01*
X121944697Y-97606003D01*
X122089044Y-97516968D01*
X122208968Y-97397044D01*
X122298003Y-97252697D01*
X122327561Y-97163495D01*
X122367334Y-97106051D01*
X122431850Y-97079228D01*
X122445267Y-97078500D01*
X122924132Y-97078500D01*
X122991171Y-97098185D01*
X123030248Y-97138349D01*
X123099374Y-97252697D01*
X123107530Y-97266188D01*
X123227811Y-97386469D01*
X123227813Y-97386470D01*
X123227815Y-97386472D01*
X123373394Y-97474478D01*
X123535804Y-97525086D01*
X123606384Y-97531500D01*
X123606387Y-97531500D01*
X124269613Y-97531500D01*
X124269616Y-97531500D01*
X124340196Y-97525086D01*
X124502606Y-97474478D01*
X124648185Y-97386472D01*
X124768472Y-97266185D01*
X124856478Y-97120606D01*
X124907086Y-96958196D01*
X124913500Y-96887616D01*
X124913500Y-96374384D01*
X124907086Y-96303804D01*
X124856478Y-96141394D01*
X124768472Y-95995815D01*
X124768470Y-95995813D01*
X124768469Y-95995811D01*
X124648188Y-95875530D01*
X124644029Y-95873016D01*
X124502606Y-95787522D01*
X124340196Y-95736914D01*
X124340194Y-95736913D01*
X124340192Y-95736913D01*
X124290778Y-95732423D01*
X124269616Y-95730500D01*
X123606384Y-95730500D01*
X123587145Y-95732248D01*
X123535807Y-95736913D01*
X123373393Y-95787522D01*
X123336845Y-95809617D01*
X123272695Y-95827500D01*
X122980431Y-95827500D01*
X122913392Y-95807815D01*
X122880111Y-95776383D01*
X122873593Y-95767412D01*
X122837688Y-95737709D01*
X122833376Y-95733786D01*
X122509498Y-95409907D01*
X122476013Y-95348584D01*
X122473858Y-95335188D01*
X122464773Y-95248744D01*
X122406278Y-95068716D01*
X122311632Y-94904784D01*
X122184970Y-94764112D01*
X122161248Y-94746877D01*
X122031833Y-94652851D01*
X122031828Y-94652848D01*
X121858906Y-94575857D01*
X121858901Y-94575855D01*
X121713100Y-94544865D01*
X121673745Y-94536500D01*
X121484453Y-94536500D01*
X121451996Y-94543398D01*
X121299296Y-94575855D01*
X121299291Y-94575857D01*
X121126369Y-94652848D01*
X121126364Y-94652851D01*
X120973234Y-94764106D01*
X120973227Y-94764112D01*
X120951551Y-94788186D01*
X120892064Y-94824834D01*
X120822207Y-94823503D01*
X120767253Y-94788186D01*
X120733871Y-94751112D01*
X120720429Y-94741346D01*
X120580734Y-94639851D01*
X120580729Y-94639848D01*
X120407807Y-94562857D01*
X120407802Y-94562855D01*
X120260848Y-94531620D01*
X120222646Y-94523500D01*
X120033354Y-94523500D01*
X120000915Y-94530395D01*
X119848197Y-94562855D01*
X119848192Y-94562857D01*
X119675270Y-94639848D01*
X119675265Y-94639851D01*
X119522129Y-94751111D01*
X119395466Y-94891785D01*
X119300821Y-95055715D01*
X119300818Y-95055722D01*
X119266772Y-95160506D01*
X119242326Y-95235744D01*
X119227285Y-95378857D01*
X119224830Y-95402214D01*
X119198245Y-95466828D01*
X119191902Y-95474135D01*
X119170773Y-95496635D01*
X119149889Y-95517519D01*
X119149877Y-95517532D01*
X119145621Y-95523017D01*
X119141837Y-95527447D01*
X119109937Y-95561418D01*
X119109936Y-95561420D01*
X119100284Y-95578976D01*
X119089610Y-95595226D01*
X119077329Y-95611061D01*
X119077324Y-95611068D01*
X119058815Y-95653838D01*
X119056245Y-95659084D01*
X119033803Y-95699906D01*
X119028822Y-95719307D01*
X119022521Y-95737710D01*
X119014562Y-95756102D01*
X119014561Y-95756105D01*
X119007271Y-95802127D01*
X119006087Y-95807846D01*
X118994501Y-95852972D01*
X118994500Y-95852982D01*
X118994500Y-95873016D01*
X118992973Y-95892415D01*
X118989840Y-95912194D01*
X118989840Y-95912195D01*
X118994225Y-95958583D01*
X118994500Y-95964421D01*
X118994500Y-96066896D01*
X118976967Y-96128716D01*
X118977051Y-96128755D01*
X118976811Y-96129269D01*
X118976039Y-96131992D01*
X118974001Y-96135296D01*
X118973996Y-96135305D01*
X118920651Y-96296290D01*
X118910500Y-96395647D01*
X118910500Y-96992337D01*
X113387500Y-96992337D01*
X113387500Y-89230000D01*
X114894341Y-89230000D01*
X114914936Y-89465403D01*
X114914938Y-89465413D01*
X114976094Y-89693655D01*
X114976096Y-89693659D01*
X114976097Y-89693663D01*
X115058672Y-89870745D01*
X115075965Y-89907830D01*
X115075967Y-89907834D01*
X115136763Y-89994659D01*
X115196873Y-90080505D01*
X115211501Y-90101395D01*
X115211506Y-90101402D01*
X115333430Y-90223326D01*
X115366915Y-90284649D01*
X115361931Y-90354341D01*
X115320059Y-90410274D01*
X115289083Y-90427189D01*
X115157669Y-90476203D01*
X115157664Y-90476206D01*
X115042455Y-90562452D01*
X115042452Y-90562455D01*
X114956206Y-90677664D01*
X114956202Y-90677671D01*
X114905908Y-90812517D01*
X114899501Y-90872116D01*
X114899500Y-90872135D01*
X114899500Y-92667870D01*
X114899501Y-92667876D01*
X114905908Y-92727483D01*
X114956202Y-92862328D01*
X114956206Y-92862335D01*
X115042452Y-92977544D01*
X115042455Y-92977547D01*
X115157664Y-93063793D01*
X115157671Y-93063797D01*
X115292517Y-93114091D01*
X115292516Y-93114091D01*
X115299444Y-93114835D01*
X115352127Y-93120500D01*
X117147872Y-93120499D01*
X117207483Y-93114091D01*
X117342331Y-93063796D01*
X117457546Y-92977546D01*
X117543796Y-92862331D01*
X117594091Y-92727483D01*
X117600500Y-92667873D01*
X117600499Y-90872128D01*
X117600499Y-90872127D01*
X117600499Y-90868807D01*
X117602284Y-90868807D01*
X117616588Y-90807606D01*
X117666747Y-90758967D01*
X117724493Y-90744700D01*
X120047852Y-90744700D01*
X120114891Y-90764385D01*
X120140000Y-90785726D01*
X120145726Y-90792085D01*
X120145730Y-90792089D01*
X120298865Y-90903348D01*
X120298870Y-90903351D01*
X120471792Y-90980342D01*
X120471797Y-90980344D01*
X120656954Y-91019700D01*
X120656955Y-91019700D01*
X120846244Y-91019700D01*
X120846246Y-91019700D01*
X121031403Y-90980344D01*
X121204330Y-90903351D01*
X121357471Y-90792088D01*
X121484133Y-90651416D01*
X121517015Y-90594463D01*
X121532428Y-90567767D01*
X121582995Y-90519551D01*
X121651602Y-90506328D01*
X121716467Y-90532296D01*
X121727495Y-90542085D01*
X123036410Y-91851001D01*
X124321197Y-93135788D01*
X124331022Y-93148051D01*
X124331243Y-93147869D01*
X124336214Y-93153878D01*
X124357110Y-93173500D01*
X124386635Y-93201226D01*
X124407529Y-93222120D01*
X124413011Y-93226373D01*
X124417443Y-93230157D01*
X124451418Y-93262062D01*
X124468976Y-93271714D01*
X124485233Y-93282393D01*
X124501064Y-93294673D01*
X124520737Y-93303186D01*
X124543833Y-93313182D01*
X124549077Y-93315750D01*
X124589908Y-93338197D01*
X124602523Y-93341435D01*
X124609305Y-93343177D01*
X124627719Y-93349481D01*
X124646104Y-93357438D01*
X124692153Y-93364731D01*
X124697835Y-93365908D01*
X124724111Y-93372655D01*
X124784148Y-93408392D01*
X124809455Y-93449425D01*
X124826202Y-93494328D01*
X124826206Y-93494335D01*
X124912452Y-93609544D01*
X124912455Y-93609547D01*
X125027664Y-93695793D01*
X125027671Y-93695797D01*
X125162517Y-93746091D01*
X125162516Y-93746091D01*
X125169444Y-93746835D01*
X125222127Y-93752500D01*
X126717872Y-93752499D01*
X126777483Y-93746091D01*
X126912331Y-93695796D01*
X127027546Y-93609546D01*
X127113796Y-93494331D01*
X127164091Y-93359483D01*
X127170500Y-93299873D01*
X127170499Y-92903064D01*
X127190183Y-92836027D01*
X127242987Y-92790272D01*
X127312146Y-92780328D01*
X127337828Y-92786882D01*
X127362517Y-92796091D01*
X127422127Y-92802500D01*
X128128480Y-92802499D01*
X128195519Y-92822183D01*
X128216161Y-92838818D01*
X128596399Y-93219056D01*
X128598935Y-93221750D01*
X128640071Y-93268183D01*
X128651996Y-93276414D01*
X128691110Y-93303413D01*
X128694127Y-93305633D01*
X128742938Y-93343874D01*
X128742943Y-93343877D01*
X128752174Y-93348031D01*
X128771727Y-93359059D01*
X128780070Y-93364818D01*
X128826708Y-93382505D01*
X128838057Y-93386809D01*
X128841512Y-93388239D01*
X128871093Y-93401553D01*
X128898063Y-93413692D01*
X128898064Y-93413692D01*
X128898068Y-93413694D01*
X128908030Y-93415519D01*
X128929651Y-93421546D01*
X128939125Y-93425139D01*
X128939128Y-93425140D01*
X128955871Y-93427173D01*
X129000689Y-93432615D01*
X129004386Y-93433177D01*
X129065394Y-93444357D01*
X129065395Y-93444356D01*
X129065396Y-93444357D01*
X129127293Y-93440613D01*
X129131037Y-93440500D01*
X129507098Y-93440500D01*
X129574137Y-93460185D01*
X129585757Y-93468642D01*
X129617063Y-93494335D01*
X129716460Y-93575909D01*
X129716467Y-93575913D01*
X129890266Y-93668811D01*
X129890269Y-93668811D01*
X129890273Y-93668814D01*
X130078868Y-93726024D01*
X130275000Y-93745341D01*
X130471132Y-93726024D01*
X130659727Y-93668814D01*
X130660968Y-93668151D01*
X130770608Y-93609547D01*
X130833538Y-93575910D01*
X130985883Y-93450883D01*
X131110910Y-93298538D01*
X131177744Y-93173500D01*
X131203811Y-93124733D01*
X131203811Y-93124732D01*
X131203814Y-93124727D01*
X131261024Y-92936132D01*
X131280341Y-92740000D01*
X131261024Y-92543868D01*
X131203814Y-92355273D01*
X131203811Y-92355269D01*
X131203811Y-92355266D01*
X131110913Y-92181467D01*
X131110909Y-92181460D01*
X130985883Y-92029116D01*
X130833539Y-91904090D01*
X130833532Y-91904086D01*
X130659733Y-91811188D01*
X130659727Y-91811186D01*
X130471132Y-91753976D01*
X130471129Y-91753975D01*
X130275000Y-91734659D01*
X130078870Y-91753975D01*
X129890266Y-91811188D01*
X129716467Y-91904086D01*
X129716460Y-91904090D01*
X129639793Y-91967011D01*
X129585761Y-92011353D01*
X129521454Y-92038666D01*
X129507098Y-92039500D01*
X129494499Y-92039500D01*
X129427460Y-92019815D01*
X129381705Y-91967011D01*
X129370499Y-91915500D01*
X129370499Y-91254129D01*
X129370498Y-91254123D01*
X129369622Y-91245977D01*
X129364091Y-91194517D01*
X129346626Y-91147692D01*
X129313797Y-91059671D01*
X129313793Y-91059664D01*
X129227547Y-90944455D01*
X129227544Y-90944452D01*
X129112335Y-90858206D01*
X129112328Y-90858202D01*
X128977482Y-90807908D01*
X128977483Y-90807908D01*
X128917883Y-90801501D01*
X128917881Y-90801500D01*
X128917873Y-90801500D01*
X128917864Y-90801500D01*
X127422129Y-90801500D01*
X127422123Y-90801501D01*
X127362517Y-90807908D01*
X127337830Y-90817116D01*
X127268138Y-90822099D01*
X127206816Y-90788612D01*
X127173332Y-90727288D01*
X127170499Y-90700933D01*
X127170499Y-90304129D01*
X127170498Y-90304123D01*
X127170497Y-90304116D01*
X127164379Y-90247192D01*
X127164091Y-90244516D01*
X127113797Y-90109671D01*
X127113793Y-90109664D01*
X127027547Y-89994455D01*
X127027544Y-89994452D01*
X126912335Y-89908206D01*
X126912328Y-89908202D01*
X126777482Y-89857908D01*
X126777483Y-89857908D01*
X126717883Y-89851501D01*
X126717881Y-89851500D01*
X126717873Y-89851500D01*
X126717864Y-89851500D01*
X125222129Y-89851500D01*
X125222123Y-89851501D01*
X125162516Y-89857908D01*
X125027671Y-89908202D01*
X125027664Y-89908206D01*
X124912455Y-89994452D01*
X124912452Y-89994455D01*
X124826206Y-90109664D01*
X124826202Y-90109671D01*
X124775908Y-90244517D01*
X124771914Y-90281670D01*
X124769501Y-90304123D01*
X124769500Y-90304135D01*
X124769500Y-91399870D01*
X124769501Y-91399876D01*
X124775909Y-91459485D01*
X124791944Y-91502478D01*
X124796928Y-91572170D01*
X124763442Y-91633492D01*
X124702118Y-91666977D01*
X124632427Y-91661991D01*
X124588081Y-91633491D01*
X122648254Y-89693664D01*
X120478960Y-87524369D01*
X120445475Y-87463046D01*
X120443323Y-87449668D01*
X120425674Y-87281744D01*
X120367179Y-87101716D01*
X120272533Y-86937784D01*
X120145871Y-86797112D01*
X120145870Y-86797111D01*
X119992734Y-86685851D01*
X119992729Y-86685848D01*
X119819807Y-86608857D01*
X119819802Y-86608855D01*
X119674001Y-86577865D01*
X119634646Y-86569500D01*
X119445354Y-86569500D01*
X119412897Y-86576398D01*
X119260197Y-86608855D01*
X119260192Y-86608857D01*
X119087270Y-86685848D01*
X119087265Y-86685851D01*
X118934129Y-86797111D01*
X118807466Y-86937785D01*
X118712821Y-87101715D01*
X118712818Y-87101722D01*
X118666610Y-87243937D01*
X118654326Y-87281744D01*
X118634540Y-87470000D01*
X118654326Y-87658256D01*
X118654327Y-87658259D01*
X118712818Y-87838277D01*
X118712821Y-87838284D01*
X118807467Y-88002216D01*
X118855863Y-88055965D01*
X118934129Y-88142888D01*
X119087265Y-88254148D01*
X119087270Y-88254151D01*
X119260192Y-88331142D01*
X119260197Y-88331144D01*
X119445354Y-88370500D01*
X119504548Y-88370500D01*
X119571587Y-88390185D01*
X119592229Y-88406819D01*
X120325082Y-89139673D01*
X120358567Y-89200996D01*
X120353583Y-89270688D01*
X120311711Y-89326621D01*
X120299415Y-89334733D01*
X120298874Y-89335045D01*
X120145730Y-89446310D01*
X120145726Y-89446314D01*
X120140000Y-89452674D01*
X120080513Y-89489321D01*
X120047852Y-89493700D01*
X117717910Y-89493700D01*
X117650871Y-89474015D01*
X117605116Y-89421211D01*
X117594382Y-89358892D01*
X117596469Y-89335045D01*
X117605659Y-89230000D01*
X117605261Y-89225456D01*
X117593612Y-89092305D01*
X117585063Y-88994592D01*
X117536621Y-88813802D01*
X117523905Y-88766344D01*
X117523904Y-88766343D01*
X117523903Y-88766337D01*
X117424035Y-88552171D01*
X117409713Y-88531716D01*
X117288494Y-88358597D01*
X117121402Y-88191506D01*
X117121395Y-88191501D01*
X117114374Y-88186585D01*
X117082521Y-88164281D01*
X116927834Y-88055967D01*
X116927831Y-88055965D01*
X116927830Y-88055965D01*
X116873643Y-88030697D01*
X116761095Y-87978214D01*
X116708656Y-87932041D01*
X116689500Y-87865832D01*
X116689500Y-85780741D01*
X116709185Y-85713702D01*
X116761989Y-85667947D01*
X116831147Y-85658003D01*
X116839266Y-85659448D01*
X116985354Y-85690500D01*
X116985355Y-85690500D01*
X117174644Y-85690500D01*
X117174646Y-85690500D01*
X117359803Y-85651144D01*
X117532730Y-85574151D01*
X117685871Y-85462888D01*
X117812533Y-85322216D01*
X117907179Y-85158284D01*
X117965674Y-84978256D01*
X117985460Y-84790000D01*
X117983253Y-84769000D01*
X120550341Y-84769000D01*
X120570936Y-85004403D01*
X120570938Y-85004413D01*
X120632094Y-85232655D01*
X120632096Y-85232659D01*
X120632097Y-85232663D01*
X120703747Y-85386317D01*
X120731965Y-85446830D01*
X120731967Y-85446834D01*
X120821114Y-85574148D01*
X120867505Y-85640401D01*
X121034599Y-85807495D01*
X121047834Y-85816762D01*
X121228165Y-85943032D01*
X121228167Y-85943033D01*
X121228170Y-85943035D01*
X121442337Y-86042903D01*
X121670592Y-86104063D01*
X121858918Y-86120539D01*
X121905999Y-86124659D01*
X121906000Y-86124659D01*
X121906001Y-86124659D01*
X121945234Y-86121226D01*
X122141408Y-86104063D01*
X122369663Y-86042903D01*
X122583830Y-85943035D01*
X122777401Y-85807495D01*
X122944495Y-85640401D01*
X123074425Y-85454842D01*
X123129002Y-85411217D01*
X123198500Y-85404023D01*
X123260855Y-85435546D01*
X123277575Y-85454842D01*
X123407500Y-85640395D01*
X123407505Y-85640401D01*
X123574599Y-85807495D01*
X123587834Y-85816762D01*
X123768165Y-85943032D01*
X123768167Y-85943033D01*
X123768170Y-85943035D01*
X123982337Y-86042903D01*
X124210592Y-86104063D01*
X124398918Y-86120539D01*
X124445999Y-86124659D01*
X124446000Y-86124659D01*
X124446001Y-86124659D01*
X124485234Y-86121226D01*
X124681408Y-86104063D01*
X124909663Y-86042903D01*
X125123830Y-85943035D01*
X125317401Y-85807495D01*
X125484495Y-85640401D01*
X125614425Y-85454842D01*
X125669002Y-85411217D01*
X125738500Y-85404023D01*
X125800855Y-85435546D01*
X125817575Y-85454842D01*
X125947500Y-85640395D01*
X125947505Y-85640401D01*
X126114599Y-85807495D01*
X126127834Y-85816762D01*
X126308165Y-85943032D01*
X126308167Y-85943033D01*
X126308170Y-85943035D01*
X126522337Y-86042903D01*
X126750592Y-86104063D01*
X126938918Y-86120539D01*
X126985999Y-86124659D01*
X126986000Y-86124659D01*
X126986001Y-86124659D01*
X127025234Y-86121226D01*
X127221408Y-86104063D01*
X127449663Y-86042903D01*
X127663830Y-85943035D01*
X127857401Y-85807495D01*
X128024495Y-85640401D01*
X128154425Y-85454842D01*
X128209002Y-85411217D01*
X128278500Y-85404023D01*
X128340855Y-85435546D01*
X128357575Y-85454842D01*
X128487500Y-85640395D01*
X128487505Y-85640401D01*
X128654599Y-85807495D01*
X128667834Y-85816762D01*
X128848165Y-85943032D01*
X128848167Y-85943033D01*
X128848170Y-85943035D01*
X129062337Y-86042903D01*
X129290592Y-86104063D01*
X129478918Y-86120539D01*
X129525999Y-86124659D01*
X129526000Y-86124659D01*
X129526001Y-86124659D01*
X129565234Y-86121226D01*
X129761408Y-86104063D01*
X129989663Y-86042903D01*
X130203830Y-85943035D01*
X130397401Y-85807495D01*
X130564495Y-85640401D01*
X130694425Y-85454842D01*
X130749002Y-85411217D01*
X130818500Y-85404023D01*
X130880855Y-85435546D01*
X130897575Y-85454842D01*
X131027500Y-85640395D01*
X131027505Y-85640401D01*
X131194599Y-85807495D01*
X131207834Y-85816762D01*
X131388165Y-85943032D01*
X131388167Y-85943033D01*
X131388170Y-85943035D01*
X131602337Y-86042903D01*
X131830592Y-86104063D01*
X132018918Y-86120539D01*
X132065999Y-86124659D01*
X132066000Y-86124659D01*
X132066001Y-86124659D01*
X132105234Y-86121226D01*
X132301408Y-86104063D01*
X132529663Y-86042903D01*
X132743830Y-85943035D01*
X132937401Y-85807495D01*
X133104495Y-85640401D01*
X133240035Y-85446830D01*
X133339903Y-85232663D01*
X133401063Y-85004408D01*
X133421659Y-84769000D01*
X133401063Y-84533592D01*
X133354461Y-84359670D01*
X133339905Y-84305344D01*
X133339904Y-84305343D01*
X133339903Y-84305337D01*
X133240035Y-84091171D01*
X133234424Y-84083158D01*
X133104496Y-83897600D01*
X133083660Y-83876764D01*
X132982567Y-83775671D01*
X132949084Y-83714351D01*
X132954068Y-83644659D01*
X132995939Y-83588725D01*
X133026915Y-83571810D01*
X133158331Y-83522796D01*
X133273546Y-83436546D01*
X133359796Y-83321331D01*
X133410091Y-83186483D01*
X133416500Y-83126873D01*
X133416499Y-81331128D01*
X133410091Y-81271517D01*
X133408810Y-81268083D01*
X133394262Y-81229078D01*
X136636292Y-81229078D01*
X136636293Y-81229084D01*
X136642700Y-81288691D01*
X136692994Y-81423536D01*
X136692998Y-81423543D01*
X136779244Y-81538752D01*
X136779247Y-81538755D01*
X136894456Y-81625001D01*
X136894463Y-81625005D01*
X137029309Y-81675299D01*
X137029308Y-81675299D01*
X137036236Y-81676043D01*
X137088919Y-81681708D01*
X138884664Y-81681707D01*
X138944275Y-81675299D01*
X139079123Y-81625004D01*
X139194338Y-81538754D01*
X139280588Y-81423539D01*
X139330883Y-81288691D01*
X139337292Y-81229081D01*
X139337291Y-79433336D01*
X139330883Y-79373725D01*
X139289025Y-79261499D01*
X139280589Y-79238879D01*
X139280585Y-79238872D01*
X139194339Y-79123663D01*
X139194336Y-79123660D01*
X139079127Y-79037414D01*
X139079120Y-79037410D01*
X138944274Y-78987116D01*
X138944275Y-78987116D01*
X138884675Y-78980709D01*
X138884673Y-78980708D01*
X138884665Y-78980708D01*
X138884656Y-78980708D01*
X137088921Y-78980708D01*
X137088915Y-78980709D01*
X137029308Y-78987116D01*
X136894463Y-79037410D01*
X136894456Y-79037414D01*
X136779247Y-79123660D01*
X136779244Y-79123663D01*
X136692998Y-79238872D01*
X136692994Y-79238879D01*
X136642700Y-79373725D01*
X136636869Y-79427967D01*
X136636293Y-79433331D01*
X136636292Y-79433343D01*
X136636292Y-81229078D01*
X133394262Y-81229078D01*
X133359797Y-81136671D01*
X133359793Y-81136664D01*
X133273547Y-81021455D01*
X133273544Y-81021452D01*
X133158335Y-80935206D01*
X133158328Y-80935202D01*
X133023482Y-80884908D01*
X133023483Y-80884908D01*
X132963883Y-80878501D01*
X132963881Y-80878500D01*
X132963873Y-80878500D01*
X132963864Y-80878500D01*
X131168129Y-80878500D01*
X131168123Y-80878501D01*
X131108516Y-80884908D01*
X130973671Y-80935202D01*
X130973664Y-80935206D01*
X130858455Y-81021452D01*
X130858452Y-81021455D01*
X130772206Y-81136664D01*
X130772203Y-81136669D01*
X130723189Y-81268083D01*
X130681317Y-81324016D01*
X130615853Y-81348433D01*
X130547580Y-81333581D01*
X130519326Y-81312430D01*
X130397402Y-81190506D01*
X130397395Y-81190501D01*
X130203834Y-81054967D01*
X130203830Y-81054965D01*
X130203828Y-81054964D01*
X129989663Y-80955097D01*
X129989659Y-80955096D01*
X129989655Y-80955094D01*
X129761413Y-80893938D01*
X129761403Y-80893936D01*
X129526001Y-80873341D01*
X129525999Y-80873341D01*
X129290596Y-80893936D01*
X129290586Y-80893938D01*
X129062344Y-80955094D01*
X129062335Y-80955098D01*
X128848171Y-81054964D01*
X128848169Y-81054965D01*
X128654597Y-81190505D01*
X128487505Y-81357597D01*
X128357575Y-81543158D01*
X128302998Y-81586783D01*
X128233500Y-81593977D01*
X128171145Y-81562454D01*
X128154425Y-81543158D01*
X128024494Y-81357597D01*
X127857402Y-81190506D01*
X127857395Y-81190501D01*
X127663834Y-81054967D01*
X127663830Y-81054965D01*
X127663828Y-81054964D01*
X127449663Y-80955097D01*
X127449659Y-80955096D01*
X127449655Y-80955094D01*
X127221413Y-80893938D01*
X127221403Y-80893936D01*
X126986001Y-80873341D01*
X126985999Y-80873341D01*
X126750596Y-80893936D01*
X126750586Y-80893938D01*
X126522344Y-80955094D01*
X126522335Y-80955098D01*
X126308171Y-81054964D01*
X126308169Y-81054965D01*
X126114597Y-81190505D01*
X125947505Y-81357597D01*
X125817575Y-81543158D01*
X125762998Y-81586783D01*
X125693500Y-81593977D01*
X125631145Y-81562454D01*
X125614425Y-81543158D01*
X125484494Y-81357597D01*
X125317402Y-81190506D01*
X125317395Y-81190501D01*
X125123834Y-81054967D01*
X125123830Y-81054965D01*
X125123828Y-81054964D01*
X124909663Y-80955097D01*
X124909659Y-80955096D01*
X124909655Y-80955094D01*
X124681413Y-80893938D01*
X124681403Y-80893936D01*
X124446001Y-80873341D01*
X124445999Y-80873341D01*
X124210596Y-80893936D01*
X124210586Y-80893938D01*
X123982344Y-80955094D01*
X123982335Y-80955098D01*
X123768171Y-81054964D01*
X123768169Y-81054965D01*
X123574597Y-81190505D01*
X123407505Y-81357597D01*
X123277575Y-81543158D01*
X123222998Y-81586783D01*
X123153500Y-81593977D01*
X123091145Y-81562454D01*
X123074425Y-81543158D01*
X122944494Y-81357597D01*
X122777402Y-81190506D01*
X122777395Y-81190501D01*
X122583834Y-81054967D01*
X122583830Y-81054965D01*
X122583828Y-81054964D01*
X122369663Y-80955097D01*
X122369659Y-80955096D01*
X122369655Y-80955094D01*
X122141413Y-80893938D01*
X122141403Y-80893936D01*
X121906001Y-80873341D01*
X121905999Y-80873341D01*
X121670596Y-80893936D01*
X121670586Y-80893938D01*
X121442344Y-80955094D01*
X121442335Y-80955098D01*
X121228171Y-81054964D01*
X121228169Y-81054965D01*
X121034597Y-81190505D01*
X120867505Y-81357597D01*
X120731965Y-81551169D01*
X120731964Y-81551171D01*
X120632098Y-81765335D01*
X120632094Y-81765344D01*
X120570938Y-81993586D01*
X120570936Y-81993596D01*
X120550341Y-82228999D01*
X120550341Y-82229000D01*
X120570936Y-82464403D01*
X120570938Y-82464413D01*
X120632094Y-82692655D01*
X120632096Y-82692659D01*
X120632097Y-82692663D01*
X120636000Y-82701032D01*
X120731965Y-82906830D01*
X120731967Y-82906834D01*
X120808587Y-83016258D01*
X120867501Y-83100396D01*
X120867506Y-83100402D01*
X121034597Y-83267493D01*
X121034603Y-83267498D01*
X121220158Y-83397425D01*
X121263783Y-83452002D01*
X121270977Y-83521500D01*
X121239454Y-83583855D01*
X121220158Y-83600575D01*
X121034597Y-83730505D01*
X120867505Y-83897597D01*
X120731965Y-84091169D01*
X120731964Y-84091171D01*
X120632098Y-84305335D01*
X120632094Y-84305344D01*
X120570938Y-84533586D01*
X120570936Y-84533596D01*
X120550341Y-84768999D01*
X120550341Y-84769000D01*
X117983253Y-84769000D01*
X117965674Y-84601744D01*
X117907179Y-84421716D01*
X117812533Y-84257784D01*
X117737350Y-84174284D01*
X117707120Y-84111292D01*
X117705500Y-84091312D01*
X117705500Y-74998870D01*
X118523500Y-74998870D01*
X118523501Y-74998876D01*
X118529908Y-75058483D01*
X118580202Y-75193328D01*
X118580206Y-75193335D01*
X118666452Y-75308544D01*
X118666455Y-75308547D01*
X118781664Y-75394793D01*
X118781671Y-75394797D01*
X118916517Y-75445091D01*
X118916516Y-75445091D01*
X118923444Y-75445835D01*
X118976127Y-75451500D01*
X120771872Y-75451499D01*
X120831483Y-75445091D01*
X120966331Y-75394796D01*
X121081546Y-75308546D01*
X121167796Y-75193331D01*
X121216810Y-75061916D01*
X121258681Y-75005984D01*
X121324145Y-74981566D01*
X121392418Y-74996417D01*
X121420673Y-75017569D01*
X121542599Y-75139495D01*
X121639384Y-75207265D01*
X121736165Y-75275032D01*
X121736167Y-75275033D01*
X121736170Y-75275035D01*
X121950337Y-75374903D01*
X122178592Y-75436063D01*
X122355034Y-75451500D01*
X122413999Y-75456659D01*
X122414000Y-75456659D01*
X122414001Y-75456659D01*
X122472966Y-75451500D01*
X122649408Y-75436063D01*
X122877663Y-75374903D01*
X123091830Y-75275035D01*
X123285401Y-75139495D01*
X123452495Y-74972401D01*
X123582425Y-74786842D01*
X123637002Y-74743217D01*
X123706500Y-74736023D01*
X123768855Y-74767546D01*
X123785575Y-74786842D01*
X123915500Y-74972395D01*
X123915505Y-74972401D01*
X124082599Y-75139495D01*
X124179384Y-75207265D01*
X124276165Y-75275032D01*
X124276167Y-75275033D01*
X124276170Y-75275035D01*
X124490337Y-75374903D01*
X124718592Y-75436063D01*
X124895034Y-75451500D01*
X124953999Y-75456659D01*
X124954000Y-75456659D01*
X124954001Y-75456659D01*
X125012966Y-75451500D01*
X125189408Y-75436063D01*
X125417663Y-75374903D01*
X125631830Y-75275035D01*
X125825401Y-75139495D01*
X125992495Y-74972401D01*
X126122425Y-74786842D01*
X126177002Y-74743217D01*
X126246500Y-74736023D01*
X126308855Y-74767546D01*
X126325575Y-74786842D01*
X126455500Y-74972395D01*
X126455505Y-74972401D01*
X126622599Y-75139495D01*
X126719384Y-75207265D01*
X126816165Y-75275032D01*
X126816167Y-75275033D01*
X126816170Y-75275035D01*
X127030337Y-75374903D01*
X127258592Y-75436063D01*
X127435034Y-75451500D01*
X127493999Y-75456659D01*
X127494000Y-75456659D01*
X127494001Y-75456659D01*
X127552966Y-75451500D01*
X127729408Y-75436063D01*
X127957663Y-75374903D01*
X128171830Y-75275035D01*
X128365401Y-75139495D01*
X128532495Y-74972401D01*
X128662425Y-74786842D01*
X128717002Y-74743217D01*
X128786500Y-74736023D01*
X128848855Y-74767546D01*
X128865575Y-74786842D01*
X128995500Y-74972395D01*
X128995505Y-74972401D01*
X129162599Y-75139495D01*
X129259384Y-75207265D01*
X129356165Y-75275032D01*
X129356167Y-75275033D01*
X129356170Y-75275035D01*
X129570337Y-75374903D01*
X129798592Y-75436063D01*
X129975034Y-75451500D01*
X130033999Y-75456659D01*
X130034000Y-75456659D01*
X130034001Y-75456659D01*
X130092966Y-75451500D01*
X130269408Y-75436063D01*
X130497663Y-75374903D01*
X130711830Y-75275035D01*
X130905401Y-75139495D01*
X131072495Y-74972401D01*
X131202425Y-74786842D01*
X131257002Y-74743217D01*
X131326500Y-74736023D01*
X131388855Y-74767546D01*
X131405575Y-74786842D01*
X131535500Y-74972395D01*
X131535505Y-74972401D01*
X131702599Y-75139495D01*
X131799384Y-75207265D01*
X131896165Y-75275032D01*
X131896167Y-75275033D01*
X131896170Y-75275035D01*
X132110337Y-75374903D01*
X132338592Y-75436063D01*
X132515034Y-75451500D01*
X132573999Y-75456659D01*
X132574000Y-75456659D01*
X132574001Y-75456659D01*
X132632966Y-75451500D01*
X132809408Y-75436063D01*
X133037663Y-75374903D01*
X133251830Y-75275035D01*
X133445401Y-75139495D01*
X133612495Y-74972401D01*
X133742425Y-74786842D01*
X133797002Y-74743217D01*
X133866500Y-74736023D01*
X133928855Y-74767546D01*
X133945575Y-74786842D01*
X134075500Y-74972395D01*
X134075505Y-74972401D01*
X134242599Y-75139495D01*
X134339384Y-75207265D01*
X134436165Y-75275032D01*
X134436167Y-75275033D01*
X134436170Y-75275035D01*
X134650337Y-75374903D01*
X134878592Y-75436063D01*
X135055034Y-75451500D01*
X135113999Y-75456659D01*
X135114000Y-75456659D01*
X135114001Y-75456659D01*
X135172966Y-75451500D01*
X135349408Y-75436063D01*
X135577663Y-75374903D01*
X135791830Y-75275035D01*
X135985401Y-75139495D01*
X136152495Y-74972401D01*
X136282425Y-74786842D01*
X136337002Y-74743217D01*
X136406500Y-74736023D01*
X136468855Y-74767546D01*
X136485575Y-74786842D01*
X136615500Y-74972395D01*
X136615505Y-74972401D01*
X136782599Y-75139495D01*
X136879384Y-75207265D01*
X136976165Y-75275032D01*
X136976167Y-75275033D01*
X136976170Y-75275035D01*
X137190337Y-75374903D01*
X137418592Y-75436063D01*
X137595034Y-75451500D01*
X137653999Y-75456659D01*
X137654000Y-75456659D01*
X137654001Y-75456659D01*
X137712966Y-75451500D01*
X137889408Y-75436063D01*
X138117663Y-75374903D01*
X138331830Y-75275035D01*
X138525401Y-75139495D01*
X138692495Y-74972401D01*
X138828035Y-74778830D01*
X138927903Y-74564663D01*
X138989063Y-74336408D01*
X139009659Y-74101000D01*
X138989063Y-73865592D01*
X138927903Y-73637337D01*
X138828035Y-73423171D01*
X138822425Y-73415158D01*
X138692494Y-73229597D01*
X138525402Y-73062506D01*
X138525395Y-73062501D01*
X138331834Y-72926967D01*
X138331830Y-72926965D01*
X138331828Y-72926964D01*
X138117663Y-72827097D01*
X138117659Y-72827096D01*
X138117655Y-72827094D01*
X137889413Y-72765938D01*
X137889403Y-72765936D01*
X137654001Y-72745341D01*
X137653999Y-72745341D01*
X137418596Y-72765936D01*
X137418586Y-72765938D01*
X137190344Y-72827094D01*
X137190335Y-72827098D01*
X136976171Y-72926964D01*
X136976169Y-72926965D01*
X136782597Y-73062505D01*
X136615505Y-73229597D01*
X136485575Y-73415158D01*
X136430998Y-73458783D01*
X136361500Y-73465977D01*
X136299145Y-73434454D01*
X136282425Y-73415158D01*
X136152494Y-73229597D01*
X135985402Y-73062506D01*
X135985395Y-73062501D01*
X135791834Y-72926967D01*
X135791830Y-72926965D01*
X135791828Y-72926964D01*
X135577663Y-72827097D01*
X135577659Y-72827096D01*
X135577655Y-72827094D01*
X135349413Y-72765938D01*
X135349403Y-72765936D01*
X135114001Y-72745341D01*
X135113999Y-72745341D01*
X134878596Y-72765936D01*
X134878586Y-72765938D01*
X134650344Y-72827094D01*
X134650335Y-72827098D01*
X134436171Y-72926964D01*
X134436169Y-72926965D01*
X134242597Y-73062505D01*
X134075505Y-73229597D01*
X133945575Y-73415158D01*
X133890998Y-73458783D01*
X133821500Y-73465977D01*
X133759145Y-73434454D01*
X133742425Y-73415158D01*
X133612494Y-73229597D01*
X133445402Y-73062506D01*
X133445395Y-73062501D01*
X133251834Y-72926967D01*
X133251830Y-72926965D01*
X133251828Y-72926964D01*
X133037663Y-72827097D01*
X133037659Y-72827096D01*
X133037655Y-72827094D01*
X132809413Y-72765938D01*
X132809403Y-72765936D01*
X132574001Y-72745341D01*
X132573999Y-72745341D01*
X132338596Y-72765936D01*
X132338586Y-72765938D01*
X132110344Y-72827094D01*
X132110335Y-72827098D01*
X131896171Y-72926964D01*
X131896169Y-72926965D01*
X131702597Y-73062505D01*
X131535505Y-73229597D01*
X131405575Y-73415158D01*
X131350998Y-73458783D01*
X131281500Y-73465977D01*
X131219145Y-73434454D01*
X131202425Y-73415158D01*
X131072494Y-73229597D01*
X130905402Y-73062506D01*
X130905395Y-73062501D01*
X130711834Y-72926967D01*
X130711830Y-72926965D01*
X130711828Y-72926964D01*
X130497663Y-72827097D01*
X130497659Y-72827096D01*
X130497655Y-72827094D01*
X130269413Y-72765938D01*
X130269403Y-72765936D01*
X130034001Y-72745341D01*
X130033999Y-72745341D01*
X129798596Y-72765936D01*
X129798586Y-72765938D01*
X129570344Y-72827094D01*
X129570335Y-72827098D01*
X129356171Y-72926964D01*
X129356169Y-72926965D01*
X129162597Y-73062505D01*
X128995505Y-73229597D01*
X128865575Y-73415158D01*
X128810998Y-73458783D01*
X128741500Y-73465977D01*
X128679145Y-73434454D01*
X128662425Y-73415158D01*
X128532494Y-73229597D01*
X128365402Y-73062506D01*
X128365395Y-73062501D01*
X128171834Y-72926967D01*
X128171830Y-72926965D01*
X128171828Y-72926964D01*
X127957663Y-72827097D01*
X127957659Y-72827096D01*
X127957655Y-72827094D01*
X127729413Y-72765938D01*
X127729403Y-72765936D01*
X127494001Y-72745341D01*
X127493999Y-72745341D01*
X127258596Y-72765936D01*
X127258586Y-72765938D01*
X127030344Y-72827094D01*
X127030335Y-72827098D01*
X126816171Y-72926964D01*
X126816169Y-72926965D01*
X126622597Y-73062505D01*
X126455505Y-73229597D01*
X126325575Y-73415158D01*
X126270998Y-73458783D01*
X126201500Y-73465977D01*
X126139145Y-73434454D01*
X126122425Y-73415158D01*
X125992494Y-73229597D01*
X125825402Y-73062506D01*
X125825395Y-73062501D01*
X125631834Y-72926967D01*
X125631830Y-72926965D01*
X125631828Y-72926964D01*
X125417663Y-72827097D01*
X125417659Y-72827096D01*
X125417655Y-72827094D01*
X125189413Y-72765938D01*
X125189403Y-72765936D01*
X124954001Y-72745341D01*
X124953999Y-72745341D01*
X124718596Y-72765936D01*
X124718586Y-72765938D01*
X124490344Y-72827094D01*
X124490335Y-72827098D01*
X124276171Y-72926964D01*
X124276169Y-72926965D01*
X124082597Y-73062505D01*
X123915505Y-73229597D01*
X123785575Y-73415158D01*
X123730998Y-73458783D01*
X123661500Y-73465977D01*
X123599145Y-73434454D01*
X123582425Y-73415158D01*
X123452494Y-73229597D01*
X123285402Y-73062506D01*
X123285395Y-73062501D01*
X123091834Y-72926967D01*
X123091830Y-72926965D01*
X123091828Y-72926964D01*
X122877663Y-72827097D01*
X122877659Y-72827096D01*
X122877655Y-72827094D01*
X122649413Y-72765938D01*
X122649403Y-72765936D01*
X122414001Y-72745341D01*
X122413999Y-72745341D01*
X122178596Y-72765936D01*
X122178586Y-72765938D01*
X121950344Y-72827094D01*
X121950335Y-72827098D01*
X121736171Y-72926964D01*
X121736169Y-72926965D01*
X121542600Y-73062503D01*
X121420673Y-73184430D01*
X121359350Y-73217914D01*
X121289658Y-73212930D01*
X121233725Y-73171058D01*
X121216810Y-73140081D01*
X121167797Y-73008671D01*
X121167793Y-73008664D01*
X121081547Y-72893455D01*
X121081544Y-72893452D01*
X120966335Y-72807206D01*
X120966328Y-72807202D01*
X120831482Y-72756908D01*
X120831483Y-72756908D01*
X120771883Y-72750501D01*
X120771881Y-72750500D01*
X120771873Y-72750500D01*
X120771864Y-72750500D01*
X118976129Y-72750500D01*
X118976123Y-72750501D01*
X118916516Y-72756908D01*
X118781671Y-72807202D01*
X118781664Y-72807206D01*
X118666455Y-72893452D01*
X118666452Y-72893455D01*
X118580206Y-73008664D01*
X118580202Y-73008671D01*
X118529908Y-73143517D01*
X118523501Y-73203116D01*
X118523500Y-73203135D01*
X118523500Y-74998870D01*
X117705500Y-74998870D01*
X117705500Y-70080452D01*
X117725185Y-70013413D01*
X117741819Y-69992771D01*
X122594591Y-65140000D01*
X154284785Y-65140000D01*
X154303602Y-65343082D01*
X154359417Y-65539247D01*
X154359422Y-65539260D01*
X154450324Y-65721814D01*
X154450327Y-65721821D01*
X154533454Y-65831899D01*
X154558146Y-65897259D01*
X154558500Y-65906625D01*
X154558500Y-97255639D01*
X154538815Y-97322678D01*
X154533454Y-97330365D01*
X154494328Y-97382175D01*
X154403422Y-97564739D01*
X154403417Y-97564752D01*
X154347602Y-97760917D01*
X154328785Y-97963999D01*
X154328785Y-97964000D01*
X154347602Y-98167082D01*
X154403417Y-98363247D01*
X154403422Y-98363260D01*
X154494327Y-98545821D01*
X154617237Y-98708581D01*
X154767958Y-98845980D01*
X154767960Y-98845982D01*
X154858611Y-98902110D01*
X154941363Y-98953348D01*
X155131544Y-99027024D01*
X155332024Y-99064500D01*
X155332026Y-99064500D01*
X155535974Y-99064500D01*
X155535976Y-99064500D01*
X155736456Y-99027024D01*
X155926637Y-98953348D01*
X156100041Y-98845981D01*
X156250764Y-98708579D01*
X156373673Y-98545821D01*
X156464582Y-98363250D01*
X156520397Y-98167083D01*
X156539215Y-97964000D01*
X156520397Y-97760917D01*
X156464582Y-97564750D01*
X156421979Y-97479192D01*
X156373671Y-97382175D01*
X156334546Y-97330365D01*
X156309854Y-97265004D01*
X156309500Y-97255639D01*
X156309500Y-65789682D01*
X156327319Y-65727052D01*
X156327118Y-65726952D01*
X156327655Y-65725872D01*
X156328074Y-65724402D01*
X156329665Y-65721830D01*
X156329673Y-65721821D01*
X156420582Y-65539250D01*
X156476397Y-65343083D01*
X156495215Y-65140000D01*
X156476397Y-64936917D01*
X156420582Y-64740750D01*
X156329673Y-64558179D01*
X156206764Y-64395421D01*
X156206762Y-64395418D01*
X156056041Y-64258019D01*
X156056039Y-64258017D01*
X155882642Y-64150655D01*
X155882635Y-64150651D01*
X155787546Y-64113814D01*
X155692456Y-64076976D01*
X155491976Y-64039500D01*
X155288024Y-64039500D01*
X155087544Y-64076976D01*
X155087541Y-64076976D01*
X155087541Y-64076977D01*
X154897364Y-64150651D01*
X154897357Y-64150655D01*
X154723960Y-64258017D01*
X154723958Y-64258019D01*
X154573237Y-64395418D01*
X154450327Y-64558178D01*
X154359422Y-64740739D01*
X154359417Y-64740752D01*
X154303602Y-64936917D01*
X154284785Y-65139999D01*
X154284785Y-65140000D01*
X122594591Y-65140000D01*
X125409772Y-62324819D01*
X125471095Y-62291334D01*
X125497453Y-62288500D01*
X125556644Y-62288500D01*
X125556646Y-62288500D01*
X125741803Y-62249144D01*
X125914730Y-62172151D01*
X126067871Y-62060888D01*
X126194533Y-61920216D01*
X126289179Y-61756284D01*
X126347674Y-61576256D01*
X126367460Y-61388000D01*
X126347674Y-61199744D01*
X126289179Y-61019716D01*
X126194533Y-60855784D01*
X126067871Y-60715112D01*
X126067870Y-60715111D01*
X125914734Y-60603851D01*
X125914729Y-60603848D01*
X125741807Y-60526857D01*
X125741802Y-60526855D01*
X125596001Y-60495865D01*
X125556646Y-60487500D01*
X125367354Y-60487500D01*
X125334897Y-60494398D01*
X125182197Y-60526855D01*
X125182192Y-60526857D01*
X125009270Y-60603848D01*
X125009265Y-60603851D01*
X124856129Y-60715111D01*
X124729466Y-60855785D01*
X124634821Y-61019715D01*
X124634818Y-61019722D01*
X124576327Y-61199740D01*
X124576326Y-61199744D01*
X124568405Y-61275105D01*
X124558678Y-61367651D01*
X124532093Y-61432266D01*
X124523038Y-61442370D01*
X116696208Y-69269199D01*
X116683951Y-69279020D01*
X116684134Y-69279241D01*
X116678123Y-69284213D01*
X116630772Y-69334636D01*
X116609889Y-69355519D01*
X116609877Y-69355532D01*
X116605621Y-69361017D01*
X116601837Y-69365447D01*
X116569937Y-69399418D01*
X116569936Y-69399420D01*
X116560284Y-69416976D01*
X116549610Y-69433226D01*
X116537329Y-69449061D01*
X116537324Y-69449068D01*
X116518815Y-69491838D01*
X116516245Y-69497084D01*
X116493803Y-69537906D01*
X116488822Y-69557307D01*
X116482521Y-69575710D01*
X116474562Y-69594102D01*
X116474561Y-69594105D01*
X116467271Y-69640127D01*
X116466087Y-69645846D01*
X116454501Y-69690972D01*
X116454500Y-69690982D01*
X116454500Y-69711016D01*
X116452973Y-69730415D01*
X116449840Y-69750194D01*
X116449840Y-69750195D01*
X116454225Y-69796583D01*
X116454500Y-69802421D01*
X116454500Y-83016258D01*
X116434815Y-83083297D01*
X116382011Y-83129052D01*
X116312853Y-83138996D01*
X116304720Y-83137548D01*
X116158647Y-83106500D01*
X116158646Y-83106500D01*
X115969354Y-83106500D01*
X115943083Y-83112084D01*
X115784197Y-83145855D01*
X115784192Y-83145857D01*
X115611270Y-83222848D01*
X115611265Y-83222851D01*
X115458129Y-83334111D01*
X115331466Y-83474785D01*
X115236821Y-83638715D01*
X115236818Y-83638722D01*
X115178327Y-83818740D01*
X115178326Y-83818744D01*
X115158540Y-84007000D01*
X115178326Y-84195256D01*
X115178327Y-84195259D01*
X115236818Y-84375277D01*
X115236821Y-84375284D01*
X115331467Y-84539216D01*
X115364305Y-84575686D01*
X115406650Y-84622715D01*
X115436880Y-84685706D01*
X115438500Y-84705687D01*
X115438500Y-88085011D01*
X115418815Y-88152050D01*
X115385625Y-88186585D01*
X115378596Y-88191506D01*
X115211505Y-88358597D01*
X115075965Y-88552169D01*
X115075964Y-88552171D01*
X114976098Y-88766335D01*
X114976094Y-88766344D01*
X114914938Y-88994586D01*
X114914936Y-88994596D01*
X114894341Y-89229999D01*
X114894341Y-89230000D01*
X113387500Y-89230000D01*
X113387500Y-77834687D01*
X113407185Y-77767648D01*
X113419350Y-77751715D01*
X113437891Y-77731122D01*
X113494533Y-77668216D01*
X113589179Y-77504284D01*
X113647674Y-77324256D01*
X113667460Y-77136000D01*
X113647674Y-76947744D01*
X113589179Y-76767716D01*
X113494533Y-76603784D01*
X113367871Y-76463112D01*
X113349912Y-76450064D01*
X113214734Y-76351851D01*
X113214729Y-76351848D01*
X113041807Y-76274857D01*
X113041802Y-76274855D01*
X112894693Y-76243587D01*
X112856646Y-76235500D01*
X112667354Y-76235500D01*
X112634897Y-76242398D01*
X112482197Y-76274855D01*
X112482192Y-76274857D01*
X112309270Y-76351848D01*
X112309265Y-76351851D01*
X112156129Y-76463111D01*
X112029466Y-76603785D01*
X111934821Y-76767715D01*
X111934818Y-76767722D01*
X111876327Y-76947740D01*
X111876326Y-76947744D01*
X111856540Y-77136000D01*
X111876326Y-77324256D01*
X111876327Y-77324259D01*
X111934818Y-77504277D01*
X111934821Y-77504284D01*
X112029467Y-77668216D01*
X112072772Y-77716310D01*
X112104650Y-77751715D01*
X112134880Y-77814706D01*
X112136500Y-77834687D01*
X112136500Y-96929547D01*
X112116815Y-96996586D01*
X112064011Y-97042341D01*
X111994853Y-97052285D01*
X111931297Y-97023260D01*
X111924819Y-97017228D01*
X111562237Y-96654646D01*
X111528752Y-96593323D01*
X111530142Y-96534876D01*
X111557063Y-96434408D01*
X111577659Y-96199000D01*
X111557063Y-95963592D01*
X111501468Y-95756105D01*
X111495905Y-95735344D01*
X111495904Y-95735343D01*
X111495903Y-95735337D01*
X111396035Y-95521171D01*
X111390425Y-95513158D01*
X111260494Y-95327597D01*
X111093402Y-95160506D01*
X111093396Y-95160501D01*
X110907842Y-95030575D01*
X110864217Y-94975998D01*
X110857023Y-94906500D01*
X110888546Y-94844145D01*
X110907842Y-94827425D01*
X110998262Y-94764112D01*
X111093401Y-94697495D01*
X111260495Y-94530401D01*
X111396035Y-94336830D01*
X111495903Y-94122663D01*
X111557063Y-93894408D01*
X111577659Y-93659000D01*
X111557063Y-93423592D01*
X111495903Y-93195337D01*
X111396035Y-92981171D01*
X111393498Y-92977547D01*
X111260494Y-92787597D01*
X111093402Y-92620506D01*
X111093396Y-92620501D01*
X110907842Y-92490575D01*
X110864217Y-92435998D01*
X110857023Y-92366500D01*
X110888546Y-92304145D01*
X110907842Y-92287425D01*
X111059165Y-92181467D01*
X111093401Y-92157495D01*
X111260495Y-91990401D01*
X111396035Y-91796830D01*
X111495903Y-91582663D01*
X111557063Y-91354408D01*
X111577659Y-91119000D01*
X111557063Y-90883592D01*
X111501887Y-90677669D01*
X111495905Y-90655344D01*
X111495904Y-90655343D01*
X111495903Y-90655337D01*
X111396035Y-90441171D01*
X111390425Y-90433158D01*
X111260494Y-90247597D01*
X111093402Y-90080506D01*
X111093396Y-90080501D01*
X110907842Y-89950575D01*
X110864217Y-89895998D01*
X110857023Y-89826500D01*
X110888546Y-89764145D01*
X110907842Y-89747425D01*
X110998206Y-89684151D01*
X111093401Y-89617495D01*
X111260495Y-89450401D01*
X111396035Y-89256830D01*
X111495903Y-89042663D01*
X111557063Y-88814408D01*
X111577659Y-88579000D01*
X111557063Y-88343592D01*
X111495903Y-88115337D01*
X111396035Y-87901171D01*
X111371291Y-87865832D01*
X111260494Y-87707597D01*
X111093402Y-87540506D01*
X111093395Y-87540501D01*
X110899834Y-87404967D01*
X110899830Y-87404965D01*
X110899828Y-87404964D01*
X110685663Y-87305097D01*
X110685659Y-87305096D01*
X110685655Y-87305094D01*
X110457413Y-87243938D01*
X110457403Y-87243936D01*
X110222001Y-87223341D01*
X110221999Y-87223341D01*
X109986596Y-87243936D01*
X109986586Y-87243938D01*
X109758344Y-87305094D01*
X109758335Y-87305098D01*
X109544171Y-87404964D01*
X109544169Y-87404965D01*
X109350600Y-87540503D01*
X109228673Y-87662430D01*
X109167350Y-87695914D01*
X109097658Y-87690930D01*
X109041725Y-87649058D01*
X109024810Y-87618081D01*
X108975797Y-87486671D01*
X108975793Y-87486664D01*
X108889547Y-87371455D01*
X108889544Y-87371452D01*
X108774335Y-87285206D01*
X108774328Y-87285202D01*
X108639482Y-87234908D01*
X108639483Y-87234908D01*
X108579883Y-87228501D01*
X108579881Y-87228500D01*
X108579873Y-87228500D01*
X108579864Y-87228500D01*
X106784129Y-87228500D01*
X106784123Y-87228501D01*
X106724516Y-87234908D01*
X106589671Y-87285202D01*
X106589664Y-87285206D01*
X106474455Y-87371452D01*
X106474452Y-87371455D01*
X106388206Y-87486664D01*
X106388202Y-87486671D01*
X106337908Y-87621517D01*
X106331501Y-87681116D01*
X106331500Y-87681135D01*
X106331500Y-89476870D01*
X106331501Y-89476876D01*
X106337908Y-89536483D01*
X106388202Y-89671328D01*
X106388206Y-89671335D01*
X106474452Y-89786544D01*
X106474455Y-89786547D01*
X106589664Y-89872793D01*
X106589671Y-89872797D01*
X106721081Y-89921810D01*
X106777015Y-89963681D01*
X106801432Y-90029145D01*
X106786580Y-90097418D01*
X106765430Y-90125673D01*
X106643503Y-90247600D01*
X106507965Y-90441169D01*
X106507964Y-90441171D01*
X106408098Y-90655335D01*
X106408094Y-90655344D01*
X106346938Y-90883586D01*
X106346936Y-90883596D01*
X106326341Y-91118999D01*
X106326341Y-91119000D01*
X106346936Y-91354403D01*
X106346938Y-91354413D01*
X106408094Y-91582655D01*
X106408096Y-91582659D01*
X106408097Y-91582663D01*
X106467264Y-91709546D01*
X106507965Y-91796830D01*
X106507967Y-91796834D01*
X106583069Y-91904090D01*
X106643501Y-91990396D01*
X106643506Y-91990402D01*
X106810597Y-92157493D01*
X106810603Y-92157498D01*
X106996158Y-92287425D01*
X107039783Y-92342002D01*
X107046977Y-92411500D01*
X107015454Y-92473855D01*
X106996158Y-92490575D01*
X106810597Y-92620505D01*
X106643505Y-92787597D01*
X106507965Y-92981169D01*
X106507964Y-92981171D01*
X106408098Y-93195335D01*
X106408094Y-93195344D01*
X106346938Y-93423586D01*
X106346936Y-93423596D01*
X106326341Y-93658999D01*
X106326341Y-93659000D01*
X106346936Y-93894403D01*
X106346938Y-93894413D01*
X106408094Y-94122655D01*
X106408096Y-94122659D01*
X106408097Y-94122663D01*
X106488004Y-94294023D01*
X106507965Y-94336830D01*
X106507967Y-94336834D01*
X106609460Y-94481780D01*
X106643501Y-94530396D01*
X106643506Y-94530402D01*
X106810597Y-94697493D01*
X106810603Y-94697498D01*
X106996158Y-94827425D01*
X107039783Y-94882002D01*
X107046977Y-94951500D01*
X107015454Y-95013855D01*
X106996158Y-95030575D01*
X106810597Y-95160505D01*
X106643505Y-95327597D01*
X106507965Y-95521169D01*
X106507964Y-95521171D01*
X106408098Y-95735335D01*
X106408094Y-95735344D01*
X106346938Y-95963586D01*
X106346936Y-95963596D01*
X106326341Y-96198999D01*
X106326341Y-96199000D01*
X106346936Y-96434403D01*
X106346938Y-96434413D01*
X106408094Y-96662655D01*
X106408096Y-96662659D01*
X106408097Y-96662663D01*
X106488004Y-96834023D01*
X106507965Y-96876830D01*
X106507967Y-96876834D01*
X106591819Y-96996586D01*
X106643501Y-97070396D01*
X106643506Y-97070402D01*
X106810597Y-97237493D01*
X106810603Y-97237498D01*
X106996158Y-97367425D01*
X107039783Y-97422002D01*
X107046977Y-97491500D01*
X107015454Y-97553855D01*
X106996158Y-97570575D01*
X106810597Y-97700505D01*
X106643505Y-97867597D01*
X106507965Y-98061169D01*
X106507964Y-98061171D01*
X106408098Y-98275335D01*
X106408094Y-98275344D01*
X106346938Y-98503586D01*
X106346936Y-98503596D01*
X106326341Y-98738999D01*
X106326341Y-98739000D01*
X106346936Y-98974403D01*
X106346938Y-98974413D01*
X106408094Y-99202655D01*
X106408096Y-99202659D01*
X106408097Y-99202663D01*
X106507965Y-99416830D01*
X106507967Y-99416834D01*
X106643501Y-99610395D01*
X106643506Y-99610402D01*
X106810597Y-99777493D01*
X106810603Y-99777498D01*
X106996158Y-99907425D01*
X107039783Y-99962002D01*
X107046977Y-100031500D01*
X107015454Y-100093855D01*
X106996158Y-100110575D01*
X106810597Y-100240505D01*
X106643505Y-100407597D01*
X106507965Y-100601169D01*
X106507964Y-100601171D01*
X106408098Y-100815335D01*
X106408094Y-100815344D01*
X106346938Y-101043586D01*
X106346936Y-101043596D01*
X106326341Y-101278999D01*
X106326341Y-101279000D01*
X106346936Y-101514403D01*
X106346938Y-101514413D01*
X106408094Y-101742655D01*
X106408096Y-101742659D01*
X106408097Y-101742663D01*
X106452416Y-101837705D01*
X106507965Y-101956830D01*
X106507967Y-101956834D01*
X106643501Y-102150395D01*
X106643506Y-102150402D01*
X106810597Y-102317493D01*
X106810603Y-102317498D01*
X106996158Y-102447425D01*
X107039783Y-102502002D01*
X107046977Y-102571500D01*
X107015454Y-102633855D01*
X106996158Y-102650575D01*
X106810597Y-102780505D01*
X106643505Y-102947597D01*
X106507965Y-103141169D01*
X106507964Y-103141171D01*
X106408098Y-103355335D01*
X106408094Y-103355344D01*
X106346938Y-103583586D01*
X106346936Y-103583596D01*
X106326341Y-103818999D01*
X106326341Y-103819000D01*
X106000000Y-103819000D01*
X106000000Y-78808870D01*
X106331500Y-78808870D01*
X106331501Y-78808876D01*
X106337908Y-78868483D01*
X106388202Y-79003328D01*
X106388206Y-79003335D01*
X106474452Y-79118544D01*
X106474455Y-79118547D01*
X106589664Y-79204793D01*
X106589671Y-79204797D01*
X106724517Y-79255091D01*
X106724516Y-79255091D01*
X106726786Y-79255335D01*
X106784127Y-79261500D01*
X108579872Y-79261499D01*
X108639483Y-79255091D01*
X108774331Y-79204796D01*
X108889546Y-79118546D01*
X108975796Y-79003331D01*
X109026091Y-78868483D01*
X109032500Y-78808873D01*
X109032499Y-77013128D01*
X109026091Y-76953517D01*
X109023936Y-76947740D01*
X108975797Y-76818671D01*
X108975793Y-76818664D01*
X108889547Y-76703455D01*
X108889544Y-76703452D01*
X108774335Y-76617206D01*
X108774328Y-76617202D01*
X108639482Y-76566908D01*
X108639483Y-76566908D01*
X108579883Y-76560501D01*
X108579881Y-76560500D01*
X108579873Y-76560500D01*
X108579864Y-76560500D01*
X106784129Y-76560500D01*
X106784123Y-76560501D01*
X106724516Y-76566908D01*
X106589671Y-76617202D01*
X106589664Y-76617206D01*
X106474455Y-76703452D01*
X106474452Y-76703455D01*
X106388206Y-76818664D01*
X106388202Y-76818671D01*
X106337908Y-76953517D01*
X106331501Y-77013116D01*
X106331501Y-77013123D01*
X106331500Y-77013135D01*
X106331500Y-78808870D01*
X106000000Y-78808870D01*
X106000000Y-53463200D01*
X120155541Y-53463200D01*
X120176136Y-53698603D01*
X120176138Y-53698613D01*
X120237294Y-53926855D01*
X120237296Y-53926859D01*
X120237297Y-53926863D01*
X120337165Y-54141030D01*
X120337167Y-54141034D01*
X120445481Y-54295721D01*
X120472705Y-54334601D01*
X120639799Y-54501695D01*
X120732587Y-54566666D01*
X120833365Y-54637232D01*
X120833367Y-54637233D01*
X120833370Y-54637235D01*
X121047537Y-54737103D01*
X121275792Y-54798263D01*
X121464118Y-54814739D01*
X121511199Y-54818859D01*
X121511200Y-54818859D01*
X121511201Y-54818859D01*
X121550434Y-54815426D01*
X121746608Y-54798263D01*
X121974863Y-54737103D01*
X122189030Y-54637235D01*
X122382601Y-54501695D01*
X122549695Y-54334601D01*
X122685235Y-54141030D01*
X122785103Y-53926863D01*
X122846263Y-53698608D01*
X122866859Y-53463200D01*
X122846263Y-53227792D01*
X122797596Y-53046162D01*
X122785105Y-52999544D01*
X122785104Y-52999543D01*
X122785103Y-52999537D01*
X122685235Y-52785371D01*
X122549695Y-52591799D01*
X122549694Y-52591797D01*
X122382602Y-52424706D01*
X122382595Y-52424701D01*
X122189034Y-52289167D01*
X122189030Y-52289165D01*
X122189028Y-52289164D01*
X121974863Y-52189297D01*
X121974859Y-52189296D01*
X121974855Y-52189294D01*
X121746613Y-52128138D01*
X121746603Y-52128136D01*
X121511201Y-52107541D01*
X121511199Y-52107541D01*
X121275796Y-52128136D01*
X121275786Y-52128138D01*
X121047544Y-52189294D01*
X121047535Y-52189298D01*
X120833371Y-52289164D01*
X120833369Y-52289165D01*
X120639797Y-52424705D01*
X120472705Y-52591797D01*
X120337165Y-52785369D01*
X120337164Y-52785371D01*
X120237298Y-52999535D01*
X120237294Y-52999544D01*
X120176138Y-53227786D01*
X120176136Y-53227796D01*
X120155541Y-53463199D01*
X120155541Y-53463200D01*
X106000000Y-53463200D01*
X106000000Y-49895004D01*
X109024732Y-49895004D01*
X109043777Y-50149154D01*
X109100490Y-50397630D01*
X109100492Y-50397637D01*
X109193608Y-50634890D01*
X109203712Y-50652390D01*
X109321041Y-50855612D01*
X109479950Y-51054877D01*
X109666783Y-51228232D01*
X109877366Y-51371805D01*
X109877371Y-51371807D01*
X109877372Y-51371808D01*
X109877373Y-51371809D01*
X109995636Y-51428761D01*
X110106992Y-51482387D01*
X110106993Y-51482387D01*
X110106996Y-51482389D01*
X110350542Y-51557513D01*
X110602565Y-51595500D01*
X110857435Y-51595500D01*
X111109458Y-51557513D01*
X111353004Y-51482389D01*
X111582634Y-51371805D01*
X111793217Y-51228232D01*
X111980050Y-51054877D01*
X112138959Y-50855612D01*
X112266393Y-50634888D01*
X112359508Y-50397637D01*
X112416222Y-50149157D01*
X112424384Y-50040232D01*
X112433956Y-49912504D01*
X136964732Y-49912504D01*
X136983777Y-50166654D01*
X137036497Y-50397637D01*
X137040492Y-50415137D01*
X137133607Y-50652388D01*
X137261041Y-50873112D01*
X137419950Y-51072377D01*
X137606783Y-51245732D01*
X137817366Y-51389305D01*
X137899304Y-51428763D01*
X137951161Y-51475584D01*
X137969500Y-51540482D01*
X137969500Y-53276951D01*
X137969387Y-53280696D01*
X137965642Y-53342603D01*
X137965642Y-53342605D01*
X137976821Y-53403612D01*
X137977384Y-53407313D01*
X137984859Y-53468870D01*
X137984860Y-53468874D01*
X137988451Y-53478343D01*
X137994474Y-53499946D01*
X137996304Y-53509930D01*
X138021759Y-53566490D01*
X138023189Y-53569941D01*
X138045182Y-53627930D01*
X138045183Y-53627931D01*
X138050936Y-53636266D01*
X138061961Y-53655813D01*
X138066120Y-53665055D01*
X138066122Y-53665057D01*
X138092407Y-53698608D01*
X138104371Y-53713878D01*
X138106591Y-53716896D01*
X138141812Y-53767924D01*
X138141816Y-53767928D01*
X138141817Y-53767929D01*
X138188250Y-53809064D01*
X138190941Y-53811598D01*
X140169528Y-55790185D01*
X140199710Y-55820367D01*
X144341392Y-59962048D01*
X144343928Y-59964742D01*
X144385071Y-60011183D01*
X144432631Y-60044011D01*
X144436115Y-60046416D01*
X144439120Y-60048626D01*
X144487944Y-60086878D01*
X144487946Y-60086879D01*
X144487949Y-60086881D01*
X144497177Y-60091034D01*
X144516731Y-60102062D01*
X144525066Y-60107816D01*
X144525068Y-60107816D01*
X144525070Y-60107818D01*
X144583079Y-60129817D01*
X144586476Y-60131224D01*
X144626423Y-60149203D01*
X144643064Y-60156693D01*
X144643065Y-60156693D01*
X144643069Y-60156695D01*
X144653034Y-60158521D01*
X144674656Y-60164548D01*
X144677777Y-60165731D01*
X144684128Y-60168140D01*
X144729251Y-60173618D01*
X144745674Y-60175613D01*
X144749371Y-60176175D01*
X144810394Y-60187358D01*
X144865752Y-60184009D01*
X144872303Y-60183613D01*
X144876048Y-60183500D01*
X160451500Y-60183500D01*
X160518539Y-60203185D01*
X160564294Y-60255989D01*
X160575500Y-60307500D01*
X160575500Y-76130793D01*
X160555815Y-76197832D01*
X160503011Y-76243587D01*
X160433853Y-76253531D01*
X160408168Y-76246975D01*
X160277685Y-76198309D01*
X160277683Y-76198308D01*
X160218083Y-76191901D01*
X160218081Y-76191900D01*
X160218073Y-76191900D01*
X160218064Y-76191900D01*
X158422329Y-76191900D01*
X158422323Y-76191901D01*
X158362716Y-76198308D01*
X158227871Y-76248602D01*
X158227864Y-76248606D01*
X158112655Y-76334852D01*
X158112652Y-76334855D01*
X158026406Y-76450064D01*
X158026402Y-76450071D01*
X157976108Y-76584917D01*
X157969701Y-76644516D01*
X157969700Y-76644535D01*
X157969700Y-78440270D01*
X157969701Y-78440276D01*
X157976108Y-78499883D01*
X158026402Y-78634728D01*
X158026406Y-78634735D01*
X158112652Y-78749944D01*
X158112655Y-78749947D01*
X158227864Y-78836193D01*
X158227871Y-78836197D01*
X158362717Y-78886491D01*
X158362716Y-78886491D01*
X158369644Y-78887235D01*
X158422327Y-78892900D01*
X160218072Y-78892899D01*
X160277683Y-78886491D01*
X160331751Y-78866325D01*
X160408167Y-78837824D01*
X160477859Y-78832840D01*
X160539182Y-78866325D01*
X160572666Y-78927649D01*
X160575500Y-78954006D01*
X160575500Y-88966608D01*
X160555815Y-89033647D01*
X160543656Y-89049574D01*
X160543468Y-89049782D01*
X160543464Y-89049787D01*
X160448821Y-89213715D01*
X160448818Y-89213722D01*
X160409397Y-89335049D01*
X160390326Y-89393744D01*
X160370540Y-89582000D01*
X160390326Y-89770256D01*
X160390327Y-89770259D01*
X160448818Y-89950277D01*
X160448821Y-89950284D01*
X160543467Y-90114216D01*
X160663205Y-90247198D01*
X160670129Y-90254888D01*
X160823265Y-90366148D01*
X160823270Y-90366151D01*
X160996192Y-90443142D01*
X160996197Y-90443144D01*
X161181354Y-90482500D01*
X161181355Y-90482500D01*
X161370644Y-90482500D01*
X161370646Y-90482500D01*
X161555803Y-90443144D01*
X161728730Y-90366151D01*
X161834474Y-90289323D01*
X161900276Y-90265845D01*
X161968330Y-90281670D01*
X162017025Y-90331775D01*
X162027090Y-90361152D01*
X162027736Y-90360979D01*
X162090294Y-90594455D01*
X162090296Y-90594459D01*
X162090297Y-90594463D01*
X162189828Y-90807908D01*
X162190165Y-90808630D01*
X162190167Y-90808634D01*
X162254844Y-90901001D01*
X162325701Y-91002196D01*
X162325706Y-91002202D01*
X162447630Y-91124126D01*
X162481115Y-91185449D01*
X162476131Y-91255141D01*
X162434259Y-91311074D01*
X162403283Y-91327989D01*
X162271869Y-91377003D01*
X162271864Y-91377006D01*
X162156655Y-91463252D01*
X162156652Y-91463255D01*
X162070406Y-91578464D01*
X162070402Y-91578471D01*
X162020108Y-91713317D01*
X162015732Y-91754023D01*
X162013701Y-91772923D01*
X162013700Y-91772935D01*
X162013700Y-93568670D01*
X162013701Y-93568676D01*
X162020108Y-93628283D01*
X162070402Y-93763128D01*
X162070406Y-93763135D01*
X162156652Y-93878344D01*
X162156655Y-93878347D01*
X162271864Y-93964593D01*
X162271871Y-93964597D01*
X162406717Y-94014891D01*
X162406716Y-94014891D01*
X162413644Y-94015635D01*
X162466327Y-94021300D01*
X164262072Y-94021299D01*
X164321683Y-94014891D01*
X164456531Y-93964596D01*
X164571746Y-93878346D01*
X164657996Y-93763131D01*
X164708291Y-93628283D01*
X164714700Y-93568673D01*
X164714699Y-91772928D01*
X164708291Y-91713317D01*
X164691007Y-91666977D01*
X164657997Y-91578471D01*
X164657993Y-91578464D01*
X164571747Y-91463255D01*
X164571744Y-91463252D01*
X164456535Y-91377006D01*
X164456528Y-91377002D01*
X164325117Y-91327989D01*
X164269183Y-91286118D01*
X164244766Y-91220653D01*
X164259618Y-91152380D01*
X164280763Y-91124132D01*
X164402695Y-91002201D01*
X164538235Y-90808630D01*
X164638103Y-90594463D01*
X164699263Y-90366208D01*
X164719859Y-90130800D01*
X164719410Y-90125673D01*
X164707930Y-89994452D01*
X164699263Y-89895392D01*
X164638103Y-89667137D01*
X164538235Y-89452971D01*
X164536437Y-89450402D01*
X164402694Y-89259397D01*
X164235602Y-89092306D01*
X164235596Y-89092301D01*
X164050042Y-88962375D01*
X164006417Y-88907798D01*
X163999223Y-88838300D01*
X164030746Y-88775945D01*
X164050042Y-88759225D01*
X164117857Y-88711740D01*
X164235601Y-88629295D01*
X164402695Y-88462201D01*
X164538235Y-88268630D01*
X164638103Y-88054463D01*
X164699263Y-87826208D01*
X164719859Y-87590800D01*
X164699263Y-87355392D01*
X164638103Y-87127137D01*
X164538235Y-86912971D01*
X164497663Y-86855027D01*
X164402694Y-86719397D01*
X164235602Y-86552306D01*
X164235596Y-86552301D01*
X164050042Y-86422375D01*
X164006417Y-86367798D01*
X163999223Y-86298300D01*
X164030746Y-86235945D01*
X164050042Y-86219225D01*
X164214510Y-86104063D01*
X164235601Y-86089295D01*
X164402695Y-85922201D01*
X164538235Y-85728630D01*
X164638103Y-85514463D01*
X164699263Y-85286208D01*
X164719859Y-85050800D01*
X164699263Y-84815392D01*
X164638103Y-84587137D01*
X164538235Y-84372971D01*
X164497663Y-84315027D01*
X164402694Y-84179397D01*
X164235602Y-84012306D01*
X164235595Y-84012301D01*
X164228024Y-84007000D01*
X164196721Y-83985081D01*
X164042034Y-83876767D01*
X164042030Y-83876765D01*
X164042028Y-83876764D01*
X163827863Y-83776897D01*
X163827859Y-83776896D01*
X163827855Y-83776894D01*
X163599613Y-83715738D01*
X163599603Y-83715736D01*
X163364201Y-83695141D01*
X163364199Y-83695141D01*
X163128796Y-83715736D01*
X163128786Y-83715738D01*
X162900544Y-83776894D01*
X162900535Y-83776898D01*
X162686371Y-83876764D01*
X162686369Y-83876765D01*
X162492797Y-84012305D01*
X162325705Y-84179397D01*
X162202075Y-84355961D01*
X162147498Y-84399586D01*
X162078000Y-84406780D01*
X162015645Y-84375257D01*
X161980231Y-84315027D01*
X161976500Y-84284838D01*
X161976500Y-60216242D01*
X161996185Y-60149203D01*
X162004647Y-60137577D01*
X162104310Y-60016138D01*
X162197214Y-59842327D01*
X162254424Y-59653732D01*
X162273741Y-59457600D01*
X162254424Y-59261468D01*
X162197214Y-59072873D01*
X162197211Y-59072869D01*
X162197211Y-59072866D01*
X162104313Y-58899067D01*
X162104309Y-58899060D01*
X161979283Y-58746716D01*
X161826939Y-58621690D01*
X161826932Y-58621686D01*
X161653133Y-58528788D01*
X161653127Y-58528786D01*
X161464532Y-58471576D01*
X161464529Y-58471575D01*
X161268400Y-58452259D01*
X161072270Y-58471575D01*
X160883666Y-58528788D01*
X160709867Y-58621686D01*
X160709860Y-58621690D01*
X160552808Y-58750581D01*
X160551937Y-58749519D01*
X160496729Y-58779666D01*
X160470371Y-58782500D01*
X145194518Y-58782500D01*
X145127479Y-58762815D01*
X145106837Y-58746181D01*
X142542838Y-56182181D01*
X142509353Y-56120858D01*
X142514337Y-56051166D01*
X142556209Y-55995233D01*
X142621673Y-55970816D01*
X142630519Y-55970500D01*
X147926152Y-55970500D01*
X147929897Y-55970613D01*
X147937242Y-55971057D01*
X147991806Y-55974358D01*
X148029514Y-55967447D01*
X148052821Y-55963177D01*
X148056525Y-55962613D01*
X148074370Y-55960446D01*
X148118072Y-55955140D01*
X148127535Y-55951550D01*
X148149161Y-55945522D01*
X148150093Y-55945351D01*
X148159132Y-55943695D01*
X148215712Y-55918229D01*
X148219142Y-55916809D01*
X148277130Y-55894818D01*
X148285466Y-55889062D01*
X148305021Y-55878034D01*
X148314257Y-55873878D01*
X148363096Y-55835613D01*
X148366076Y-55833421D01*
X148417129Y-55798183D01*
X148458265Y-55751748D01*
X148460799Y-55749056D01*
X149384006Y-54825849D01*
X149445327Y-54792366D01*
X149503778Y-54793757D01*
X149520592Y-54798263D01*
X149708918Y-54814739D01*
X149755999Y-54818859D01*
X149756000Y-54818859D01*
X149756001Y-54818859D01*
X149795234Y-54815426D01*
X149991408Y-54798263D01*
X150219663Y-54737103D01*
X150433830Y-54637235D01*
X150627401Y-54501695D01*
X150794495Y-54334601D01*
X150930035Y-54141030D01*
X151029903Y-53926863D01*
X151091063Y-53698608D01*
X151111659Y-53463200D01*
X151091063Y-53227792D01*
X151042396Y-53046162D01*
X151029905Y-52999544D01*
X151029904Y-52999543D01*
X151029903Y-52999537D01*
X150930035Y-52785371D01*
X150794495Y-52591799D01*
X150794494Y-52591797D01*
X150627402Y-52424706D01*
X150627395Y-52424701D01*
X150433834Y-52289167D01*
X150433830Y-52289165D01*
X150433828Y-52289164D01*
X150219663Y-52189297D01*
X150219659Y-52189296D01*
X150219655Y-52189294D01*
X149991413Y-52128138D01*
X149991403Y-52128136D01*
X149756001Y-52107541D01*
X149755999Y-52107541D01*
X149520596Y-52128136D01*
X149520586Y-52128138D01*
X149292344Y-52189294D01*
X149292335Y-52189298D01*
X149078171Y-52289164D01*
X149078169Y-52289165D01*
X148884597Y-52424705D01*
X148717505Y-52591797D01*
X148581965Y-52785369D01*
X148581964Y-52785371D01*
X148482098Y-52999535D01*
X148482094Y-52999544D01*
X148420938Y-53227786D01*
X148420936Y-53227796D01*
X148400341Y-53463199D01*
X148400341Y-53463200D01*
X148420937Y-53698609D01*
X148420937Y-53698610D01*
X148425442Y-53715425D01*
X148423776Y-53785275D01*
X148393347Y-53835194D01*
X147695362Y-54533181D01*
X147634039Y-54566666D01*
X147607681Y-54569500D01*
X140981519Y-54569500D01*
X140914480Y-54549815D01*
X140893838Y-54533181D01*
X139406819Y-53046162D01*
X139373334Y-52984839D01*
X139370500Y-52958481D01*
X139370500Y-51540482D01*
X139390185Y-51473443D01*
X139440695Y-51428763D01*
X139522634Y-51389305D01*
X139733217Y-51245732D01*
X139920050Y-51072377D01*
X140078959Y-50873112D01*
X140206393Y-50652388D01*
X140299508Y-50415137D01*
X140356222Y-50166657D01*
X140375268Y-49912500D01*
X140373956Y-49894995D01*
X140356222Y-49658345D01*
X140352227Y-49640843D01*
X140299508Y-49409863D01*
X140206393Y-49172612D01*
X140078959Y-48951888D01*
X139920050Y-48752623D01*
X139733217Y-48579268D01*
X139522634Y-48435695D01*
X139522630Y-48435693D01*
X139522627Y-48435691D01*
X139522626Y-48435690D01*
X139293006Y-48325112D01*
X139293008Y-48325112D01*
X139049466Y-48249989D01*
X139049462Y-48249988D01*
X139049458Y-48249987D01*
X138928231Y-48231714D01*
X138797440Y-48212000D01*
X138797435Y-48212000D01*
X138542565Y-48212000D01*
X138542559Y-48212000D01*
X138385609Y-48235657D01*
X138290542Y-48249987D01*
X138290539Y-48249988D01*
X138290533Y-48249989D01*
X138046992Y-48325112D01*
X137817373Y-48435690D01*
X137817372Y-48435691D01*
X137606782Y-48579268D01*
X137419952Y-48752621D01*
X137419950Y-48752623D01*
X137261041Y-48951888D01*
X137133608Y-49172609D01*
X137040492Y-49409862D01*
X137040490Y-49409869D01*
X136983777Y-49658345D01*
X136964732Y-49912495D01*
X136964732Y-49912504D01*
X112433956Y-49912504D01*
X112435268Y-49895004D01*
X112435268Y-49894995D01*
X112421663Y-49713459D01*
X112416222Y-49640843D01*
X112359508Y-49392363D01*
X112266393Y-49155112D01*
X112138959Y-48934388D01*
X111980050Y-48735123D01*
X111793217Y-48561768D01*
X111582634Y-48418195D01*
X111582630Y-48418193D01*
X111582627Y-48418191D01*
X111582626Y-48418190D01*
X111353006Y-48307612D01*
X111353008Y-48307612D01*
X111109466Y-48232489D01*
X111109462Y-48232488D01*
X111109458Y-48232487D01*
X110988231Y-48214214D01*
X110857440Y-48194500D01*
X110857435Y-48194500D01*
X110602565Y-48194500D01*
X110602559Y-48194500D01*
X110445609Y-48218157D01*
X110350542Y-48232487D01*
X110350539Y-48232488D01*
X110350533Y-48232489D01*
X110106992Y-48307612D01*
X109877373Y-48418190D01*
X109877372Y-48418191D01*
X109666782Y-48561768D01*
X109479952Y-48735121D01*
X109479950Y-48735123D01*
X109321041Y-48934388D01*
X109193608Y-49155109D01*
X109100492Y-49392362D01*
X109100490Y-49392369D01*
X109043777Y-49640845D01*
X109024732Y-49894995D01*
X109024732Y-49895004D01*
X106000000Y-49895004D01*
X106000000Y-35624500D01*
X106019685Y-35557461D01*
X106072489Y-35511706D01*
X106124000Y-35500500D01*
X169375500Y-35500500D01*
X169442539Y-35520185D01*
G37*
%TD.AperFunction*%
%TD*%
%TA.AperFunction,NonConductor*%
G36*
X130650340Y-83117068D02*
G01*
X130706274Y-83158939D01*
X130723189Y-83189917D01*
X130772202Y-83321328D01*
X130772206Y-83321335D01*
X130858452Y-83436544D01*
X130858455Y-83436547D01*
X130973664Y-83522793D01*
X130973671Y-83522797D01*
X131105081Y-83571810D01*
X131161015Y-83613681D01*
X131185432Y-83679145D01*
X131170580Y-83747418D01*
X131149430Y-83775673D01*
X131027503Y-83897600D01*
X130897575Y-84083158D01*
X130842998Y-84126783D01*
X130773500Y-84133977D01*
X130711145Y-84102454D01*
X130694425Y-84083158D01*
X130564494Y-83897597D01*
X130397402Y-83730506D01*
X130397396Y-83730501D01*
X130211842Y-83600575D01*
X130168217Y-83545998D01*
X130161023Y-83476500D01*
X130192546Y-83414145D01*
X130211842Y-83397425D01*
X130302262Y-83334112D01*
X130397401Y-83267495D01*
X130519329Y-83145566D01*
X130580648Y-83112084D01*
X130650340Y-83117068D01*
G37*
%TD.AperFunction*%
%TA.AperFunction,NonConductor*%
G36*
X128340855Y-82895546D02*
G01*
X128357575Y-82914842D01*
X128487501Y-83100396D01*
X128487506Y-83100402D01*
X128654597Y-83267493D01*
X128654603Y-83267498D01*
X128840158Y-83397425D01*
X128883783Y-83452002D01*
X128890977Y-83521500D01*
X128859454Y-83583855D01*
X128840158Y-83600575D01*
X128654597Y-83730505D01*
X128487505Y-83897597D01*
X128357575Y-84083158D01*
X128302998Y-84126783D01*
X128233500Y-84133977D01*
X128171145Y-84102454D01*
X128154425Y-84083158D01*
X128024494Y-83897597D01*
X127857402Y-83730506D01*
X127857396Y-83730501D01*
X127671842Y-83600575D01*
X127628217Y-83545998D01*
X127621023Y-83476500D01*
X127652546Y-83414145D01*
X127671842Y-83397425D01*
X127762262Y-83334112D01*
X127857401Y-83267495D01*
X128024495Y-83100401D01*
X128154425Y-82914842D01*
X128209002Y-82871217D01*
X128278500Y-82864023D01*
X128340855Y-82895546D01*
G37*
%TD.AperFunction*%
%TA.AperFunction,NonConductor*%
G36*
X125800855Y-82895546D02*
G01*
X125817575Y-82914842D01*
X125947501Y-83100396D01*
X125947506Y-83100402D01*
X126114597Y-83267493D01*
X126114603Y-83267498D01*
X126300158Y-83397425D01*
X126343783Y-83452002D01*
X126350977Y-83521500D01*
X126319454Y-83583855D01*
X126300158Y-83600575D01*
X126114597Y-83730505D01*
X125947505Y-83897597D01*
X125817575Y-84083158D01*
X125762998Y-84126783D01*
X125693500Y-84133977D01*
X125631145Y-84102454D01*
X125614425Y-84083158D01*
X125484494Y-83897597D01*
X125317402Y-83730506D01*
X125317396Y-83730501D01*
X125131842Y-83600575D01*
X125088217Y-83545998D01*
X125081023Y-83476500D01*
X125112546Y-83414145D01*
X125131842Y-83397425D01*
X125222262Y-83334112D01*
X125317401Y-83267495D01*
X125484495Y-83100401D01*
X125614425Y-82914842D01*
X125669002Y-82871217D01*
X125738500Y-82864023D01*
X125800855Y-82895546D01*
G37*
%TD.AperFunction*%
%TA.AperFunction,NonConductor*%
G36*
X123260855Y-82895546D02*
G01*
X123277575Y-82914842D01*
X123407501Y-83100396D01*
X123407506Y-83100402D01*
X123574597Y-83267493D01*
X123574603Y-83267498D01*
X123760158Y-83397425D01*
X123803783Y-83452002D01*
X123810977Y-83521500D01*
X123779454Y-83583855D01*
X123760158Y-83600575D01*
X123574597Y-83730505D01*
X123407505Y-83897597D01*
X123277575Y-84083158D01*
X123222998Y-84126783D01*
X123153500Y-84133977D01*
X123091145Y-84102454D01*
X123074425Y-84083158D01*
X122944494Y-83897597D01*
X122777402Y-83730506D01*
X122777396Y-83730501D01*
X122591842Y-83600575D01*
X122548217Y-83545998D01*
X122541023Y-83476500D01*
X122572546Y-83414145D01*
X122591842Y-83397425D01*
X122682262Y-83334112D01*
X122777401Y-83267495D01*
X122944495Y-83100401D01*
X123074425Y-82914842D01*
X123129002Y-82871217D01*
X123198500Y-82864023D01*
X123260855Y-82895546D01*
G37*
%TD.AperFunction*%
%TA.AperFunction,NonConductor*%
G36*
X162181703Y-85723049D02*
G01*
X162202074Y-85745638D01*
X162226654Y-85780741D01*
X162325701Y-85922196D01*
X162325706Y-85922202D01*
X162492797Y-86089293D01*
X162492803Y-86089298D01*
X162678358Y-86219225D01*
X162721983Y-86273802D01*
X162729177Y-86343300D01*
X162697654Y-86405655D01*
X162678358Y-86422375D01*
X162492797Y-86552305D01*
X162325705Y-86719397D01*
X162202075Y-86895961D01*
X162147498Y-86939586D01*
X162078000Y-86946780D01*
X162015645Y-86915257D01*
X161980231Y-86855027D01*
X161976500Y-86824838D01*
X161976500Y-85816762D01*
X161996185Y-85749723D01*
X162048989Y-85703968D01*
X162118147Y-85694024D01*
X162181703Y-85723049D01*
G37*
%TD.AperFunction*%
%TA.AperFunction,NonConductor*%
G36*
X162181703Y-88263049D02*
G01*
X162202074Y-88285638D01*
X162231929Y-88328275D01*
X162325701Y-88462196D01*
X162325706Y-88462202D01*
X162492797Y-88629293D01*
X162492803Y-88629298D01*
X162678358Y-88759225D01*
X162721983Y-88813802D01*
X162729177Y-88883300D01*
X162697654Y-88945655D01*
X162678358Y-88962375D01*
X162492797Y-89092305D01*
X162325703Y-89259399D01*
X162322226Y-89263544D01*
X162321090Y-89262591D01*
X162271906Y-89301894D01*
X162202407Y-89309077D01*
X162140057Y-89277546D01*
X162106994Y-89225456D01*
X162103182Y-89213724D01*
X162103180Y-89213720D01*
X162103179Y-89213716D01*
X162033083Y-89092306D01*
X162008535Y-89049787D01*
X162008531Y-89049782D01*
X162008344Y-89049574D01*
X162008273Y-89049427D01*
X162004714Y-89044528D01*
X162005610Y-89043876D01*
X161978119Y-88986580D01*
X161976500Y-88966608D01*
X161976500Y-88356762D01*
X161996185Y-88289723D01*
X162048989Y-88243968D01*
X162118147Y-88234024D01*
X162181703Y-88263049D01*
G37*
%TD.AperFunction*%
%TA.AperFunction,NonConductor*%
G36*
X137992855Y-92547546D02*
G01*
X138009575Y-92566842D01*
X138139501Y-92752396D01*
X138139506Y-92752402D01*
X138306597Y-92919493D01*
X138306603Y-92919498D01*
X138492158Y-93049425D01*
X138535783Y-93104002D01*
X138542977Y-93173500D01*
X138511454Y-93235855D01*
X138492158Y-93252575D01*
X138306597Y-93382505D01*
X138139505Y-93549597D01*
X138009575Y-93735158D01*
X137954998Y-93778783D01*
X137885500Y-93785977D01*
X137823145Y-93754454D01*
X137806425Y-93735158D01*
X137676494Y-93549597D01*
X137509402Y-93382506D01*
X137509396Y-93382501D01*
X137323842Y-93252575D01*
X137280217Y-93197998D01*
X137273023Y-93128500D01*
X137304546Y-93066145D01*
X137323842Y-93049425D01*
X137405205Y-92992454D01*
X137509401Y-92919495D01*
X137676495Y-92752401D01*
X137806425Y-92566842D01*
X137861002Y-92523217D01*
X137930500Y-92516023D01*
X137992855Y-92547546D01*
G37*
%TD.AperFunction*%
%TA.AperFunction,NonConductor*%
G36*
X137992855Y-95087546D02*
G01*
X138009575Y-95106842D01*
X138139501Y-95292396D01*
X138139506Y-95292402D01*
X138306597Y-95459493D01*
X138306603Y-95459498D01*
X138492158Y-95589425D01*
X138535783Y-95644002D01*
X138542977Y-95713500D01*
X138511454Y-95775855D01*
X138492158Y-95792575D01*
X138306597Y-95922505D01*
X138139505Y-96089597D01*
X138009575Y-96275158D01*
X137954998Y-96318783D01*
X137885500Y-96325977D01*
X137823145Y-96294454D01*
X137806425Y-96275158D01*
X137676494Y-96089597D01*
X137509402Y-95922506D01*
X137509396Y-95922501D01*
X137323842Y-95792575D01*
X137280217Y-95737998D01*
X137273023Y-95668500D01*
X137304546Y-95606145D01*
X137323842Y-95589425D01*
X137405205Y-95532454D01*
X137509401Y-95459495D01*
X137676495Y-95292401D01*
X137806425Y-95106842D01*
X137861002Y-95063217D01*
X137930500Y-95056023D01*
X137992855Y-95087546D01*
G37*
%TD.AperFunction*%
%TA.AperFunction,NonConductor*%
G36*
X137992855Y-97627546D02*
G01*
X138009575Y-97646842D01*
X138139501Y-97832396D01*
X138139506Y-97832402D01*
X138306597Y-97999493D01*
X138306603Y-97999498D01*
X138492158Y-98129425D01*
X138535783Y-98184002D01*
X138542977Y-98253500D01*
X138511454Y-98315855D01*
X138492158Y-98332575D01*
X138306597Y-98462505D01*
X138139505Y-98629597D01*
X138009575Y-98815158D01*
X137954998Y-98858783D01*
X137885500Y-98865977D01*
X137823145Y-98834454D01*
X137806425Y-98815158D01*
X137676494Y-98629597D01*
X137509402Y-98462506D01*
X137509396Y-98462501D01*
X137323842Y-98332575D01*
X137280217Y-98277998D01*
X137273023Y-98208500D01*
X137304546Y-98146145D01*
X137323842Y-98129425D01*
X137405205Y-98072454D01*
X137509401Y-97999495D01*
X137676495Y-97832401D01*
X137806425Y-97646842D01*
X137861002Y-97603217D01*
X137930500Y-97596023D01*
X137992855Y-97627546D01*
G37*
%TD.AperFunction*%
%TA.AperFunction,NonConductor*%
G36*
X137992855Y-100167546D02*
G01*
X138009575Y-100186842D01*
X138139501Y-100372396D01*
X138139506Y-100372402D01*
X138306597Y-100539493D01*
X138306603Y-100539498D01*
X138492158Y-100669425D01*
X138535783Y-100724002D01*
X138542977Y-100793500D01*
X138511454Y-100855855D01*
X138492158Y-100872575D01*
X138306597Y-101002505D01*
X138139505Y-101169597D01*
X138009575Y-101355158D01*
X137954998Y-101398783D01*
X137885500Y-101405977D01*
X137823145Y-101374454D01*
X137806425Y-101355158D01*
X137676494Y-101169597D01*
X137509402Y-101002506D01*
X137509396Y-101002501D01*
X137323842Y-100872575D01*
X137280217Y-100817998D01*
X137273023Y-100748500D01*
X137304546Y-100686145D01*
X137323842Y-100669425D01*
X137414262Y-100606112D01*
X137509401Y-100539495D01*
X137676495Y-100372401D01*
X137806425Y-100186842D01*
X137861002Y-100143217D01*
X137930500Y-100136023D01*
X137992855Y-100167546D01*
G37*
%TD.AperFunction*%
%TA.AperFunction,NonConductor*%
G36*
X137992855Y-102707546D02*
G01*
X138009575Y-102726842D01*
X138139501Y-102912396D01*
X138139506Y-102912402D01*
X138306597Y-103079493D01*
X138306603Y-103079498D01*
X138492158Y-103209425D01*
X138535783Y-103264002D01*
X138542977Y-103333500D01*
X138511454Y-103395855D01*
X138492158Y-103412575D01*
X138306597Y-103542505D01*
X138139505Y-103709597D01*
X138009575Y-103895158D01*
X137954998Y-103938783D01*
X137885500Y-103945977D01*
X137823145Y-103914454D01*
X137806425Y-103895158D01*
X137676494Y-103709597D01*
X137509402Y-103542506D01*
X137509396Y-103542501D01*
X137323842Y-103412575D01*
X137280217Y-103357998D01*
X137273023Y-103288500D01*
X137304546Y-103226145D01*
X137323842Y-103209425D01*
X137346026Y-103193891D01*
X137509401Y-103079495D01*
X137676495Y-102912401D01*
X137806425Y-102726842D01*
X137861002Y-102683217D01*
X137930500Y-102676023D01*
X137992855Y-102707546D01*
G37*
%TD.AperFunction*%
%TA.AperFunction,NonConductor*%
G36*
X137992855Y-105247546D02*
G01*
X138009575Y-105266842D01*
X138139501Y-105452396D01*
X138139506Y-105452402D01*
X138261430Y-105574326D01*
X138294915Y-105635649D01*
X138289931Y-105705341D01*
X138248059Y-105761274D01*
X138217083Y-105778189D01*
X138085669Y-105827203D01*
X138085664Y-105827206D01*
X137970455Y-105913452D01*
X137970452Y-105913455D01*
X137884206Y-106028664D01*
X137884203Y-106028669D01*
X137835189Y-106160083D01*
X137793317Y-106216016D01*
X137727853Y-106240433D01*
X137659580Y-106225581D01*
X137631326Y-106204430D01*
X137509402Y-106082506D01*
X137509396Y-106082501D01*
X137323842Y-105952575D01*
X137280217Y-105897998D01*
X137273023Y-105828500D01*
X137304546Y-105766145D01*
X137323842Y-105749425D01*
X137436054Y-105670853D01*
X137509401Y-105619495D01*
X137676495Y-105452401D01*
X137806425Y-105266842D01*
X137861002Y-105223217D01*
X137930500Y-105216023D01*
X137992855Y-105247546D01*
G37*
%TD.AperFunction*%
%TA.AperFunction,NonConductor*%
G36*
X128340855Y-111343546D02*
G01*
X128357575Y-111362842D01*
X128487501Y-111548396D01*
X128487506Y-111548402D01*
X128654597Y-111715493D01*
X128654603Y-111715498D01*
X128840158Y-111845425D01*
X128883783Y-111900002D01*
X128890977Y-111969500D01*
X128859454Y-112031855D01*
X128840158Y-112048575D01*
X128654597Y-112178505D01*
X128487505Y-112345597D01*
X128357575Y-112531158D01*
X128302998Y-112574783D01*
X128233500Y-112581977D01*
X128171145Y-112550454D01*
X128154425Y-112531158D01*
X128024494Y-112345597D01*
X127857402Y-112178506D01*
X127857396Y-112178501D01*
X127671842Y-112048575D01*
X127628217Y-111993998D01*
X127621023Y-111924500D01*
X127652546Y-111862145D01*
X127671842Y-111845425D01*
X127734800Y-111801341D01*
X127857401Y-111715495D01*
X128024495Y-111548401D01*
X128154425Y-111362842D01*
X128209002Y-111319217D01*
X128278500Y-111312023D01*
X128340855Y-111343546D01*
G37*
%TD.AperFunction*%
%TA.AperFunction,NonConductor*%
G36*
X125800855Y-111343546D02*
G01*
X125817575Y-111362842D01*
X125947501Y-111548396D01*
X125947506Y-111548402D01*
X126114597Y-111715493D01*
X126114603Y-111715498D01*
X126300158Y-111845425D01*
X126343783Y-111900002D01*
X126350977Y-111969500D01*
X126319454Y-112031855D01*
X126300158Y-112048575D01*
X126114597Y-112178505D01*
X125947505Y-112345597D01*
X125817575Y-112531158D01*
X125762998Y-112574783D01*
X125693500Y-112581977D01*
X125631145Y-112550454D01*
X125614425Y-112531158D01*
X125484494Y-112345597D01*
X125317402Y-112178506D01*
X125317396Y-112178501D01*
X125131842Y-112048575D01*
X125088217Y-111993998D01*
X125081023Y-111924500D01*
X125112546Y-111862145D01*
X125131842Y-111845425D01*
X125194800Y-111801341D01*
X125317401Y-111715495D01*
X125484495Y-111548401D01*
X125614425Y-111362842D01*
X125669002Y-111319217D01*
X125738500Y-111312023D01*
X125800855Y-111343546D01*
G37*
%TD.AperFunction*%
%TA.AperFunction,NonConductor*%
G36*
X120720855Y-111343546D02*
G01*
X120737575Y-111362842D01*
X120867501Y-111548396D01*
X120867506Y-111548402D01*
X121034597Y-111715493D01*
X121034603Y-111715498D01*
X121220158Y-111845425D01*
X121263783Y-111900002D01*
X121270977Y-111969500D01*
X121239454Y-112031855D01*
X121220158Y-112048575D01*
X121034597Y-112178505D01*
X120867505Y-112345597D01*
X120737575Y-112531158D01*
X120682998Y-112574783D01*
X120613500Y-112581977D01*
X120551145Y-112550454D01*
X120534425Y-112531158D01*
X120404494Y-112345597D01*
X120237402Y-112178506D01*
X120237396Y-112178501D01*
X120051842Y-112048575D01*
X120008217Y-111993998D01*
X120001023Y-111924500D01*
X120032546Y-111862145D01*
X120051842Y-111845425D01*
X120114800Y-111801341D01*
X120237401Y-111715495D01*
X120404495Y-111548401D01*
X120534425Y-111362842D01*
X120589002Y-111319217D01*
X120658500Y-111312023D01*
X120720855Y-111343546D01*
G37*
%TD.AperFunction*%
%TA.AperFunction,NonConductor*%
G36*
X118180855Y-111343546D02*
G01*
X118197575Y-111362842D01*
X118327501Y-111548396D01*
X118327506Y-111548402D01*
X118494597Y-111715493D01*
X118494603Y-111715498D01*
X118680158Y-111845425D01*
X118723783Y-111900002D01*
X118730977Y-111969500D01*
X118699454Y-112031855D01*
X118680158Y-112048575D01*
X118494597Y-112178505D01*
X118327505Y-112345597D01*
X118197575Y-112531158D01*
X118142998Y-112574783D01*
X118073500Y-112581977D01*
X118011145Y-112550454D01*
X117994425Y-112531158D01*
X117864494Y-112345597D01*
X117697402Y-112178506D01*
X117697396Y-112178501D01*
X117511842Y-112048575D01*
X117468217Y-111993998D01*
X117461023Y-111924500D01*
X117492546Y-111862145D01*
X117511842Y-111845425D01*
X117574800Y-111801341D01*
X117697401Y-111715495D01*
X117864495Y-111548401D01*
X117994425Y-111362842D01*
X118049002Y-111319217D01*
X118118500Y-111312023D01*
X118180855Y-111343546D01*
G37*
%TD.AperFunction*%
%TA.AperFunction,NonConductor*%
G36*
X128832703Y-117205739D02*
G01*
X128839181Y-117211771D01*
X130630069Y-119002660D01*
X130663554Y-119063983D01*
X130658570Y-119133675D01*
X130616698Y-119189608D01*
X130551234Y-119214025D01*
X130542388Y-119214341D01*
X130541999Y-119214341D01*
X130306596Y-119234936D01*
X130306586Y-119234938D01*
X130078344Y-119296094D01*
X130078335Y-119296098D01*
X129864171Y-119395964D01*
X129864169Y-119395965D01*
X129670597Y-119531505D01*
X129503505Y-119698597D01*
X129373575Y-119884158D01*
X129318998Y-119927783D01*
X129249500Y-119934977D01*
X129187145Y-119903454D01*
X129170425Y-119884158D01*
X129040494Y-119698597D01*
X128873402Y-119531506D01*
X128873401Y-119531505D01*
X128701177Y-119410912D01*
X128680376Y-119396347D01*
X128636751Y-119341770D01*
X128627500Y-119294772D01*
X128627500Y-117299452D01*
X128647185Y-117232413D01*
X128699989Y-117186658D01*
X128769147Y-117176714D01*
X128832703Y-117205739D01*
G37*
%TD.AperFunction*%
%TA.AperFunction,NonConductor*%
G36*
X109200418Y-89474417D02*
G01*
X109228673Y-89495569D01*
X109350597Y-89617493D01*
X109350603Y-89617498D01*
X109536158Y-89747425D01*
X109579783Y-89802002D01*
X109586977Y-89871500D01*
X109555454Y-89933855D01*
X109536158Y-89950575D01*
X109350597Y-90080505D01*
X109183505Y-90247597D01*
X109053575Y-90433158D01*
X108998998Y-90476783D01*
X108929500Y-90483977D01*
X108867145Y-90452454D01*
X108850425Y-90433158D01*
X108720496Y-90247600D01*
X108696222Y-90223326D01*
X108598567Y-90125671D01*
X108565084Y-90064351D01*
X108570068Y-89994659D01*
X108611939Y-89938725D01*
X108642915Y-89921810D01*
X108774331Y-89872796D01*
X108889546Y-89786546D01*
X108975796Y-89671331D01*
X109024810Y-89539916D01*
X109066681Y-89483984D01*
X109132145Y-89459566D01*
X109200418Y-89474417D01*
G37*
%TD.AperFunction*%
%TA.AperFunction,NonConductor*%
G36*
X109036855Y-91785546D02*
G01*
X109053575Y-91804842D01*
X109183501Y-91990396D01*
X109183506Y-91990402D01*
X109350597Y-92157493D01*
X109350603Y-92157498D01*
X109536158Y-92287425D01*
X109579783Y-92342002D01*
X109586977Y-92411500D01*
X109555454Y-92473855D01*
X109536158Y-92490575D01*
X109350597Y-92620505D01*
X109183505Y-92787597D01*
X109053575Y-92973158D01*
X108998998Y-93016783D01*
X108929500Y-93023977D01*
X108867145Y-92992454D01*
X108850425Y-92973158D01*
X108720494Y-92787597D01*
X108553402Y-92620506D01*
X108553396Y-92620501D01*
X108367842Y-92490575D01*
X108324217Y-92435998D01*
X108317023Y-92366500D01*
X108348546Y-92304145D01*
X108367842Y-92287425D01*
X108519165Y-92181467D01*
X108553401Y-92157495D01*
X108720495Y-91990401D01*
X108850425Y-91804842D01*
X108905002Y-91761217D01*
X108974500Y-91754023D01*
X109036855Y-91785546D01*
G37*
%TD.AperFunction*%
%TA.AperFunction,NonConductor*%
G36*
X109036855Y-94325546D02*
G01*
X109053575Y-94344842D01*
X109183501Y-94530396D01*
X109183506Y-94530402D01*
X109350597Y-94697493D01*
X109350603Y-94697498D01*
X109536158Y-94827425D01*
X109579783Y-94882002D01*
X109586977Y-94951500D01*
X109555454Y-95013855D01*
X109536158Y-95030575D01*
X109350597Y-95160505D01*
X109183505Y-95327597D01*
X109053575Y-95513158D01*
X108998998Y-95556783D01*
X108929500Y-95563977D01*
X108867145Y-95532454D01*
X108850425Y-95513158D01*
X108720494Y-95327597D01*
X108553402Y-95160506D01*
X108553396Y-95160501D01*
X108367842Y-95030575D01*
X108324217Y-94975998D01*
X108317023Y-94906500D01*
X108348546Y-94844145D01*
X108367842Y-94827425D01*
X108458262Y-94764112D01*
X108553401Y-94697495D01*
X108720495Y-94530401D01*
X108850425Y-94344842D01*
X108905002Y-94301217D01*
X108974500Y-94294023D01*
X109036855Y-94325546D01*
G37*
%TD.AperFunction*%
%TA.AperFunction,NonConductor*%
G36*
X109036855Y-96865546D02*
G01*
X109053575Y-96884842D01*
X109183501Y-97070396D01*
X109183506Y-97070402D01*
X109350597Y-97237493D01*
X109350603Y-97237498D01*
X109536158Y-97367425D01*
X109579783Y-97422002D01*
X109586977Y-97491500D01*
X109555454Y-97553855D01*
X109536158Y-97570575D01*
X109350597Y-97700505D01*
X109183505Y-97867597D01*
X109053575Y-98053158D01*
X108998998Y-98096783D01*
X108929500Y-98103977D01*
X108867145Y-98072454D01*
X108850425Y-98053158D01*
X108720494Y-97867597D01*
X108553402Y-97700506D01*
X108553396Y-97700501D01*
X108367842Y-97570575D01*
X108324217Y-97515998D01*
X108317023Y-97446500D01*
X108348546Y-97384145D01*
X108367842Y-97367425D01*
X108431747Y-97322678D01*
X108553401Y-97237495D01*
X108720495Y-97070401D01*
X108850425Y-96884842D01*
X108905002Y-96841217D01*
X108974500Y-96834023D01*
X109036855Y-96865546D01*
G37*
%TD.AperFunction*%
%TA.AperFunction,NonConductor*%
G36*
X109049354Y-115787214D02*
G01*
X109084769Y-115847443D01*
X109088500Y-115877634D01*
X109088500Y-116602365D01*
X109068815Y-116669404D01*
X109016011Y-116715159D01*
X108946853Y-116725103D01*
X108883297Y-116696078D01*
X108862925Y-116673489D01*
X108838491Y-116638594D01*
X108671402Y-116471506D01*
X108671396Y-116471501D01*
X108485842Y-116341575D01*
X108442217Y-116286998D01*
X108435023Y-116217500D01*
X108466546Y-116155145D01*
X108485842Y-116138425D01*
X108582062Y-116071051D01*
X108671401Y-116008495D01*
X108838495Y-115841401D01*
X108862925Y-115806510D01*
X108917501Y-115762886D01*
X108986999Y-115755692D01*
X109049354Y-115787214D01*
G37*
%TD.AperFunction*%
%TA.AperFunction,NonConductor*%
G36*
X109049354Y-118327214D02*
G01*
X109084769Y-118387443D01*
X109088500Y-118417634D01*
X109088500Y-119142365D01*
X109068815Y-119209404D01*
X109016011Y-119255159D01*
X108946853Y-119265103D01*
X108883297Y-119236078D01*
X108862925Y-119213489D01*
X108859027Y-119207922D01*
X108838495Y-119178599D01*
X108838493Y-119178597D01*
X108838491Y-119178594D01*
X108671402Y-119011506D01*
X108671396Y-119011501D01*
X108485842Y-118881575D01*
X108442217Y-118826998D01*
X108435023Y-118757500D01*
X108466546Y-118695145D01*
X108485842Y-118678425D01*
X108508026Y-118662891D01*
X108671401Y-118548495D01*
X108838495Y-118381401D01*
X108862925Y-118346510D01*
X108917501Y-118302886D01*
X108986999Y-118295692D01*
X109049354Y-118327214D01*
G37*
%TD.AperFunction*%
%TA.AperFunction,NonConductor*%
G36*
X144899851Y-85012161D02*
G01*
X144953518Y-85056901D01*
X144974477Y-85123552D01*
X144974500Y-85125917D01*
X144974500Y-85302594D01*
X144954815Y-85369633D01*
X144902011Y-85415388D01*
X144832853Y-85425332D01*
X144824729Y-85423886D01*
X144740588Y-85406002D01*
X144637500Y-85406002D01*
X144570461Y-85386317D01*
X144524706Y-85333513D01*
X144513500Y-85282002D01*
X144513500Y-85269863D01*
X144533185Y-85202824D01*
X144585989Y-85157069D01*
X144587064Y-85156584D01*
X144615730Y-85143821D01*
X144768871Y-85032558D01*
X144768870Y-85032558D01*
X144774129Y-85028738D01*
X144775132Y-85030118D01*
X144830516Y-85003538D01*
X144899851Y-85012161D01*
G37*
%TD.AperFunction*%
%TA.AperFunction,NonConductor*%
G36*
X143199474Y-119099949D02*
G01*
X143248169Y-119150055D01*
X143262500Y-119207922D01*
X143262500Y-121645547D01*
X143242815Y-121712586D01*
X143226181Y-121733228D01*
X142532228Y-122427181D01*
X142470905Y-122460666D01*
X142444547Y-122463500D01*
X142385352Y-122463500D01*
X142239280Y-122494548D01*
X142169613Y-122489232D01*
X142113880Y-122447094D01*
X142089775Y-122381514D01*
X142089500Y-122373258D01*
X142089500Y-119410741D01*
X142109185Y-119343702D01*
X142161989Y-119297947D01*
X142231147Y-119288003D01*
X142239266Y-119289448D01*
X142385354Y-119320500D01*
X142385355Y-119320500D01*
X142574644Y-119320500D01*
X142574646Y-119320500D01*
X142759803Y-119281144D01*
X142932730Y-119204151D01*
X143065618Y-119107602D01*
X143131420Y-119084124D01*
X143199474Y-119099949D01*
G37*
%TD.AperFunction*%
M02*
