M48
; DRILL file {KiCad 7.0.9} date Fri Dec  8 23:54:07 2023
; FORMAT={-:-/ absolute / inch / decimal}
; #@! TF.CreationDate,2023-12-08T23:54:07+01:00
; #@! TF.GenerationSoftware,Kicad,Pcbnew,7.0.9
; #@! TF.FileFunction,Plated,1,2,PTH
FMAT,2
INCH
; #@! TA.AperFunction,Plated,PTH,ViaDrill
T1C0.0157
; #@! TA.AperFunction,Plated,PTH,ComponentDrill
T2C0.0181
; #@! TA.AperFunction,Plated,PTH,ViaDrill
T3C0.0236
; #@! TA.AperFunction,Plated,PTH,ViaDrill
T4C0.0315
; #@! TA.AperFunction,Plated,PTH,ComponentDrill
T5C0.0394
; #@! TA.AperFunction,Plated,PTH,ComponentDrill
T6C0.0630
%
G90
G05
T1
X2.815Y-3.5236
X2.815Y-3.7106
X2.815Y-3.8976
X2.815Y-4.1437
X2.815Y-4.3504
X2.815Y-4.5768
X2.815Y-4.7736
X2.815Y-5.0098
X2.815Y-5.2461
X2.8248Y-1.4862
X2.8248Y-1.6437
X2.8248Y-1.8504
X2.8248Y-2.0965
X2.8248Y-2.4213
X2.8248Y-2.7362
X2.8248Y-3.0512
X2.8248Y-3.2382
X3.0315Y-3.239
X3.0413Y-1.4862
X3.1398Y-5.2472
X3.7106Y-5.2264
X3.8189Y-3.2283
X4.0748Y-1.4961
X4.0846Y-1.7913
X4.0846Y-2.0669
X4.0846Y-2.3819
X4.0846Y-2.6772
X4.0846Y-2.874
X4.0846Y-3.2283
X4.0846Y-3.4646
X4.0846Y-3.6713
X4.0846Y-3.8583
X4.0846Y-4.124
X4.0846Y-4.3602
X4.0846Y-4.5669
X4.0846Y-4.813
X4.0846Y-5.0098
X4.0846Y-5.2264
X4.3194Y-4.7269
X4.3494Y-4.8269
X4.4174Y-4.6259
X4.4194Y-4.8069
X4.4394Y-3.0369
X4.4694Y-4.2169
X4.4992Y-4.5869
X4.5694Y-3.3074
X4.6094Y-3.3382
X4.6499Y-2.4849
X4.6594Y-3.9974
X4.6894Y-3.7269
X4.6919Y-2.0529
X4.7063Y-3.4437
X4.7294Y-3.7569
X4.754Y-3.548
X4.7866Y-3.7574
X4.8294Y-3.9874
X4.9294Y-4.0669
X4.9394Y-2.4169
X4.9694Y-3.8769
X5.0252Y-4.5961
X5.5594Y-4.9169
X5.5681Y-3.5675
X5.6094Y-4.6622
X5.6094Y-4.8569
X5.6138Y-3.9174
X5.6757Y-3.3212
X5.6894Y-4.8269
X5.6947Y-3.3979
X5.6994Y-3.6569
X5.7323Y-3.5
X6.3494Y-3.5269
T2
X3.2606Y-3.0504
X3.2606Y-3.6417
X3.2626Y-1.6343
X3.2626Y-5.0587
X3.6055Y-3.0504
X3.6055Y-3.6417
X3.6075Y-1.6343
X3.6075Y-5.0587
T3
X4.3794Y-4.9369
X4.3839Y-4.5669
X5.0394Y-2.5169
X5.0494Y-2.1769
X5.1289Y-3.6512
X5.2494Y-2.4969
X5.2594Y-2.1769
X6.3491Y-2.3409
T4
X4.486Y-4.0401
X4.5073Y-3.3507
X4.6553Y-3.4987
X5.472Y-3.0429
X5.474Y-4.3574
X5.822Y-4.3574
X6.1177Y-2.5646
X6.1194Y-3.8569
T5
X4.2394Y-3.0674
X4.2394Y-3.1674
X4.2394Y-3.2674
X4.2394Y-3.4874
X4.2394Y-3.5874
X4.2394Y-3.6874
X4.2394Y-3.7874
X4.2394Y-3.8874
X4.2394Y-3.9874
X4.2394Y-4.0874
X4.2394Y-4.1874
X4.2441Y-4.5264
X4.2441Y-4.6264
X4.2441Y-4.7264
X4.2441Y-4.8264
X4.2441Y-4.9264
X4.3394Y-3.4874
X4.3394Y-3.5874
X4.3394Y-3.6874
X4.3394Y-3.7874
X4.3394Y-3.8874
X4.3394Y-3.9874
X4.3394Y-4.0874
X4.3394Y-4.1874
X4.4994Y-4.3574
X4.4994Y-4.4574
X4.5768Y-3.513
X4.5768Y-3.613
X4.5994Y-4.3574
X4.5994Y-4.4574
X4.6994Y-4.3574
X4.6994Y-4.4574
X4.7194Y-2.9174
X4.7394Y-4.7469
X4.7839Y-2.0049
X4.7839Y-2.1049
X4.7994Y-3.2374
X4.7994Y-3.3374
X4.7994Y-4.3574
X4.7994Y-4.4574
X4.8194Y-2.9174
X4.8394Y-4.7469
X4.8994Y-3.2374
X4.8994Y-3.3374
X4.8994Y-4.3574
X4.8994Y-4.4574
X4.9194Y-2.9174
X4.9394Y-4.7469
X4.9994Y-3.2374
X4.9994Y-3.3374
X4.9994Y-4.3574
X4.9994Y-4.4574
X5.0194Y-2.9174
X5.0394Y-4.7469
X5.0994Y-3.2374
X5.0994Y-3.3374
X5.0994Y-4.3574
X5.0994Y-4.4574
X5.1194Y-2.9174
X5.1394Y-4.7469
X5.1494Y-4.9269
X5.1994Y-3.2374
X5.1994Y-3.3374
X5.1994Y-4.3574
X5.1994Y-4.4574
X5.2194Y-2.9174
X5.2394Y-4.7469
X5.2494Y-4.9269
X5.3194Y-2.9174
X5.3794Y-3.5174
X5.3794Y-3.6174
X5.3794Y-3.7174
X5.3794Y-3.8174
X5.3794Y-3.9174
X5.3794Y-4.0174
X5.3794Y-4.1174
X5.3794Y-4.2174
X5.4194Y-2.9174
X5.4326Y-3.1626
X5.4794Y-3.5174
X5.4794Y-3.6174
X5.4794Y-3.7174
X5.4794Y-3.8174
X5.4794Y-3.9174
X5.4794Y-4.0174
X5.4794Y-4.1174
X5.4794Y-4.2174
X5.7197Y-3.1457
X5.8197Y-3.1457
X5.8959Y-2.0049
X5.8959Y-2.1049
X5.9197Y-3.1457
X6.0197Y-3.1457
X6.2724Y-3.0529
X6.4317Y-3.3485
X6.4317Y-3.4485
X6.4317Y-3.5485
X6.4317Y-3.6485
T6
X4.3594Y-1.9644
X4.5594Y-1.9644
X5.4594Y-1.9651
X5.6594Y-1.9651
T0
M30
