%TF.GenerationSoftware,KiCad,Pcbnew,7.0.9*%
%TF.CreationDate,2023-12-08T23:47:41+01:00*%
%TF.ProjectId,SMPS_V1_power,534d5053-5f56-4315-9f70-6f7765722e6b,rev?*%
%TF.SameCoordinates,Original*%
%TF.FileFunction,Copper,L1,Top*%
%TF.FilePolarity,Positive*%
%FSLAX46Y46*%
G04 Gerber Fmt 4.6, Leading zero omitted, Abs format (unit mm)*
G04 Created by KiCad (PCBNEW 7.0.9) date 2023-12-08 23:47:41*
%MOMM*%
%LPD*%
G01*
G04 APERTURE LIST*
G04 Aperture macros list*
%AMRoundRect*
0 Rectangle with rounded corners*
0 $1 Rounding radius*
0 $2 $3 $4 $5 $6 $7 $8 $9 X,Y pos of 4 corners*
0 Add a 4 corners polygon primitive as box body*
4,1,4,$2,$3,$4,$5,$6,$7,$8,$9,$2,$3,0*
0 Add four circle primitives for the rounded corners*
1,1,$1+$1,$2,$3*
1,1,$1+$1,$4,$5*
1,1,$1+$1,$6,$7*
1,1,$1+$1,$8,$9*
0 Add four rect primitives between the rounded corners*
20,1,$1+$1,$2,$3,$4,$5,0*
20,1,$1+$1,$4,$5,$6,$7,0*
20,1,$1+$1,$6,$7,$8,$9,0*
20,1,$1+$1,$8,$9,$2,$3,0*%
G04 Aperture macros list end*
%TA.AperFunction,SMDPad,CuDef*%
%ADD10RoundRect,0.250000X-0.625000X0.400000X-0.625000X-0.400000X0.625000X-0.400000X0.625000X0.400000X0*%
%TD*%
%TA.AperFunction,ComponentPad*%
%ADD11R,1.700000X1.700000*%
%TD*%
%TA.AperFunction,ComponentPad*%
%ADD12C,2.400000*%
%TD*%
%TA.AperFunction,ComponentPad*%
%ADD13C,1.524000*%
%TD*%
%TA.AperFunction,ComponentPad*%
%ADD14O,2.400000X2.400000*%
%TD*%
%TA.AperFunction,SMDPad,CuDef*%
%ADD15RoundRect,0.200000X0.200000X0.275000X-0.200000X0.275000X-0.200000X-0.275000X0.200000X-0.275000X0*%
%TD*%
%TA.AperFunction,ComponentPad*%
%ADD16R,4.500000X2.500000*%
%TD*%
%TA.AperFunction,ComponentPad*%
%ADD17O,4.500000X2.500000*%
%TD*%
%TA.AperFunction,SMDPad,CuDef*%
%ADD18RoundRect,0.250000X0.400000X0.625000X-0.400000X0.625000X-0.400000X-0.625000X0.400000X-0.625000X0*%
%TD*%
%TA.AperFunction,ComponentPad*%
%ADD19R,2.500000X2.500000*%
%TD*%
%TA.AperFunction,SMDPad,CuDef*%
%ADD20RoundRect,0.150000X-0.150000X0.587500X-0.150000X-0.587500X0.150000X-0.587500X0.150000X0.587500X0*%
%TD*%
%TA.AperFunction,SMDPad,CuDef*%
%ADD21RoundRect,0.200000X-0.200000X-0.275000X0.200000X-0.275000X0.200000X0.275000X-0.200000X0.275000X0*%
%TD*%
%TA.AperFunction,ComponentPad*%
%ADD22O,1.700000X1.700000*%
%TD*%
%TA.AperFunction,ComponentPad*%
%ADD23R,2.400000X2.400000*%
%TD*%
%TA.AperFunction,SMDPad,CuDef*%
%ADD24RoundRect,0.200000X-0.275000X0.200000X-0.275000X-0.200000X0.275000X-0.200000X0.275000X0.200000X0*%
%TD*%
%TA.AperFunction,ComponentPad*%
%ADD25C,6.000000*%
%TD*%
%TA.AperFunction,SMDPad,CuDef*%
%ADD26RoundRect,0.150000X-0.587500X-0.150000X0.587500X-0.150000X0.587500X0.150000X-0.587500X0.150000X0*%
%TD*%
%TA.AperFunction,SMDPad,CuDef*%
%ADD27RoundRect,0.200000X0.275000X-0.200000X0.275000X0.200000X-0.275000X0.200000X-0.275000X-0.200000X0*%
%TD*%
%TA.AperFunction,SMDPad,CuDef*%
%ADD28RoundRect,0.150000X0.150000X-0.587500X0.150000X0.587500X-0.150000X0.587500X-0.150000X-0.587500X0*%
%TD*%
%TA.AperFunction,ComponentPad*%
%ADD29C,2.800000*%
%TD*%
%TA.AperFunction,ComponentPad*%
%ADD30O,2.800000X2.800000*%
%TD*%
%TA.AperFunction,Conductor*%
%ADD31C,0.250000*%
%TD*%
G04 APERTURE END LIST*
D10*
%TO.P,R5,1*%
%TO.N,V400_IN*%
X198000000Y-56450000D03*
%TO.P,R5,2*%
%TO.N,Net-(R5-Pad2)*%
X198000000Y-59550000D03*
%TD*%
D11*
%TO.P,J18,1,Pin_1*%
%TO.N,Net-(J18-Pin_1)*%
X202334000Y-111934000D03*
%TD*%
D12*
%TO.P,R15,1,1*%
%TO.N,GND_P*%
X195758500Y-126920000D03*
D13*
%TO.P,R15,2,2*%
%TO.N,Net-(J19-Pin_1)*%
X190678500Y-124380000D03*
%TO.P,R15,3,3*%
%TO.N,Net-(J19-Pin_2)*%
X190678500Y-114220000D03*
D14*
%TO.P,R15,4,4*%
%TO.N,Net-(J18-Pin_1)*%
X195758500Y-111680000D03*
%TD*%
D15*
%TO.P,R20,1*%
%TO.N,Net-(J22-Pin_2)*%
X257769000Y-101266000D03*
%TO.P,R20,2*%
%TO.N,Net-(Q5-E)*%
X256119000Y-101266000D03*
%TD*%
D16*
%TO.P,Q3,1,G*%
%TO.N,Net-(Q3-G)*%
X202080000Y-66490000D03*
D17*
%TO.P,Q3,2,D*%
%TO.N,V400_IN*%
X202080000Y-71940000D03*
%TO.P,Q3,3,S*%
%TO.N,Net-(J17-Pin_1)*%
X202080000Y-77390000D03*
%TD*%
D18*
%TO.P,R9,1*%
%TO.N,Net-(R5-Pad2)*%
X195050000Y-61500000D03*
%TO.P,R9,2*%
%TO.N,Net-(Q1-B)*%
X191950000Y-61500000D03*
%TD*%
D19*
%TO.P,C13,1*%
%TO.N,Out*%
X261800000Y-79990000D03*
%TO.P,C13,2*%
%TO.N,Out_G*%
X261800000Y-51990000D03*
%TD*%
D16*
%TO.P,Q4,1,G*%
%TO.N,Net-(Q4-G)*%
X202080000Y-92630000D03*
D17*
%TO.P,Q4,2,D*%
%TO.N,Net-(Q4-D)*%
X202080000Y-98080000D03*
%TO.P,Q4,3,S*%
%TO.N,Net-(J18-Pin_1)*%
X202080000Y-103530000D03*
%TD*%
D20*
%TO.P,Q6,1,E*%
%TO.N,Net-(Q6-E)*%
X256690000Y-104979000D03*
%TO.P,Q6,2,C*%
%TO.N,Net-(J22-Pin_4)*%
X254790000Y-104979000D03*
%TO.P,Q6,3,B*%
%TO.N,Net-(Q5-B)*%
X255740000Y-106854000D03*
%TD*%
D21*
%TO.P,R10,1*%
%TO.N,Net-(J24-Pin_4)*%
X190175000Y-69000000D03*
%TO.P,R10,2*%
%TO.N,Net-(Q3-G)*%
X191825000Y-69000000D03*
%TD*%
D11*
%TO.P,J19,1,Pin_1*%
%TO.N,Net-(J19-Pin_1)*%
X190650000Y-120316000D03*
D22*
%TO.P,J19,2,Pin_2*%
%TO.N,Net-(J19-Pin_2)*%
X190650000Y-117776000D03*
%TD*%
D18*
%TO.P,R17,1*%
%TO.N,Out*%
X259790000Y-86026000D03*
%TO.P,R17,2*%
%TO.N,Net-(R17-Pad2)*%
X256690000Y-86026000D03*
%TD*%
D21*
%TO.P,R11,1*%
%TO.N,Net-(J24-Pin_2)*%
X190650000Y-93900000D03*
%TO.P,R11,2*%
%TO.N,Net-(Q4-G)*%
X192300000Y-93900000D03*
%TD*%
D23*
%TO.P,J16,1,1*%
%TO.N,GND_P*%
X202080000Y-49450000D03*
D12*
%TO.P,J16,2,2*%
%TO.N,V400_IN*%
X197000000Y-49450000D03*
%TD*%
D24*
%TO.P,R6,1*%
%TO.N,Net-(J15-Pin_3)*%
X188500000Y-51675000D03*
%TO.P,R6,2*%
%TO.N,Net-(Q1-E)*%
X188500000Y-53325000D03*
%TD*%
D15*
%TO.P,R22,1*%
%TO.N,Net-(J22-Pin_3)*%
X261388000Y-109140000D03*
%TO.P,R22,2*%
%TO.N,Net-(Q6-E)*%
X259738000Y-109140000D03*
%TD*%
D20*
%TO.P,Q5,1,E*%
%TO.N,Net-(Q5-E)*%
X256370000Y-95424000D03*
%TO.P,Q5,2,C*%
%TO.N,unconnected-(Q5-C-Pad2)*%
X254470000Y-95424000D03*
%TO.P,Q5,3,B*%
%TO.N,Net-(Q5-B)*%
X255420000Y-97299000D03*
%TD*%
D25*
%TO.P,L1,1,1*%
%TO.N,Net-(L1-Pad1)*%
X223118000Y-85772000D03*
%TO.P,L1,2,2*%
%TO.N,Out*%
X243018000Y-85772000D03*
%TD*%
D10*
%TO.P,R18,1*%
%TO.N,Net-(R17-Pad2)*%
X255420000Y-89048000D03*
%TO.P,R18,2*%
%TO.N,Net-(Q5-B)*%
X255420000Y-92148000D03*
%TD*%
D12*
%TO.P,R16,1,1*%
%TO.N,Net-(Q4-D)*%
X220368000Y-123872000D03*
D13*
%TO.P,R16,2,2*%
%TO.N,Net-(J20-Pin_2)*%
X222908000Y-118792000D03*
%TO.P,R16,3,3*%
%TO.N,Net-(J20-Pin_1)*%
X233068000Y-118792000D03*
D14*
%TO.P,R16,4,4*%
%TO.N,Net-(L1-Pad1)*%
X235608000Y-123872000D03*
%TD*%
D26*
%TO.P,Q1,1,E*%
%TO.N,Net-(Q1-E)*%
X186125000Y-59050000D03*
%TO.P,Q1,2,C*%
%TO.N,Net-(J15-Pin_4)*%
X186125000Y-60950000D03*
%TO.P,Q1,3,B*%
%TO.N,Net-(Q1-B)*%
X188000000Y-60000000D03*
%TD*%
D27*
%TO.P,R12,1*%
%TO.N,Net-(J17-Pin_1)*%
X195984000Y-73389000D03*
%TO.P,R12,2*%
%TO.N,Net-(Q3-G)*%
X195984000Y-71739000D03*
%TD*%
D21*
%TO.P,R21,1*%
%TO.N,Net-(J22-Pin_2)*%
X260500000Y-102790000D03*
%TO.P,R21,2*%
%TO.N,Out_G*%
X262150000Y-102790000D03*
%TD*%
D11*
%TO.P,J22,1,Pin_1*%
%TO.N,Out_G*%
X265326000Y-104314000D03*
D22*
%TO.P,J22,2,Pin_2*%
%TO.N,Net-(J22-Pin_2)*%
X265326000Y-106854000D03*
%TO.P,J22,3,Pin_3*%
%TO.N,Net-(J22-Pin_3)*%
X265326000Y-109394000D03*
%TO.P,J22,4,Pin_4*%
%TO.N,Net-(J22-Pin_4)*%
X265326000Y-111934000D03*
%TD*%
D27*
%TO.P,R7,1*%
%TO.N,Net-(J15-Pin_2)*%
X188500000Y-49650000D03*
%TO.P,R7,2*%
%TO.N,GND_P*%
X188500000Y-48000000D03*
%TD*%
D19*
%TO.P,C12,1*%
%TO.N,V400_IN*%
X220846000Y-54276000D03*
%TO.P,C12,2*%
%TO.N,GND_P*%
X248846000Y-54276000D03*
%TD*%
D11*
%TO.P,J15,1,Pin_1*%
%TO.N,GND_P*%
X185500000Y-46380000D03*
D22*
%TO.P,J15,2,Pin_2*%
%TO.N,Net-(J15-Pin_2)*%
X185500000Y-48920000D03*
%TO.P,J15,3,Pin_3*%
%TO.N,Net-(J15-Pin_3)*%
X185500000Y-51460000D03*
%TO.P,J15,4,Pin_4*%
%TO.N,Net-(J15-Pin_4)*%
X185500000Y-54000000D03*
%TD*%
D11*
%TO.P,J17,1,Pin_1*%
%TO.N,Net-(J17-Pin_1)*%
X201826000Y-85010000D03*
%TD*%
D23*
%TO.P,J23,1,1*%
%TO.N,Out_G*%
X264264500Y-96186000D03*
D12*
%TO.P,J23,2,2*%
%TO.N,Out*%
X264264500Y-91106000D03*
%TD*%
D11*
%TO.P,J21,1,Pin_1*%
%TO.N,Net-(J21-Pin_1)*%
X251102000Y-116500000D03*
D22*
%TO.P,J21,2,Pin_2*%
%TO.N,Net-(J21-Pin_2)*%
X251102000Y-119040000D03*
%TD*%
D27*
%TO.P,R14,1*%
%TO.N,Net-(J18-Pin_1)*%
X195730000Y-99805000D03*
%TO.P,R14,2*%
%TO.N,Net-(Q4-G)*%
X195730000Y-98155000D03*
%TD*%
D28*
%TO.P,Q2,1,E*%
%TO.N,Net-(Q2-E)*%
X190100000Y-57500000D03*
%TO.P,Q2,2,C*%
%TO.N,unconnected-(Q2-C-Pad2)*%
X192000000Y-57500000D03*
%TO.P,Q2,3,B*%
%TO.N,Net-(Q1-B)*%
X191050000Y-55625000D03*
%TD*%
D29*
%TO.P,R13,1*%
%TO.N,Net-(Q4-D)*%
X190650000Y-88820000D03*
D30*
%TO.P,R13,2*%
%TO.N,Net-(J17-Pin_1)*%
X190650000Y-73580000D03*
%TD*%
D24*
%TO.P,R8,1*%
%TO.N,Net-(J15-Pin_2)*%
X191000000Y-51675000D03*
%TO.P,R8,2*%
%TO.N,Net-(Q2-E)*%
X191000000Y-53325000D03*
%TD*%
D12*
%TO.P,R19,1,1*%
%TO.N,Out_G*%
X246022000Y-109500000D03*
D13*
%TO.P,R19,2,2*%
%TO.N,Net-(J21-Pin_1)*%
X251102000Y-112040000D03*
%TO.P,R19,3,3*%
%TO.N,Net-(J21-Pin_2)*%
X251102000Y-122200000D03*
D14*
%TO.P,R19,4,4*%
%TO.N,GND_P*%
X246022000Y-124740000D03*
%TD*%
D11*
%TO.P,J20,1,Pin_1*%
%TO.N,Net-(J20-Pin_1)*%
X229004000Y-118538000D03*
D22*
%TO.P,J20,2,Pin_2*%
%TO.N,Net-(J20-Pin_2)*%
X226464000Y-118538000D03*
%TD*%
D11*
%TO.P,J24,1,Pin_1*%
%TO.N,Net-(J18-Pin_1)*%
X184554000Y-92731600D03*
D22*
%TO.P,J24,2,Pin_2*%
%TO.N,Net-(J24-Pin_2)*%
X184554000Y-90191600D03*
%TO.P,J24,3,Pin_3*%
%TO.N,Net-(J17-Pin_1)*%
X184554000Y-87651600D03*
%TO.P,J24,4,Pin_4*%
%TO.N,Net-(J24-Pin_4)*%
X184554000Y-85111600D03*
%TD*%
D31*
%TO.N,Out*%
X261770000Y-83232000D02*
X261770000Y-79990000D01*
X259790000Y-86026000D02*
X261516000Y-86026000D01*
X263040000Y-84502000D02*
X261770000Y-83232000D01*
X261516000Y-86026000D02*
X263040000Y-84502000D01*
%TO.N,Out_G*%
X264264500Y-96186000D02*
X264264500Y-103252500D01*
X262150000Y-102790000D02*
X263802000Y-102790000D01*
X264264500Y-103252500D02*
X265326000Y-104314000D01*
X263802000Y-102790000D02*
X265326000Y-104314000D01*
%TO.N,V400_IN*%
X197000000Y-55450000D02*
X198000000Y-56450000D01*
X197000000Y-49450000D02*
X197000000Y-55450000D01*
%TO.N,GND_P*%
X188500000Y-48000000D02*
X188500000Y-47000000D01*
X186586000Y-45132000D02*
X200302000Y-45132000D01*
X185570000Y-46148000D02*
X186586000Y-45132000D01*
X188500000Y-47000000D02*
X187880000Y-46380000D01*
X200302000Y-45132000D02*
X202080000Y-46910000D01*
X202080000Y-46910000D02*
X202080000Y-49450000D01*
X187880000Y-46380000D02*
X185500000Y-46380000D01*
%TO.N,Net-(Q5-E)*%
X254912000Y-101266000D02*
X256119000Y-101266000D01*
X256436000Y-98535000D02*
X254308500Y-100662500D01*
X254308500Y-100662500D02*
X254912000Y-101266000D01*
X256436000Y-95924000D02*
X256436000Y-98535000D01*
%TO.N,Net-(Q5-B)*%
X252880000Y-101266000D02*
X255740000Y-104126000D01*
X255420000Y-97299000D02*
X255420000Y-98472000D01*
X252880000Y-101012000D02*
X252880000Y-101266000D01*
X255420000Y-92148000D02*
X255420000Y-97299000D01*
X255740000Y-104126000D02*
X255740000Y-106854000D01*
X255420000Y-98472000D02*
X252880000Y-101012000D01*
%TO.N,Net-(Q6-E)*%
X257960000Y-108886000D02*
X258214000Y-109140000D01*
X256847000Y-104979000D02*
X257960000Y-106092000D01*
X256690000Y-104979000D02*
X256847000Y-104979000D01*
X257960000Y-106092000D02*
X257960000Y-108886000D01*
X258214000Y-109140000D02*
X259738000Y-109140000D01*
%TO.N,Net-(J18-Pin_1)*%
X202334000Y-111934000D02*
X195730000Y-105330000D01*
X195730000Y-101520000D02*
X197740000Y-103530000D01*
X195730000Y-99805000D02*
X195730000Y-101520000D01*
X186941600Y-92731600D02*
X195730000Y-101520000D01*
X195730000Y-105330000D02*
X195730000Y-101520000D01*
X184554000Y-92731600D02*
X186941600Y-92731600D01*
X197740000Y-103530000D02*
X202080000Y-103530000D01*
%TO.N,Net-(J17-Pin_1)*%
X195984000Y-74342000D02*
X199032000Y-77390000D01*
X188110000Y-85518000D02*
X187348000Y-86280000D01*
X185925600Y-86280000D02*
X184554000Y-87651600D01*
X195984000Y-73389000D02*
X195984000Y-74088000D01*
X195984000Y-74088000D02*
X195984000Y-85518000D01*
X187348000Y-86280000D02*
X185925600Y-86280000D01*
X195984000Y-74088000D02*
X195984000Y-74342000D01*
X199032000Y-77390000D02*
X202080000Y-77390000D01*
X195984000Y-85518000D02*
X188110000Y-85518000D01*
X201318000Y-85518000D02*
X195984000Y-85518000D01*
X201826000Y-85010000D02*
X201318000Y-85518000D01*
%TO.N,Net-(J19-Pin_1)*%
X190650000Y-120316000D02*
X190650000Y-124380000D01*
%TO.N,Net-(J19-Pin_2)*%
X190650000Y-114220000D02*
X190650000Y-117776000D01*
%TO.N,Net-(J15-Pin_2)*%
X188500000Y-49650000D02*
X186230000Y-49650000D01*
X190150000Y-49650000D02*
X188500000Y-49650000D01*
X191000000Y-50500000D02*
X190150000Y-49650000D01*
X191000000Y-51675000D02*
X191000000Y-50500000D01*
X186230000Y-49650000D02*
X185500000Y-48920000D01*
%TO.N,Net-(J15-Pin_3)*%
X188500000Y-51675000D02*
X185715000Y-51675000D01*
X185715000Y-51675000D02*
X185500000Y-51460000D01*
%TO.N,Net-(J15-Pin_4)*%
X186125000Y-60950000D02*
X184450000Y-60950000D01*
X184000000Y-55500000D02*
X185500000Y-54000000D01*
X184000000Y-60500000D02*
X184000000Y-55500000D01*
X184450000Y-60950000D02*
X184000000Y-60500000D01*
%TO.N,Net-(J20-Pin_1)*%
X229004000Y-118538000D02*
X232814000Y-118538000D01*
X232814000Y-118538000D02*
X233068000Y-118792000D01*
%TO.N,Net-(J20-Pin_2)*%
X223162000Y-118538000D02*
X222908000Y-118792000D01*
X226464000Y-118538000D02*
X223162000Y-118538000D01*
%TO.N,Net-(J21-Pin_1)*%
X251102000Y-116500000D02*
X251102000Y-112040000D01*
X251102000Y-112696000D02*
X251102000Y-115998000D01*
%TO.N,Net-(J21-Pin_2)*%
X251102000Y-122856000D02*
X251102000Y-118538000D01*
X251102000Y-119040000D02*
X251102000Y-122200000D01*
%TO.N,Net-(J22-Pin_4)*%
X257452000Y-112188000D02*
X265072000Y-112188000D01*
X265072000Y-112188000D02*
X265326000Y-111934000D01*
X254790000Y-104979000D02*
X254790000Y-109526000D01*
X254790000Y-109526000D02*
X257452000Y-112188000D01*
%TO.N,Net-(J22-Pin_3)*%
X261388000Y-109140000D02*
X265072000Y-109140000D01*
X265072000Y-109140000D02*
X265326000Y-109394000D01*
%TO.N,Net-(J22-Pin_2)*%
X262278000Y-107108000D02*
X258722000Y-103552000D01*
X260500000Y-102790000D02*
X258976000Y-102790000D01*
X265326000Y-106854000D02*
X265072000Y-107108000D01*
X258722000Y-102219000D02*
X258722000Y-102536000D01*
X265072000Y-107108000D02*
X262278000Y-107108000D01*
X257769000Y-101266000D02*
X258722000Y-102219000D01*
X258976000Y-102790000D02*
X258722000Y-102536000D01*
X258722000Y-103552000D02*
X258722000Y-102536000D01*
%TO.N,Net-(J24-Pin_4)*%
X190175000Y-69000000D02*
X187500000Y-69000000D01*
X186000000Y-70500000D02*
X186000000Y-83500000D01*
X186000000Y-83500000D02*
X184490000Y-85010000D01*
X187500000Y-69000000D02*
X186000000Y-70500000D01*
%TO.N,Net-(J24-Pin_2)*%
X190650000Y-93900000D02*
X189380000Y-93900000D01*
X189380000Y-93900000D02*
X185671600Y-90191600D01*
X185671600Y-90191600D02*
X184554000Y-90191600D01*
%TO.N,Net-(Q1-E)*%
X186125000Y-59050000D02*
X186950000Y-59050000D01*
X188500000Y-57500000D02*
X188500000Y-53325000D01*
X186950000Y-59050000D02*
X188500000Y-57500000D01*
%TO.N,Net-(Q1-B)*%
X190500000Y-60000000D02*
X188000000Y-60000000D01*
X191050000Y-59450000D02*
X190500000Y-60000000D01*
X190500000Y-60050000D02*
X190500000Y-60000000D01*
X191950000Y-61500000D02*
X190500000Y-60050000D01*
X191050000Y-55625000D02*
X191050000Y-59450000D01*
%TO.N,Net-(Q2-E)*%
X191000000Y-53500000D02*
X191000000Y-53325000D01*
X190000000Y-54500000D02*
X191000000Y-53500000D01*
X190100000Y-57500000D02*
X190100000Y-54600000D01*
X190100000Y-54600000D02*
X190000000Y-54500000D01*
%TO.N,Net-(Q3-G)*%
X198248000Y-66490000D02*
X196119000Y-68619000D01*
X195738000Y-69000000D02*
X196119000Y-68619000D01*
X202080000Y-66490000D02*
X198248000Y-66490000D01*
X195984000Y-68754000D02*
X195984000Y-71739000D01*
X196119000Y-68619000D02*
X195984000Y-68754000D01*
X191825000Y-69000000D02*
X195738000Y-69000000D01*
%TO.N,Net-(Q4-G)*%
X192300000Y-93900000D02*
X195730000Y-93900000D01*
X195730000Y-93900000D02*
X195730000Y-98155000D01*
X202080000Y-92630000D02*
X197000000Y-92630000D01*
X197000000Y-92630000D02*
X195730000Y-93900000D01*
%TO.N,Net-(R5-Pad2)*%
X198000000Y-60500000D02*
X197000000Y-61500000D01*
X198000000Y-59550000D02*
X198000000Y-60500000D01*
X197000000Y-61500000D02*
X195050000Y-61500000D01*
%TO.N,Net-(R17-Pad2)*%
X255928000Y-86026000D02*
X255166000Y-86788000D01*
X256690000Y-86026000D02*
X255928000Y-86026000D01*
X255166000Y-86788000D02*
X255420000Y-87042000D01*
X255420000Y-87042000D02*
X255420000Y-89048000D01*
%TD*%
M02*
