%TF.GenerationSoftware,KiCad,Pcbnew,7.0.9*%
%TF.CreationDate,2023-12-08T23:47:41+01:00*%
%TF.ProjectId,SMPS_V1_power,534d5053-5f56-4315-9f70-6f7765722e6b,rev?*%
%TF.SameCoordinates,Original*%
%TF.FileFunction,Legend,Top*%
%TF.FilePolarity,Positive*%
%FSLAX46Y46*%
G04 Gerber Fmt 4.6, Leading zero omitted, Abs format (unit mm)*
G04 Created by KiCad (PCBNEW 7.0.9) date 2023-12-08 23:47:41*
%MOMM*%
%LPD*%
G01*
G04 APERTURE LIST*
%ADD10C,0.150000*%
%ADD11C,0.120000*%
%ADD12C,0.127000*%
%ADD13C,0.200000*%
%ADD14R,2.500000X2.500000*%
G04 APERTURE END LIST*
D10*
X272488866Y-96663220D02*
X272488866Y-95901316D01*
X271869819Y-94472744D02*
X271869819Y-94282268D01*
X271869819Y-94282268D02*
X271917438Y-94187030D01*
X271917438Y-94187030D02*
X272012676Y-94091792D01*
X272012676Y-94091792D02*
X272203152Y-94044173D01*
X272203152Y-94044173D02*
X272536485Y-94044173D01*
X272536485Y-94044173D02*
X272726961Y-94091792D01*
X272726961Y-94091792D02*
X272822200Y-94187030D01*
X272822200Y-94187030D02*
X272869819Y-94282268D01*
X272869819Y-94282268D02*
X272869819Y-94472744D01*
X272869819Y-94472744D02*
X272822200Y-94567982D01*
X272822200Y-94567982D02*
X272726961Y-94663220D01*
X272726961Y-94663220D02*
X272536485Y-94710839D01*
X272536485Y-94710839D02*
X272203152Y-94710839D01*
X272203152Y-94710839D02*
X272012676Y-94663220D01*
X272012676Y-94663220D02*
X271917438Y-94567982D01*
X271917438Y-94567982D02*
X271869819Y-94472744D01*
X271869819Y-93615601D02*
X272679342Y-93615601D01*
X272679342Y-93615601D02*
X272774580Y-93567982D01*
X272774580Y-93567982D02*
X272822200Y-93520363D01*
X272822200Y-93520363D02*
X272869819Y-93425125D01*
X272869819Y-93425125D02*
X272869819Y-93234649D01*
X272869819Y-93234649D02*
X272822200Y-93139411D01*
X272822200Y-93139411D02*
X272774580Y-93091792D01*
X272774580Y-93091792D02*
X272679342Y-93044173D01*
X272679342Y-93044173D02*
X271869819Y-93044173D01*
X271869819Y-92710839D02*
X271869819Y-92139411D01*
X272869819Y-92425125D02*
X271869819Y-92425125D01*
X272488866Y-91044172D02*
X272488866Y-90282268D01*
X272869819Y-90663220D02*
X272107914Y-90663220D01*
X196336779Y-41488866D02*
X197098684Y-41488866D01*
X196717731Y-41869819D02*
X196717731Y-41107914D01*
X198765350Y-41203152D02*
X198765350Y-41869819D01*
X198527255Y-40822200D02*
X198289160Y-41536485D01*
X198289160Y-41536485D02*
X198908207Y-41536485D01*
X199479636Y-40869819D02*
X199574874Y-40869819D01*
X199574874Y-40869819D02*
X199670112Y-40917438D01*
X199670112Y-40917438D02*
X199717731Y-40965057D01*
X199717731Y-40965057D02*
X199765350Y-41060295D01*
X199765350Y-41060295D02*
X199812969Y-41250771D01*
X199812969Y-41250771D02*
X199812969Y-41488866D01*
X199812969Y-41488866D02*
X199765350Y-41679342D01*
X199765350Y-41679342D02*
X199717731Y-41774580D01*
X199717731Y-41774580D02*
X199670112Y-41822200D01*
X199670112Y-41822200D02*
X199574874Y-41869819D01*
X199574874Y-41869819D02*
X199479636Y-41869819D01*
X199479636Y-41869819D02*
X199384398Y-41822200D01*
X199384398Y-41822200D02*
X199336779Y-41774580D01*
X199336779Y-41774580D02*
X199289160Y-41679342D01*
X199289160Y-41679342D02*
X199241541Y-41488866D01*
X199241541Y-41488866D02*
X199241541Y-41250771D01*
X199241541Y-41250771D02*
X199289160Y-41060295D01*
X199289160Y-41060295D02*
X199336779Y-40965057D01*
X199336779Y-40965057D02*
X199384398Y-40917438D01*
X199384398Y-40917438D02*
X199479636Y-40869819D01*
X200432017Y-40869819D02*
X200527255Y-40869819D01*
X200527255Y-40869819D02*
X200622493Y-40917438D01*
X200622493Y-40917438D02*
X200670112Y-40965057D01*
X200670112Y-40965057D02*
X200717731Y-41060295D01*
X200717731Y-41060295D02*
X200765350Y-41250771D01*
X200765350Y-41250771D02*
X200765350Y-41488866D01*
X200765350Y-41488866D02*
X200717731Y-41679342D01*
X200717731Y-41679342D02*
X200670112Y-41774580D01*
X200670112Y-41774580D02*
X200622493Y-41822200D01*
X200622493Y-41822200D02*
X200527255Y-41869819D01*
X200527255Y-41869819D02*
X200432017Y-41869819D01*
X200432017Y-41869819D02*
X200336779Y-41822200D01*
X200336779Y-41822200D02*
X200289160Y-41774580D01*
X200289160Y-41774580D02*
X200241541Y-41679342D01*
X200241541Y-41679342D02*
X200193922Y-41488866D01*
X200193922Y-41488866D02*
X200193922Y-41250771D01*
X200193922Y-41250771D02*
X200241541Y-41060295D01*
X200241541Y-41060295D02*
X200289160Y-40965057D01*
X200289160Y-40965057D02*
X200336779Y-40917438D01*
X200336779Y-40917438D02*
X200432017Y-40869819D01*
X201051065Y-40869819D02*
X201384398Y-41869819D01*
X201384398Y-41869819D02*
X201717731Y-40869819D01*
X202812970Y-41488866D02*
X203574875Y-41488866D01*
X200274819Y-58166666D02*
X199798628Y-58499999D01*
X200274819Y-58738094D02*
X199274819Y-58738094D01*
X199274819Y-58738094D02*
X199274819Y-58357142D01*
X199274819Y-58357142D02*
X199322438Y-58261904D01*
X199322438Y-58261904D02*
X199370057Y-58214285D01*
X199370057Y-58214285D02*
X199465295Y-58166666D01*
X199465295Y-58166666D02*
X199608152Y-58166666D01*
X199608152Y-58166666D02*
X199703390Y-58214285D01*
X199703390Y-58214285D02*
X199751009Y-58261904D01*
X199751009Y-58261904D02*
X199798628Y-58357142D01*
X199798628Y-58357142D02*
X199798628Y-58738094D01*
X199274819Y-57261904D02*
X199274819Y-57738094D01*
X199274819Y-57738094D02*
X199751009Y-57785713D01*
X199751009Y-57785713D02*
X199703390Y-57738094D01*
X199703390Y-57738094D02*
X199655771Y-57642856D01*
X199655771Y-57642856D02*
X199655771Y-57404761D01*
X199655771Y-57404761D02*
X199703390Y-57309523D01*
X199703390Y-57309523D02*
X199751009Y-57261904D01*
X199751009Y-57261904D02*
X199846247Y-57214285D01*
X199846247Y-57214285D02*
X200084342Y-57214285D01*
X200084342Y-57214285D02*
X200179580Y-57261904D01*
X200179580Y-57261904D02*
X200227200Y-57309523D01*
X200227200Y-57309523D02*
X200274819Y-57404761D01*
X200274819Y-57404761D02*
X200274819Y-57642856D01*
X200274819Y-57642856D02*
X200227200Y-57738094D01*
X200227200Y-57738094D02*
X200179580Y-57785713D01*
X201524476Y-109058819D02*
X201524476Y-109773104D01*
X201524476Y-109773104D02*
X201476857Y-109915961D01*
X201476857Y-109915961D02*
X201381619Y-110011200D01*
X201381619Y-110011200D02*
X201238762Y-110058819D01*
X201238762Y-110058819D02*
X201143524Y-110058819D01*
X202524476Y-110058819D02*
X201953048Y-110058819D01*
X202238762Y-110058819D02*
X202238762Y-109058819D01*
X202238762Y-109058819D02*
X202143524Y-109201676D01*
X202143524Y-109201676D02*
X202048286Y-109296914D01*
X202048286Y-109296914D02*
X201953048Y-109344533D01*
X203095905Y-109487390D02*
X203000667Y-109439771D01*
X203000667Y-109439771D02*
X202953048Y-109392152D01*
X202953048Y-109392152D02*
X202905429Y-109296914D01*
X202905429Y-109296914D02*
X202905429Y-109249295D01*
X202905429Y-109249295D02*
X202953048Y-109154057D01*
X202953048Y-109154057D02*
X203000667Y-109106438D01*
X203000667Y-109106438D02*
X203095905Y-109058819D01*
X203095905Y-109058819D02*
X203286381Y-109058819D01*
X203286381Y-109058819D02*
X203381619Y-109106438D01*
X203381619Y-109106438D02*
X203429238Y-109154057D01*
X203429238Y-109154057D02*
X203476857Y-109249295D01*
X203476857Y-109249295D02*
X203476857Y-109296914D01*
X203476857Y-109296914D02*
X203429238Y-109392152D01*
X203429238Y-109392152D02*
X203381619Y-109439771D01*
X203381619Y-109439771D02*
X203286381Y-109487390D01*
X203286381Y-109487390D02*
X203095905Y-109487390D01*
X203095905Y-109487390D02*
X203000667Y-109535009D01*
X203000667Y-109535009D02*
X202953048Y-109582628D01*
X202953048Y-109582628D02*
X202905429Y-109677866D01*
X202905429Y-109677866D02*
X202905429Y-109868342D01*
X202905429Y-109868342D02*
X202953048Y-109963580D01*
X202953048Y-109963580D02*
X203000667Y-110011200D01*
X203000667Y-110011200D02*
X203095905Y-110058819D01*
X203095905Y-110058819D02*
X203286381Y-110058819D01*
X203286381Y-110058819D02*
X203381619Y-110011200D01*
X203381619Y-110011200D02*
X203429238Y-109963580D01*
X203429238Y-109963580D02*
X203476857Y-109868342D01*
X203476857Y-109868342D02*
X203476857Y-109677866D01*
X203476857Y-109677866D02*
X203429238Y-109582628D01*
X203429238Y-109582628D02*
X203381619Y-109535009D01*
X203381619Y-109535009D02*
X203286381Y-109487390D01*
X195954819Y-119942857D02*
X195478628Y-120276190D01*
X195954819Y-120514285D02*
X194954819Y-120514285D01*
X194954819Y-120514285D02*
X194954819Y-120133333D01*
X194954819Y-120133333D02*
X195002438Y-120038095D01*
X195002438Y-120038095D02*
X195050057Y-119990476D01*
X195050057Y-119990476D02*
X195145295Y-119942857D01*
X195145295Y-119942857D02*
X195288152Y-119942857D01*
X195288152Y-119942857D02*
X195383390Y-119990476D01*
X195383390Y-119990476D02*
X195431009Y-120038095D01*
X195431009Y-120038095D02*
X195478628Y-120133333D01*
X195478628Y-120133333D02*
X195478628Y-120514285D01*
X195954819Y-118990476D02*
X195954819Y-119561904D01*
X195954819Y-119276190D02*
X194954819Y-119276190D01*
X194954819Y-119276190D02*
X195097676Y-119371428D01*
X195097676Y-119371428D02*
X195192914Y-119466666D01*
X195192914Y-119466666D02*
X195240533Y-119561904D01*
X194954819Y-118085714D02*
X194954819Y-118561904D01*
X194954819Y-118561904D02*
X195431009Y-118609523D01*
X195431009Y-118609523D02*
X195383390Y-118561904D01*
X195383390Y-118561904D02*
X195335771Y-118466666D01*
X195335771Y-118466666D02*
X195335771Y-118228571D01*
X195335771Y-118228571D02*
X195383390Y-118133333D01*
X195383390Y-118133333D02*
X195431009Y-118085714D01*
X195431009Y-118085714D02*
X195526247Y-118038095D01*
X195526247Y-118038095D02*
X195764342Y-118038095D01*
X195764342Y-118038095D02*
X195859580Y-118085714D01*
X195859580Y-118085714D02*
X195907200Y-118133333D01*
X195907200Y-118133333D02*
X195954819Y-118228571D01*
X195954819Y-118228571D02*
X195954819Y-118466666D01*
X195954819Y-118466666D02*
X195907200Y-118561904D01*
X195907200Y-118561904D02*
X195859580Y-118609523D01*
X206080057Y-72035238D02*
X206032438Y-72130476D01*
X206032438Y-72130476D02*
X205937200Y-72225714D01*
X205937200Y-72225714D02*
X205794342Y-72368571D01*
X205794342Y-72368571D02*
X205746723Y-72463809D01*
X205746723Y-72463809D02*
X205746723Y-72559047D01*
X205984819Y-72511428D02*
X205937200Y-72606666D01*
X205937200Y-72606666D02*
X205841961Y-72701904D01*
X205841961Y-72701904D02*
X205651485Y-72749523D01*
X205651485Y-72749523D02*
X205318152Y-72749523D01*
X205318152Y-72749523D02*
X205127676Y-72701904D01*
X205127676Y-72701904D02*
X205032438Y-72606666D01*
X205032438Y-72606666D02*
X204984819Y-72511428D01*
X204984819Y-72511428D02*
X204984819Y-72320952D01*
X204984819Y-72320952D02*
X205032438Y-72225714D01*
X205032438Y-72225714D02*
X205127676Y-72130476D01*
X205127676Y-72130476D02*
X205318152Y-72082857D01*
X205318152Y-72082857D02*
X205651485Y-72082857D01*
X205651485Y-72082857D02*
X205841961Y-72130476D01*
X205841961Y-72130476D02*
X205937200Y-72225714D01*
X205937200Y-72225714D02*
X205984819Y-72320952D01*
X205984819Y-72320952D02*
X205984819Y-72511428D01*
X204984819Y-71749523D02*
X204984819Y-71130476D01*
X204984819Y-71130476D02*
X205365771Y-71463809D01*
X205365771Y-71463809D02*
X205365771Y-71320952D01*
X205365771Y-71320952D02*
X205413390Y-71225714D01*
X205413390Y-71225714D02*
X205461009Y-71178095D01*
X205461009Y-71178095D02*
X205556247Y-71130476D01*
X205556247Y-71130476D02*
X205794342Y-71130476D01*
X205794342Y-71130476D02*
X205889580Y-71178095D01*
X205889580Y-71178095D02*
X205937200Y-71225714D01*
X205937200Y-71225714D02*
X205984819Y-71320952D01*
X205984819Y-71320952D02*
X205984819Y-71606666D01*
X205984819Y-71606666D02*
X205937200Y-71701904D01*
X205937200Y-71701904D02*
X205889580Y-71749523D01*
X193333333Y-63774819D02*
X193000000Y-63298628D01*
X192761905Y-63774819D02*
X192761905Y-62774819D01*
X192761905Y-62774819D02*
X193142857Y-62774819D01*
X193142857Y-62774819D02*
X193238095Y-62822438D01*
X193238095Y-62822438D02*
X193285714Y-62870057D01*
X193285714Y-62870057D02*
X193333333Y-62965295D01*
X193333333Y-62965295D02*
X193333333Y-63108152D01*
X193333333Y-63108152D02*
X193285714Y-63203390D01*
X193285714Y-63203390D02*
X193238095Y-63251009D01*
X193238095Y-63251009D02*
X193142857Y-63298628D01*
X193142857Y-63298628D02*
X192761905Y-63298628D01*
X193809524Y-63774819D02*
X194000000Y-63774819D01*
X194000000Y-63774819D02*
X194095238Y-63727200D01*
X194095238Y-63727200D02*
X194142857Y-63679580D01*
X194142857Y-63679580D02*
X194238095Y-63536723D01*
X194238095Y-63536723D02*
X194285714Y-63346247D01*
X194285714Y-63346247D02*
X194285714Y-62965295D01*
X194285714Y-62965295D02*
X194238095Y-62870057D01*
X194238095Y-62870057D02*
X194190476Y-62822438D01*
X194190476Y-62822438D02*
X194095238Y-62774819D01*
X194095238Y-62774819D02*
X193904762Y-62774819D01*
X193904762Y-62774819D02*
X193809524Y-62822438D01*
X193809524Y-62822438D02*
X193761905Y-62870057D01*
X193761905Y-62870057D02*
X193714286Y-62965295D01*
X193714286Y-62965295D02*
X193714286Y-63203390D01*
X193714286Y-63203390D02*
X193761905Y-63298628D01*
X193761905Y-63298628D02*
X193809524Y-63346247D01*
X193809524Y-63346247D02*
X193904762Y-63393866D01*
X193904762Y-63393866D02*
X194095238Y-63393866D01*
X194095238Y-63393866D02*
X194190476Y-63346247D01*
X194190476Y-63346247D02*
X194238095Y-63298628D01*
X194238095Y-63298628D02*
X194285714Y-63203390D01*
X266159580Y-66632857D02*
X266207200Y-66680476D01*
X266207200Y-66680476D02*
X266254819Y-66823333D01*
X266254819Y-66823333D02*
X266254819Y-66918571D01*
X266254819Y-66918571D02*
X266207200Y-67061428D01*
X266207200Y-67061428D02*
X266111961Y-67156666D01*
X266111961Y-67156666D02*
X266016723Y-67204285D01*
X266016723Y-67204285D02*
X265826247Y-67251904D01*
X265826247Y-67251904D02*
X265683390Y-67251904D01*
X265683390Y-67251904D02*
X265492914Y-67204285D01*
X265492914Y-67204285D02*
X265397676Y-67156666D01*
X265397676Y-67156666D02*
X265302438Y-67061428D01*
X265302438Y-67061428D02*
X265254819Y-66918571D01*
X265254819Y-66918571D02*
X265254819Y-66823333D01*
X265254819Y-66823333D02*
X265302438Y-66680476D01*
X265302438Y-66680476D02*
X265350057Y-66632857D01*
X266254819Y-65680476D02*
X266254819Y-66251904D01*
X266254819Y-65966190D02*
X265254819Y-65966190D01*
X265254819Y-65966190D02*
X265397676Y-66061428D01*
X265397676Y-66061428D02*
X265492914Y-66156666D01*
X265492914Y-66156666D02*
X265540533Y-66251904D01*
X265254819Y-65347142D02*
X265254819Y-64728095D01*
X265254819Y-64728095D02*
X265635771Y-65061428D01*
X265635771Y-65061428D02*
X265635771Y-64918571D01*
X265635771Y-64918571D02*
X265683390Y-64823333D01*
X265683390Y-64823333D02*
X265731009Y-64775714D01*
X265731009Y-64775714D02*
X265826247Y-64728095D01*
X265826247Y-64728095D02*
X266064342Y-64728095D01*
X266064342Y-64728095D02*
X266159580Y-64775714D01*
X266159580Y-64775714D02*
X266207200Y-64823333D01*
X266207200Y-64823333D02*
X266254819Y-64918571D01*
X266254819Y-64918571D02*
X266254819Y-65204285D01*
X266254819Y-65204285D02*
X266207200Y-65299523D01*
X266207200Y-65299523D02*
X266159580Y-65347142D01*
X206080057Y-98175238D02*
X206032438Y-98270476D01*
X206032438Y-98270476D02*
X205937200Y-98365714D01*
X205937200Y-98365714D02*
X205794342Y-98508571D01*
X205794342Y-98508571D02*
X205746723Y-98603809D01*
X205746723Y-98603809D02*
X205746723Y-98699047D01*
X205984819Y-98651428D02*
X205937200Y-98746666D01*
X205937200Y-98746666D02*
X205841961Y-98841904D01*
X205841961Y-98841904D02*
X205651485Y-98889523D01*
X205651485Y-98889523D02*
X205318152Y-98889523D01*
X205318152Y-98889523D02*
X205127676Y-98841904D01*
X205127676Y-98841904D02*
X205032438Y-98746666D01*
X205032438Y-98746666D02*
X204984819Y-98651428D01*
X204984819Y-98651428D02*
X204984819Y-98460952D01*
X204984819Y-98460952D02*
X205032438Y-98365714D01*
X205032438Y-98365714D02*
X205127676Y-98270476D01*
X205127676Y-98270476D02*
X205318152Y-98222857D01*
X205318152Y-98222857D02*
X205651485Y-98222857D01*
X205651485Y-98222857D02*
X205841961Y-98270476D01*
X205841961Y-98270476D02*
X205937200Y-98365714D01*
X205937200Y-98365714D02*
X205984819Y-98460952D01*
X205984819Y-98460952D02*
X205984819Y-98651428D01*
X205318152Y-97365714D02*
X205984819Y-97365714D01*
X204937200Y-97603809D02*
X205651485Y-97841904D01*
X205651485Y-97841904D02*
X205651485Y-97222857D01*
X258690057Y-106011738D02*
X258642438Y-106106976D01*
X258642438Y-106106976D02*
X258547200Y-106202214D01*
X258547200Y-106202214D02*
X258404342Y-106345071D01*
X258404342Y-106345071D02*
X258356723Y-106440309D01*
X258356723Y-106440309D02*
X258356723Y-106535547D01*
X258594819Y-106487928D02*
X258547200Y-106583166D01*
X258547200Y-106583166D02*
X258451961Y-106678404D01*
X258451961Y-106678404D02*
X258261485Y-106726023D01*
X258261485Y-106726023D02*
X257928152Y-106726023D01*
X257928152Y-106726023D02*
X257737676Y-106678404D01*
X257737676Y-106678404D02*
X257642438Y-106583166D01*
X257642438Y-106583166D02*
X257594819Y-106487928D01*
X257594819Y-106487928D02*
X257594819Y-106297452D01*
X257594819Y-106297452D02*
X257642438Y-106202214D01*
X257642438Y-106202214D02*
X257737676Y-106106976D01*
X257737676Y-106106976D02*
X257928152Y-106059357D01*
X257928152Y-106059357D02*
X258261485Y-106059357D01*
X258261485Y-106059357D02*
X258451961Y-106106976D01*
X258451961Y-106106976D02*
X258547200Y-106202214D01*
X258547200Y-106202214D02*
X258594819Y-106297452D01*
X258594819Y-106297452D02*
X258594819Y-106487928D01*
X257594819Y-105202214D02*
X257594819Y-105392690D01*
X257594819Y-105392690D02*
X257642438Y-105487928D01*
X257642438Y-105487928D02*
X257690057Y-105535547D01*
X257690057Y-105535547D02*
X257832914Y-105630785D01*
X257832914Y-105630785D02*
X258023390Y-105678404D01*
X258023390Y-105678404D02*
X258404342Y-105678404D01*
X258404342Y-105678404D02*
X258499580Y-105630785D01*
X258499580Y-105630785D02*
X258547200Y-105583166D01*
X258547200Y-105583166D02*
X258594819Y-105487928D01*
X258594819Y-105487928D02*
X258594819Y-105297452D01*
X258594819Y-105297452D02*
X258547200Y-105202214D01*
X258547200Y-105202214D02*
X258499580Y-105154595D01*
X258499580Y-105154595D02*
X258404342Y-105106976D01*
X258404342Y-105106976D02*
X258166247Y-105106976D01*
X258166247Y-105106976D02*
X258071009Y-105154595D01*
X258071009Y-105154595D02*
X258023390Y-105202214D01*
X258023390Y-105202214D02*
X257975771Y-105297452D01*
X257975771Y-105297452D02*
X257975771Y-105487928D01*
X257975771Y-105487928D02*
X258023390Y-105583166D01*
X258023390Y-105583166D02*
X258071009Y-105630785D01*
X258071009Y-105630785D02*
X258166247Y-105678404D01*
X190357142Y-68024819D02*
X190023809Y-67548628D01*
X189785714Y-68024819D02*
X189785714Y-67024819D01*
X189785714Y-67024819D02*
X190166666Y-67024819D01*
X190166666Y-67024819D02*
X190261904Y-67072438D01*
X190261904Y-67072438D02*
X190309523Y-67120057D01*
X190309523Y-67120057D02*
X190357142Y-67215295D01*
X190357142Y-67215295D02*
X190357142Y-67358152D01*
X190357142Y-67358152D02*
X190309523Y-67453390D01*
X190309523Y-67453390D02*
X190261904Y-67501009D01*
X190261904Y-67501009D02*
X190166666Y-67548628D01*
X190166666Y-67548628D02*
X189785714Y-67548628D01*
X191309523Y-68024819D02*
X190738095Y-68024819D01*
X191023809Y-68024819D02*
X191023809Y-67024819D01*
X191023809Y-67024819D02*
X190928571Y-67167676D01*
X190928571Y-67167676D02*
X190833333Y-67262914D01*
X190833333Y-67262914D02*
X190738095Y-67310533D01*
X191928571Y-67024819D02*
X192023809Y-67024819D01*
X192023809Y-67024819D02*
X192119047Y-67072438D01*
X192119047Y-67072438D02*
X192166666Y-67120057D01*
X192166666Y-67120057D02*
X192214285Y-67215295D01*
X192214285Y-67215295D02*
X192261904Y-67405771D01*
X192261904Y-67405771D02*
X192261904Y-67643866D01*
X192261904Y-67643866D02*
X192214285Y-67834342D01*
X192214285Y-67834342D02*
X192166666Y-67929580D01*
X192166666Y-67929580D02*
X192119047Y-67977200D01*
X192119047Y-67977200D02*
X192023809Y-68024819D01*
X192023809Y-68024819D02*
X191928571Y-68024819D01*
X191928571Y-68024819D02*
X191833333Y-67977200D01*
X191833333Y-67977200D02*
X191785714Y-67929580D01*
X191785714Y-67929580D02*
X191738095Y-67834342D01*
X191738095Y-67834342D02*
X191690476Y-67643866D01*
X191690476Y-67643866D02*
X191690476Y-67405771D01*
X191690476Y-67405771D02*
X191738095Y-67215295D01*
X191738095Y-67215295D02*
X191785714Y-67120057D01*
X191785714Y-67120057D02*
X191833333Y-67072438D01*
X191833333Y-67072438D02*
X191928571Y-67024819D01*
X189840476Y-122100819D02*
X189840476Y-122815104D01*
X189840476Y-122815104D02*
X189792857Y-122957961D01*
X189792857Y-122957961D02*
X189697619Y-123053200D01*
X189697619Y-123053200D02*
X189554762Y-123100819D01*
X189554762Y-123100819D02*
X189459524Y-123100819D01*
X190840476Y-123100819D02*
X190269048Y-123100819D01*
X190554762Y-123100819D02*
X190554762Y-122100819D01*
X190554762Y-122100819D02*
X190459524Y-122243676D01*
X190459524Y-122243676D02*
X190364286Y-122338914D01*
X190364286Y-122338914D02*
X190269048Y-122386533D01*
X191316667Y-123100819D02*
X191507143Y-123100819D01*
X191507143Y-123100819D02*
X191602381Y-123053200D01*
X191602381Y-123053200D02*
X191650000Y-123005580D01*
X191650000Y-123005580D02*
X191745238Y-122862723D01*
X191745238Y-122862723D02*
X191792857Y-122672247D01*
X191792857Y-122672247D02*
X191792857Y-122291295D01*
X191792857Y-122291295D02*
X191745238Y-122196057D01*
X191745238Y-122196057D02*
X191697619Y-122148438D01*
X191697619Y-122148438D02*
X191602381Y-122100819D01*
X191602381Y-122100819D02*
X191411905Y-122100819D01*
X191411905Y-122100819D02*
X191316667Y-122148438D01*
X191316667Y-122148438D02*
X191269048Y-122196057D01*
X191269048Y-122196057D02*
X191221429Y-122291295D01*
X191221429Y-122291295D02*
X191221429Y-122529390D01*
X191221429Y-122529390D02*
X191269048Y-122624628D01*
X191269048Y-122624628D02*
X191316667Y-122672247D01*
X191316667Y-122672247D02*
X191411905Y-122719866D01*
X191411905Y-122719866D02*
X191602381Y-122719866D01*
X191602381Y-122719866D02*
X191697619Y-122672247D01*
X191697619Y-122672247D02*
X191745238Y-122624628D01*
X191745238Y-122624628D02*
X191792857Y-122529390D01*
X257597142Y-88300819D02*
X257263809Y-87824628D01*
X257025714Y-88300819D02*
X257025714Y-87300819D01*
X257025714Y-87300819D02*
X257406666Y-87300819D01*
X257406666Y-87300819D02*
X257501904Y-87348438D01*
X257501904Y-87348438D02*
X257549523Y-87396057D01*
X257549523Y-87396057D02*
X257597142Y-87491295D01*
X257597142Y-87491295D02*
X257597142Y-87634152D01*
X257597142Y-87634152D02*
X257549523Y-87729390D01*
X257549523Y-87729390D02*
X257501904Y-87777009D01*
X257501904Y-87777009D02*
X257406666Y-87824628D01*
X257406666Y-87824628D02*
X257025714Y-87824628D01*
X258549523Y-88300819D02*
X257978095Y-88300819D01*
X258263809Y-88300819D02*
X258263809Y-87300819D01*
X258263809Y-87300819D02*
X258168571Y-87443676D01*
X258168571Y-87443676D02*
X258073333Y-87538914D01*
X258073333Y-87538914D02*
X257978095Y-87586533D01*
X258882857Y-87300819D02*
X259549523Y-87300819D01*
X259549523Y-87300819D02*
X259120952Y-88300819D01*
X190832142Y-92924819D02*
X190498809Y-92448628D01*
X190260714Y-92924819D02*
X190260714Y-91924819D01*
X190260714Y-91924819D02*
X190641666Y-91924819D01*
X190641666Y-91924819D02*
X190736904Y-91972438D01*
X190736904Y-91972438D02*
X190784523Y-92020057D01*
X190784523Y-92020057D02*
X190832142Y-92115295D01*
X190832142Y-92115295D02*
X190832142Y-92258152D01*
X190832142Y-92258152D02*
X190784523Y-92353390D01*
X190784523Y-92353390D02*
X190736904Y-92401009D01*
X190736904Y-92401009D02*
X190641666Y-92448628D01*
X190641666Y-92448628D02*
X190260714Y-92448628D01*
X191784523Y-92924819D02*
X191213095Y-92924819D01*
X191498809Y-92924819D02*
X191498809Y-91924819D01*
X191498809Y-91924819D02*
X191403571Y-92067676D01*
X191403571Y-92067676D02*
X191308333Y-92162914D01*
X191308333Y-92162914D02*
X191213095Y-92210533D01*
X192736904Y-92924819D02*
X192165476Y-92924819D01*
X192451190Y-92924819D02*
X192451190Y-91924819D01*
X192451190Y-91924819D02*
X192355952Y-92067676D01*
X192355952Y-92067676D02*
X192260714Y-92162914D01*
X192260714Y-92162914D02*
X192165476Y-92210533D01*
X206280667Y-46149866D02*
X206280667Y-47149866D01*
X206280667Y-47149866D02*
X206214000Y-47349866D01*
X206214000Y-47349866D02*
X206080667Y-47483200D01*
X206080667Y-47483200D02*
X205880667Y-47549866D01*
X205880667Y-47549866D02*
X205747334Y-47549866D01*
X207680667Y-47549866D02*
X206880667Y-47549866D01*
X207280667Y-47549866D02*
X207280667Y-46149866D01*
X207280667Y-46149866D02*
X207147334Y-46349866D01*
X207147334Y-46349866D02*
X207014001Y-46483200D01*
X207014001Y-46483200D02*
X206880667Y-46549866D01*
X208880667Y-46149866D02*
X208614000Y-46149866D01*
X208614000Y-46149866D02*
X208480667Y-46216533D01*
X208480667Y-46216533D02*
X208414000Y-46283200D01*
X208414000Y-46283200D02*
X208280667Y-46483200D01*
X208280667Y-46483200D02*
X208214000Y-46749866D01*
X208214000Y-46749866D02*
X208214000Y-47283200D01*
X208214000Y-47283200D02*
X208280667Y-47416533D01*
X208280667Y-47416533D02*
X208347334Y-47483200D01*
X208347334Y-47483200D02*
X208480667Y-47549866D01*
X208480667Y-47549866D02*
X208747334Y-47549866D01*
X208747334Y-47549866D02*
X208880667Y-47483200D01*
X208880667Y-47483200D02*
X208947334Y-47416533D01*
X208947334Y-47416533D02*
X209014000Y-47283200D01*
X209014000Y-47283200D02*
X209014000Y-46949866D01*
X209014000Y-46949866D02*
X208947334Y-46816533D01*
X208947334Y-46816533D02*
X208880667Y-46749866D01*
X208880667Y-46749866D02*
X208747334Y-46683200D01*
X208747334Y-46683200D02*
X208480667Y-46683200D01*
X208480667Y-46683200D02*
X208347334Y-46749866D01*
X208347334Y-46749866D02*
X208280667Y-46816533D01*
X208280667Y-46816533D02*
X208214000Y-46949866D01*
X190254819Y-52666666D02*
X189778628Y-52999999D01*
X190254819Y-53238094D02*
X189254819Y-53238094D01*
X189254819Y-53238094D02*
X189254819Y-52857142D01*
X189254819Y-52857142D02*
X189302438Y-52761904D01*
X189302438Y-52761904D02*
X189350057Y-52714285D01*
X189350057Y-52714285D02*
X189445295Y-52666666D01*
X189445295Y-52666666D02*
X189588152Y-52666666D01*
X189588152Y-52666666D02*
X189683390Y-52714285D01*
X189683390Y-52714285D02*
X189731009Y-52761904D01*
X189731009Y-52761904D02*
X189778628Y-52857142D01*
X189778628Y-52857142D02*
X189778628Y-53238094D01*
X189254819Y-51809523D02*
X189254819Y-51999999D01*
X189254819Y-51999999D02*
X189302438Y-52095237D01*
X189302438Y-52095237D02*
X189350057Y-52142856D01*
X189350057Y-52142856D02*
X189492914Y-52238094D01*
X189492914Y-52238094D02*
X189683390Y-52285713D01*
X189683390Y-52285713D02*
X190064342Y-52285713D01*
X190064342Y-52285713D02*
X190159580Y-52238094D01*
X190159580Y-52238094D02*
X190207200Y-52190475D01*
X190207200Y-52190475D02*
X190254819Y-52095237D01*
X190254819Y-52095237D02*
X190254819Y-51904761D01*
X190254819Y-51904761D02*
X190207200Y-51809523D01*
X190207200Y-51809523D02*
X190159580Y-51761904D01*
X190159580Y-51761904D02*
X190064342Y-51714285D01*
X190064342Y-51714285D02*
X189826247Y-51714285D01*
X189826247Y-51714285D02*
X189731009Y-51761904D01*
X189731009Y-51761904D02*
X189683390Y-51809523D01*
X189683390Y-51809523D02*
X189635771Y-51904761D01*
X189635771Y-51904761D02*
X189635771Y-52095237D01*
X189635771Y-52095237D02*
X189683390Y-52190475D01*
X189683390Y-52190475D02*
X189731009Y-52238094D01*
X189731009Y-52238094D02*
X189826247Y-52285713D01*
X259920142Y-111024819D02*
X259586809Y-110548628D01*
X259348714Y-111024819D02*
X259348714Y-110024819D01*
X259348714Y-110024819D02*
X259729666Y-110024819D01*
X259729666Y-110024819D02*
X259824904Y-110072438D01*
X259824904Y-110072438D02*
X259872523Y-110120057D01*
X259872523Y-110120057D02*
X259920142Y-110215295D01*
X259920142Y-110215295D02*
X259920142Y-110358152D01*
X259920142Y-110358152D02*
X259872523Y-110453390D01*
X259872523Y-110453390D02*
X259824904Y-110501009D01*
X259824904Y-110501009D02*
X259729666Y-110548628D01*
X259729666Y-110548628D02*
X259348714Y-110548628D01*
X260301095Y-110120057D02*
X260348714Y-110072438D01*
X260348714Y-110072438D02*
X260443952Y-110024819D01*
X260443952Y-110024819D02*
X260682047Y-110024819D01*
X260682047Y-110024819D02*
X260777285Y-110072438D01*
X260777285Y-110072438D02*
X260824904Y-110120057D01*
X260824904Y-110120057D02*
X260872523Y-110215295D01*
X260872523Y-110215295D02*
X260872523Y-110310533D01*
X260872523Y-110310533D02*
X260824904Y-110453390D01*
X260824904Y-110453390D02*
X260253476Y-111024819D01*
X260253476Y-111024819D02*
X260872523Y-111024819D01*
X261253476Y-110120057D02*
X261301095Y-110072438D01*
X261301095Y-110072438D02*
X261396333Y-110024819D01*
X261396333Y-110024819D02*
X261634428Y-110024819D01*
X261634428Y-110024819D02*
X261729666Y-110072438D01*
X261729666Y-110072438D02*
X261777285Y-110120057D01*
X261777285Y-110120057D02*
X261824904Y-110215295D01*
X261824904Y-110215295D02*
X261824904Y-110310533D01*
X261824904Y-110310533D02*
X261777285Y-110453390D01*
X261777285Y-110453390D02*
X261205857Y-111024819D01*
X261205857Y-111024819D02*
X261824904Y-111024819D01*
X252650057Y-96456738D02*
X252602438Y-96551976D01*
X252602438Y-96551976D02*
X252507200Y-96647214D01*
X252507200Y-96647214D02*
X252364342Y-96790071D01*
X252364342Y-96790071D02*
X252316723Y-96885309D01*
X252316723Y-96885309D02*
X252316723Y-96980547D01*
X252554819Y-96932928D02*
X252507200Y-97028166D01*
X252507200Y-97028166D02*
X252411961Y-97123404D01*
X252411961Y-97123404D02*
X252221485Y-97171023D01*
X252221485Y-97171023D02*
X251888152Y-97171023D01*
X251888152Y-97171023D02*
X251697676Y-97123404D01*
X251697676Y-97123404D02*
X251602438Y-97028166D01*
X251602438Y-97028166D02*
X251554819Y-96932928D01*
X251554819Y-96932928D02*
X251554819Y-96742452D01*
X251554819Y-96742452D02*
X251602438Y-96647214D01*
X251602438Y-96647214D02*
X251697676Y-96551976D01*
X251697676Y-96551976D02*
X251888152Y-96504357D01*
X251888152Y-96504357D02*
X252221485Y-96504357D01*
X252221485Y-96504357D02*
X252411961Y-96551976D01*
X252411961Y-96551976D02*
X252507200Y-96647214D01*
X252507200Y-96647214D02*
X252554819Y-96742452D01*
X252554819Y-96742452D02*
X252554819Y-96932928D01*
X251554819Y-95599595D02*
X251554819Y-96075785D01*
X251554819Y-96075785D02*
X252031009Y-96123404D01*
X252031009Y-96123404D02*
X251983390Y-96075785D01*
X251983390Y-96075785D02*
X251935771Y-95980547D01*
X251935771Y-95980547D02*
X251935771Y-95742452D01*
X251935771Y-95742452D02*
X251983390Y-95647214D01*
X251983390Y-95647214D02*
X252031009Y-95599595D01*
X252031009Y-95599595D02*
X252126247Y-95551976D01*
X252126247Y-95551976D02*
X252364342Y-95551976D01*
X252364342Y-95551976D02*
X252459580Y-95599595D01*
X252459580Y-95599595D02*
X252507200Y-95647214D01*
X252507200Y-95647214D02*
X252554819Y-95742452D01*
X252554819Y-95742452D02*
X252554819Y-95980547D01*
X252554819Y-95980547D02*
X252507200Y-96075785D01*
X252507200Y-96075785D02*
X252459580Y-96123404D01*
X226297333Y-67684819D02*
X225821143Y-67684819D01*
X225821143Y-67684819D02*
X225821143Y-66684819D01*
X227154476Y-67684819D02*
X226583048Y-67684819D01*
X226868762Y-67684819D02*
X226868762Y-66684819D01*
X226868762Y-66684819D02*
X226773524Y-66827676D01*
X226773524Y-66827676D02*
X226678286Y-66922914D01*
X226678286Y-66922914D02*
X226583048Y-66970533D01*
X257694819Y-91240857D02*
X257218628Y-91574190D01*
X257694819Y-91812285D02*
X256694819Y-91812285D01*
X256694819Y-91812285D02*
X256694819Y-91431333D01*
X256694819Y-91431333D02*
X256742438Y-91336095D01*
X256742438Y-91336095D02*
X256790057Y-91288476D01*
X256790057Y-91288476D02*
X256885295Y-91240857D01*
X256885295Y-91240857D02*
X257028152Y-91240857D01*
X257028152Y-91240857D02*
X257123390Y-91288476D01*
X257123390Y-91288476D02*
X257171009Y-91336095D01*
X257171009Y-91336095D02*
X257218628Y-91431333D01*
X257218628Y-91431333D02*
X257218628Y-91812285D01*
X257694819Y-90288476D02*
X257694819Y-90859904D01*
X257694819Y-90574190D02*
X256694819Y-90574190D01*
X256694819Y-90574190D02*
X256837676Y-90669428D01*
X256837676Y-90669428D02*
X256932914Y-90764666D01*
X256932914Y-90764666D02*
X256980533Y-90859904D01*
X257123390Y-89717047D02*
X257075771Y-89812285D01*
X257075771Y-89812285D02*
X257028152Y-89859904D01*
X257028152Y-89859904D02*
X256932914Y-89907523D01*
X256932914Y-89907523D02*
X256885295Y-89907523D01*
X256885295Y-89907523D02*
X256790057Y-89859904D01*
X256790057Y-89859904D02*
X256742438Y-89812285D01*
X256742438Y-89812285D02*
X256694819Y-89717047D01*
X256694819Y-89717047D02*
X256694819Y-89526571D01*
X256694819Y-89526571D02*
X256742438Y-89431333D01*
X256742438Y-89431333D02*
X256790057Y-89383714D01*
X256790057Y-89383714D02*
X256885295Y-89336095D01*
X256885295Y-89336095D02*
X256932914Y-89336095D01*
X256932914Y-89336095D02*
X257028152Y-89383714D01*
X257028152Y-89383714D02*
X257075771Y-89431333D01*
X257075771Y-89431333D02*
X257123390Y-89526571D01*
X257123390Y-89526571D02*
X257123390Y-89717047D01*
X257123390Y-89717047D02*
X257171009Y-89812285D01*
X257171009Y-89812285D02*
X257218628Y-89859904D01*
X257218628Y-89859904D02*
X257313866Y-89907523D01*
X257313866Y-89907523D02*
X257504342Y-89907523D01*
X257504342Y-89907523D02*
X257599580Y-89859904D01*
X257599580Y-89859904D02*
X257647200Y-89812285D01*
X257647200Y-89812285D02*
X257694819Y-89717047D01*
X257694819Y-89717047D02*
X257694819Y-89526571D01*
X257694819Y-89526571D02*
X257647200Y-89431333D01*
X257647200Y-89431333D02*
X257599580Y-89383714D01*
X257599580Y-89383714D02*
X257504342Y-89336095D01*
X257504342Y-89336095D02*
X257313866Y-89336095D01*
X257313866Y-89336095D02*
X257218628Y-89383714D01*
X257218628Y-89383714D02*
X257171009Y-89431333D01*
X257171009Y-89431333D02*
X257123390Y-89526571D01*
X227357142Y-121154819D02*
X227023809Y-120678628D01*
X226785714Y-121154819D02*
X226785714Y-120154819D01*
X226785714Y-120154819D02*
X227166666Y-120154819D01*
X227166666Y-120154819D02*
X227261904Y-120202438D01*
X227261904Y-120202438D02*
X227309523Y-120250057D01*
X227309523Y-120250057D02*
X227357142Y-120345295D01*
X227357142Y-120345295D02*
X227357142Y-120488152D01*
X227357142Y-120488152D02*
X227309523Y-120583390D01*
X227309523Y-120583390D02*
X227261904Y-120631009D01*
X227261904Y-120631009D02*
X227166666Y-120678628D01*
X227166666Y-120678628D02*
X226785714Y-120678628D01*
X228309523Y-121154819D02*
X227738095Y-121154819D01*
X228023809Y-121154819D02*
X228023809Y-120154819D01*
X228023809Y-120154819D02*
X227928571Y-120297676D01*
X227928571Y-120297676D02*
X227833333Y-120392914D01*
X227833333Y-120392914D02*
X227738095Y-120440533D01*
X229166666Y-120154819D02*
X228976190Y-120154819D01*
X228976190Y-120154819D02*
X228880952Y-120202438D01*
X228880952Y-120202438D02*
X228833333Y-120250057D01*
X228833333Y-120250057D02*
X228738095Y-120392914D01*
X228738095Y-120392914D02*
X228690476Y-120583390D01*
X228690476Y-120583390D02*
X228690476Y-120964342D01*
X228690476Y-120964342D02*
X228738095Y-121059580D01*
X228738095Y-121059580D02*
X228785714Y-121107200D01*
X228785714Y-121107200D02*
X228880952Y-121154819D01*
X228880952Y-121154819D02*
X229071428Y-121154819D01*
X229071428Y-121154819D02*
X229166666Y-121107200D01*
X229166666Y-121107200D02*
X229214285Y-121059580D01*
X229214285Y-121059580D02*
X229261904Y-120964342D01*
X229261904Y-120964342D02*
X229261904Y-120726247D01*
X229261904Y-120726247D02*
X229214285Y-120631009D01*
X229214285Y-120631009D02*
X229166666Y-120583390D01*
X229166666Y-120583390D02*
X229071428Y-120535771D01*
X229071428Y-120535771D02*
X228880952Y-120535771D01*
X228880952Y-120535771D02*
X228785714Y-120583390D01*
X228785714Y-120583390D02*
X228738095Y-120631009D01*
X228738095Y-120631009D02*
X228690476Y-120726247D01*
X190347761Y-62648057D02*
X190252523Y-62600438D01*
X190252523Y-62600438D02*
X190157285Y-62505200D01*
X190157285Y-62505200D02*
X190014428Y-62362342D01*
X190014428Y-62362342D02*
X189919190Y-62314723D01*
X189919190Y-62314723D02*
X189823952Y-62314723D01*
X189871571Y-62552819D02*
X189776333Y-62505200D01*
X189776333Y-62505200D02*
X189681095Y-62409961D01*
X189681095Y-62409961D02*
X189633476Y-62219485D01*
X189633476Y-62219485D02*
X189633476Y-61886152D01*
X189633476Y-61886152D02*
X189681095Y-61695676D01*
X189681095Y-61695676D02*
X189776333Y-61600438D01*
X189776333Y-61600438D02*
X189871571Y-61552819D01*
X189871571Y-61552819D02*
X190062047Y-61552819D01*
X190062047Y-61552819D02*
X190157285Y-61600438D01*
X190157285Y-61600438D02*
X190252523Y-61695676D01*
X190252523Y-61695676D02*
X190300142Y-61886152D01*
X190300142Y-61886152D02*
X190300142Y-62219485D01*
X190300142Y-62219485D02*
X190252523Y-62409961D01*
X190252523Y-62409961D02*
X190157285Y-62505200D01*
X190157285Y-62505200D02*
X190062047Y-62552819D01*
X190062047Y-62552819D02*
X189871571Y-62552819D01*
X191252523Y-62552819D02*
X190681095Y-62552819D01*
X190966809Y-62552819D02*
X190966809Y-61552819D01*
X190966809Y-61552819D02*
X190871571Y-61695676D01*
X190871571Y-61695676D02*
X190776333Y-61790914D01*
X190776333Y-61790914D02*
X190681095Y-61838533D01*
X195008819Y-73206857D02*
X194532628Y-73540190D01*
X195008819Y-73778285D02*
X194008819Y-73778285D01*
X194008819Y-73778285D02*
X194008819Y-73397333D01*
X194008819Y-73397333D02*
X194056438Y-73302095D01*
X194056438Y-73302095D02*
X194104057Y-73254476D01*
X194104057Y-73254476D02*
X194199295Y-73206857D01*
X194199295Y-73206857D02*
X194342152Y-73206857D01*
X194342152Y-73206857D02*
X194437390Y-73254476D01*
X194437390Y-73254476D02*
X194485009Y-73302095D01*
X194485009Y-73302095D02*
X194532628Y-73397333D01*
X194532628Y-73397333D02*
X194532628Y-73778285D01*
X195008819Y-72254476D02*
X195008819Y-72825904D01*
X195008819Y-72540190D02*
X194008819Y-72540190D01*
X194008819Y-72540190D02*
X194151676Y-72635428D01*
X194151676Y-72635428D02*
X194246914Y-72730666D01*
X194246914Y-72730666D02*
X194294533Y-72825904D01*
X194104057Y-71873523D02*
X194056438Y-71825904D01*
X194056438Y-71825904D02*
X194008819Y-71730666D01*
X194008819Y-71730666D02*
X194008819Y-71492571D01*
X194008819Y-71492571D02*
X194056438Y-71397333D01*
X194056438Y-71397333D02*
X194104057Y-71349714D01*
X194104057Y-71349714D02*
X194199295Y-71302095D01*
X194199295Y-71302095D02*
X194294533Y-71302095D01*
X194294533Y-71302095D02*
X194437390Y-71349714D01*
X194437390Y-71349714D02*
X195008819Y-71921142D01*
X195008819Y-71921142D02*
X195008819Y-71302095D01*
X260682142Y-101814819D02*
X260348809Y-101338628D01*
X260110714Y-101814819D02*
X260110714Y-100814819D01*
X260110714Y-100814819D02*
X260491666Y-100814819D01*
X260491666Y-100814819D02*
X260586904Y-100862438D01*
X260586904Y-100862438D02*
X260634523Y-100910057D01*
X260634523Y-100910057D02*
X260682142Y-101005295D01*
X260682142Y-101005295D02*
X260682142Y-101148152D01*
X260682142Y-101148152D02*
X260634523Y-101243390D01*
X260634523Y-101243390D02*
X260586904Y-101291009D01*
X260586904Y-101291009D02*
X260491666Y-101338628D01*
X260491666Y-101338628D02*
X260110714Y-101338628D01*
X261063095Y-100910057D02*
X261110714Y-100862438D01*
X261110714Y-100862438D02*
X261205952Y-100814819D01*
X261205952Y-100814819D02*
X261444047Y-100814819D01*
X261444047Y-100814819D02*
X261539285Y-100862438D01*
X261539285Y-100862438D02*
X261586904Y-100910057D01*
X261586904Y-100910057D02*
X261634523Y-101005295D01*
X261634523Y-101005295D02*
X261634523Y-101100533D01*
X261634523Y-101100533D02*
X261586904Y-101243390D01*
X261586904Y-101243390D02*
X261015476Y-101814819D01*
X261015476Y-101814819D02*
X261634523Y-101814819D01*
X262586904Y-101814819D02*
X262015476Y-101814819D01*
X262301190Y-101814819D02*
X262301190Y-100814819D01*
X262301190Y-100814819D02*
X262205952Y-100957676D01*
X262205952Y-100957676D02*
X262110714Y-101052914D01*
X262110714Y-101052914D02*
X262015476Y-101100533D01*
X264516476Y-101438819D02*
X264516476Y-102153104D01*
X264516476Y-102153104D02*
X264468857Y-102295961D01*
X264468857Y-102295961D02*
X264373619Y-102391200D01*
X264373619Y-102391200D02*
X264230762Y-102438819D01*
X264230762Y-102438819D02*
X264135524Y-102438819D01*
X264945048Y-101534057D02*
X264992667Y-101486438D01*
X264992667Y-101486438D02*
X265087905Y-101438819D01*
X265087905Y-101438819D02*
X265326000Y-101438819D01*
X265326000Y-101438819D02*
X265421238Y-101486438D01*
X265421238Y-101486438D02*
X265468857Y-101534057D01*
X265468857Y-101534057D02*
X265516476Y-101629295D01*
X265516476Y-101629295D02*
X265516476Y-101724533D01*
X265516476Y-101724533D02*
X265468857Y-101867390D01*
X265468857Y-101867390D02*
X264897429Y-102438819D01*
X264897429Y-102438819D02*
X265516476Y-102438819D01*
X265897429Y-101534057D02*
X265945048Y-101486438D01*
X265945048Y-101486438D02*
X266040286Y-101438819D01*
X266040286Y-101438819D02*
X266278381Y-101438819D01*
X266278381Y-101438819D02*
X266373619Y-101486438D01*
X266373619Y-101486438D02*
X266421238Y-101534057D01*
X266421238Y-101534057D02*
X266468857Y-101629295D01*
X266468857Y-101629295D02*
X266468857Y-101724533D01*
X266468857Y-101724533D02*
X266421238Y-101867390D01*
X266421238Y-101867390D02*
X265849810Y-102438819D01*
X265849810Y-102438819D02*
X266468857Y-102438819D01*
X234203142Y-45491580D02*
X234155523Y-45539200D01*
X234155523Y-45539200D02*
X234012666Y-45586819D01*
X234012666Y-45586819D02*
X233917428Y-45586819D01*
X233917428Y-45586819D02*
X233774571Y-45539200D01*
X233774571Y-45539200D02*
X233679333Y-45443961D01*
X233679333Y-45443961D02*
X233631714Y-45348723D01*
X233631714Y-45348723D02*
X233584095Y-45158247D01*
X233584095Y-45158247D02*
X233584095Y-45015390D01*
X233584095Y-45015390D02*
X233631714Y-44824914D01*
X233631714Y-44824914D02*
X233679333Y-44729676D01*
X233679333Y-44729676D02*
X233774571Y-44634438D01*
X233774571Y-44634438D02*
X233917428Y-44586819D01*
X233917428Y-44586819D02*
X234012666Y-44586819D01*
X234012666Y-44586819D02*
X234155523Y-44634438D01*
X234155523Y-44634438D02*
X234203142Y-44682057D01*
X235155523Y-45586819D02*
X234584095Y-45586819D01*
X234869809Y-45586819D02*
X234869809Y-44586819D01*
X234869809Y-44586819D02*
X234774571Y-44729676D01*
X234774571Y-44729676D02*
X234679333Y-44824914D01*
X234679333Y-44824914D02*
X234584095Y-44872533D01*
X235536476Y-44682057D02*
X235584095Y-44634438D01*
X235584095Y-44634438D02*
X235679333Y-44586819D01*
X235679333Y-44586819D02*
X235917428Y-44586819D01*
X235917428Y-44586819D02*
X236012666Y-44634438D01*
X236012666Y-44634438D02*
X236060285Y-44682057D01*
X236060285Y-44682057D02*
X236107904Y-44777295D01*
X236107904Y-44777295D02*
X236107904Y-44872533D01*
X236107904Y-44872533D02*
X236060285Y-45015390D01*
X236060285Y-45015390D02*
X235488857Y-45586819D01*
X235488857Y-45586819D02*
X236107904Y-45586819D01*
X184436476Y-56502819D02*
X184436476Y-57217104D01*
X184436476Y-57217104D02*
X184388857Y-57359961D01*
X184388857Y-57359961D02*
X184293619Y-57455200D01*
X184293619Y-57455200D02*
X184150762Y-57502819D01*
X184150762Y-57502819D02*
X184055524Y-57502819D01*
X185436476Y-57502819D02*
X184865048Y-57502819D01*
X185150762Y-57502819D02*
X185150762Y-56502819D01*
X185150762Y-56502819D02*
X185055524Y-56645676D01*
X185055524Y-56645676D02*
X184960286Y-56740914D01*
X184960286Y-56740914D02*
X184865048Y-56788533D01*
X186341238Y-56502819D02*
X185865048Y-56502819D01*
X185865048Y-56502819D02*
X185817429Y-56979009D01*
X185817429Y-56979009D02*
X185865048Y-56931390D01*
X185865048Y-56931390D02*
X185960286Y-56883771D01*
X185960286Y-56883771D02*
X186198381Y-56883771D01*
X186198381Y-56883771D02*
X186293619Y-56931390D01*
X186293619Y-56931390D02*
X186341238Y-56979009D01*
X186341238Y-56979009D02*
X186388857Y-57074247D01*
X186388857Y-57074247D02*
X186388857Y-57312342D01*
X186388857Y-57312342D02*
X186341238Y-57407580D01*
X186341238Y-57407580D02*
X186293619Y-57455200D01*
X186293619Y-57455200D02*
X186198381Y-57502819D01*
X186198381Y-57502819D02*
X185960286Y-57502819D01*
X185960286Y-57502819D02*
X185865048Y-57455200D01*
X185865048Y-57455200D02*
X185817429Y-57407580D01*
X201016476Y-82134819D02*
X201016476Y-82849104D01*
X201016476Y-82849104D02*
X200968857Y-82991961D01*
X200968857Y-82991961D02*
X200873619Y-83087200D01*
X200873619Y-83087200D02*
X200730762Y-83134819D01*
X200730762Y-83134819D02*
X200635524Y-83134819D01*
X202016476Y-83134819D02*
X201445048Y-83134819D01*
X201730762Y-83134819D02*
X201730762Y-82134819D01*
X201730762Y-82134819D02*
X201635524Y-82277676D01*
X201635524Y-82277676D02*
X201540286Y-82372914D01*
X201540286Y-82372914D02*
X201445048Y-82420533D01*
X202349810Y-82134819D02*
X203016476Y-82134819D01*
X203016476Y-82134819D02*
X202587905Y-83134819D01*
X260202366Y-94525332D02*
X261202366Y-94525332D01*
X261202366Y-94525332D02*
X261402366Y-94591999D01*
X261402366Y-94591999D02*
X261535700Y-94725332D01*
X261535700Y-94725332D02*
X261602366Y-94925332D01*
X261602366Y-94925332D02*
X261602366Y-95058666D01*
X260335700Y-93925332D02*
X260269033Y-93858665D01*
X260269033Y-93858665D02*
X260202366Y-93725332D01*
X260202366Y-93725332D02*
X260202366Y-93391999D01*
X260202366Y-93391999D02*
X260269033Y-93258665D01*
X260269033Y-93258665D02*
X260335700Y-93191999D01*
X260335700Y-93191999D02*
X260469033Y-93125332D01*
X260469033Y-93125332D02*
X260602366Y-93125332D01*
X260602366Y-93125332D02*
X260802366Y-93191999D01*
X260802366Y-93191999D02*
X261602366Y-93991999D01*
X261602366Y-93991999D02*
X261602366Y-93125332D01*
X260202366Y-92658666D02*
X260202366Y-91791999D01*
X260202366Y-91791999D02*
X260735700Y-92258666D01*
X260735700Y-92258666D02*
X260735700Y-92058666D01*
X260735700Y-92058666D02*
X260802366Y-91925332D01*
X260802366Y-91925332D02*
X260869033Y-91858666D01*
X260869033Y-91858666D02*
X261002366Y-91791999D01*
X261002366Y-91791999D02*
X261335700Y-91791999D01*
X261335700Y-91791999D02*
X261469033Y-91858666D01*
X261469033Y-91858666D02*
X261535700Y-91925332D01*
X261535700Y-91925332D02*
X261602366Y-92058666D01*
X261602366Y-92058666D02*
X261602366Y-92458666D01*
X261602366Y-92458666D02*
X261535700Y-92591999D01*
X261535700Y-92591999D02*
X261469033Y-92658666D01*
X250292476Y-113624819D02*
X250292476Y-114339104D01*
X250292476Y-114339104D02*
X250244857Y-114481961D01*
X250244857Y-114481961D02*
X250149619Y-114577200D01*
X250149619Y-114577200D02*
X250006762Y-114624819D01*
X250006762Y-114624819D02*
X249911524Y-114624819D01*
X250721048Y-113720057D02*
X250768667Y-113672438D01*
X250768667Y-113672438D02*
X250863905Y-113624819D01*
X250863905Y-113624819D02*
X251102000Y-113624819D01*
X251102000Y-113624819D02*
X251197238Y-113672438D01*
X251197238Y-113672438D02*
X251244857Y-113720057D01*
X251244857Y-113720057D02*
X251292476Y-113815295D01*
X251292476Y-113815295D02*
X251292476Y-113910533D01*
X251292476Y-113910533D02*
X251244857Y-114053390D01*
X251244857Y-114053390D02*
X250673429Y-114624819D01*
X250673429Y-114624819D02*
X251292476Y-114624819D01*
X252244857Y-114624819D02*
X251673429Y-114624819D01*
X251959143Y-114624819D02*
X251959143Y-113624819D01*
X251959143Y-113624819D02*
X251863905Y-113767676D01*
X251863905Y-113767676D02*
X251768667Y-113862914D01*
X251768667Y-113862914D02*
X251673429Y-113910533D01*
X194754819Y-99622857D02*
X194278628Y-99956190D01*
X194754819Y-100194285D02*
X193754819Y-100194285D01*
X193754819Y-100194285D02*
X193754819Y-99813333D01*
X193754819Y-99813333D02*
X193802438Y-99718095D01*
X193802438Y-99718095D02*
X193850057Y-99670476D01*
X193850057Y-99670476D02*
X193945295Y-99622857D01*
X193945295Y-99622857D02*
X194088152Y-99622857D01*
X194088152Y-99622857D02*
X194183390Y-99670476D01*
X194183390Y-99670476D02*
X194231009Y-99718095D01*
X194231009Y-99718095D02*
X194278628Y-99813333D01*
X194278628Y-99813333D02*
X194278628Y-100194285D01*
X194754819Y-98670476D02*
X194754819Y-99241904D01*
X194754819Y-98956190D02*
X193754819Y-98956190D01*
X193754819Y-98956190D02*
X193897676Y-99051428D01*
X193897676Y-99051428D02*
X193992914Y-99146666D01*
X193992914Y-99146666D02*
X194040533Y-99241904D01*
X194088152Y-97813333D02*
X194754819Y-97813333D01*
X193707200Y-98051428D02*
X194421485Y-98289523D01*
X194421485Y-98289523D02*
X194421485Y-97670476D01*
X189200057Y-56657738D02*
X189152438Y-56752976D01*
X189152438Y-56752976D02*
X189057200Y-56848214D01*
X189057200Y-56848214D02*
X188914342Y-56991071D01*
X188914342Y-56991071D02*
X188866723Y-57086309D01*
X188866723Y-57086309D02*
X188866723Y-57181547D01*
X189104819Y-57133928D02*
X189057200Y-57229166D01*
X189057200Y-57229166D02*
X188961961Y-57324404D01*
X188961961Y-57324404D02*
X188771485Y-57372023D01*
X188771485Y-57372023D02*
X188438152Y-57372023D01*
X188438152Y-57372023D02*
X188247676Y-57324404D01*
X188247676Y-57324404D02*
X188152438Y-57229166D01*
X188152438Y-57229166D02*
X188104819Y-57133928D01*
X188104819Y-57133928D02*
X188104819Y-56943452D01*
X188104819Y-56943452D02*
X188152438Y-56848214D01*
X188152438Y-56848214D02*
X188247676Y-56752976D01*
X188247676Y-56752976D02*
X188438152Y-56705357D01*
X188438152Y-56705357D02*
X188771485Y-56705357D01*
X188771485Y-56705357D02*
X188961961Y-56752976D01*
X188961961Y-56752976D02*
X189057200Y-56848214D01*
X189057200Y-56848214D02*
X189104819Y-56943452D01*
X189104819Y-56943452D02*
X189104819Y-57133928D01*
X188200057Y-56324404D02*
X188152438Y-56276785D01*
X188152438Y-56276785D02*
X188104819Y-56181547D01*
X188104819Y-56181547D02*
X188104819Y-55943452D01*
X188104819Y-55943452D02*
X188152438Y-55848214D01*
X188152438Y-55848214D02*
X188200057Y-55800595D01*
X188200057Y-55800595D02*
X188295295Y-55752976D01*
X188295295Y-55752976D02*
X188390533Y-55752976D01*
X188390533Y-55752976D02*
X188533390Y-55800595D01*
X188533390Y-55800595D02*
X189104819Y-56372023D01*
X189104819Y-56372023D02*
X189104819Y-55752976D01*
X187134819Y-81842857D02*
X186658628Y-82176190D01*
X187134819Y-82414285D02*
X186134819Y-82414285D01*
X186134819Y-82414285D02*
X186134819Y-82033333D01*
X186134819Y-82033333D02*
X186182438Y-81938095D01*
X186182438Y-81938095D02*
X186230057Y-81890476D01*
X186230057Y-81890476D02*
X186325295Y-81842857D01*
X186325295Y-81842857D02*
X186468152Y-81842857D01*
X186468152Y-81842857D02*
X186563390Y-81890476D01*
X186563390Y-81890476D02*
X186611009Y-81938095D01*
X186611009Y-81938095D02*
X186658628Y-82033333D01*
X186658628Y-82033333D02*
X186658628Y-82414285D01*
X187134819Y-80890476D02*
X187134819Y-81461904D01*
X187134819Y-81176190D02*
X186134819Y-81176190D01*
X186134819Y-81176190D02*
X186277676Y-81271428D01*
X186277676Y-81271428D02*
X186372914Y-81366666D01*
X186372914Y-81366666D02*
X186420533Y-81461904D01*
X186134819Y-80557142D02*
X186134819Y-79938095D01*
X186134819Y-79938095D02*
X186515771Y-80271428D01*
X186515771Y-80271428D02*
X186515771Y-80128571D01*
X186515771Y-80128571D02*
X186563390Y-80033333D01*
X186563390Y-80033333D02*
X186611009Y-79985714D01*
X186611009Y-79985714D02*
X186706247Y-79938095D01*
X186706247Y-79938095D02*
X186944342Y-79938095D01*
X186944342Y-79938095D02*
X187039580Y-79985714D01*
X187039580Y-79985714D02*
X187087200Y-80033333D01*
X187087200Y-80033333D02*
X187134819Y-80128571D01*
X187134819Y-80128571D02*
X187134819Y-80414285D01*
X187134819Y-80414285D02*
X187087200Y-80509523D01*
X187087200Y-80509523D02*
X187039580Y-80557142D01*
X192884819Y-52666666D02*
X192408628Y-52999999D01*
X192884819Y-53238094D02*
X191884819Y-53238094D01*
X191884819Y-53238094D02*
X191884819Y-52857142D01*
X191884819Y-52857142D02*
X191932438Y-52761904D01*
X191932438Y-52761904D02*
X191980057Y-52714285D01*
X191980057Y-52714285D02*
X192075295Y-52666666D01*
X192075295Y-52666666D02*
X192218152Y-52666666D01*
X192218152Y-52666666D02*
X192313390Y-52714285D01*
X192313390Y-52714285D02*
X192361009Y-52761904D01*
X192361009Y-52761904D02*
X192408628Y-52857142D01*
X192408628Y-52857142D02*
X192408628Y-53238094D01*
X192313390Y-52095237D02*
X192265771Y-52190475D01*
X192265771Y-52190475D02*
X192218152Y-52238094D01*
X192218152Y-52238094D02*
X192122914Y-52285713D01*
X192122914Y-52285713D02*
X192075295Y-52285713D01*
X192075295Y-52285713D02*
X191980057Y-52238094D01*
X191980057Y-52238094D02*
X191932438Y-52190475D01*
X191932438Y-52190475D02*
X191884819Y-52095237D01*
X191884819Y-52095237D02*
X191884819Y-51904761D01*
X191884819Y-51904761D02*
X191932438Y-51809523D01*
X191932438Y-51809523D02*
X191980057Y-51761904D01*
X191980057Y-51761904D02*
X192075295Y-51714285D01*
X192075295Y-51714285D02*
X192122914Y-51714285D01*
X192122914Y-51714285D02*
X192218152Y-51761904D01*
X192218152Y-51761904D02*
X192265771Y-51809523D01*
X192265771Y-51809523D02*
X192313390Y-51904761D01*
X192313390Y-51904761D02*
X192313390Y-52095237D01*
X192313390Y-52095237D02*
X192361009Y-52190475D01*
X192361009Y-52190475D02*
X192408628Y-52238094D01*
X192408628Y-52238094D02*
X192503866Y-52285713D01*
X192503866Y-52285713D02*
X192694342Y-52285713D01*
X192694342Y-52285713D02*
X192789580Y-52238094D01*
X192789580Y-52238094D02*
X192837200Y-52190475D01*
X192837200Y-52190475D02*
X192884819Y-52095237D01*
X192884819Y-52095237D02*
X192884819Y-51904761D01*
X192884819Y-51904761D02*
X192837200Y-51809523D01*
X192837200Y-51809523D02*
X192789580Y-51761904D01*
X192789580Y-51761904D02*
X192694342Y-51714285D01*
X192694342Y-51714285D02*
X192503866Y-51714285D01*
X192503866Y-51714285D02*
X192408628Y-51761904D01*
X192408628Y-51761904D02*
X192361009Y-51809523D01*
X192361009Y-51809523D02*
X192313390Y-51904761D01*
X246954819Y-114142857D02*
X246478628Y-114476190D01*
X246954819Y-114714285D02*
X245954819Y-114714285D01*
X245954819Y-114714285D02*
X245954819Y-114333333D01*
X245954819Y-114333333D02*
X246002438Y-114238095D01*
X246002438Y-114238095D02*
X246050057Y-114190476D01*
X246050057Y-114190476D02*
X246145295Y-114142857D01*
X246145295Y-114142857D02*
X246288152Y-114142857D01*
X246288152Y-114142857D02*
X246383390Y-114190476D01*
X246383390Y-114190476D02*
X246431009Y-114238095D01*
X246431009Y-114238095D02*
X246478628Y-114333333D01*
X246478628Y-114333333D02*
X246478628Y-114714285D01*
X246954819Y-113190476D02*
X246954819Y-113761904D01*
X246954819Y-113476190D02*
X245954819Y-113476190D01*
X245954819Y-113476190D02*
X246097676Y-113571428D01*
X246097676Y-113571428D02*
X246192914Y-113666666D01*
X246192914Y-113666666D02*
X246240533Y-113761904D01*
X246954819Y-112714285D02*
X246954819Y-112523809D01*
X246954819Y-112523809D02*
X246907200Y-112428571D01*
X246907200Y-112428571D02*
X246859580Y-112380952D01*
X246859580Y-112380952D02*
X246716723Y-112285714D01*
X246716723Y-112285714D02*
X246526247Y-112238095D01*
X246526247Y-112238095D02*
X246145295Y-112238095D01*
X246145295Y-112238095D02*
X246050057Y-112285714D01*
X246050057Y-112285714D02*
X246002438Y-112333333D01*
X246002438Y-112333333D02*
X245954819Y-112428571D01*
X245954819Y-112428571D02*
X245954819Y-112619047D01*
X245954819Y-112619047D02*
X246002438Y-112714285D01*
X246002438Y-112714285D02*
X246050057Y-112761904D01*
X246050057Y-112761904D02*
X246145295Y-112809523D01*
X246145295Y-112809523D02*
X246383390Y-112809523D01*
X246383390Y-112809523D02*
X246478628Y-112761904D01*
X246478628Y-112761904D02*
X246526247Y-112714285D01*
X246526247Y-112714285D02*
X246573866Y-112619047D01*
X246573866Y-112619047D02*
X246573866Y-112428571D01*
X246573866Y-112428571D02*
X246526247Y-112333333D01*
X246526247Y-112333333D02*
X246478628Y-112285714D01*
X246478628Y-112285714D02*
X246383390Y-112238095D01*
X230788819Y-119347523D02*
X231503104Y-119347523D01*
X231503104Y-119347523D02*
X231645961Y-119395142D01*
X231645961Y-119395142D02*
X231741200Y-119490380D01*
X231741200Y-119490380D02*
X231788819Y-119633237D01*
X231788819Y-119633237D02*
X231788819Y-119728475D01*
X230884057Y-118918951D02*
X230836438Y-118871332D01*
X230836438Y-118871332D02*
X230788819Y-118776094D01*
X230788819Y-118776094D02*
X230788819Y-118537999D01*
X230788819Y-118537999D02*
X230836438Y-118442761D01*
X230836438Y-118442761D02*
X230884057Y-118395142D01*
X230884057Y-118395142D02*
X230979295Y-118347523D01*
X230979295Y-118347523D02*
X231074533Y-118347523D01*
X231074533Y-118347523D02*
X231217390Y-118395142D01*
X231217390Y-118395142D02*
X231788819Y-118966570D01*
X231788819Y-118966570D02*
X231788819Y-118347523D01*
X230788819Y-117728475D02*
X230788819Y-117633237D01*
X230788819Y-117633237D02*
X230836438Y-117537999D01*
X230836438Y-117537999D02*
X230884057Y-117490380D01*
X230884057Y-117490380D02*
X230979295Y-117442761D01*
X230979295Y-117442761D02*
X231169771Y-117395142D01*
X231169771Y-117395142D02*
X231407866Y-117395142D01*
X231407866Y-117395142D02*
X231598342Y-117442761D01*
X231598342Y-117442761D02*
X231693580Y-117490380D01*
X231693580Y-117490380D02*
X231741200Y-117537999D01*
X231741200Y-117537999D02*
X231788819Y-117633237D01*
X231788819Y-117633237D02*
X231788819Y-117728475D01*
X231788819Y-117728475D02*
X231741200Y-117823713D01*
X231741200Y-117823713D02*
X231693580Y-117871332D01*
X231693580Y-117871332D02*
X231598342Y-117918951D01*
X231598342Y-117918951D02*
X231407866Y-117966570D01*
X231407866Y-117966570D02*
X231169771Y-117966570D01*
X231169771Y-117966570D02*
X230979295Y-117918951D01*
X230979295Y-117918951D02*
X230884057Y-117871332D01*
X230884057Y-117871332D02*
X230836438Y-117823713D01*
X230836438Y-117823713D02*
X230788819Y-117728475D01*
D11*
%TO.C,R5*%
X198910000Y-57272936D02*
X198910000Y-58727064D01*
X197090000Y-57272936D02*
X197090000Y-58727064D01*
%TO.C,J18*%
X201004000Y-110604000D02*
X202334000Y-110604000D01*
X201004000Y-111934000D02*
X201004000Y-110604000D01*
X201004000Y-113204000D02*
X201004000Y-113264000D01*
X201004000Y-113204000D02*
X203664000Y-113204000D01*
X201004000Y-113264000D02*
X203664000Y-113264000D01*
X203664000Y-113204000D02*
X203664000Y-113264000D01*
%TO.C,R15*%
X195758500Y-125480000D02*
X195758500Y-125370000D01*
X193388500Y-125370000D02*
X198128500Y-125370000D01*
X198128500Y-125370000D02*
X198128500Y-113230000D01*
X193388500Y-113230000D02*
X193388500Y-125370000D01*
X198128500Y-113230000D02*
X193388500Y-113230000D01*
X195758500Y-113120000D02*
X195758500Y-113230000D01*
%TO.C,R20*%
X257181258Y-101788500D02*
X256706742Y-101788500D01*
X257181258Y-100743500D02*
X256706742Y-100743500D01*
%TO.C,Q3*%
X204531000Y-63870000D02*
X199260000Y-63870000D01*
X204531000Y-63870000D02*
X204531000Y-80010000D01*
X199260000Y-63870000D02*
X199260000Y-80010000D01*
X204531000Y-70136000D02*
X199260000Y-70136000D01*
X204531000Y-73745000D02*
X199260000Y-73745000D01*
X204531000Y-80010000D02*
X199260000Y-80010000D01*
%TO.C,R9*%
X194227064Y-62410000D02*
X192772936Y-62410000D01*
X194227064Y-60590000D02*
X192772936Y-60590000D01*
D10*
%TO.C,C13*%
X254300000Y-81990000D02*
X254300000Y-65990000D01*
X269300000Y-81990000D02*
X254300000Y-81990000D01*
X254300000Y-65990000D02*
X254300000Y-49990000D01*
X254300000Y-49990000D02*
X269300000Y-49990000D01*
X269300000Y-49990000D02*
X269300000Y-81990000D01*
D11*
%TO.C,Q4*%
X204531000Y-90010000D02*
X199260000Y-90010000D01*
X204531000Y-90010000D02*
X204531000Y-106150000D01*
X199260000Y-90010000D02*
X199260000Y-106150000D01*
X204531000Y-96276000D02*
X199260000Y-96276000D01*
X204531000Y-99885000D02*
X199260000Y-99885000D01*
X204531000Y-106150000D02*
X199260000Y-106150000D01*
%TO.C,Q6*%
X257300000Y-105916500D02*
X257300000Y-104241500D01*
X257300000Y-105916500D02*
X257300000Y-106566500D01*
X254180000Y-105916500D02*
X254180000Y-105266500D01*
X254180000Y-105916500D02*
X254180000Y-106566500D01*
%TO.C,R10*%
X190762742Y-68477500D02*
X191237258Y-68477500D01*
X190762742Y-69522500D02*
X191237258Y-69522500D01*
%TO.C,J19*%
X191980000Y-121646000D02*
X190650000Y-121646000D01*
X191980000Y-120316000D02*
X191980000Y-121646000D01*
X191980000Y-119046000D02*
X191980000Y-116446000D01*
X191980000Y-119046000D02*
X189320000Y-119046000D01*
X191980000Y-116446000D02*
X189320000Y-116446000D01*
X189320000Y-119046000D02*
X189320000Y-116446000D01*
%TO.C,R17*%
X258967064Y-86936000D02*
X257512936Y-86936000D01*
X258967064Y-85116000D02*
X257512936Y-85116000D01*
%TO.C,R11*%
X191237742Y-93377500D02*
X191712258Y-93377500D01*
X191237742Y-94422500D02*
X191712258Y-94422500D01*
D12*
%TO.C,J16*%
X204620000Y-54550000D02*
X194460000Y-54550000D01*
X204620000Y-44350000D02*
X204620000Y-54550000D01*
X194460000Y-54550000D02*
X194460000Y-44350000D01*
X194460000Y-44350000D02*
X204620000Y-44350000D01*
D13*
X202180000Y-55550000D02*
G75*
G03*
X202180000Y-55550000I-100000J0D01*
G01*
D11*
%TO.C,R6*%
X189022500Y-52262742D02*
X189022500Y-52737258D01*
X187977500Y-52262742D02*
X187977500Y-52737258D01*
%TO.C,R22*%
X260800258Y-109662500D02*
X260325742Y-109662500D01*
X260800258Y-108617500D02*
X260325742Y-108617500D01*
%TO.C,Q5*%
X256980000Y-96361500D02*
X256980000Y-94686500D01*
X256980000Y-96361500D02*
X256980000Y-97011500D01*
X253860000Y-96361500D02*
X253860000Y-95711500D01*
X253860000Y-96361500D02*
X253860000Y-97011500D01*
D12*
%TO.C,L1*%
X222318000Y-64522000D02*
X243818000Y-64522000D01*
X222318000Y-80692000D02*
X222318000Y-64522000D01*
X222318000Y-107022000D02*
X222318000Y-90852000D01*
X243818000Y-64522000D02*
X243818000Y-80692000D01*
X243818000Y-107022000D02*
X222318000Y-107022000D01*
X243818000Y-107022000D02*
X243818000Y-90852000D01*
D11*
%TO.C,R18*%
X256330000Y-89870936D02*
X256330000Y-91325064D01*
X254510000Y-89870936D02*
X254510000Y-91325064D01*
%TO.C,R16*%
X221808000Y-123872000D02*
X221918000Y-123872000D01*
X221918000Y-121502000D02*
X221918000Y-126242000D01*
X221918000Y-126242000D02*
X234058000Y-126242000D01*
X234058000Y-121502000D02*
X221918000Y-121502000D01*
X234058000Y-126242000D02*
X234058000Y-121502000D01*
X234168000Y-123872000D02*
X234058000Y-123872000D01*
%TO.C,Q1*%
X187062500Y-58440000D02*
X185387500Y-58440000D01*
X187062500Y-58440000D02*
X187712500Y-58440000D01*
X187062500Y-61560000D02*
X186412500Y-61560000D01*
X187062500Y-61560000D02*
X187712500Y-61560000D01*
%TO.C,R12*%
X195461500Y-72801258D02*
X195461500Y-72326742D01*
X196506500Y-72801258D02*
X196506500Y-72326742D01*
%TO.C,R21*%
X261087742Y-102267500D02*
X261562258Y-102267500D01*
X261087742Y-103312500D02*
X261562258Y-103312500D01*
%TO.C,J22*%
X263996000Y-102984000D02*
X265326000Y-102984000D01*
X263996000Y-104314000D02*
X263996000Y-102984000D01*
X263996000Y-105584000D02*
X263996000Y-113264000D01*
X263996000Y-105584000D02*
X266656000Y-105584000D01*
X263996000Y-113264000D02*
X266656000Y-113264000D01*
X266656000Y-105584000D02*
X266656000Y-113264000D01*
%TO.C,R7*%
X187977500Y-49062258D02*
X187977500Y-48587742D01*
X189022500Y-49062258D02*
X189022500Y-48587742D01*
D10*
%TO.C,C12*%
X218846000Y-46776000D02*
X234846000Y-46776000D01*
X218846000Y-61776000D02*
X218846000Y-46776000D01*
X234846000Y-46776000D02*
X250846000Y-46776000D01*
X250846000Y-46776000D02*
X250846000Y-61776000D01*
X250846000Y-61776000D02*
X218846000Y-61776000D01*
D11*
%TO.C,J15*%
X184170000Y-45050000D02*
X185500000Y-45050000D01*
X184170000Y-46380000D02*
X184170000Y-45050000D01*
X184170000Y-47650000D02*
X184170000Y-55330000D01*
X184170000Y-47650000D02*
X186830000Y-47650000D01*
X184170000Y-55330000D02*
X186830000Y-55330000D01*
X186830000Y-47650000D02*
X186830000Y-55330000D01*
%TO.C,J17*%
X200496000Y-83680000D02*
X201826000Y-83680000D01*
X200496000Y-85010000D02*
X200496000Y-83680000D01*
X200496000Y-86280000D02*
X200496000Y-86340000D01*
X200496000Y-86280000D02*
X203156000Y-86280000D01*
X200496000Y-86340000D02*
X203156000Y-86340000D01*
X203156000Y-86280000D02*
X203156000Y-86340000D01*
D12*
%TO.C,J23*%
X259164500Y-98726000D02*
X259164500Y-88566000D01*
X269364500Y-98726000D02*
X259164500Y-98726000D01*
X259164500Y-88566000D02*
X269364500Y-88566000D01*
X269364500Y-88566000D02*
X269364500Y-98726000D01*
D13*
X258264500Y-96186000D02*
G75*
G03*
X258264500Y-96186000I-100000J0D01*
G01*
D11*
%TO.C,J21*%
X249772000Y-115170000D02*
X251102000Y-115170000D01*
X249772000Y-116500000D02*
X249772000Y-115170000D01*
X249772000Y-117770000D02*
X249772000Y-120370000D01*
X249772000Y-117770000D02*
X252432000Y-117770000D01*
X249772000Y-120370000D02*
X252432000Y-120370000D01*
X252432000Y-117770000D02*
X252432000Y-120370000D01*
%TO.C,R14*%
X195207500Y-99217258D02*
X195207500Y-98742742D01*
X196252500Y-99217258D02*
X196252500Y-98742742D01*
%TO.C,Q2*%
X189490000Y-56562500D02*
X189490000Y-58237500D01*
X189490000Y-56562500D02*
X189490000Y-55912500D01*
X192610000Y-56562500D02*
X192610000Y-57212500D01*
X192610000Y-56562500D02*
X192610000Y-55912500D01*
%TO.C,R13*%
X187680000Y-88470000D02*
X187680000Y-73930000D01*
X189010000Y-88470000D02*
X187680000Y-88470000D01*
X192290000Y-88470000D02*
X193620000Y-88470000D01*
X193620000Y-88470000D02*
X193620000Y-73930000D01*
X187680000Y-73930000D02*
X189010000Y-73930000D01*
X193620000Y-73930000D02*
X192290000Y-73930000D01*
%TO.C,R8*%
X191522500Y-52262742D02*
X191522500Y-52737258D01*
X190477500Y-52262742D02*
X190477500Y-52737258D01*
%TO.C,R19*%
X246022000Y-110940000D02*
X246022000Y-111050000D01*
X248392000Y-111050000D02*
X243652000Y-111050000D01*
X243652000Y-111050000D02*
X243652000Y-123190000D01*
X248392000Y-123190000D02*
X248392000Y-111050000D01*
X243652000Y-123190000D02*
X248392000Y-123190000D01*
X246022000Y-123300000D02*
X246022000Y-123190000D01*
%TO.C,J20*%
X230334000Y-117208000D02*
X230334000Y-118538000D01*
X229004000Y-117208000D02*
X230334000Y-117208000D01*
X227734000Y-117208000D02*
X225134000Y-117208000D01*
X227734000Y-117208000D02*
X227734000Y-119868000D01*
X225134000Y-117208000D02*
X225134000Y-119868000D01*
X227734000Y-119868000D02*
X225134000Y-119868000D01*
%TD*%
D14*
%TO.C,C13*%
X261800000Y-79990000D03*
X261800000Y-51990000D03*
%TD*%
%TO.C,C12*%
X220846000Y-54276000D03*
X248846000Y-54276000D03*
%TD*%
M02*
