M48
; DRILL file {KiCad 7.0.9} date Fri Dec  8 23:39:57 2023
; FORMAT={-:-/ absolute / inch / decimal}
; #@! TF.CreationDate,2023-12-08T23:39:57+01:00
; #@! TF.GenerationSoftware,Kicad,Pcbnew,7.0.9
; #@! TF.FileFunction,Plated,1,2,PTH
FMAT,2
INCH
; #@! TA.AperFunction,Plated,PTH,ComponentDrill
T1C0.0300
; #@! TA.AperFunction,Plated,PTH,ComponentDrill
T2C0.0394
; #@! TA.AperFunction,Plated,PTH,ComponentDrill
T3C0.0472
; #@! TA.AperFunction,Plated,PTH,ComponentDrill
T4C0.0551
; #@! TA.AperFunction,Plated,PTH,ComponentDrill
T5C0.0591
; #@! TA.AperFunction,Plated,PTH,ComponentDrill
T6C0.0630
; #@! TA.AperFunction,Plated,PTH,ComponentDrill
T7C0.1575
%
G90
G05
T1
X7.507Y-4.4969
X7.507Y-4.8969
X8.7759Y-4.6769
X9.1759Y-4.6769
X9.8859Y-4.411
X9.8859Y-4.811
T2
X7.2659Y-3.3509
X7.2659Y-3.4509
X7.2659Y-3.5509
X7.2659Y-3.6509
X7.3031Y-1.826
X7.3031Y-1.926
X7.3031Y-2.026
X7.3031Y-2.126
X7.5059Y-4.6369
X7.5059Y-4.7369
X7.9459Y-3.3469
X7.9659Y-4.4069
X8.9159Y-4.6669
X9.0159Y-4.6669
X9.8859Y-4.5866
X9.8859Y-4.6866
X10.4459Y-4.1069
X10.4459Y-4.2069
X10.4459Y-4.3069
X10.4459Y-4.4069
T3
X7.707Y-4.3969
X7.707Y-4.9969
X8.6759Y-4.8769
X8.6947Y-2.1369
X9.2759Y-4.8769
X9.6859Y-4.311
X9.6859Y-4.911
X9.7971Y-2.1369
X10.3071Y-2.0469
X10.3071Y-3.1492
T4
X7.5059Y-2.8969
X7.5059Y-3.4969
T5
X7.9559Y-2.6177
X7.9559Y-2.8323
X7.9559Y-3.0469
X7.9559Y-3.6469
X7.9559Y-3.8614
X7.9559Y-4.076
T6
X7.7559Y-1.9469
X7.9559Y-1.9469
X10.4041Y-3.5869
X10.4041Y-3.7869
T7
X8.7842Y-3.3769
X9.5676Y-3.3769
T0
M30
